<svg width="53" height="56" viewBox="0 0 53 56" fill="none" xmlns="http://www.w3.org/2000/svg">
<path d="M49.0495 48.8086H38.9662C38.2664 46.5399 36.1504 44.8865 33.6552 44.8865H27.8059V37.9415L36.1064 29.6406H49.0495V48.8086ZM33.6552 52.7188H18.6752C17.4206 52.7188 16.3999 51.6983 16.3999 50.4438C16.3999 49.1888 17.4206 48.1678 18.6752 48.1678H33.6552C34.91 48.1678 35.9307 49.1888 35.9307 50.4438C35.9307 51.6983 34.91 52.7188 33.6552 52.7188ZM3.28125 7.19808H13.3661C14.0677 9.46323 16.1822 11.1136 18.6752 11.1136H24.5246V18.0597L15.7437 26.8399C15.436 27.1475 15.2631 27.5648 15.2631 28C15.2631 28.4352 15.4359 28.8524 15.7435 29.16L24.5246 37.9415V44.8865H18.6752C16.1801 44.8865 14.0642 46.5399 13.3644 48.8086H3.28125V7.19808ZM18.6752 3.28125H33.6552C34.91 3.28125 35.9307 4.30237 35.9307 5.55745C35.9307 6.81177 34.91 7.83234 33.6552 7.83234H18.6752C17.4206 7.83234 16.3999 6.81177 16.3999 5.55745C16.3999 4.30237 17.4206 3.28125 18.6752 3.28125ZM26.1652 34.9417L19.224 28L26.1652 21.0594L33.1066 28L26.1652 34.9417ZM50.6902 26.3594H36.1063L27.8059 18.0597V11.1136H33.6552C36.7193 11.1136 39.2119 8.62105 39.2119 5.55745C39.2119 2.49298 36.7193 0 33.6552 0H18.6752C16.1821 0 14.0675 1.6508 13.366 3.91683H1.64062C0.734562 3.91683 0 4.65117 0 5.55745V50.4492C0 51.3553 0.734562 52.0898 1.64062 52.0898H13.3676C14.0709 54.3525 16.1842 56 18.6752 56H33.6552C36.1464 56 38.2597 54.3525 38.963 52.0898H50.6902C51.5962 52.0898 52.3308 51.3553 52.3308 50.4492V28C52.3308 27.0939 51.5962 26.3594 50.6902 26.3594Z" fill="#A5AEB7"/>
<rect x="23" y="28.1287" width="4.4246" height="4.4246" transform="rotate(-45 23 28.1287)" fill="#EEC912"/>
</svg>
