<svg width="160" height="141" viewBox="0 0 160 141" fill="none" xmlns="http://www.w3.org/2000/svg">
<path d="M140.846 72.0817V72.9069L141.656 73.0635C151.49 74.964 158.939 83.6382 158.939 94.0147C158.939 104.404 151.474 113.084 141.625 114.973L140.853 115.121L140.814 115.906C140.152 129.302 129.043 140 115.486 140H44.4537C30.8954 140 19.7858 129.302 19.1242 115.906L19.0854 115.121L18.3137 114.973C8.46527 113.084 1 104.404 1 94.0147C1 83.6387 8.44944 74.964 18.2828 73.0635L19.0931 72.9069V72.0817V70.2409C19.0931 56.2579 30.4707 44.8802 44.4537 44.8802H75.7225H76.7225V43.8802V32.6171V31.8477L75.9788 31.6505C69.3111 29.8826 64.3838 23.7965 64.3838 16.5855C64.3838 7.99189 71.3769 1 79.97 1C88.5632 1 95.5553 7.99181 95.5553 16.5855C95.5553 23.7965 90.6283 29.8824 83.96 31.6505L83.2163 31.8477V32.6171V43.8802V44.8802H84.2163H115.485C129.468 44.8802 140.846 56.2577 140.846 70.2409V72.0817ZM17.7857 108.143L19.0931 108.566V107.192V80.8386V79.4645L17.7856 79.887C11.8237 81.8136 7.49495 87.4141 7.49495 94.0145C7.49495 100.616 11.8236 106.217 17.7857 108.143ZM140.846 107.192V108.565L142.153 108.143C148.115 106.217 152.444 100.616 152.444 94.0147C152.444 87.4142 148.115 81.8138 142.153 79.8872L140.846 79.4647V80.8388V107.192ZM79.9695 7.49427C74.9553 7.49427 70.8783 11.5719 70.8783 16.5855C70.8783 21.5987 74.9553 25.6768 79.9695 25.6768C84.9833 25.6768 89.0608 21.599 89.0608 16.5855C89.0608 11.5721 84.9833 7.49427 79.9695 7.49427ZM115.485 133.505C125.889 133.505 134.352 125.043 134.352 114.639V70.2409C134.352 59.8374 125.889 51.3752 115.486 51.3752H44.4537C34.0497 51.3752 25.5874 59.8374 25.5874 70.2409V114.639C25.5874 125.043 34.0497 133.505 44.4537 133.505H115.485Z" fill="#A5AEB7" stroke="#F1F4F9" stroke-width="2"/>
<path d="M91.3943 110H68.2475C66.4537 110 65 111.454 65 113.246C65 115.04 66.4538 116.494 68.2475 116.494H91.3947C93.1876 116.494 94.6417 115.04 94.6418 113.246L91.3943 110ZM91.3943 110C93.1878 110 94.6415 111.454 94.6418 113.246L91.3943 110Z" fill="#A5AEB7" stroke="#F1F4F9" stroke-width="2"/>
<path d="M98.4436 79.7804C99.3016 79.7812 100.124 80.1286 100.731 80.7465C101.338 81.3643 101.68 82.2022 101.682 83.0766V83.297C101.681 84.1719 101.34 85.0107 100.732 85.6293C100.125 86.248 99.3022 86.596 98.4436 86.5971H98.228C97.3699 86.596 96.5472 86.2484 95.9402 85.6304C95.3331 85.0125 94.9913 84.1745 94.9894 83.3001V83.0766C94.9905 82.2017 95.332 81.363 95.9392 80.7445C96.5463 80.1259 97.3695 79.7781 98.228 79.7773H98.4436M86.7902 69C86.5062 68.9995 86.2249 69.0561 85.9625 69.1665C85.7 69.277 85.4615 69.4391 85.2606 69.6437C85.0597 69.8482 84.9004 70.0912 84.7919 70.3585C84.6833 70.6259 84.6275 70.9125 84.6278 71.2019V88.8005C84.6385 89.3768 84.8706 89.9258 85.2743 90.3295C85.678 90.7333 86.2211 90.9595 86.7868 90.9595C87.3524 90.9595 87.8955 90.7333 88.2992 90.3295C88.7029 89.9258 88.9351 89.3768 88.9457 88.8005V71.2019C88.946 70.9128 88.8904 70.6264 88.782 70.3593C88.6736 70.0921 88.5146 69.8493 88.314 69.6448C88.1135 69.4403 87.8753 69.2781 87.6132 69.1674C87.3511 69.0568 87.0701 68.9999 86.7864 69H86.7902ZM80.3161 69C80.0319 68.9991 79.7502 69.0554 79.4874 69.1657C79.2246 69.2759 78.9857 69.438 78.7845 69.6426C78.5833 69.8472 78.4238 70.0902 78.315 70.3578C78.2062 70.6254 78.1504 70.9122 78.1507 71.2019C78.151 71.4908 78.2071 71.7769 78.3159 72.0437C78.4247 72.3106 78.584 72.5529 78.7847 72.757C78.9855 72.9611 79.2237 73.123 79.4858 73.2333C79.7479 73.3435 80.0287 73.4002 80.3123 73.3999C80.8841 73.3992 81.4323 73.1674 81.8366 72.7554C82.2409 72.3433 82.4681 71.7846 82.4685 71.2019C82.4688 70.913 82.4133 70.6269 82.3051 70.36C82.1969 70.093 82.0382 69.8503 81.8379 69.6459C81.6377 69.4414 81.3999 69.2792 81.1381 69.1683C80.8764 69.0575 80.5957 69.0003 80.3123 69H80.3161ZM75.5938 69C73.989 69 72.5403 69.5526 71.279 70.6392C71.1495 70.7502 71.0223 70.865 70.8982 70.9877C69.8616 72.0021 69.1029 73.2384 68.3702 74.4336C66.9345 76.7744 66.1614 77.7997 64.8034 77.7997C63.4453 77.7997 62.6707 76.7744 61.2365 74.4336C60.503 73.2384 59.7452 72.0021 58.7078 70.9877C58.5829 70.865 58.4549 70.7502 58.327 70.6392C57.0657 69.5526 55.6162 69.0008 54.0114 69V73.3999V88.8005C54.0114 89.3838 54.2388 89.9433 54.6436 90.3558C55.0484 90.7683 55.5975 91 56.17 91C56.4535 91.0001 56.7343 90.9433 56.9962 90.8328C57.2582 90.7223 57.4963 90.5603 57.6968 90.356C57.8973 90.1518 58.0564 89.9093 58.1649 89.6424C58.2734 89.3755 58.3293 89.0894 58.3293 88.8005V77.965C58.848 78.7605 59.4154 79.5359 60.1062 80.2158C61.4551 81.5352 63.0363 82.2042 64.8064 82.2042C66.5765 82.2042 68.1577 81.5352 69.5066 80.2158C70.1974 79.5398 70.7649 78.7644 71.2836 77.9689V88.8005C71.2836 89.3838 71.511 89.9433 71.9158 90.3558C72.3206 90.7683 72.8696 91 73.4421 91C74.0127 90.9971 74.559 90.7641 74.9615 90.3519C75.364 89.9398 75.59 89.3819 75.59 88.8005V73.3999V69H75.5938ZM98.4535 75.3797H98.2379C97.245 75.3783 96.2615 75.5763 95.3436 75.9624C94.4258 76.3486 93.5917 76.9152 92.8889 77.6301C92.1861 78.3449 91.6285 79.1938 91.2479 80.1284C90.8673 81.0629 90.6712 82.0647 90.6708 83.0766V83.297C90.6708 84.3082 90.8663 85.3095 91.2461 86.2438C91.6259 87.178 92.1826 88.0269 92.8843 88.7419C93.5861 89.4569 94.4192 90.0241 95.3361 90.411C96.2529 90.7979 97.2356 90.997 98.228 90.9969H98.4436C99.4359 90.9969 100.419 90.7977 101.335 90.4108C102.252 90.0238 103.085 89.4566 103.787 88.7416C104.488 88.0266 105.045 87.1778 105.425 86.2436C105.805 85.3094 106 84.3081 106 83.297V83.0766C106 82.0654 105.805 81.0641 105.425 80.1299C105.045 79.1957 104.488 78.3469 103.787 77.6319C102.37 76.1879 100.448 75.3766 98.4436 75.3766L98.4535 75.3797ZM80.3123 75.6002C80.0286 75.5998 79.7477 75.6563 79.4855 75.7666C79.2233 75.8769 78.985 76.0388 78.7843 76.243C78.5835 76.4472 78.4242 76.6897 78.3155 76.9567C78.2068 77.2237 78.1508 77.5099 78.1507 77.7989V88.8005C78.1613 89.3768 78.3934 89.9258 78.7972 90.3295C79.2009 90.7333 79.7439 90.9595 80.3096 90.9595C80.8753 90.9595 81.4183 90.7333 81.8221 90.3295C82.2258 89.9258 82.4579 89.3768 82.4685 88.8005V77.7989C82.4683 77.2161 82.2411 76.6572 81.8369 76.2449C81.4326 75.8327 80.8842 75.6008 80.3123 75.6002Z" fill="#EEC912"/>
</svg>
