<svg width="54" height="57" viewBox="0 0 54 57" fill="none" xmlns="http://www.w3.org/2000/svg">
<path d="M7.56484 54C7.56484 54.6633 7.30172 55.2993 6.83356 55.768C6.36544 56.2368 5.73066 56.5 5.06892 56.5C4.40718 56.5 3.7724 56.2368 3.30428 55.768C2.83612 55.2993 2.573 54.6633 2.573 54V36.0002C2.573 35.3369 2.83612 34.701 3.30428 34.2322C3.7724 33.7634 4.40718 33.5002 5.06892 33.5002C5.73066 33.5002 6.36544 33.7634 6.83356 34.2322C7.30172 34.701 7.56484 35.3369 7.56484 36.0002V54ZM22.5445 54C22.5445 54.6633 22.2813 55.2993 21.8132 55.768C21.3451 56.2368 20.7103 56.5 20.0485 56.5C19.3868 56.5 18.752 56.2368 18.2839 55.768C17.8157 55.2993 17.5526 54.6633 17.5526 54V27.0002C17.5526 26.337 17.8157 25.701 18.2839 25.2323C18.752 24.7635 19.3868 24.5003 20.0485 24.5003C20.7103 24.5003 21.3451 24.7635 21.8132 25.2323C22.2813 25.701 22.5445 26.337 22.5445 27.0002V54ZM37.5241 54C37.5241 54.6633 37.2609 55.2993 36.7928 55.768C36.3247 56.2368 35.6899 56.5 35.0281 56.5C34.3664 56.5 33.7316 56.2368 33.2635 55.768C32.7954 55.2993 32.5322 54.6633 32.5322 54V30.0002C32.5322 29.337 32.7954 28.701 33.2635 28.2322C33.7316 27.7635 34.3664 27.5002 35.0281 27.5002C35.6899 27.5002 36.3247 27.7635 36.7928 28.2322C37.2609 28.701 37.5241 29.337 37.5241 30.0002V54ZM52.5037 54C52.5037 54.6633 52.2406 55.2993 51.7724 55.768C51.3043 56.2368 50.6695 56.5 50.0078 56.5C49.346 56.5 48.7112 56.2368 48.2431 55.768C47.775 55.2993 47.5118 54.6633 47.5118 54V21.0003C47.5118 20.337 47.775 19.7011 48.2431 19.2323C48.7112 18.7635 49.346 18.5003 50.0078 18.5003C50.6695 18.5003 51.3043 18.7635 51.7724 19.2323C52.2406 19.7011 52.5037 20.337 52.5037 21.0003V54Z" fill="#A5AEB7" stroke="white"/>
<path d="M18.9743 6.68057C18.5644 6.51657 18.1184 6.46441 17.6818 6.52937C17.2452 6.59434 16.8335 6.77412 16.4888 7.05045L16.4887 7.05057L1.50908 19.0505L1.50314 19.0552L1.49705 19.0598C1.22974 19.2609 1.00545 19.5138 0.837537 19.8034C0.669621 20.093 0.561506 20.4135 0.519638 20.7458C0.47777 21.0782 0.503007 21.4155 0.593843 21.7379C0.684678 22.0602 0.839253 22.361 1.04836 22.6223C1.25746 22.8836 1.51683 23.1002 1.81104 23.2591C2.10525 23.4181 2.42832 23.5162 2.76107 23.5477C3.09382 23.5792 3.4295 23.5434 3.74821 23.4425C4.06692 23.3416 4.36217 23.1776 4.61644 22.9602L5.44138 22.2548V22.3019L18.2422 12.0451L18.4699 11.8627L18.7407 11.9711L32.1025 17.3201L32.1027 17.3202C32.4785 17.4708 32.8851 17.5277 33.2877 17.4859C33.6901 17.4441 34.0764 17.305 34.4133 17.0804L18.9743 6.68057ZM18.9743 6.68057L32.4918 12.0925L32.7362 12.1904L32.9552 12.0442L49.6186 0.920233L49.6187 0.920156C50.1694 0.552287 50.8434 0.418609 51.4925 0.548406C52.1415 0.678205 52.7127 1.06091 53.0802 1.61258C53.4477 2.16428 53.5814 2.83968 53.4516 3.49017C53.3219 4.1406 52.9395 4.7126 52.3888 5.08049C52.3888 5.08052 52.3887 5.08054 52.3887 5.08057L34.4135 17.0803L18.9743 6.68057Z" fill="#EEC912" stroke="white"/>
</svg>
