<svg width="108" height="107" viewBox="0 0 108 107" fill="none" xmlns="http://www.w3.org/2000/svg">
<path d="M106.474 0.592319C106.289 0.404688 106.068 0.255713 105.825 0.154039C105.582 0.0523646 105.321 0 105.057 0C104.793 0 104.532 0.0523646 104.289 0.154039C104.045 0.255713 103.824 0.404688 103.639 0.592319L83.5773 20.6541H22.6697C22.3854 20.6519 22.1041 20.7118 21.8454 20.8296C21.5866 20.9474 21.3568 21.1203 21.1718 21.3362C20.9811 21.5485 20.8383 21.7993 20.7529 22.0715C20.6675 22.3438 20.6416 22.6312 20.6769 22.9144L30.9753 105.301C31.049 105.776 31.2907 106.209 31.6564 106.521C32.0221 106.832 32.4876 107.002 32.9681 107H84.46C84.9485 107.001 85.4206 106.823 85.7875 106.5C86.1544 106.178 86.391 105.733 86.4529 105.248L96.7512 22.8609C96.7865 22.5777 96.7606 22.2903 96.6752 22.018C96.5899 21.7458 96.447 21.495 96.2563 21.2827C96.0713 21.0668 95.8415 20.8939 95.5828 20.7761C95.324 20.6583 95.0427 20.5984 94.7584 20.6006H89.3016L106.474 3.42771C106.662 3.24236 106.811 3.02161 106.913 2.77825C107.014 2.53489 107.067 2.27376 107.067 2.01001C107.067 1.74627 107.014 1.48514 106.913 1.24178C106.811 0.998419 106.662 0.777673 106.474 0.592319ZM79.6184 24.6664L63.034 41.2508H27.0165L24.9434 24.6664H79.6184ZM82.6946 103.041H34.7336L27.5113 45.2632H89.9168L82.6946 103.041ZM92.4847 24.6664L90.4117 41.2508H68.7048L85.2892 24.6664H92.4847Z" fill="#A5AEB7"/>
<path d="M38.6524 6.69117C36.5567 4.57788 34.0642 2.89926 31.3182 1.75169C28.5721 0.604116 25.6264 0.0101821 22.6502 0.00395571C19.674 -0.00227064 16.7259 0.579371 13.975 1.71544C11.2242 2.85152 8.72475 4.51965 6.62025 6.62416C4.51574 8.72866 2.84757 11.2281 1.7115 13.9789C0.575424 16.7298 -0.00617689 19.6779 4.94678e-05 22.6541C0.00627582 25.6304 0.600209 28.576 1.74778 31.3221C2.89535 34.0682 4.57398 36.5606 6.68727 38.6563C7.06343 39.032 7.57332 39.243 8.10496 39.243C8.6366 39.243 9.1465 39.032 9.52266 38.6563L38.6524 9.52657C39.028 9.15041 39.239 8.64051 39.239 8.10887C39.239 7.57723 39.028 7.06733 38.6524 6.69117ZM8.18521 11.0245L17.8282 20.6676H4.1862C4.55688 17.1135 5.94547 13.7419 8.18521 10.9577V11.0245ZM11.0206 8.18911C13.7847 5.95636 17.1315 4.56378 20.6636 4.17676V17.8188L11.0206 8.18911ZM8.18521 34.3229C5.93855 31.5671 4.54419 28.216 4.17285 24.6799H17.8015L8.18521 34.3229ZM24.676 17.8321V4.13664C28.2121 4.50798 31.5632 5.90234 34.319 8.14899L24.676 17.8321Z" fill="#EEC912"/>
<path d="M48.4158 67.9328C48.1532 67.9351 47.8928 67.8854 47.6495 67.7867C47.4062 67.688 47.1848 67.5422 46.9981 67.3577L39.709 60.0686C39.3397 59.689 39.1331 59.1804 39.1331 58.6509C39.1331 58.1213 39.3397 57.6127 39.709 57.2332L46.9981 49.9441C47.3759 49.5716 47.8852 49.3628 48.4158 49.3628C48.9463 49.3628 49.4556 49.5716 49.8334 49.9441L57.1226 57.2332C57.4919 57.6127 57.6985 58.1213 57.6985 58.6509C57.6985 59.1804 57.4919 59.689 57.1226 60.0686L49.8334 67.3577C49.6467 67.5422 49.4253 67.688 49.182 67.7867C48.9387 67.8854 48.6783 67.9351 48.4158 67.9328ZM43.9754 58.6509L48.4158 63.0912L52.8561 58.6509L48.4158 54.2105L43.9754 58.6509ZM74.1617 76.0377H63.8633C63.3313 76.0377 62.821 75.8264 62.4447 75.4501C62.0685 75.0739 61.8572 74.5636 61.8572 74.0315V63.7332C61.8572 63.2011 62.0685 62.6908 62.4447 62.3146C62.821 61.9384 63.3313 61.727 63.8633 61.727H74.1617C74.6938 61.727 75.204 61.9384 75.5802 62.3146C75.9565 62.6908 76.1679 63.2011 76.1679 63.7332V74.0315C76.1769 74.3006 76.1316 74.5687 76.0348 74.8198C75.938 75.071 75.7917 75.3001 75.6045 75.4936C75.4173 75.687 75.1931 75.8408 74.9452 75.9458C74.6974 76.0508 74.4309 76.1048 74.1617 76.1046V76.0377ZM65.8695 72.0254H72.1556V65.7394H65.8695V72.0254ZM58.7141 98.7744C58.1842 98.7775 57.6745 98.5707 57.2964 98.1993L50.0073 90.9503C49.6349 90.5725 49.4261 90.0632 49.4261 89.5326C49.4261 89.0021 49.6349 88.4928 50.0073 88.1149L57.2964 80.8258C57.6807 80.4657 58.1875 80.2652 58.7141 80.2652C59.2408 80.2652 59.7476 80.4657 60.1318 80.8258L67.4209 88.1149C67.7902 88.4945 67.9968 89.0031 67.9968 89.5326C67.9968 90.0622 67.7902 90.5708 67.4209 90.9503L60.1318 98.2395C59.756 98.6158 59.246 98.8275 58.7141 98.8279V98.7744ZM54.2738 89.6129L58.7141 94.0532L63.1545 89.6129L58.7141 85.1725L54.2738 89.6129Z" fill="#EEC912"/>
</svg>
