<svg width="80" height="80" viewBox="0 0 80 80" fill="none" xmlns="http://www.w3.org/2000/svg">
<path d="M38.2273 41.8182V42.3182H38.7273H67.7727C68.4983 42.3182 69.1928 42.6024 69.7037 43.1062C70.2144 43.6097 70.5 44.291 70.5 45C70.5 54.1477 66.8143 62.9221 60.2513 69.3927C53.688 75.8635 44.7848 79.5 35.5 79.5C26.2152 79.5 17.312 75.8635 10.7487 69.3927C4.18574 62.9221 0.5 54.1477 0.5 45C0.5 35.8523 4.18574 27.0779 10.7487 20.6073C17.312 14.1365 26.2152 10.5 35.5 10.5C36.2256 10.5 36.9201 10.7842 37.431 11.288C37.9417 11.7915 38.2273 12.4729 38.2273 13.1818V41.8182ZM32.7727 16.5545V15.9967L32.2182 16.0575C26.6887 16.6641 21.4447 18.798 17.0901 22.2144C12.7354 25.6309 9.44703 30.1912 7.60458 35.3709C5.76211 40.5506 5.44082 46.1383 6.67785 51.4903C7.91487 56.8424 10.6597 61.7402 14.5952 65.6203C18.5307 69.5004 23.4969 72.205 28.9215 73.4238C34.3462 74.6425 40.0097 74.326 45.2601 72.5106C50.5106 70.6952 55.1353 67.4544 58.6012 63.1604C62.0671 58.8662 64.233 53.6936 64.8487 48.2379L64.9114 47.6818H64.3518H38.7273C37.1458 47.6818 35.6304 47.0623 34.5143 45.9619C33.3983 44.8617 32.7727 43.371 32.7727 41.8182V16.5545Z" fill="#DDDDDD" stroke="#F1F4F9"/>
<path d="M47.8333 31.6667V32.1667H48.3333H73.4767H74.0359L73.9735 31.6109C73.2403 25.0779 70.3091 18.9879 65.6606 14.3394C61.0121 9.69088 54.9221 6.7597 48.3891 6.02645L47.8333 5.96408V6.52333V31.6667ZM76.8333 37.5H48.3333C46.7862 37.5 45.3025 36.8854 44.2085 35.7915C43.1146 34.6975 42.5 33.2138 42.5 31.6667V3.16667C42.5 2.45942 42.7809 1.78114 43.281 1.28105C43.7811 0.780952 44.4594 0.5 45.1667 0.5C54.2724 0.5 63.0053 4.11725 69.444 10.556C75.8828 16.9947 79.5 25.7276 79.5 34.8333C79.5 35.5406 79.2191 36.2189 78.719 36.719C78.2189 37.219 77.5406 37.5 76.8333 37.5Z" fill="#EEC912" stroke="#F1F4F9"/>
</svg>
