<svg width="102" height="114" viewBox="0 0 102 114" fill="none" xmlns="http://www.w3.org/2000/svg">
<path d="M53.2503 92.6605H48.4122C47.2065 92.6605 46.05 92.1826 45.1961 91.3313C44.3422 90.4801 43.8607 89.3251 43.8569 88.1194V87.016C40.451 86.2367 37.1995 84.8931 34.2371 83.0408L33.4732 83.8047C32.6069 84.6339 31.454 85.0967 30.2548 85.0967C29.0556 85.0967 27.9027 84.6339 27.0364 83.8047L23.6129 80.3812C22.7603 79.5271 22.2814 78.3696 22.2814 77.1628C22.2814 75.9559 22.7603 74.7985 23.6129 73.9444L24.391 73.1805C22.5387 70.2181 21.195 66.9666 20.4158 63.5607H19.3123C18.1067 63.5569 16.9516 63.0754 16.1004 62.2215C15.2492 61.3677 14.7712 60.2111 14.7712 59.0054V54.1673C14.7712 52.9616 15.2492 51.8051 16.1004 50.9512C16.9516 50.0973 18.1067 49.6158 19.3123 49.612H20.4158C21.195 46.2062 22.5387 42.9547 24.391 39.9922L23.6271 39.2283C23.2032 38.8064 22.8669 38.3048 22.6373 37.7525C22.4078 37.2002 22.2897 36.608 22.2897 36.0099C22.2897 35.4118 22.4078 34.8197 22.6373 34.2674C22.8669 33.7151 23.2032 33.2135 23.6271 32.7916L27.0506 29.3681C27.4725 28.9442 27.9741 28.6078 28.5264 28.3783C29.0787 28.1488 29.6709 28.0306 30.269 28.0306C30.8671 28.0306 31.4593 28.1488 32.0116 28.3783C32.5639 28.6078 33.0654 28.9442 33.4873 29.3681L34.2513 30.132C37.2137 28.2796 40.4652 26.936 43.871 26.1567V25.0533C43.8748 23.8476 44.3564 22.6926 45.2102 21.8414C46.0641 20.9902 47.2206 20.5122 48.4263 20.5122H53.2645C54.4702 20.5122 55.6267 20.9902 56.4805 21.8414C57.3344 22.6926 57.816 23.8476 57.8197 25.0533V26.1567C61.2256 26.936 64.4771 28.2796 67.4395 30.132L68.2035 29.3539C69.0594 28.5047 70.2161 28.0282 71.4218 28.0282C72.6275 28.0282 73.7843 28.5047 74.6402 29.3539L78.0637 32.7916C78.4893 33.2125 78.8271 33.7138 79.0577 34.2662C79.2883 34.8186 79.4071 35.4113 79.4071 36.0099C79.4071 36.6086 79.2883 37.2013 79.0577 37.7537C78.8271 38.3061 78.4893 38.8074 78.0637 39.2283L77.2998 39.9922C79.1522 42.9547 80.4958 46.2062 81.275 49.612H82.3784C83.5841 49.6158 84.7392 50.0973 85.5904 50.9512C86.4416 51.8051 86.9196 52.9616 86.9196 54.1673V59.0054C86.9196 60.2111 86.4416 61.3677 85.5904 62.2215C84.7392 63.0754 83.5841 63.5569 82.3784 63.5607H81.275C80.4958 66.9666 79.1522 70.2181 77.2998 73.1805L78.0637 73.9444C78.4876 74.3664 78.824 74.8678 79.0535 75.4202C79.283 75.9725 79.4011 76.5647 79.4011 77.1628C79.4011 77.7609 79.283 78.3531 79.0535 78.9054C78.824 79.4577 78.4876 79.9592 78.0637 80.3812L74.6402 83.8047C74.2183 84.2285 73.7167 84.5649 73.1644 84.7944C72.6121 85.0239 72.0199 85.1421 71.4218 85.1421C70.8237 85.1421 70.2315 85.0239 69.6792 84.7944C69.1269 84.5649 68.6254 84.2285 68.2035 83.8047L67.4395 83.0408C64.4771 84.8931 61.2256 86.2367 57.8197 87.016V88.1194C57.8179 88.7176 57.6982 89.3096 57.4676 89.8616C57.2369 90.4135 56.8998 90.9147 56.4755 91.3363C56.0512 91.758 55.548 92.092 54.9946 92.3192C54.4412 92.5464 53.8485 92.6624 53.2503 92.6605ZM33.742 77.5377L35.1567 78.5704C38.4668 80.9379 42.2754 82.5156 46.2902 83.1822L48.0585 83.4793V88.1194C48.0585 88.1596 48.0666 88.1995 48.0824 88.2365C48.0982 88.2735 48.1214 88.3069 48.1505 88.3347C48.1796 88.3624 48.214 88.384 48.2517 88.3981C48.2894 88.4122 48.3295 88.4184 48.3697 88.4165H53.2079C53.2481 88.4184 53.2882 88.4122 53.3259 88.3981C53.3636 88.384 53.3981 88.3624 53.4272 88.3347C53.4563 88.3069 53.4794 88.2735 53.4952 88.2365C53.511 88.1995 53.5192 88.1596 53.5191 88.1194V83.4652L55.2875 83.168C59.3022 82.5014 63.1108 80.9238 66.4209 78.5563L67.8356 77.5235L71.1177 80.7914C71.1442 80.8215 71.1769 80.8456 71.2135 80.8621C71.25 80.8786 71.2897 80.8872 71.3298 80.8872C71.37 80.8872 71.4097 80.8786 71.4462 80.8621C71.4828 80.8456 71.5155 80.8215 71.5421 80.7914L74.9656 77.3679C74.9957 77.3414 75.0198 77.3087 75.0363 77.2722C75.0528 77.2356 75.0613 77.1958 75.0613 77.1557C75.0613 77.1155 75.0528 77.0759 75.0363 77.0393C75.0198 77.0027 74.9957 76.9701 74.9656 76.9435L71.6977 73.6615L72.7304 72.2468C75.0979 68.9367 76.6756 65.1281 77.3422 61.1133L77.6393 59.345H82.2794C82.3196 59.345 82.3595 59.3369 82.3965 59.3211C82.4335 59.3053 82.4669 59.2821 82.4947 59.253C82.5224 59.2239 82.5441 59.1895 82.5581 59.1518C82.5722 59.1141 82.5784 59.074 82.5765 59.0338V54.1956C82.5784 54.1554 82.5722 54.1152 82.5581 54.0775C82.5441 54.0398 82.5224 54.0054 82.4947 53.9763C82.4669 53.9472 82.4335 53.924 82.3965 53.9082C82.3595 53.8924 82.3196 53.8843 82.2794 53.8843H77.71L77.4129 52.116C76.7463 48.1013 75.1687 44.2927 72.8012 40.9825L71.7684 39.5679L75.0363 36.2858C75.0664 36.2593 75.0905 36.2266 75.107 36.19C75.1235 36.1534 75.1321 36.1138 75.1321 36.0736C75.1321 36.0335 75.1235 35.9938 75.107 35.9572C75.0905 35.9206 75.0664 35.888 75.0363 35.8614L71.6128 32.4379C71.5862 32.4078 71.5536 32.3837 71.517 32.3672C71.4805 32.3507 71.4407 32.3421 71.4006 32.3421C71.3604 32.3421 71.3208 32.3507 71.2842 32.3672C71.2476 32.3837 71.215 32.4078 71.1884 32.4379L67.9064 35.7058L66.4917 34.6731C63.183 32.3029 59.3738 30.725 55.3582 30.0612L53.5899 29.7642V25.1241C53.5899 25.0838 53.5818 25.044 53.566 25.007C53.5502 24.97 53.527 24.9366 53.4979 24.9088C53.4688 24.881 53.4344 24.8594 53.3967 24.8454C53.359 24.8313 53.3188 24.825 53.2786 24.8269H48.4404C48.4003 24.825 48.3601 24.8313 48.3224 24.8454C48.2847 24.8594 48.2503 24.881 48.2212 24.9088C48.1921 24.9366 48.1689 24.97 48.1531 25.007C48.1373 25.044 48.1292 25.0838 48.1292 25.1241V29.7076L46.3609 30.0047C42.3461 30.6713 38.5375 32.2489 35.2274 34.6165L33.8127 35.6492L30.5307 32.3813C30.5041 32.3512 30.4715 32.3271 30.4349 32.3106C30.3983 32.2941 30.3586 32.2855 30.3185 32.2855C30.2783 32.2855 30.2387 32.2941 30.2021 32.3106C30.1655 32.3271 30.1328 32.3512 30.1063 32.3813L26.6828 35.8048C26.6527 35.8314 26.6286 35.864 26.612 35.9006C26.5955 35.9372 26.587 35.9769 26.587 36.017C26.587 36.0572 26.5955 36.0969 26.612 36.1334C26.6286 36.17 26.6527 36.2027 26.6828 36.2292L29.9507 39.5113L28.918 40.9259C26.5478 44.2346 24.9698 48.0438 24.3061 52.0594L24.0091 53.8277H19.3689C19.3287 53.8277 19.2888 53.8358 19.2518 53.8517C19.2148 53.8675 19.1815 53.8906 19.1537 53.9197C19.1259 53.9488 19.1043 53.9832 19.0903 54.0209C19.0762 54.0586 19.0699 54.0988 19.0718 54.139V58.9772C19.0699 59.0174 19.0762 59.0575 19.0903 59.0952C19.1043 59.1329 19.1259 59.1673 19.1537 59.1964C19.1815 59.2255 19.2148 59.2487 19.2518 59.2645C19.2888 59.2803 19.3287 59.2884 19.3689 59.2884H23.9525L24.2495 61.0567C24.9132 65.0723 26.4912 68.8815 28.8614 72.1902L29.8941 73.6049L26.6262 76.8869C26.5961 76.9134 26.572 76.9461 26.5554 76.9827C26.5389 77.0193 26.5304 77.059 26.5304 77.0991C26.5304 77.1393 26.5389 77.1789 26.5554 77.2155C26.572 77.2521 26.5961 77.2848 26.6262 77.3114L30.0497 80.7348C30.0729 80.7699 30.1045 80.7986 30.1415 80.8184C30.1785 80.8383 30.2199 80.8487 30.2619 80.8487C30.3039 80.8487 30.3453 80.8383 30.3823 80.8184C30.4193 80.7986 30.4509 80.7699 30.4741 80.7348L33.742 77.5377ZM50.8312 78.1176C46.5728 78.1176 42.4099 76.8549 38.8691 74.489C35.3283 72.1231 32.5686 68.7604 30.9389 64.826C29.3093 60.8917 28.8828 56.5625 29.7136 52.3858C30.5444 48.2092 32.5951 44.3726 35.6063 41.3614C38.6175 38.3502 42.454 36.2996 46.6307 35.4688C50.8074 34.638 55.1366 35.0644 59.0709 36.694C63.0052 38.3237 66.368 41.0834 68.7339 44.6242C71.0998 48.165 72.3625 52.3279 72.3625 56.5864C72.355 62.2945 70.0842 67.7668 66.0479 71.803C62.0116 75.8393 56.5394 78.1102 50.8312 78.1176ZM50.8312 39.2991C47.4115 39.2963 44.0678 40.3077 41.2231 42.2056C38.3784 44.1035 36.1604 46.8024 34.8498 49.961C33.5392 53.1196 33.1948 56.5959 33.8603 59.9503C34.5257 63.3046 36.171 66.3862 38.5881 68.8053C41.0052 71.2244 44.0855 72.8723 47.4393 73.5405C50.7931 74.2086 54.2697 73.8671 57.4294 72.5591C60.5891 71.2511 63.2898 69.0353 65.19 66.1921C67.0902 63.3489 68.1044 60.0061 68.1044 56.5864C68.1007 52.0051 66.2801 47.6123 63.042 44.3715C59.8038 41.1307 55.4125 39.3066 50.8312 39.2991Z" fill="#EEC912"/>
<path d="M45.9365 0.593921L54.2973 8.96876L45.9648 17.3012C45.5651 17.6952 45.0265 17.916 44.4653 17.916C43.9041 17.916 43.3654 17.6952 42.9657 17.3012C42.7673 17.1052 42.6097 16.8716 42.5021 16.6142C42.3946 16.3568 42.3392 16.0806 42.3392 15.8017C42.3392 15.5227 42.3946 15.2465 42.5021 14.9891C42.6097 14.7317 42.7673 14.4981 42.9657 14.3021L46.0639 11.204C35.2337 12.033 25.0627 16.7283 17.4067 24.4332C9.75076 32.1381 5.12033 42.3389 4.36036 53.1741C3.60038 64.0093 6.76154 74.7565 13.267 83.4547C19.7725 92.1528 29.1885 98.222 39.7969 100.555C40.3248 100.652 40.8003 100.936 41.1376 101.353C41.4749 101.771 41.6516 102.296 41.6359 102.832C41.5932 103.365 41.3508 103.862 40.9574 104.224C40.564 104.586 40.0485 104.786 39.5139 104.785H39.0895C27.4132 102.27 17.0393 95.6194 9.88016 86.0587C2.72101 76.498 -0.740848 64.6717 0.132658 52.7596C1.00616 40.8476 6.15617 29.6528 14.6334 21.2387C23.1106 12.8246 34.3436 7.75847 46.2619 6.97407L42.9374 3.64958C42.7385 3.45231 42.5807 3.21762 42.4729 2.95903C42.3652 2.70045 42.3097 2.42312 42.3097 2.14299C42.3097 1.86286 42.3652 1.58549 42.4729 1.3269C42.5807 1.06832 42.7385 0.833628 42.9374 0.636359C43.3315 0.236694 43.8671 0.00815591 44.4283 0.000214086C44.9895 -0.00772773 45.5313 0.205567 45.9365 0.593921ZM102 56.9121C101.967 45.546 98.0339 34.5355 90.8575 25.7215C83.6811 16.9074 73.6965 10.8238 62.5731 8.48778C62.2693 8.42567 61.9557 8.43085 61.6542 8.50297C61.3527 8.5751 61.0707 8.71242 60.828 8.90525C60.5852 9.09809 60.3877 9.34178 60.2493 9.61915C60.1108 9.89653 60.0349 10.2009 60.0267 10.5107C60.026 11.029 60.209 11.5308 60.543 11.927C60.8771 12.3232 61.3407 12.5883 61.8516 12.6752C72.4703 14.9972 81.899 21.0623 88.4149 29.7624C94.9309 38.4624 98.0988 49.2165 97.3401 60.0595C96.5815 70.9026 91.9467 81.1107 84.2827 88.8186C76.6188 96.5265 66.4373 101.219 55.5987 102.04L58.6544 98.9844C59.0484 98.5847 59.2693 98.046 59.2693 97.4848C59.2693 96.9236 59.0484 96.385 58.6544 95.9853C58.4584 95.7868 58.2249 95.6292 57.9675 95.5217C57.7101 95.4141 57.4339 95.3588 57.1549 95.3588C56.8759 95.3588 56.5997 95.4141 56.3423 95.5217C56.0849 95.6292 55.8514 95.7868 55.6553 95.9853L47.3653 104.275L55.6553 112.565C56.055 112.959 56.5937 113.18 57.1549 113.18C57.7161 113.18 58.2548 112.959 58.6544 112.565C59.0493 112.163 59.2705 111.622 59.2705 111.059C59.2705 110.495 59.0493 109.954 58.6544 109.552L55.4007 106.312C68.0014 105.57 79.8426 100.042 88.5041 90.86C97.1655 81.678 101.993 69.5347 102 56.9121Z" fill="#A5AEB7"/>
</svg>
