<svg width="49" height="38" viewBox="0 0 49 38" fill="none" xmlns="http://www.w3.org/2000/svg">
<path d="M8.84715 37.5901V35.0869C8.84715 34.127 8.26291 33.5014 7.30395 33.5014C6.80029 33.5014 6.26138 33.6686 5.88565 34.2065C5.59353 33.7472 5.18054 33.5014 4.55097 33.5014C4.31689 33.4913 4.08396 33.5394 3.87301 33.6413C3.66207 33.7433 3.47969 33.8959 3.34219 34.0857V33.582H2.54944V37.5871H3.34219V35.2954C3.34219 34.5903 3.75922 34.2529 4.34346 34.2529C4.9277 34.2529 5.26112 34.6286 5.26112 35.2954V37.5901H6.05387V35.2954C6.05387 34.5903 6.4709 34.2529 7.05514 34.2529C7.63938 34.2529 7.9728 34.6286 7.9728 35.2954V37.5901H8.84715ZM21.8636 33.6263H20.403V32.4175H19.6123V33.6263H18.7782V34.3314H19.6123V36.2131C19.6123 37.1308 19.9457 37.6737 20.947 37.6737C21.3263 37.6658 21.698 37.5655 22.0298 37.3816L21.779 36.6765C21.5539 36.8171 21.2929 36.8896 21.0276 36.885C20.6105 36.885 20.402 36.6342 20.402 36.2171V34.2992H21.8626V33.6314L21.8636 33.6263ZM29.2895 33.5014C29.0736 33.4966 28.8601 33.5479 28.67 33.6503C28.4798 33.7527 28.3195 33.9027 28.2047 34.0857V33.582H27.4119V37.5871H28.2047V35.3377C28.2047 34.6699 28.5381 34.2529 29.081 34.2529C29.2642 34.2603 29.446 34.2883 29.6229 34.3365L29.8738 33.585C29.6825 33.5368 29.4867 33.5088 29.2895 33.5014ZM18.0671 33.9184C17.65 33.6263 17.0658 33.5014 16.4403 33.5014C15.439 33.5014 14.8135 33.9607 14.8135 34.7535C14.8135 35.4213 15.2728 35.7961 16.1481 35.922L16.5652 35.9633C17.0245 36.0469 17.3166 36.2141 17.3166 36.4226C17.3166 36.7147 16.9832 36.9263 16.3567 36.9263C15.8782 36.9361 15.4097 36.7897 15.022 36.5092L14.6049 37.1348C15.1892 37.5518 15.8983 37.6384 16.3174 37.6384C17.4859 37.6384 18.1114 37.0965 18.1114 36.3451C18.1114 35.6399 17.6077 35.3025 16.7344 35.1766L16.3174 35.1353C15.9416 35.094 15.6123 34.9681 15.6123 34.7182C15.6123 34.4261 15.9457 34.2146 16.405 34.2146C16.9087 34.2146 17.4063 34.4231 17.6571 34.548L18.0671 33.9184ZM30.1659 35.5876C30.1659 36.7963 30.9586 37.6737 32.252 37.6737C32.8363 37.6737 33.2533 37.5488 33.6703 37.2144L33.2533 36.5888C32.958 36.8279 32.5907 36.9603 32.2107 36.9645C31.5056 36.9645 30.9586 36.4226 30.9586 35.6299C30.9586 34.8371 31.4986 34.2992 32.2107 34.2992C32.5907 34.3034 32.958 34.4358 33.2533 34.6749L33.6703 34.0494C33.2533 33.716 32.8363 33.5901 32.252 33.5901C30.9999 33.5064 30.1659 34.3828 30.1659 35.5926V35.5876ZM24.5753 33.5014C23.4068 33.5014 22.6141 34.3355 22.6141 35.5876C22.6141 36.8396 23.4481 37.6737 24.6579 37.6737C25.2465 37.6861 25.8212 37.4947 26.2847 37.1318L25.8677 36.5475C25.5325 36.8073 25.1231 36.9534 24.6992 36.9645C24.1573 36.9645 23.573 36.6311 23.4904 35.922H26.4529V35.5886C26.4529 34.3365 25.7015 33.5024 24.5753 33.5024V33.5014ZM24.534 34.2529C25.1182 34.2529 25.5353 34.6286 25.5766 35.2541H23.4078C23.5327 34.6699 23.9115 34.2529 24.534 34.2529ZM13.7286 35.5876V33.585H12.9358V34.0887C12.6437 33.7129 12.2307 33.5044 11.6424 33.5044C10.5163 33.5044 9.6812 34.3808 9.6812 35.5906C9.6812 36.8004 10.5153 37.6767 11.6424 37.6767C12.2267 37.6767 12.6437 37.4682 12.9358 37.0925V37.5961H13.7286V35.5876ZM10.5163 35.5876C10.5163 34.8361 10.9756 34.2529 11.7684 34.2529C12.5198 34.2529 12.9771 34.8371 12.9771 35.5876C12.9771 36.3803 12.4735 36.9222 11.7684 36.9222C10.9756 36.9635 10.5163 36.338 10.5163 35.5876ZM41.3481 33.5014C41.1321 33.4966 40.9186 33.5479 40.7285 33.6503C40.5383 33.7527 40.378 33.9027 40.2632 34.0857V33.582H39.4704V37.5871H40.2622V35.3377C40.2622 34.6699 40.5956 34.2529 41.1385 34.2529C41.3217 34.2603 41.5035 34.2883 41.6805 34.3365L41.9313 33.585C41.74 33.5368 41.5442 33.5088 41.347 33.5014H41.3481ZM38.2606 35.5876V33.585H37.4679V34.0887C37.1758 33.7129 36.7628 33.5044 36.1745 33.5044C35.0483 33.5044 34.2133 34.3808 34.2133 35.5906C34.2133 36.8004 35.0473 37.6767 36.1745 37.6767C36.7587 37.6767 37.1758 37.4682 37.4679 37.0925V37.5961H38.2606V35.5876ZM35.0483 35.5876C35.0483 34.8361 35.5077 34.2529 36.3004 34.2529C37.0519 34.2529 37.5092 34.8371 37.5092 35.5876C37.5092 36.3803 37.0055 36.9222 36.3004 36.9222C35.5077 36.9635 35.0483 36.338 35.0483 35.5876ZM46.3131 35.5876V31.9995H45.5203V34.0857C45.2282 33.7099 44.8152 33.5014 44.2269 33.5014C43.1008 33.5014 42.2657 34.3778 42.2657 35.5876C42.2657 36.7973 43.0998 37.6737 44.2269 37.6737C44.8112 37.6737 45.2282 37.4652 45.5203 37.0895V37.5931H46.3131V35.5876ZM43.1008 35.5876C43.1008 34.8361 43.5601 34.2529 44.3529 34.2529C45.1043 34.2529 45.5616 34.8371 45.5616 35.5876C45.5616 36.3803 45.058 36.9222 44.3529 36.9222C43.5591 36.9645 43.0998 36.339 43.0998 35.5876H43.1008Z" fill="black"/>
<path d="M31.6265 3.2124H17.1494V26.8258H31.6265V3.2124Z" fill="#FF5F00"/>
<path d="M18.6099 15.019C18.6104 12.7474 19.1248 10.5053 20.1146 8.46067C21.1044 6.41603 22.5439 4.62179 24.3254 3.21232C22.1099 1.4704 19.4489 0.386985 16.6468 0.0859387C13.8446 -0.215107 11.0142 0.27836 8.47928 1.50993C5.94432 2.7415 3.80702 4.66148 2.31172 7.05038C0.816412 9.43929 0.0234375 12.2007 0.0234375 15.019C0.0234375 17.8373 0.816412 20.5988 2.31172 22.9877C3.80702 25.3766 5.94432 27.2965 8.47928 28.5281C11.0142 29.7597 13.8446 30.2531 16.6468 29.9521C19.4489 29.6511 22.1099 28.5676 24.3254 26.8257C22.5439 25.4162 21.1044 23.622 20.1146 21.5774C19.1248 19.5327 18.6104 17.2906 18.6099 15.019Z" fill="#EB001B"/>
<path d="M48.649 15.0192C48.651 17.8354 47.8604 20.5954 46.3676 22.9834C44.8747 25.3714 42.7399 27.2911 40.2073 28.5228C37.6747 29.7545 34.8465 30.2486 32.0463 29.9485C29.2461 29.6484 26.5869 28.5663 24.3728 26.8259C26.1547 25.4168 27.5945 23.6226 28.5844 21.5779C29.5742 19.5332 30.0884 17.2909 30.0884 15.0192C30.0884 12.7475 29.5742 10.5052 28.5844 8.46047C27.5945 6.41574 26.1547 4.62159 24.3728 3.21248C26.5869 1.47206 29.2461 0.389919 32.0463 0.0898267C34.8465 -0.210266 37.6747 0.283808 40.2073 1.51554C42.7399 2.74727 44.8747 4.66692 46.3676 7.05494C47.8604 9.44296 48.651 12.2029 48.649 15.0192Z" fill="#F79E1B"/>
</svg>
