<svg width="41" height="55" viewBox="0 0 41 55" fill="none" xmlns="http://www.w3.org/2000/svg">
<path d="M37.3606 4.74039H28.319V0.856698C28.319 0.399792 27.9209 0 27.466 0H13.9889C13.534 0 13.1359 0.399792 13.1359 0.856698V4.74039H3.58253C1.59223 4.74039 0 6.33956 0 8.33852V51.4019C0 53.4008 1.59223 55 3.58253 55H37.4175C39.4078 55 41 53.4008 41 51.4019V8.33852C40.9431 6.33956 39.3509 4.74039 37.3606 4.74039ZM13.9889 15.8204H27.466C27.9209 15.8204 28.319 15.4206 28.319 14.9637V11.2513H34.2899V48.2035H6.65326V11.3084H13.1359V14.9637C13.1359 15.4777 13.534 15.8204 13.9889 15.8204ZM26.613 1.7134V10.3946V14.107H14.8419V10.3946V5.53998V1.7134H26.613ZM39.2372 51.3448C39.2372 52.3728 38.3842 53.2295 37.3606 53.2295H3.58253C2.55895 53.2295 1.70596 52.3728 1.70596 51.3448V8.33852C1.70596 7.31049 2.55895 6.45379 3.58253 6.45379H13.1359V9.59502H5.80028C5.34535 9.59502 4.9473 9.99481 4.9473 10.4517V49.1173C4.9473 49.5742 5.34535 49.974 5.80028 49.974H35.1429C35.5978 49.974 35.9958 49.5742 35.9958 49.1173V10.4517C35.9958 9.99481 35.5978 9.59502 35.1429 9.59502H28.319V6.45379H37.3606C38.3842 6.45379 39.2372 7.31049 39.2372 8.33852V51.3448Z" fill="#A5AEB7"/>
<path d="M11 25C11 25.5333 11.3205 26 11.6867 26H29.3133C29.6795 26 30 25.5333 30 25C30 24.4667 29.6795 24 29.3133 24H11.6867C11.3205 24 11 24.4667 11 25Z" fill="#EEC912"/>
<path d="M29.3133 31H11.6867C11.3205 31 11 31.4667 11 32C11 32.5333 11.3205 33 11.6867 33H29.3133C29.6795 33 30 32.5333 30 32C30 31.4667 29.6795 31 29.3133 31Z" fill="#EEC912"/>
<path d="M29.3133 37H11.6867C11.3205 37 11 37.4667 11 38C11 38.5333 11.3205 39 11.6867 39H29.3133C29.6795 39 30 38.5333 30 38C30 37.4667 29.6795 37 29.3133 37Z" fill="#EEC912"/>
</svg>
