<svg width="78" height="89" viewBox="0 0 78 89" fill="none" xmlns="http://www.w3.org/2000/svg">
<path d="M31.7474 80H16.8599C16.5367 80 16.2267 79.8251 15.9981 79.5139C15.7696 79.2026 15.6412 78.7805 15.6412 78.3403V37.4003H1.2198C0.967313 37.4007 0.721002 37.2941 0.514883 37.0956C0.308763 36.897 0.153018 36.6161 0.069173 36.2918C-0.0146719 35.9674 -0.0225007 35.6157 0.0468082 35.285C0.116117 34.9544 0.259133 34.6612 0.45607 34.4461L31.7363 0.366307C31.9528 0.129229 32.2222 0 32.5 0C32.7778 0 33.0472 0.129229 33.2637 0.366307L64.5439 34.4461C64.7409 34.6612 64.8839 34.9544 64.9532 35.285C65.0225 35.6157 65.0147 35.9674 64.9308 36.2918C64.847 36.6161 64.6912 36.897 64.4851 37.0956C64.279 37.2941 64.0327 37.4007 63.7802 37.4003H50.329V41.369C50.329 41.8092 50.2006 42.2314 49.972 42.5426C49.7435 42.8539 49.4335 43.0287 48.1401 43.0287C47.8169 43.0287 47.5069 42.8539 47.2783 42.5426C47.0498 42.2314 46.9214 41.8092 46.9214 41.369V35.7406C46.9214 35.3004 47.0498 34.8783 47.2783 34.567C47.5069 34.2557 47.8169 34.0809 48.1401 34.0809H59.357L32.5 4.74923L5.66735 34.0809H17.8544C18.1777 34.0809 18.4876 34.2557 18.7162 34.567C18.9447 34.8783 19.0732 35.3004 19.0732 35.7406V76.6805H31.7718C32.095 76.6805 32.405 76.8554 32.6336 77.1667C32.8621 77.4779 32.9905 77.9001 32.9905 78.3403C32.9905 78.7805 32.8621 79.2026 32.6336 79.5139C32.405 79.8251 32.095 80 31.7718 80H31.7474Z" fill="#A5AEB7"/>
<path d="M55.5 89C51.0499 89 46.6998 87.7097 42.9997 85.2923C39.2996 82.8749 36.4157 79.439 34.7128 75.419C33.0098 71.3991 32.5642 66.9756 33.4323 62.7081C34.3005 58.4405 36.4434 54.5204 39.5901 51.4436C42.7368 48.3669 46.7459 46.2716 51.1105 45.4227C55.4751 44.5738 59.999 45.0096 64.1104 46.6747C68.2217 48.3398 71.7357 51.1596 74.2081 54.7775C76.6804 58.3954 78 62.6488 78 67C77.9914 72.8322 75.6181 78.4231 71.4004 82.5471C67.1827 86.671 61.4647 88.9916 55.5 89ZM55.5 48.1807C51.6933 48.1807 47.9721 49.2845 44.8069 51.3523C41.6418 53.4202 39.1749 56.3594 37.7181 59.7982C36.2614 63.237 35.8802 67.0209 36.6229 70.6714C37.3655 74.322 39.1986 77.6753 41.8903 80.3072C44.5821 82.9392 48.0116 84.7315 51.7451 85.4577C55.4787 86.1838 59.3486 85.8111 62.8655 84.3868C66.3824 82.9624 69.3884 80.5503 71.5033 77.4555C73.6182 74.3606 74.747 70.7221 74.747 67C74.7412 62.0106 72.7116 57.2271 69.1033 53.699C65.4951 50.1709 60.6029 48.1864 55.5 48.1807ZM64.2831 67.7846V73.0858C64.2797 73.2847 64.2358 73.4809 64.1539 73.6629C64.0719 73.845 63.9537 74.0092 63.806 74.146C63.5182 74.429 63.1297 74.5923 62.7217 74.6019H57.9072V78.3976C57.9058 78.5958 57.8639 78.7918 57.7838 78.9739C57.7037 79.156 57.5871 79.3205 57.441 79.4578C57.154 79.7407 56.7641 79.9008 56.3566 79.9031C56.1443 79.9081 55.9331 79.8712 55.7356 79.7947C55.5382 79.7182 55.3585 79.6037 55.2072 79.4578C55.061 79.3205 54.9445 79.156 54.8644 78.9739C54.7843 78.7918 54.7423 78.5958 54.741 78.3976V74.6019H49.9591C49.5503 74.5957 49.1606 74.4318 48.8747 74.146C48.7276 74.0094 48.6103 73.845 48.5302 73.6628C48.45 73.4805 48.4086 73.2842 48.4085 73.0858C48.407 72.883 48.4466 72.682 48.525 72.4942C48.6034 72.3065 48.719 72.1358 48.8651 71.9919C49.0113 71.848 49.1851 71.7338 49.3765 71.6558C49.568 71.5779 49.7733 71.5379 49.9807 71.5379H61.1494V69.3219H49.9265C49.7246 69.322 49.5247 69.2826 49.3385 69.2061C49.1523 69.1296 48.9835 69.0177 48.8422 68.8767C48.6945 68.7405 48.577 68.5761 48.4968 68.3937C48.4166 68.2114 48.3754 68.0149 48.3759 67.8164V62.5152C48.3745 62.3115 48.4145 62.1096 48.4935 61.9212C48.5726 61.7327 48.6891 61.5615 48.8364 61.4175C48.9837 61.2735 49.1588 61.1595 49.3515 61.0822C49.5442 61.0049 49.7508 60.9658 49.9591 60.9672H54.6976V57.1928C54.6976 56.798 54.8529 56.4184 55.1313 56.1325C55.2854 55.9779 55.4716 55.8572 55.6773 55.7786C55.883 55.6999 56.1036 55.6652 56.3241 55.6767C56.5261 55.6766 56.726 55.716 56.9122 55.7924C57.0983 55.8689 57.2671 55.9809 57.4085 56.1219C57.6968 56.4032 57.8603 56.784 57.8639 57.1822V60.946H62.7109C62.9224 60.942 63.1326 60.9805 63.3284 61.0589C63.5242 61.1373 63.7015 61.254 63.8494 61.4019C63.9991 61.5372 64.1186 61.7012 64.2007 61.8836C64.2828 62.066 64.3256 62.2629 64.3265 62.4622C64.3244 62.6612 64.2809 62.8578 64.1989 63.04C64.1169 63.2223 63.9981 63.3863 63.8494 63.5224C63.7042 63.6752 63.5278 63.7966 63.3317 63.8788C63.1357 63.9609 62.9242 64.0021 62.7109 63.9995H51.5422V66.1942H62.6675C63.0768 66.2077 63.4651 66.3748 63.7518 66.6607C63.9193 66.8008 64.0536 66.9748 64.1453 67.1707C64.2371 67.3666 64.2841 67.5797 64.2831 67.7952V67.7846Z" fill="#EEC912"/>
</svg>
