<svg width="151" height="314" viewBox="0 0 151 314" fill="none" xmlns="http://www.w3.org/2000/svg">
<mask id="path-1-inside-1_34_326" fill="white">
<path d="M76.3691 78.1379C70.3241 78.0953 64.6245 80.4104 60.3216 84.6537C56.0184 88.8973 53.6241 94.564 53.5821 100.609C53.54 106.653 55.8545 112.352 60.098 116.656C64.3423 120.959 70.0086 123.353 76.0528 123.396C82.0976 123.437 87.7953 121.123 92.0987 116.88C92.1004 116.879 92.1004 116.879 92.1004 116.879C96.4033 112.635 98.7976 106.969 98.8398 100.924C98.8815 94.8792 96.5672 89.1804 92.3232 84.8768C88.0792 80.5741 82.4131 78.1805 76.3691 78.1379ZM86.11 100.836C86.092 103.481 85.0469 105.959 83.1631 107.817C81.2794 109.674 78.7859 110.686 76.1414 110.666C73.4976 110.649 71.0185 109.602 69.1609 107.719C67.3046 105.836 66.2918 103.343 66.311 100.698C66.329 98.0539 67.3772 95.5739 69.2593 93.7179C71.1416 91.8616 73.6346 90.8486 76.2796 90.8672C81.7392 90.9043 86.149 95.3761 86.11 100.836Z"/>
<path d="M49.2503 293.763C48.1189 294.879 46.5627 295.563 44.8479 295.551C41.4185 295.527 38.6568 292.727 38.6814 289.298L39.0351 238.521C39.0592 235.092 41.8587 232.331 45.2881 232.355C48.7175 232.378 51.4792 235.179 51.455 238.608L51.1 289.386C51.0883 291.1 50.3821 292.647 49.2503 293.763Z"/>
<path d="M77.6308 311.969C76.4987 313.085 74.9418 313.769 73.227 313.757C69.7976 313.733 67.0373 310.934 67.0615 307.505L67.4303 254.578C67.4542 251.149 70.2538 248.388 73.6827 248.413C77.1123 248.437 79.8733 251.236 79.8491 254.666L79.4798 307.59C79.4681 309.305 78.7619 310.853 77.6308 311.969Z"/>
<path d="M109.258 294.182C108.126 295.298 106.57 295.982 104.855 295.97C101.426 295.947 98.6645 293.147 98.6888 289.717L99.0423 238.939C99.0666 235.51 101.866 232.749 105.295 232.773C108.724 232.797 111.486 235.597 111.462 239.027L111.108 289.804C111.096 291.518 110.39 293.065 109.258 294.182Z"/>
<path d="M76.9134 0.223284C74.9185 0.20985 73.0368 1.15436 71.8596 2.76059C71.4276 3.35108 61.1522 17.4562 50.7394 40.3167C44.6296 53.7277 39.7396 67.3956 36.2032 80.9428C31.8602 97.5771 29.5626 114.08 29.3602 130.01L2.36572 169.459C1.66863 170.477 1.29216 171.681 1.28031 172.914L0.76474 232.932C0.740771 235.667 2.5078 238.094 5.11588 238.914C7.33749 239.611 9.72525 239.002 11.3383 237.411C11.619 237.134 11.876 236.828 12.1056 236.495L39.6898 196.181C41.7676 202.733 44.1523 209.31 46.8487 215.905C47.7992 218.225 50.0492 219.748 52.5568 219.766L69.167 219.882L69.0592 235.313C69.0353 238.745 71.797 241.545 75.2281 241.569C76.9438 241.581 78.5016 240.897 79.6347 239.78C80.7666 238.663 81.4723 237.115 81.485 235.4L81.5925 219.968L98.2031 220.085C99.8831 220.095 101.459 219.43 102.61 218.294C103.176 217.736 103.64 217.063 103.963 216.303C106.752 209.747 109.229 203.204 111.397 196.683L138.418 237.375C139.93 239.653 142.753 240.674 145.372 239.892C146.37 239.593 147.248 239.061 147.955 238.364C149.104 237.232 149.797 235.664 149.805 233.973L150.128 173.954C150.135 172.721 149.773 171.512 149.092 170.484L122.65 130.663C122.668 114.731 120.604 98.1984 116.493 81.504C113.144 67.9091 108.446 54.174 102.526 40.6792C92.4305 17.6759 82.3556 3.42928 81.9314 2.8333C80.7737 1.20755 78.9058 0.23785 76.9134 0.223284ZM13.3645 212.649L13.6894 174.914L30.2334 150.737C31.1796 160.578 32.8734 170.536 35.3132 180.573L13.3645 212.649ZM137.69 175.779L137.488 213.515L115.989 181.137C118.57 171.132 120.402 161.201 121.485 151.373L137.69 175.779ZM91.2728 45.966C100.052 66.0391 110.465 97.1956 110.225 131.625C110.113 147.473 107.816 163.73 103.379 180.218C103.284 180.497 103.206 180.783 103.152 181.072C100.746 189.867 97.7316 198.729 94.1127 207.629L81.6786 207.542L81.8547 182.445C81.8782 179.014 79.1158 176.213 75.6851 176.189C72.254 176.165 69.4532 178.927 69.4288 182.358L69.2528 207.455L56.8188 207.368C53.3247 198.416 50.4328 189.513 48.1502 180.683C48.1002 180.395 48.0268 180.114 47.9369 179.836C43.7294 163.286 41.6584 146.997 41.7691 131.145C42.0095 96.7175 52.8568 65.7092 61.9148 45.7601C67.4172 33.6377 72.9488 24.0075 76.7891 17.827C80.5429 24.0615 85.9395 33.7683 91.2728 45.966Z"/>
</mask>
<path d="M76.3691 78.1379C70.3241 78.0953 64.6245 80.4104 60.3216 84.6537C56.0184 88.8973 53.6241 94.564 53.5821 100.609C53.54 106.653 55.8545 112.352 60.098 116.656C64.3423 120.959 70.0086 123.353 76.0528 123.396C82.0976 123.437 87.7953 121.123 92.0987 116.88C92.1004 116.879 92.1004 116.879 92.1004 116.879C96.4033 112.635 98.7976 106.969 98.8398 100.924C98.8815 94.8792 96.5672 89.1804 92.3232 84.8768C88.0792 80.5741 82.4131 78.1805 76.3691 78.1379ZM86.11 100.836C86.092 103.481 85.0469 105.959 83.1631 107.817C81.2794 109.674 78.7859 110.686 76.1414 110.666C73.4976 110.649 71.0185 109.602 69.1609 107.719C67.3046 105.836 66.2918 103.343 66.311 100.698C66.329 98.0539 67.3772 95.5739 69.2593 93.7179C71.1416 91.8616 73.6346 90.8486 76.2796 90.8672C81.7392 90.9043 86.149 95.3761 86.11 100.836Z" fill="#EEC912"/>
<path d="M49.2503 293.763C48.1189 294.879 46.5627 295.563 44.8479 295.551C41.4185 295.527 38.6568 292.727 38.6814 289.298L39.0351 238.521C39.0592 235.092 41.8587 232.331 45.2881 232.355C48.7175 232.378 51.4792 235.179 51.455 238.608L51.1 289.386C51.0883 291.1 50.3821 292.647 49.2503 293.763Z" fill="#EEC912"/>
<path d="M77.6308 311.969C76.4987 313.085 74.9418 313.769 73.227 313.757C69.7976 313.733 67.0373 310.934 67.0615 307.505L67.4303 254.578C67.4542 251.149 70.2538 248.388 73.6827 248.413C77.1123 248.437 79.8733 251.236 79.8491 254.666L79.4798 307.59C79.4681 309.305 78.7619 310.853 77.6308 311.969Z" fill="#EEC912"/>
<path d="M109.258 294.182C108.126 295.298 106.57 295.982 104.855 295.97C101.426 295.947 98.6645 293.147 98.6888 289.717L99.0423 238.939C99.0666 235.51 101.866 232.749 105.295 232.773C108.724 232.797 111.486 235.597 111.462 239.027L111.108 289.804C111.096 291.518 110.39 293.065 109.258 294.182Z" fill="#EEC912"/>
<path d="M76.9134 0.223284C74.9185 0.20985 73.0368 1.15436 71.8596 2.76059C71.4276 3.35108 61.1522 17.4562 50.7394 40.3167C44.6296 53.7277 39.7396 67.3956 36.2032 80.9428C31.8602 97.5771 29.5626 114.08 29.3602 130.01L2.36572 169.459C1.66863 170.477 1.29216 171.681 1.28031 172.914L0.76474 232.932C0.740771 235.667 2.5078 238.094 5.11588 238.914C7.33749 239.611 9.72525 239.002 11.3383 237.411C11.619 237.134 11.876 236.828 12.1056 236.495L39.6898 196.181C41.7676 202.733 44.1523 209.31 46.8487 215.905C47.7992 218.225 50.0492 219.748 52.5568 219.766L69.167 219.882L69.0592 235.313C69.0353 238.745 71.797 241.545 75.2281 241.569C76.9438 241.581 78.5016 240.897 79.6347 239.78C80.7666 238.663 81.4723 237.115 81.485 235.4L81.5925 219.968L98.2031 220.085C99.8831 220.095 101.459 219.43 102.61 218.294C103.176 217.736 103.64 217.063 103.963 216.303C106.752 209.747 109.229 203.204 111.397 196.683L138.418 237.375C139.93 239.653 142.753 240.674 145.372 239.892C146.37 239.593 147.248 239.061 147.955 238.364C149.104 237.232 149.797 235.664 149.805 233.973L150.128 173.954C150.135 172.721 149.773 171.512 149.092 170.484L122.65 130.663C122.668 114.731 120.604 98.1984 116.493 81.504C113.144 67.9091 108.446 54.174 102.526 40.6792C92.4305 17.6759 82.3556 3.42928 81.9314 2.8333C80.7737 1.20755 78.9058 0.23785 76.9134 0.223284ZM13.3645 212.649L13.6894 174.914L30.2334 150.737C31.1796 160.578 32.8734 170.536 35.3132 180.573L13.3645 212.649ZM137.69 175.779L137.488 213.515L115.989 181.137C118.57 171.132 120.402 161.201 121.485 151.373L137.69 175.779ZM91.2728 45.966C100.052 66.0391 110.465 97.1956 110.225 131.625C110.113 147.473 107.816 163.73 103.379 180.218C103.284 180.497 103.206 180.783 103.152 181.072C100.746 189.867 97.7316 198.729 94.1127 207.629L81.6786 207.542L81.8547 182.445C81.8782 179.014 79.1158 176.213 75.6851 176.189C72.254 176.165 69.4532 178.927 69.4288 182.358L69.2528 207.455L56.8188 207.368C53.3247 198.416 50.4328 189.513 48.1502 180.683C48.1002 180.395 48.0268 180.114 47.9369 179.836C43.7294 163.286 41.6584 146.997 41.7691 131.145C42.0095 96.7175 52.8568 65.7092 61.9148 45.7601C67.4172 33.6377 72.9488 24.0075 76.7891 17.827C80.5429 24.0615 85.9395 33.7683 91.2728 45.966Z" fill="#A5AEB7"/>
<path d="M76.3691 78.1379L76.3642 78.8379L76.3691 78.1379ZM53.5821 100.609L54.2821 100.614L54.2821 100.614L53.5821 100.609ZM76.0528 123.396L76.0479 124.096L76.048 124.096L76.0528 123.396ZM92.0987 116.88L92.5901 117.379L92.5902 117.379L92.0987 116.88ZM98.8398 100.924L99.5397 100.929L99.5398 100.929L98.8398 100.924ZM92.3232 84.8768L92.8216 84.3852L92.8215 84.3852L92.3232 84.8768ZM86.11 100.836L85.41 100.831L85.41 100.831L86.11 100.836ZM83.1631 107.817L83.6545 108.316L83.6546 108.315L83.1631 107.817ZM76.1414 110.666L76.1466 109.966L76.146 109.966L76.1414 110.666ZM66.311 100.698L67.011 100.703L67.011 100.702L66.311 100.698ZM76.2796 90.8672L76.2746 91.5672L76.2748 91.5672L76.2796 90.8672ZM44.8479 295.551L44.8527 294.851L44.8527 294.851L44.8479 295.551ZM38.6814 289.298L39.3814 289.303L39.3814 289.303L38.6814 289.298ZM39.0351 238.521L38.3351 238.516L38.3351 238.516L39.0351 238.521ZM51.455 238.608L50.755 238.603L50.755 238.603L51.455 238.608ZM51.1 289.386L50.4 289.381L50.4 289.381L51.1 289.386ZM73.227 313.757L73.2319 313.057L73.2318 313.057L73.227 313.757ZM67.0615 307.505L67.7615 307.509L67.7615 307.509L67.0615 307.505ZM67.4303 254.578L66.7303 254.574L66.7303 254.574L67.4303 254.578ZM73.6827 248.413L73.6777 249.113L73.6778 249.113L73.6827 248.413ZM79.8491 254.666L79.1491 254.661L79.1491 254.661L79.8491 254.666ZM79.4798 307.59L78.7798 307.586L78.7798 307.586L79.4798 307.59ZM104.855 295.97L104.86 295.27L104.86 295.27L104.855 295.97ZM98.6888 289.717L99.3888 289.722L99.3888 289.722L98.6888 289.717ZM99.0423 238.939L98.3423 238.934L98.3423 238.934L99.0423 238.939ZM105.295 232.773L105.29 233.473L105.29 233.473L105.295 232.773ZM111.462 239.027L110.762 239.022L110.762 239.022L111.462 239.027ZM111.108 289.804L111.808 289.809L111.808 289.809L111.108 289.804ZM76.9134 0.223284L76.9185 -0.4767L76.9181 -0.476702L76.9134 0.223284ZM71.8596 2.76059L71.295 2.34682L71.2947 2.34726L71.8596 2.76059ZM50.7394 40.3167L51.3764 40.6069L51.3764 40.6069L50.7394 40.3167ZM36.2032 80.9428L36.8805 81.1196L36.8805 81.1196L36.2032 80.9428ZM29.3602 130.01L29.9379 130.405L30.0574 130.231L30.0601 130.019L29.3602 130.01ZM2.36572 169.459L2.94332 169.855L2.94341 169.854L2.36572 169.459ZM1.28031 172.914L0.580335 172.908L0.580333 172.908L1.28031 172.914ZM0.76474 232.932L1.46472 232.938L1.46471 232.938L0.76474 232.932ZM5.11588 238.914L4.906 239.582L4.90625 239.582L5.11588 238.914ZM12.1056 236.495L12.6823 236.891L12.6833 236.89L12.1056 236.495ZM39.6898 196.181L40.3571 195.97L39.923 194.601L39.1121 195.786L39.6898 196.181ZM46.8487 215.905L46.2008 216.17L46.201 216.17L46.8487 215.905ZM52.5568 219.766L52.5516 220.466L52.552 220.466L52.5568 219.766ZM69.167 219.882L69.867 219.887L69.8719 219.187L69.1719 219.182L69.167 219.882ZM69.0592 235.313L68.3593 235.309L69.0592 235.313ZM75.2281 241.569L75.233 240.869L75.233 240.869L75.2281 241.569ZM81.485 235.4L82.1849 235.405L82.185 235.405L81.485 235.4ZM81.5925 219.968L81.5974 219.268L80.8974 219.264L80.8925 219.964L81.5925 219.968ZM98.2031 220.085L98.1982 220.785L98.1988 220.785L98.2031 220.085ZM103.963 216.303L103.319 216.029L103.319 216.03L103.963 216.303ZM111.397 196.683L111.98 196.296L111.186 195.1L110.733 196.462L111.397 196.683ZM138.418 237.375L139.001 236.988L139.001 236.988L138.418 237.375ZM145.372 239.892L145.572 240.563L145.573 240.563L145.372 239.892ZM149.805 233.973L149.105 233.969L149.105 233.969L149.805 233.973ZM150.128 173.954L149.428 173.95L149.428 173.951L150.128 173.954ZM149.092 170.484L149.675 170.097L149.675 170.096L149.092 170.484ZM122.65 130.663L121.95 130.663L121.949 130.874L122.066 131.051L122.65 130.663ZM116.493 81.504L117.173 81.3367L117.173 81.3366L116.493 81.504ZM102.526 40.6792L103.167 40.398L103.167 40.3979L102.526 40.6792ZM81.9314 2.8333L82.5017 2.42737L82.5016 2.42723L81.9314 2.8333ZM13.3645 212.649L12.6645 212.643L12.6447 214.94L13.9422 213.044L13.3645 212.649ZM13.6894 174.914L13.1117 174.519L12.9913 174.695L12.9895 174.908L13.6894 174.914ZM30.2334 150.737L30.9302 150.67L30.7455 148.749L29.6557 150.341L30.2334 150.737ZM35.3132 180.573L35.8909 180.968L36.067 180.711L35.9934 180.408L35.3132 180.573ZM137.69 175.779L138.39 175.783L138.391 175.57L138.273 175.392L137.69 175.779ZM137.488 213.515L136.905 213.902L138.176 215.816L138.188 213.518L137.488 213.515ZM115.989 181.137L115.311 180.962L115.233 181.264L115.406 181.524L115.989 181.137ZM121.485 151.373L122.068 150.986L121 149.378L120.789 151.297L121.485 151.373ZM91.2728 45.966L90.6314 46.2464L90.6314 46.2465L91.2728 45.966ZM110.225 131.625L110.925 131.63L110.925 131.63L110.225 131.625ZM103.379 180.218L104.042 180.445L104.049 180.423L104.055 180.4L103.379 180.218ZM103.152 181.072L103.827 181.257L103.834 181.229L103.84 181.201L103.152 181.072ZM94.1127 207.629L94.1077 208.329L94.5823 208.332L94.7611 207.893L94.1127 207.629ZM81.6786 207.542L80.9786 207.537L80.9737 208.237L81.6737 208.242L81.6786 207.542ZM81.8547 182.445L82.5547 182.45L82.5547 182.45L81.8547 182.445ZM75.6851 176.189L75.6902 175.489L75.69 175.489L75.6851 176.189ZM69.4288 182.358L68.7288 182.353L68.7288 182.353L69.4288 182.358ZM69.2528 207.455L69.2479 208.155L69.9479 208.16L69.9528 207.46L69.2528 207.455ZM56.8188 207.368L56.1667 207.622L56.3392 208.064L56.8138 208.068L56.8188 207.368ZM48.1502 180.683L47.4605 180.803L47.4653 180.831L47.4725 180.858L48.1502 180.683ZM47.9369 179.836L47.2585 180.009L47.264 180.031L47.271 180.052L47.9369 179.836ZM41.7691 131.145L42.4691 131.15L41.7691 131.145ZM61.9148 45.7601L62.5521 46.0495L62.5522 46.0495L61.9148 45.7601ZM76.7891 17.827L77.3888 17.4659L76.7985 16.4855L76.1945 17.4575L76.7891 17.827ZM76.374 77.438C70.1433 77.394 64.2652 79.7816 59.8301 84.1553L60.8131 85.1521C64.9839 81.0391 70.5049 78.7966 76.3642 78.8379L76.374 77.438ZM59.8301 84.1553C55.3947 88.5292 52.9254 94.3735 52.8822 100.604L54.2821 100.614C54.3228 94.7546 56.6421 89.2653 60.8131 85.1521L59.8301 84.1553ZM52.8822 100.604C52.8387 106.834 55.2257 112.712 59.5996 117.147L60.5965 116.164C56.4833 111.993 54.2413 106.473 54.2821 100.614L52.8822 100.604ZM59.5996 117.147C63.9742 121.583 69.818 124.052 76.0479 124.096L76.0577 122.696C70.1991 122.655 64.7104 120.336 60.5965 116.164L59.5996 117.147ZM76.048 124.096C82.2784 124.139 88.1546 121.752 92.5901 117.379L91.6072 116.382C87.436 120.494 81.9168 122.736 76.0577 122.696L76.048 124.096ZM92.5902 117.379C92.5902 117.379 92.5902 117.379 92.5902 117.379C92.5902 117.379 92.5902 117.379 92.5902 117.379C92.5902 117.379 92.5902 117.379 92.5902 117.379L92.5902 117.379L92.5902 117.379L92.5903 117.379C92.5903 117.379 92.5903 117.379 92.5903 117.379C92.5903 117.379 92.5903 117.379 92.5903 117.379C92.5903 117.379 92.5903 117.379 92.5903 117.379C92.5903 117.379 92.5903 117.379 92.5903 117.379L92.5903 117.379L92.5903 117.379C92.5903 117.379 92.5903 117.379 92.5903 117.379C92.5903 117.379 92.5903 117.379 92.5903 117.379C92.5904 117.379 92.5904 117.379 92.5904 117.379C92.5904 117.379 92.5904 117.379 92.5904 117.379L92.5904 117.379C92.5904 117.379 92.5904 117.379 92.5904 117.379C92.5904 117.379 92.5904 117.379 92.5904 117.379C92.5904 117.379 92.5904 117.379 92.5904 117.379C92.5904 117.379 92.5904 117.379 92.5904 117.379L92.5904 117.379C92.5904 117.379 92.5904 117.379 92.5904 117.379C92.5904 117.379 92.5904 117.379 92.5905 117.379C92.5905 117.379 92.5905 117.379 92.5905 117.379L92.5905 117.379C92.5905 117.379 92.5905 117.379 92.5905 117.379C92.5905 117.379 92.5905 117.379 92.5905 117.379C92.5905 117.379 92.5905 117.379 92.5905 117.379L92.5905 117.379C92.5905 117.379 92.5905 117.379 92.5905 117.379C92.5905 117.379 92.5905 117.379 92.5905 117.379L92.5906 117.379C92.5906 117.379 92.5906 117.379 92.5906 117.379C92.5906 117.379 92.5906 117.379 92.5906 117.379C92.5906 117.379 92.5906 117.379 92.5906 117.379L92.5906 117.379C92.5906 117.379 92.5906 117.379 92.5906 117.378C92.5906 117.378 92.5906 117.378 92.5906 117.378L92.5906 117.378C92.5906 117.378 92.5906 117.378 92.5906 117.378L92.5907 117.378C92.5907 117.378 92.5907 117.378 92.5907 117.378C92.5907 117.378 92.5907 117.378 92.5907 117.378L92.5907 117.378C92.5907 117.378 92.5907 117.378 92.5907 117.378C92.5907 117.378 92.5907 117.378 92.5907 117.378C92.5907 117.378 92.5907 117.378 92.5907 117.378C92.5907 117.378 92.5907 117.378 92.5907 117.378L92.5907 117.378C92.5907 117.378 92.5907 117.378 92.5907 117.378L92.5908 117.378C92.5908 117.378 92.5908 117.378 92.5908 117.378L92.5908 117.378C92.5908 117.378 92.5908 117.378 92.5908 117.378L92.5908 117.378C92.5908 117.378 92.5908 117.378 92.5908 117.378L92.5908 117.378C92.5908 117.378 92.5908 117.378 92.5908 117.378L92.5908 117.378C92.5908 117.378 92.5908 117.378 92.5909 117.378L92.5909 117.378C92.5909 117.378 92.5909 117.378 92.5909 117.378L92.5909 117.378C92.5909 117.378 92.5909 117.378 92.5909 117.378C92.5909 117.378 92.5909 117.378 92.5909 117.378L92.5909 117.378C92.5909 117.378 92.5909 117.378 92.5909 117.378L92.5909 117.378C92.591 117.378 92.591 117.378 92.591 117.378C92.591 117.378 92.591 117.378 92.591 117.378L92.591 117.378C92.591 117.378 92.591 117.378 92.591 117.378C92.591 117.378 92.591 117.378 92.591 117.378C92.591 117.378 92.591 117.378 92.591 117.378L92.591 117.378C92.591 117.378 92.591 117.378 92.591 117.378C92.591 117.378 92.591 117.378 92.591 117.378C92.591 117.378 92.591 117.378 92.5911 117.378L92.5911 117.378C92.5911 117.378 92.5911 117.378 92.5911 117.378C92.5911 117.378 92.5911 117.378 92.5911 117.378C92.5911 117.378 92.5911 117.378 92.5911 117.378C92.5911 117.378 92.5911 117.378 92.5911 117.378L92.5911 117.378L92.5911 117.378L92.5911 117.378L92.5911 117.378C92.5912 117.378 92.5912 117.378 92.5912 117.378C92.5912 117.378 92.5912 117.378 92.5912 117.378C92.5912 117.378 92.5912 117.378 92.5912 117.378C92.5912 117.378 92.5912 117.378 92.5912 117.378C92.5912 117.378 92.5912 117.378 92.5912 117.378C92.5912 117.378 92.5912 117.378 92.5912 117.378L92.5912 117.378L92.5912 117.378L92.5912 117.378C92.5912 117.378 92.5912 117.378 92.5913 117.378C92.5913 117.378 92.5913 117.378 92.5913 117.378C92.5913 117.378 92.5913 117.378 92.5913 117.378C92.5913 117.378 92.5913 117.378 92.5913 117.378L92.5913 117.378C92.5913 117.378 92.5913 117.378 92.5913 117.378C92.5913 117.378 92.5913 117.378 92.5913 117.378L92.5913 117.378C92.5913 117.378 92.5913 117.378 92.5913 117.378C92.5914 117.378 92.5914 117.378 92.5914 117.378L92.5914 117.378C92.5914 117.378 92.5914 117.378 92.5914 117.378L92.5914 117.378C92.5914 117.378 92.5914 117.378 92.5914 117.378C92.5914 117.378 92.5914 117.378 92.5914 117.378C92.5914 117.378 92.5914 117.378 92.5914 117.378C92.5914 117.378 92.5914 117.378 92.5914 117.378L92.5914 117.378L92.5915 117.378C92.5915 117.378 92.5915 117.378 92.5915 117.378C92.5915 117.378 92.5915 117.378 92.5915 117.378C92.5915 117.378 92.5915 117.378 92.5915 117.378C92.5915 117.378 92.5915 117.378 92.5915 117.378C92.5915 117.378 92.5915 117.378 92.5915 117.378C92.5915 117.378 92.5915 117.378 92.5915 117.378C92.5915 117.378 92.5915 117.378 92.5915 117.378C92.5915 117.378 92.5915 117.378 92.5915 117.378L92.5916 117.378C92.5916 117.378 92.5916 117.378 92.5916 117.378C92.5916 117.378 92.5916 117.378 92.5916 117.378C92.5916 117.378 92.5916 117.378 92.5916 117.378C92.5916 117.378 92.5916 117.378 92.5916 117.378C92.5916 117.378 92.5916 117.378 92.5916 117.378L92.5916 117.377L92.5916 117.377L92.5916 117.377L92.5916 117.377C92.5916 117.377 92.5916 117.377 92.5917 117.377C92.5917 117.377 92.5917 117.377 92.5917 117.377C92.5917 117.377 92.5917 117.377 92.5917 117.377L92.5917 117.377C92.5917 117.377 92.5917 117.377 92.5917 117.377C92.5917 117.377 92.5917 117.377 92.5917 117.377L92.5917 117.377C92.5917 117.377 92.5917 117.377 92.5917 117.377C92.5917 117.377 92.5917 117.377 92.5917 117.377C92.5918 117.377 92.5918 117.377 92.5918 117.377C92.5918 117.377 92.5918 117.377 92.5918 117.377L92.5918 117.377C92.5918 117.377 92.5918 117.377 92.5918 117.377C92.5918 117.377 92.5918 117.377 92.5918 117.377C92.5918 117.377 92.5918 117.377 92.5918 117.377C92.5918 117.377 92.5918 117.377 92.5918 117.377C92.5918 117.377 92.5918 117.377 92.5918 117.377C92.5918 117.377 92.5918 117.377 92.5918 117.377C92.5919 117.377 92.5919 117.377 92.5919 117.377C92.5919 117.377 92.5919 117.377 92.5919 117.377L92.5919 117.377C92.5919 117.377 92.5919 117.377 92.1004 116.879C91.6089 116.38 91.6089 116.38 91.6089 116.38L91.6088 116.38C91.6088 116.38 91.6088 116.38 91.6088 116.38C91.6088 116.38 91.6088 116.38 91.6088 116.38C91.6088 116.38 91.6088 116.38 91.6088 116.38C91.6088 116.38 91.6088 116.38 91.6088 116.38C91.6088 116.38 91.6088 116.38 91.6088 116.38C91.6088 116.38 91.6088 116.38 91.6088 116.38C91.6088 116.38 91.6088 116.38 91.6088 116.38C91.6088 116.38 91.6088 116.38 91.6088 116.381L91.6087 116.381C91.6087 116.381 91.6087 116.381 91.6087 116.381C91.6087 116.381 91.6087 116.381 91.6087 116.381C91.6087 116.381 91.6087 116.381 91.6087 116.381C91.6087 116.381 91.6087 116.381 91.6087 116.381L91.6087 116.381C91.6087 116.381 91.6087 116.381 91.6087 116.381C91.6087 116.381 91.6087 116.381 91.6087 116.381L91.6087 116.381C91.6086 116.381 91.6086 116.381 91.6086 116.381C91.6086 116.381 91.6086 116.381 91.6086 116.381C91.6086 116.381 91.6086 116.381 91.6086 116.381L91.6086 116.381L91.6086 116.381L91.6086 116.381L91.6086 116.381C91.6086 116.381 91.6086 116.381 91.6086 116.381C91.6086 116.381 91.6086 116.381 91.6086 116.381C91.6086 116.381 91.6086 116.381 91.6086 116.381C91.6086 116.381 91.6086 116.381 91.6085 116.381C91.6085 116.381 91.6085 116.381 91.6085 116.381L91.6085 116.381C91.6085 116.381 91.6085 116.381 91.6085 116.381C91.6085 116.381 91.6085 116.381 91.6085 116.381C91.6085 116.381 91.6085 116.381 91.6085 116.381C91.6085 116.381 91.6085 116.381 91.6085 116.381C91.6085 116.381 91.6085 116.381 91.6085 116.381C91.6085 116.381 91.6085 116.381 91.6085 116.381C91.6085 116.381 91.6085 116.381 91.6084 116.381C91.6084 116.381 91.6084 116.381 91.6084 116.381L91.6084 116.381L91.6084 116.381C91.6084 116.381 91.6084 116.381 91.6084 116.381C91.6084 116.381 91.6084 116.381 91.6084 116.381C91.6084 116.381 91.6084 116.381 91.6084 116.381C91.6084 116.381 91.6084 116.381 91.6084 116.381L91.6084 116.381C91.6084 116.381 91.6084 116.381 91.6083 116.381L91.6083 116.381C91.6083 116.381 91.6083 116.381 91.6083 116.381C91.6083 116.381 91.6083 116.381 91.6083 116.381L91.6083 116.381C91.6083 116.381 91.6083 116.381 91.6083 116.381C91.6083 116.381 91.6083 116.381 91.6083 116.381L91.6083 116.381C91.6083 116.381 91.6083 116.381 91.6083 116.381C91.6083 116.381 91.6083 116.381 91.6082 116.381C91.6082 116.381 91.6082 116.381 91.6082 116.381C91.6082 116.381 91.6082 116.381 91.6082 116.381L91.6082 116.381L91.6082 116.381L91.6082 116.381C91.6082 116.381 91.6082 116.381 91.6082 116.381C91.6082 116.381 91.6082 116.381 91.6082 116.381C91.6082 116.381 91.6082 116.381 91.6082 116.381C91.6082 116.381 91.6082 116.381 91.6081 116.381C91.6081 116.381 91.6081 116.381 91.6081 116.381C91.6081 116.381 91.6081 116.381 91.6081 116.381L91.6081 116.381L91.6081 116.381L91.6081 116.381L91.6081 116.381C91.6081 116.381 91.6081 116.381 91.6081 116.381C91.6081 116.381 91.6081 116.381 91.6081 116.381C91.6081 116.381 91.6081 116.381 91.6081 116.381C91.6081 116.381 91.6081 116.381 91.608 116.381L91.608 116.381C91.608 116.381 91.608 116.381 91.608 116.381C91.608 116.381 91.608 116.381 91.608 116.381C91.608 116.381 91.608 116.381 91.608 116.381L91.608 116.381C91.608 116.381 91.608 116.381 91.608 116.381C91.608 116.381 91.608 116.381 91.608 116.381C91.608 116.381 91.608 116.381 91.608 116.381L91.6079 116.381C91.6079 116.381 91.6079 116.381 91.6079 116.381C91.6079 116.381 91.6079 116.381 91.6079 116.381L91.6079 116.381C91.6079 116.381 91.6079 116.381 91.6079 116.381L91.6079 116.381C91.6079 116.381 91.6079 116.381 91.6079 116.381C91.6079 116.381 91.6079 116.381 91.6079 116.381L91.6079 116.381C91.6079 116.381 91.6079 116.381 91.6078 116.381L91.6078 116.381C91.6078 116.381 91.6078 116.381 91.6078 116.381L91.6078 116.381C91.6078 116.381 91.6078 116.381 91.6078 116.381L91.6078 116.381C91.6078 116.381 91.6078 116.381 91.6078 116.381L91.6078 116.381C91.6078 116.381 91.6078 116.381 91.6078 116.381L91.6077 116.381C91.6077 116.382 91.6077 116.382 91.6077 116.382L91.6077 116.382C91.6077 116.382 91.6077 116.382 91.6077 116.382L91.6077 116.382C91.6077 116.382 91.6077 116.382 91.6077 116.382C91.6077 116.382 91.6077 116.382 91.6077 116.382C91.6077 116.382 91.6077 116.382 91.6077 116.382C91.6077 116.382 91.6077 116.382 91.6077 116.382L91.6076 116.382C91.6076 116.382 91.6076 116.382 91.6076 116.382C91.6076 116.382 91.6076 116.382 91.6076 116.382L91.6076 116.382C91.6076 116.382 91.6076 116.382 91.6076 116.382L91.6076 116.382C91.6076 116.382 91.6076 116.382 91.6076 116.382C91.6076 116.382 91.6076 116.382 91.6076 116.382L91.6076 116.382C91.6076 116.382 91.6076 116.382 91.6076 116.382C91.6076 116.382 91.6076 116.382 91.6075 116.382C91.6075 116.382 91.6075 116.382 91.6075 116.382L91.6075 116.382C91.6075 116.382 91.6075 116.382 91.6075 116.382C91.6075 116.382 91.6075 116.382 91.6075 116.382L91.6075 116.382C91.6075 116.382 91.6075 116.382 91.6075 116.382C91.6075 116.382 91.6075 116.382 91.6075 116.382C91.6075 116.382 91.6075 116.382 91.6075 116.382L91.6074 116.382C91.6074 116.382 91.6074 116.382 91.6074 116.382C91.6074 116.382 91.6074 116.382 91.6074 116.382C91.6074 116.382 91.6074 116.382 91.6074 116.382L91.6074 116.382C91.6074 116.382 91.6074 116.382 91.6074 116.382C91.6074 116.382 91.6074 116.382 91.6074 116.382C91.6074 116.382 91.6074 116.382 91.6074 116.382C91.6074 116.382 91.6074 116.382 91.6074 116.382L91.6073 116.382C91.6073 116.382 91.6073 116.382 91.6073 116.382C91.6073 116.382 91.6073 116.382 91.6073 116.382C91.6073 116.382 91.6073 116.382 91.6073 116.382C91.6073 116.382 91.6073 116.382 91.6073 116.382L91.6073 116.382L91.6073 116.382C91.6073 116.382 91.6073 116.382 91.6073 116.382C91.6073 116.382 91.6073 116.382 91.6073 116.382C91.6072 116.382 91.6072 116.382 91.6072 116.382C91.6072 116.382 91.6072 116.382 91.6072 116.382L91.6072 116.382L91.6072 116.382L91.6072 116.382C91.6072 116.382 91.6072 116.382 91.6072 116.382C91.6072 116.382 91.6072 116.382 91.6072 116.382C91.6072 116.382 91.6072 116.382 91.6072 116.382L92.5902 117.379ZM92.5919 117.377C97.027 113.004 99.4963 107.159 99.5397 100.929L98.1398 100.919C98.0989 106.778 95.7796 112.267 91.6089 116.38L92.5919 117.377ZM99.5398 100.929C99.5827 94.6985 97.196 88.821 92.8216 84.3852L91.8248 85.3683C95.9384 89.5397 98.1802 95.06 98.1398 100.919L99.5398 100.929ZM92.8215 84.3852C88.4472 79.9504 82.6037 77.4819 76.374 77.438L76.3642 78.8379C82.2226 78.8792 87.7111 81.1978 91.8248 85.3683L92.8215 84.3852ZM85.41 100.831C85.3933 103.291 84.423 105.592 82.6716 107.319L83.6546 108.315C85.6708 106.327 86.7907 103.671 86.81 100.84L85.41 100.831ZM82.6717 107.318C80.9202 109.045 78.6053 109.984 76.1466 109.966L76.1362 111.366C78.9665 111.387 81.6386 110.303 83.6545 108.316L82.6717 107.318ZM76.146 109.966C73.688 109.95 71.3865 108.979 69.6593 107.227L68.6624 108.21C70.6505 110.226 73.3073 111.348 76.1368 111.366L76.146 109.966ZM69.6593 107.227C67.9334 105.477 66.9932 103.162 67.011 100.703L65.611 100.693C65.5905 103.523 66.6758 106.196 68.6624 108.21L69.6593 107.227ZM67.011 100.702C67.0277 98.2445 68.0008 95.942 69.7508 94.2163L68.7677 93.2195C66.7536 95.2058 65.6302 97.8634 65.611 100.693L67.011 100.702ZM69.7508 94.2163C71.501 92.4903 73.8154 91.5499 76.2746 91.5672L76.2845 90.1673C73.4537 90.1473 70.7822 91.2329 68.7677 93.2195L69.7508 94.2163ZM76.2748 91.5672C81.3477 91.6017 85.4463 95.7578 85.41 100.831L86.81 100.841C86.8518 94.9945 82.1306 90.207 76.2843 90.1673L76.2748 91.5672ZM48.7587 293.265C47.7541 294.255 46.3743 294.862 44.8527 294.851L44.843 296.251C46.751 296.264 48.4837 295.502 49.7418 294.262L48.7587 293.265ZM44.8527 294.851C41.8099 294.83 39.3596 292.345 39.3814 289.303L37.9814 289.293C37.9541 293.109 41.0271 296.225 44.843 296.251L44.8527 294.851ZM39.3814 289.303L39.735 238.526L38.3351 238.516L37.9814 289.293L39.3814 289.303ZM39.735 238.526C39.7565 235.483 42.2404 233.033 45.2833 233.054L45.2929 231.655C41.477 231.628 38.362 234.7 38.3351 238.516L39.735 238.526ZM45.2833 233.054C48.326 233.076 50.7765 235.56 50.755 238.603L52.155 238.613C52.1819 234.797 49.109 231.681 45.2929 231.655L45.2833 233.054ZM50.755 238.603L50.4 289.381L51.8 289.391L52.155 238.613L50.755 238.603ZM50.4 289.381C50.3896 290.902 49.7639 292.273 48.7587 293.265L49.7418 294.262C51.0002 293.021 51.7869 291.298 51.8 289.39L50.4 289.381ZM77.1393 311.47C76.1341 312.461 74.7537 313.067 73.2319 313.057L73.2221 314.457C75.1299 314.47 76.8634 313.708 78.1223 312.467L77.1393 311.47ZM73.2318 313.057C70.1891 313.036 67.74 310.552 67.7615 307.509L66.3615 307.5C66.3346 311.316 69.4061 314.43 73.2222 314.457L73.2318 313.057ZM67.7615 307.509L68.1303 254.583L66.7303 254.574L66.3615 307.5L67.7615 307.509ZM68.1303 254.583C68.1515 251.54 70.6355 249.091 73.6777 249.113L73.6877 247.713C69.872 247.685 66.757 250.757 66.7303 254.574L68.1303 254.583ZM73.6778 249.113C76.7209 249.134 79.1706 251.618 79.1491 254.661L80.5491 254.671C80.576 250.855 77.5037 247.739 73.6876 247.713L73.6778 249.113ZM79.1491 254.661L78.7798 307.586L80.1798 307.595L80.5491 254.671L79.1491 254.661ZM78.7798 307.586C78.7694 309.107 78.1436 310.48 77.1393 311.47L78.1223 312.467C79.3802 311.227 80.1668 309.503 80.1798 307.595L78.7798 307.586ZM108.767 293.683C107.761 294.674 106.381 295.281 104.86 295.27L104.85 296.67C106.758 296.684 108.491 295.921 109.75 294.68L108.767 293.683ZM104.86 295.27C101.817 295.249 99.3672 292.765 99.3888 289.722L97.9889 289.712C97.9617 293.528 101.034 296.644 104.85 296.67L104.86 295.27ZM99.3888 289.722L99.7422 238.944L98.3423 238.934L97.9889 289.713L99.3888 289.722ZM99.7422 238.944C99.7639 235.902 102.248 233.451 105.29 233.473L105.3 232.073C101.484 232.046 98.3694 235.119 98.3423 238.934L99.7422 238.944ZM105.29 233.473C108.333 233.494 110.783 235.979 110.762 239.022L112.162 239.032C112.188 235.215 109.115 232.099 105.299 232.073L105.29 233.473ZM110.762 239.022L110.408 289.799L111.808 289.809L112.162 239.032L110.762 239.022ZM110.408 289.799C110.397 291.32 109.772 292.692 108.767 293.683L109.75 294.68C111.008 293.439 111.795 291.717 111.808 289.809L110.408 289.799ZM76.9181 -0.476702C74.699 -0.491642 72.6053 0.558865 71.295 2.34682L72.4243 3.17436C73.4682 1.74985 75.1379 0.911342 76.9087 0.92326L76.9181 -0.476702ZM71.2947 2.34726C70.8444 2.9627 60.5409 17.1096 50.1024 40.0265L51.3764 40.6069C61.7636 17.8028 72.0108 3.73946 72.4246 3.17392L71.2947 2.34726ZM50.1024 40.0265C43.9768 53.4722 39.0729 67.1779 35.5259 80.766L36.8805 81.1196C40.4062 67.6132 45.2824 53.9832 51.3764 40.6069L50.1024 40.0265ZM35.5259 80.7659C31.1697 97.4509 28.8634 114.01 28.6602 130.001L30.0601 130.019C30.2617 114.149 32.5507 97.7032 36.8805 81.1196L35.5259 80.7659ZM28.7825 129.615L1.78802 169.064L2.94341 169.854L29.9379 130.405L28.7825 129.615ZM1.78812 169.064C1.0121 170.197 0.593527 171.536 0.580335 172.908L1.98027 172.921C1.99081 171.825 2.32516 170.758 2.94332 169.855L1.78812 169.064ZM0.580333 172.908L0.0647669 232.926L1.46471 232.938L1.98028 172.92L0.580333 172.908ZM0.0647691 232.926C0.0380972 235.969 2.00435 238.67 4.906 239.582L5.32576 238.246C3.01126 237.519 1.44345 235.365 1.46472 232.938L0.0647691 232.926ZM4.90625 239.582C7.37846 240.358 10.035 239.679 11.8298 237.91L10.8467 236.913C9.41546 238.324 7.29654 238.865 5.32552 238.246L4.90625 239.582ZM11.8298 237.91C12.1421 237.602 12.4276 237.262 12.6823 236.891L11.5289 236.098C11.3244 236.395 11.0959 236.667 10.8467 236.913L11.8298 237.91ZM12.6833 236.89L40.2675 196.577L39.1121 195.786L11.5279 236.099L12.6833 236.89ZM39.0226 196.393C41.1062 202.963 43.4973 209.558 46.2008 216.17L47.4967 215.64C44.8072 209.062 42.429 202.503 40.3571 195.97L39.0226 196.393ZM46.201 216.17C47.2584 218.752 49.7616 220.445 52.5516 220.466L52.562 219.066C50.3367 219.05 48.34 217.699 47.4965 215.639L46.201 216.17ZM52.552 220.466L69.1621 220.582L69.1719 219.182L52.5617 219.066L52.552 220.466ZM68.467 219.877L68.3593 235.309L69.7592 235.318L69.867 219.887L68.467 219.877ZM68.3593 235.309C68.3326 239.127 71.4055 242.243 75.2233 242.269L75.233 240.869C72.1885 240.848 69.738 238.363 69.7592 235.318L68.3593 235.309ZM75.2233 242.269C77.132 242.282 78.8663 241.52 80.1262 240.278L79.1432 239.281C78.1369 240.273 76.7557 240.88 75.233 240.869L75.2233 242.269ZM80.1262 240.278C81.385 239.037 82.1709 237.313 82.1849 235.405L80.785 235.395C80.7737 236.917 80.1483 238.29 79.1432 239.281L80.1262 240.278ZM82.185 235.405L82.2925 219.973L80.8925 219.964L80.785 235.395L82.185 235.405ZM81.5876 220.668L98.1982 220.785L98.208 219.385L81.5974 219.268L81.5876 220.668ZM98.1988 220.785C100.068 220.796 101.82 220.056 103.102 218.793L102.119 217.796C101.097 218.804 99.6986 219.394 98.2074 219.385L98.1988 220.785ZM103.102 218.793C103.732 218.171 104.248 217.423 104.607 216.577L103.319 216.03C103.032 216.704 102.62 217.301 102.119 217.796L103.102 218.793ZM104.607 216.577C107.404 210.004 109.887 203.443 112.061 196.904L110.733 196.462C108.571 202.964 106.101 209.49 103.319 216.029L104.607 216.577ZM110.814 197.071L137.835 237.762L139.001 236.988L111.98 196.296L110.814 197.071ZM137.835 237.762C139.517 240.297 142.659 241.433 145.572 240.563L145.172 239.221C142.848 239.915 140.343 239.009 139.001 236.988L137.835 237.762ZM145.573 240.563C146.682 240.231 147.66 239.638 148.447 238.862L147.464 237.866C146.837 238.484 146.058 238.956 145.171 239.221L145.573 240.563ZM148.447 238.862C149.724 237.603 150.496 235.859 150.505 233.976L149.105 233.969C149.098 235.47 148.483 236.861 147.464 237.866L148.447 238.862ZM150.505 233.976L150.828 173.958L149.428 173.951L149.105 233.969L150.505 233.976ZM150.828 173.958C150.836 172.586 150.433 171.241 149.675 170.097L148.508 170.87C149.113 171.783 149.434 172.856 149.428 173.95L150.828 173.958ZM149.675 170.096L123.233 130.276L122.066 131.051L148.508 170.871L149.675 170.096ZM123.35 130.664C123.368 114.672 121.296 98.082 117.173 81.3367L115.813 81.6714C119.911 98.3148 121.968 114.791 121.95 130.663L123.35 130.664ZM117.173 81.3366C113.814 67.7008 109.103 53.9277 103.167 40.398L101.885 40.9605C107.79 54.4203 112.475 68.1175 115.813 81.6715L117.173 81.3366ZM103.167 40.3979C93.0467 17.338 82.9443 3.04916 82.5017 2.42737L81.3611 3.23921C81.767 3.80939 91.8143 18.0138 101.885 40.9605L103.167 40.3979ZM82.5016 2.42723C81.2134 0.618334 79.1352 -0.460484 76.9185 -0.4767L76.9083 0.923258C78.6763 0.936194 80.3339 1.79676 81.3612 3.23936L82.5016 2.42723ZM14.0645 212.655L14.3894 174.92L12.9895 174.908L12.6645 212.643L14.0645 212.655ZM14.2671 175.309L30.8111 151.132L29.6557 150.341L13.1117 174.519L14.2671 175.309ZM29.5366 150.803C30.4861 160.68 32.1856 170.67 34.633 180.738L35.9934 180.408C33.5611 170.401 31.873 160.477 30.9302 150.67L29.5366 150.803ZM34.7355 180.178L12.7868 212.254L13.9422 213.044L35.8909 180.968L34.7355 180.178ZM136.99 175.775L136.788 213.511L138.188 213.518L138.39 175.783L136.99 175.775ZM138.071 213.127L116.572 180.749L115.406 181.524L136.905 213.902L138.071 213.127ZM116.667 181.312C119.256 171.276 121.094 161.312 122.18 151.45L120.789 151.297C119.71 161.09 117.885 170.989 115.311 180.962L116.667 181.312ZM120.902 151.761L137.106 176.166L138.273 175.392L122.068 150.986L120.902 151.761ZM90.6314 46.2465C99.3892 66.2716 109.764 97.3263 109.525 131.62L110.925 131.63C111.165 97.065 100.714 65.8065 91.9141 45.6855L90.6314 46.2465ZM109.525 131.62C109.414 147.404 107.125 163.601 102.703 180.036L104.055 180.4C108.506 163.859 110.813 147.543 110.925 131.63L109.525 131.62ZM102.717 179.992C102.612 180.298 102.525 180.617 102.464 180.943L103.84 181.201C103.887 180.949 103.956 180.696 104.042 180.445L102.717 179.992ZM102.476 180.887C100.079 189.654 97.0732 198.49 93.4642 207.365L94.7611 207.893C98.39 198.968 101.414 190.079 103.827 181.257L102.476 180.887ZM94.1176 206.929L81.6835 206.842L81.6737 208.242L94.1077 208.329L94.1176 206.929ZM82.3786 207.547L82.5547 182.45L81.1548 182.44L80.9786 207.537L82.3786 207.547ZM82.5547 182.45C82.5809 178.633 79.5073 175.516 75.6902 175.489L75.6801 176.889C78.7244 176.91 81.1756 179.396 81.1548 182.44L82.5547 182.45ZM75.69 175.489C71.8722 175.462 68.756 178.536 68.7288 182.353L70.1288 182.363C70.1504 179.319 72.6358 176.868 75.6803 176.889L75.69 175.489ZM68.7288 182.353L68.5529 207.45L69.9528 207.46L70.1288 182.363L68.7288 182.353ZM69.2577 206.755L56.8237 206.668L56.8138 208.068L69.2479 208.155L69.2577 206.755ZM57.4708 207.113C53.9864 198.186 51.1032 189.309 48.8279 180.508L47.4725 180.858C49.7624 189.716 52.663 198.646 56.1667 207.622L57.4708 207.113ZM48.8399 180.564C48.7833 180.238 48.701 179.924 48.6029 179.621L47.271 180.052C47.3526 180.304 47.4171 180.553 47.4605 180.803L48.8399 180.564ZM48.6153 179.664C44.4213 163.166 42.3588 146.938 42.4691 131.15L41.0691 131.14C40.9579 147.057 43.0375 163.405 47.2585 180.009L48.6153 179.664ZM42.4691 131.15C42.7085 96.8579 53.5158 65.951 62.5521 46.0495L61.2774 45.4707C52.1978 65.4674 41.3104 96.5771 41.0691 131.14L42.4691 131.15ZM62.5522 46.0495C68.0397 33.9599 73.556 24.3567 77.3837 18.1964L76.1945 17.4575C72.3417 23.6583 66.7947 33.3154 61.2774 45.4708L62.5522 46.0495ZM76.1894 18.188C79.9309 24.4022 85.3126 34.0819 90.6314 46.2464L91.9142 45.6856C86.5664 33.4547 81.1548 23.7208 77.3888 17.4659L76.1894 18.188Z" fill="#F1F4F9" mask="url(#path-1-inside-1_34_326)"/>
</svg>
