<svg width="63" height="63" viewBox="0 0 63 63" fill="none" xmlns="http://www.w3.org/2000/svg">
<path d="M0.737526 50.8307L0.73751 50.8307C0.220812 50.314 0.22086 49.476 0.737476 48.9596L0.737529 48.9596L10.4111 39.2858C10.9278 38.7692 11.7655 38.7692 12.2822 39.2858C12.7989 39.8024 12.7989 40.6404 12.2822 41.1571L12.2822 41.1571L2.60827 50.8307L2.60824 50.8307C2.35 51.089 2.01215 51.218 1.67281 51.218C1.33369 51.218 0.9959 51.089 0.737526 50.8307Z" fill="#EEC912" stroke="#F1F4F9" stroke-width="0.7"/>
<path d="M2.73753 59.6917L2.73751 59.6916C2.22083 59.175 2.22083 58.3375 2.73751 57.8209L2.73753 57.8209L12.8206 47.7378C13.3373 47.221 14.175 47.2211 14.6914 47.7377L14.6914 47.7378C15.2081 48.2545 15.2081 49.0923 14.6914 49.6089L14.6914 49.6089L4.60854 59.6916L4.6085 59.6917C4.35018 59.9501 4.01204 60.0792 3.67307 60.0792C3.33381 60.0792 2.99598 59.9501 2.73753 59.6917Z" fill="#EEC912" stroke="#F1F4F9" stroke-width="0.7"/>
<path d="M12.1695 62.2629L12.1695 62.2629C11.6528 61.7463 11.6529 60.9085 12.1695 60.392L12.1695 60.3919L21.8434 50.7178C21.8434 50.7178 21.8434 50.7178 21.8434 50.7178C22.36 50.2014 23.1978 50.2013 23.7142 50.7178L23.7142 50.7178C24.2309 51.2344 24.2309 52.0724 23.7142 52.5892L23.9617 52.8366L23.7142 52.5892L14.0407 62.2629C13.7823 62.5212 13.4444 62.6502 13.1051 62.6502C12.7657 62.6502 12.4279 62.5213 12.1695 62.2629Z" fill="#EEC912" stroke="#F1F4F9" stroke-width="0.7"/>
<path d="M17.5 45.4998L22 40.9998M22 40.9998L17.9525 36.9523C17.6766 36.6764 17.5868 36.267 17.7352 35.9063C18.1929 34.7935 19.3293 32.2134 21.2371 29M22 40.9998L26.0525 45.0523C26.3258 45.3256 26.7306 45.4165 27.0896 45.2733C28.202 44.8297 30.7896 43.724 34 41.8665M22 40.9998C22 40.9998 25.6569 37.3431 28 35M29.6544 18C30.8406 16.7989 32.1213 15.6221 33.5 14.4998C43.8184 6.10007 60.7611 1.26099 61 1.49991C61.5 1.99991 58.5 16.5 49.5 28.5C47.9494 30.5675 46.2503 32.4272 44.5 34.0894M29.6544 18L17.1052 20.385C16.7109 20.4599 16.3482 20.6518 16.0644 20.9356L6.13751 30.8625C5.79038 31.2096 6.09916 31.7969 6.5819 31.7077L21.2371 29M29.6544 18C25.9685 21.7325 23.1961 25.7002 21.2371 29M44.5 34.0894L42.6029 45.8614C42.536 46.2765 42.34 46.66 42.0426 46.9574L32.1398 56.8602C31.7925 57.2075 31.2049 56.8982 31.2947 56.4152L34 41.8665M44.5 34.0894C40.9394 37.4706 37.1667 40.0343 34 41.8665" stroke="#A5AEB7" stroke-width="2" stroke-linecap="round"/>
<circle cx="45" cy="18" r="4" stroke="#EEC912" stroke-width="2"/>
</svg>
