<svg width="63" height="63" viewBox="0 0 63 63" fill="none" xmlns="http://www.w3.org/2000/svg">
<path d="M39.2911 15.5817L39.2911 15.5817C38.2053 16.6675 37.6081 18.1096 37.6081 19.645C37.6081 21.1807 38.2053 22.6228 39.2911 23.7087C40.3771 24.7946 41.8189 25.3916 43.3542 25.3919H43.3542H43.3543H43.3543H43.3543H43.3543L39.2911 15.5817ZM39.2911 15.5817C40.3771 14.4956 41.8194 13.8983 43.3549 13.8983C44.8902 13.8983 46.3325 14.4956 47.4184 15.5817M39.2911 15.5817L47.4184 15.5817M43.3547 22.6628H43.3546C42.5492 22.6626 41.7904 22.3482 41.2211 21.7785C40.6517 21.2093 40.3372 20.4507 40.3372 19.6451C40.3372 18.8401 40.6515 18.0811 41.2212 17.5117C41.2212 17.5117 41.2213 17.5116 41.2213 17.5116M43.3547 22.6628L41.4687 17.7591L41.2213 17.5116M43.3547 22.6628C44.1605 22.6628 44.9188 22.3481 45.4882 21.7785C46.6651 20.6019 46.6651 18.6883 45.4882 17.5117C44.9187 16.942 44.1597 16.6279 43.3547 16.6279C42.5498 16.6279 41.7906 16.9422 41.2213 17.5116M43.3547 22.6628L41.2213 17.5116M47.4184 15.5817C48.5042 16.6676 49.1014 18.1096 49.1016 19.645L47.4184 15.5817ZM43.3549 25.3919H43.3549C44.8902 25.3919 46.3325 24.7946 47.4184 23.7087C48.5043 22.6227 49.1016 21.1807 49.1016 19.6451L43.3549 25.3919ZM43.3549 25.3919H43.3549M43.3549 25.3919H43.3549M43.3549 25.3919H43.3549M43.3549 25.3919H43.3549M43.3549 25.3919H43.3548M43.3549 25.3919H43.3548M43.3548 25.3919H43.3548M43.3548 25.3919H43.3548M43.3548 25.3919H43.3548M43.3548 25.3919H43.3548M43.3548 25.3919H43.3548M43.3548 25.3919H43.3548M43.3548 25.3919H43.3548M43.3548 25.3919H43.3548M43.3548 25.3919H43.3548M43.3548 25.3919H43.3548M43.3548 25.3919H43.3548M43.3548 25.3919H43.3548M43.3548 25.3919H43.3548M43.3548 25.3919H43.3548M43.3548 25.3919H43.3548M43.3548 25.3919H43.3548M43.3548 25.3919H43.3548M43.3548 25.3919H43.3548M43.3548 25.3919H43.3548M43.3548 25.3919H43.3548M43.3548 25.3919H43.3548M43.3548 25.3919H43.3548M43.3548 25.3919H43.3548M43.3548 25.3919H43.3548M43.3548 25.3919H43.3548M43.3548 25.3919H43.3548M43.3548 25.3919H43.3547M43.3548 25.3919H43.3547M43.3547 25.3919H43.3547M43.3547 25.3919H43.3547M43.3547 25.3919H43.3547M43.3547 25.3919H43.3547M43.3547 25.3919H43.3547M43.3547 25.3919H43.3547M43.3547 25.3919H43.3547M43.3547 25.3919H43.3547M43.3547 25.3919H43.3547M43.3547 25.3919H43.3547M43.3547 25.3919H43.3547M43.3547 25.3919H43.3547M43.3547 25.3919H43.3547M43.3547 25.3919H43.3547M43.3547 25.3919H43.3547M43.3547 25.3919H43.3547M43.3547 25.3919H43.3547M43.3547 25.3919H43.3547M43.3547 25.3919H43.3547M43.3547 25.3919H43.3547M43.3547 25.3919H43.3547M43.3547 25.3919H43.3547M43.3547 25.3919H43.3547M43.3547 25.3919H43.3547M43.3547 25.3919H43.3546M43.3547 25.3919H43.3546M43.3546 25.3919H43.3546M43.3546 25.3919H43.3546M43.3546 25.3919H43.3546M43.3546 25.3919H43.3546M43.3546 25.3919H43.3546M43.3546 25.3919H43.3546M43.3546 25.3919H43.3546M43.3546 25.3919H43.3546M43.3546 25.3919H43.3546M43.3546 25.3919H43.3546M43.3546 25.3919H43.3546M43.3546 25.3919H43.3546M43.3546 25.3919H43.3546M43.3546 25.3919H43.3546M43.3546 25.3919H43.3546M43.3546 25.3919H43.3546M43.3546 25.3919H43.3546M43.3546 25.3919H43.3546M43.3546 25.3919H43.3546M43.3546 25.3919H43.3546M43.3546 25.3919H43.3546M43.3546 25.3919H43.3546M43.3546 25.3919H43.3545M43.3546 25.3919H43.3545M43.3545 25.3919H43.3545M43.3545 25.3919H43.3545M43.3545 25.3919H43.3545M43.3545 25.3919H43.3545M43.3545 25.3919H43.3545M43.3545 25.3919H43.3545M43.3545 25.3919H43.3545M43.3545 25.3919H43.3545M43.3545 25.3919H43.3545M43.3545 25.3919H43.3545M43.3545 25.3919H43.3545M43.3545 25.3919H43.3545M43.3545 25.3919H43.3545M43.3545 25.3919H43.3545M43.3545 25.3919H43.3545M43.3545 25.3919H43.3545M43.3545 25.3919H43.3545M43.3545 25.3919H43.3545M43.3545 25.3919H43.3545M43.3545 25.3919H43.3545M43.3545 25.3919H43.3545M43.3545 25.3919H43.3545M43.3545 25.3919H43.3545M43.3545 25.3919H43.3545M43.3545 25.3919H43.3544M43.3545 25.3919H43.3544M43.3544 25.3919H43.3544M43.3544 25.3919H43.3544M43.3544 25.3919H43.3544M43.3544 25.3919H43.3544M43.3544 25.3919H43.3544M43.3544 25.3919H43.3544M43.3544 25.3919H43.3544M43.3544 25.3919H43.3544M43.3544 25.3919H43.3544M43.3544 25.3919H43.3544M43.3544 25.3919H43.3544M43.3544 25.3919H43.3544M43.3544 25.3919H43.3544M43.3544 25.3919H43.3544M43.3544 25.3919H43.3544M43.3544 25.3919H43.3544M43.3544 25.3919H43.3544M43.3544 25.3919H43.3544M43.3544 25.3919H43.3544M43.3544 25.3919H43.3544M43.3544 25.3919H43.3543M43.3544 25.3919H43.3543M43.3543 25.3919H43.3543M43.3543 25.3919H43.3543M43.3543 25.3919H43.3543M43.3543 25.3919H43.3543M43.3543 25.3919H43.3543M43.3543 25.3919H43.3543M43.3543 25.3919H43.3543H43.3543Z" fill="#EEC912" stroke="#F1F4F9" stroke-width="0.7"/>
<path d="M0.737526 50.8304L0.73751 50.8304C0.220812 50.3138 0.22086 49.4758 0.737476 48.9594L0.737529 48.9593L10.4111 39.2856C10.9278 38.7689 11.7655 38.7689 12.2822 39.2856C12.7989 39.8022 12.7989 40.6402 12.2822 41.1568L12.2822 41.1568L2.60827 50.8304L2.60824 50.8305C2.35 51.0888 2.01215 51.2177 1.67281 51.2177C1.33369 51.2177 0.9959 51.0888 0.737526 50.8304Z" fill="#EEC912" stroke="#F1F4F9" stroke-width="0.7"/>
<path d="M2.73753 59.6914L2.73751 59.6914C2.22083 59.1748 2.22083 58.3373 2.73751 57.8207L2.73753 57.8207L12.8206 47.7375C13.3373 47.2208 14.175 47.2209 14.6914 47.7375L14.6914 47.7375C15.2081 48.2542 15.2081 49.092 14.6914 49.6086L14.6914 49.6086L4.60854 59.6914L4.6085 59.6914C4.35018 59.9498 4.01204 60.079 3.67307 60.079C3.33381 60.079 2.99598 59.9499 2.73753 59.6914Z" fill="#EEC912" stroke="#F1F4F9" stroke-width="0.7"/>
<path d="M12.1695 62.2627L12.1695 62.2627C11.6528 61.7461 11.6529 60.9082 12.1695 60.3917L12.1695 60.3917L21.8434 50.7176C21.8434 50.7176 21.8434 50.7176 21.8434 50.7175C22.36 50.2011 23.1978 50.2011 23.7142 50.7175L23.7142 50.7176C24.2309 51.2342 24.2309 52.0722 23.7142 52.5889L23.9617 52.8364L23.7142 52.5889L14.0407 62.2627C13.7823 62.521 13.4444 62.65 13.1051 62.65C12.7657 62.65 12.4279 62.521 12.1695 62.2627Z" fill="#EEC912" stroke="#F1F4F9" stroke-width="0.7"/>
<path d="M29.006 16.7153L28.9021 16.7355L16.2609 19.1964L16.2608 19.1965C16.0031 19.2466 15.7659 19.3727 15.5791 19.5584C15.5791 19.5585 15.5791 19.5585 15.579 19.5585L4.12653 30.974L4.12649 30.9741C3.71373 31.3854 3.61859 32.0179 3.89164 32.5326L29.006 16.7153ZM29.006 16.7153L29.0813 16.6408C32.1121 13.6446 35.6519 10.9306 39.6093 8.57456L39.4302 8.27382L39.6093 8.57455C42.8323 6.65556 46.3378 4.96733 50.0291 3.55729L49.9043 3.23083M29.006 16.7153L49.9043 3.23083M49.9043 3.23083L50.0291 3.55728C56.3192 1.15399 60.9325 0.396597 61.1161 0.366826M49.9043 3.23083L61.1161 0.366826M18.9367 30.5591L18.6107 31.1988C17.7742 32.8401 16.9914 34.5442 16.2646 36.3109C16.0617 36.8052 16.1753 37.3727 16.553 37.7508C16.553 37.7508 16.553 37.7509 16.5531 37.7509L19.7174 40.9152L19.9649 41.1627L19.7174 41.4102L16.7775 44.3501C16.2604 44.8671 16.2605 45.7051 16.7775 46.2221L16.5438 46.4558L16.7775 46.2221C17.0361 46.4807 17.3742 46.6099 17.7138 46.6099C18.053 46.6099 18.3911 46.4808 18.6498 46.2224C18.6498 46.2223 18.6498 46.2223 18.6499 46.2223L21.5897 43.2824L21.8372 43.0349L22.0847 43.2824L25.2489 46.4468C25.5024 46.6999 25.8411 46.8347 26.1858 46.8347C26.3549 46.8347 26.5259 46.8021 26.6886 46.7351L26.6888 46.735C28.4556 46.0085 30.1599 45.2257 31.8007 44.3895L32.4403 44.0635L32.3031 44.7682L29.7887 57.6858C29.6774 58.2577 29.9528 58.8349 30.4671 59.1081C30.6636 59.2123 30.8763 59.2629 31.0877 59.2629C31.4315 59.2629 31.7711 59.1288 32.0253 58.8735L32.0254 58.8734L43.4412 47.421L43.4413 47.4209C43.6268 47.2349 43.7529 46.9974 43.8034 46.7391L46.2639 34.0984L46.2842 33.9945L46.3586 33.9192C49.3547 30.8881 52.0693 27.3488 54.4255 23.3913C56.3441 20.1679 58.0326 16.6626 59.4429 12.9717C59.4429 12.9717 59.4429 12.9717 59.4429 12.9716L18.9367 30.5591ZM18.9367 30.5591L18.2319 30.6963M18.9367 30.5591L18.2319 30.6963M18.2319 30.6963L5.31503 33.2112C5.31489 33.2113 5.31476 33.2113 5.31462 33.2113C5.2293 33.2277 5.14435 33.2356 5.06046 33.2356C4.57777 33.2356 4.12438 32.9707 3.89171 32.5327L18.2319 30.6963ZM61.1161 0.366826C61.5345 0.299329 61.9614 0.437362 62.2623 0.737999M61.1161 0.366826L62.2623 0.737999M62.2623 0.737999C62.5624 1.03835 62.7007 1.46505 62.6331 1.88495L62.2623 0.737999ZM9.88647 28.9708L9.07284 29.7818L10.2004 29.5623L20.4788 27.5613L20.6319 27.5315L20.7121 27.3977C22.1347 25.0243 23.684 22.8074 25.3534 20.7539L25.962 20.0052L25.0149 20.1896L17.2675 21.6979L17.1628 21.7183L17.0873 21.7935L9.88647 28.9708ZM41.2058 45.9122L41.2811 45.8367L41.3014 45.732L42.8098 37.9847L42.9942 37.0374L42.2454 37.6462C40.1921 39.3158 37.9756 40.8648 35.6016 42.2874L35.4678 42.3676L35.438 42.5208L33.4371 52.799L33.2176 53.9265L34.0285 53.1129L41.2058 45.9122ZM33.6925 40.3393L33.703 40.334L33.7131 40.3281C37.707 37.9905 41.2472 35.2888 44.2896 32.2467L44.0421 31.9992C50.6013 25.44 54.4978 17.4933 56.611 11.9819L56.9378 12.1073C56.9378 12.1073 56.9378 12.1073 56.9378 12.1072C58.2287 8.74155 59.034 5.84369 59.4961 3.92602L59.6301 3.36975L59.0738 3.50376C57.1564 3.96569 54.2585 4.77084 50.8928 6.06187C45.357 8.18456 37.3603 12.1029 30.7534 18.7097C27.7105 21.7525 25.0086 25.2931 22.6709 29.2877L22.6652 29.2974L22.6601 29.3075C22.6309 29.3657 22.6 29.4189 22.5661 29.4677L22.558 29.4794L22.5509 29.4917C21.3111 31.63 20.1753 33.8975 19.147 36.2878L19.0532 36.5058L19.221 36.6736L21.5898 39.0425L21.8372 39.29L22.0847 39.0425L26.8661 34.2615C26.8661 34.2615 26.8661 34.2615 26.8661 34.2615C27.3832 33.7446 28.2215 33.7446 28.7385 34.2615C29.2553 34.7786 29.2553 35.6169 28.7385 36.1338L23.957 40.9148L23.7095 41.1623L23.957 41.4098L26.3257 43.7788L26.4935 43.9466L26.7115 43.8528C29.1016 42.8249 31.3689 41.6889 33.5067 40.4496L33.519 40.4424L33.5308 40.4342C33.5803 40.3998 33.6345 40.3682 33.6925 40.3393Z" fill="#A5AEB7" stroke="#F1F4F9" stroke-width="0.7"/>
</svg>
