<svg width="74" height="26" viewBox="0 0 74 26" fill="none" xmlns="http://www.w3.org/2000/svg">
<path d="M53.2817 6.31298C54.9495 6.31298 56.2999 4.96259 56.2999 3.29746C56.2999 1.63233 54.9486 0.279297 53.2817 0.279297C51.6148 0.279297 50.2662 1.63145 50.2662 3.29746C50.2661 3.69354 50.344 4.08576 50.4955 4.45172C50.647 4.81768 50.8691 5.15022 51.1491 5.43033C51.4291 5.71044 51.7616 5.93264 52.1275 6.08424C52.4934 6.23584 52.8856 6.31386 53.2817 6.31386M30.165 7.93943C30.0288 8.2911 29.0485 11.0517 26.6774 13.9204V1.65079L20.3606 2.8992V25.142H26.6783V18.2669C28.5087 21.0099 29.4125 25.142 29.4125 25.142H36.9794C36.2321 22.0298 32.9572 16.2932 32.9572 16.2932C34.9029 13.7836 36.4027 10.9582 37.3909 7.94031L30.165 7.93943ZM46.7724 7.70734C41.115 7.88932 38.2419 10.4275 38.2419 15.4739V25.1411H44.4154V17.2585C44.4154 14.2377 44.811 12.9507 48.3962 12.8188V7.79877C47.7931 7.67041 46.7724 7.71085 46.7724 7.71085M9.76672 10.3923C8.99306 10.3422 7.20132 10.2253 7.20132 8.61287C7.20132 6.66729 9.7799 6.66729 10.7479 6.66729C12.449 6.66729 14.6513 7.16841 16.225 7.64052C16.761 7.86347 17.3027 8.0722 17.8497 8.26648L17.9201 8.28582V2.95459L17.8251 2.92645C15.9683 2.27587 13.81 1.65167 9.80716 1.65167C2.90574 1.65167 0.46167 5.6712 0.46167 9.11575C0.46167 11.1009 1.3127 15.7736 9.21548 16.3126C9.8854 16.3539 11.6631 16.4559 11.6631 18.1236C11.6631 19.4995 10.2072 20.311 7.75959 20.311C5.07815 20.311 2.47319 19.627 0.893338 18.9782V24.4668C3.26004 25.0866 5.92742 25.3969 9.0546 25.3969C15.8022 25.3969 18.8238 21.5937 18.8238 17.8239C18.8238 13.5494 15.4426 10.773 9.76848 10.3923M50.224 25.1446H56.3465V7.96053H50.2222L50.224 25.1446ZM67.8758 2.74798V25.1446H74V1.65343L67.8758 2.74798ZM58.9409 2.74798L65.0581 1.65343V25.1446H58.9409V2.74623V2.74798Z" fill="#862565"/>
</svg>
