<svg width="45" height="38" viewBox="0 0 45 38" fill="none" xmlns="http://www.w3.org/2000/svg">
<path fill-rule="evenodd" clip-rule="evenodd" d="M8.83065 0.185045L0.933468 16.7731C0.903417 16.8348 0.893894 16.9045 0.906292 16.972C0.918689 17.0395 0.952357 17.1012 1.00237 17.1482L22.3307 37.5859C22.3913 37.644 22.472 37.6765 22.556 37.6765C22.6399 37.6765 22.7206 37.644 22.7812 37.5859L44.1096 17.1495C44.1596 17.1025 44.1932 17.0407 44.2056 16.9732C44.218 16.9057 44.2085 16.836 44.1785 16.7743L36.2813 0.186321C36.2558 0.130611 36.2148 0.0834183 36.1632 0.0503819C36.1116 0.0173455 36.0516 -0.000136658 35.9903 2.46937e-05H9.12413C9.06257 -0.000741115 9.00211 0.01632 8.95003 0.0491498C8.89796 0.0819797 8.8565 0.129176 8.83065 0.185045Z" fill="#50AF95"/>
<path fill-rule="evenodd" clip-rule="evenodd" d="M25.2962 18.4765C25.1431 18.4879 24.352 18.5352 22.5873 18.5352C21.1837 18.5352 20.1871 18.493 19.8375 18.4765C14.4132 18.2378 10.3645 17.2936 10.3645 16.1631C10.3645 15.0325 14.4132 14.0896 19.8375 13.8471V17.536C20.1922 17.5616 21.2079 17.6215 22.6115 17.6215C24.2959 17.6215 25.1393 17.5514 25.2911 17.5373V13.8497C30.7039 14.0908 34.7438 15.0351 34.7438 16.1631C34.7438 17.291 30.7052 18.2353 25.2911 18.4752L25.2962 18.4765ZM25.2962 13.4681V10.1671H32.8502V5.1333H12.2836V10.1671H19.8362V13.4669C13.6974 13.7489 9.08081 14.9649 9.08081 16.4221C9.08081 17.8793 13.6974 19.094 19.8362 19.3773V29.9554H25.295V19.3735C31.4198 19.0915 36.0287 17.8767 36.0287 16.4208C36.0287 14.9649 31.4236 13.7501 25.295 13.4669L25.2962 13.4681Z" fill="white"/>
</svg>
