<svg width="52" height="54" viewBox="0 0 52 54" fill="none" xmlns="http://www.w3.org/2000/svg">
<path d="M24.1875 0C39.0992 0 51.1875 12.0883 51.1875 27C51.1875 41.9117 39.0992 54 24.1875 54C16.4054 54 9.15349 50.6873 4.0641 45.0017C3.4425 44.3073 3.50153 43.2405 4.19594 42.6189C4.89035 41.9973 5.95719 42.0563 6.57878 42.7507C11.0345 47.7284 17.3755 50.625 24.1875 50.625C37.2352 50.625 47.8125 40.0477 47.8125 27C47.8125 13.9523 37.2352 3.375 24.1875 3.375C16.8445 3.375 10.0703 6.74752 5.63177 12.3751L11.25 12.375C13.4375 12.375 13.4983 15.5651 11.4323 15.7423L11.25 15.75H1.6875C0.810342 15.75 0.0894951 15.0808 0.00772476 14.225L0 14.0625V4.5C0 3.56802 0.755519 2.8125 1.6875 2.8125C2.56466 2.8125 3.2855 3.48175 3.36728 4.33748L3.375 4.5L3.37426 9.79905C8.44704 3.66243 16.011 0 24.1875 0Z" fill="#A5AEB7"/>
<path d="M24.6875 16C25.5647 16 26.2855 16.6692 26.3673 17.525L26.375 17.6875V28.8014L33.1932 35.6193C33.8111 36.2371 33.8497 37.2148 33.3091 37.8776L33.1932 38.0057C32.5754 38.6236 31.5977 38.6622 30.9349 38.1216L30.8068 38.0057L23.4943 30.6932C23.2173 30.4163 23.0466 30.0531 23.0083 29.6668L23 29.5V17.6875C23 16.7555 23.7555 16 24.6875 16Z" fill="#EEC912"/>
</svg>
