<svg width="78" height="26" viewBox="0 0 78 26" fill="none" xmlns="http://www.w3.org/2000/svg">
<path d="M33.5635 24.9783H27.246L31.1944 0.712885H37.5126L33.5635 24.9783ZM21.9313 0.712885L15.9084 17.4028L15.1957 13.8088L15.1964 13.8101L13.0706 2.89771C13.0706 2.89771 12.8136 0.712885 10.0738 0.712885H0.116836L0 1.12376C0 1.12376 3.04486 1.75726 6.60834 3.8973L12.097 24.9789H18.6794L28.7305 0.712885H21.9313ZM71.622 24.9783H77.4229L72.3652 0.712237H67.2868C64.9416 0.712237 64.3704 2.52059 64.3704 2.52059L54.9483 24.9783H61.5339L62.8509 21.3739H70.882L71.622 24.9783ZM64.6703 16.3948L67.9897 7.31408L69.8571 16.3948H64.6703ZM55.4423 6.54816L56.3438 1.3373C56.3438 1.3373 53.5619 0.279297 50.6617 0.279297C47.5267 0.279297 40.0817 1.64952 40.0817 8.31238C40.0817 14.5812 48.8196 14.6591 48.8196 17.9519C48.8196 21.2448 40.9819 20.6547 38.3953 18.5783L37.4561 24.0267C37.4561 24.0267 40.277 25.3969 44.587 25.3969C48.8982 25.3969 55.402 23.1647 55.402 17.0893C55.402 10.7802 46.5855 10.1928 46.5855 7.44974C46.5861 4.70606 52.7388 5.05851 55.4423 6.54816Z" fill="#2566AF"/>
<path d="M15.1964 13.8096L13.0706 2.89722C13.0706 2.89722 12.8136 0.712402 10.0738 0.712402H0.116836L0 1.12327C0 1.12327 4.78571 2.11507 9.37604 5.83109C13.7652 9.38288 15.1964 13.8096 15.1964 13.8096Z" fill="#E6A540"/>
</svg>
