<svg width="57" height="56" viewBox="0 0 57 56" fill="none" xmlns="http://www.w3.org/2000/svg">
<path d="M3.84348 4.21157L34.4683 11.9138C36.3443 12.4678 38.0006 13.6007 39.2035 15.1527C40.4065 16.7048 41.0957 18.5978 41.1739 20.5651V48.4129C41.2242 49.2597 41.0708 50.1063 40.7268 50.8807C40.3827 51.6551 39.8582 52.3345 39.1977 52.8611C38.5373 53.3878 37.7604 53.7461 36.933 53.9058C36.1056 54.0654 35.2522 54.0217 34.4452 53.7782L8.7287 47.6888C6.85016 47.1665 5.18549 46.0555 3.97576 44.5168C2.76603 42.978 2.07404 41.0915 2 39.1303V8.96193C2.00547 7.11721 2.73556 5.34961 4.03083 4.04519C5.32609 2.74077 7.08127 2.00551 8.91304 2H48.087C49.9187 2.00551 51.6739 2.74077 52.9692 4.04519C54.2644 5.34961 54.9945 7.11721 55 8.96193V34.489C54.9951 36.3339 54.2652 38.1019 52.9698 39.4064C51.6745 40.711 49.9189 41.446 48.087 41.4509H41.1739" stroke="#A5AEB7" stroke-width="3" stroke-linecap="round" stroke-linejoin="round"/>
<path d="M28.5 35C30.433 35 32 33.433 32 31.5C32 29.567 30.433 28 28.5 28C26.567 28 25 29.567 25 31.5C25 33.433 26.567 35 28.5 35Z" stroke="#EEC912" stroke-width="3" stroke-linecap="round" stroke-linejoin="round"/>
</svg>
