<svg width="91" height="87" viewBox="0 0 91 87" fill="none" xmlns="http://www.w3.org/2000/svg">
<path d="M34.0336 71.775H20.4752C20.1249 71.775 19.789 71.6419 19.5413 71.4049C19.2937 71.168 19.1545 70.8466 19.1545 70.5115V51.0539C19.1545 50.7188 19.2937 50.3974 19.5413 50.1604C19.789 49.9235 20.1249 49.7904 20.4752 49.7904H34.0336C34.3838 49.7904 34.7197 49.9235 34.9674 50.1604C35.2151 50.3974 35.3542 50.7188 35.3542 51.0539V70.5115C35.3542 70.8466 35.2151 71.168 34.9674 71.4049C34.7197 71.6419 34.3838 71.775 34.0336 71.775ZM21.7958 69.248H32.713V52.3173H21.7958V69.248ZM54.3713 71.775H40.8128C40.4626 71.775 40.1266 71.6419 39.879 71.4049C39.6313 71.168 39.4922 70.8466 39.4922 70.5115V31.5961C39.4922 31.261 39.6313 30.9397 39.879 30.7028C40.1266 30.4658 40.4626 30.3327 40.8128 30.3327H54.3713C54.7215 30.3327 55.0574 30.4658 55.3051 30.7028C55.5528 30.9397 55.6919 31.261 55.6919 31.5961V70.5115C55.6919 70.8466 55.5528 71.168 55.3051 71.4049C55.0574 71.6419 54.7215 71.775 54.3713 71.775ZM42.1334 69.248H53.0506V32.8596H42.1334V69.248ZM74.7089 71.775H61.1505C60.8003 71.775 60.4643 71.6419 60.2167 71.4049C59.969 71.168 59.8299 70.8466 59.8299 70.5115V12.1385C59.8299 11.8034 59.969 11.482 60.2167 11.2451C60.4643 11.0081 60.8003 10.875 61.1505 10.875H74.7089C75.0592 10.875 75.3951 11.0081 75.6427 11.2451C75.8904 11.482 76.0295 11.8034 76.0295 12.1385V70.5115C76.0295 70.8466 75.8904 71.168 75.6427 71.4049C75.3951 71.6419 75.0592 71.775 74.7089 71.775ZM62.4711 69.248H73.3883V13.402H62.4711V69.248Z" fill="#EEC912"/>
<path d="M89.2938 87H1.70625C1.25372 87 0.819723 86.8281 0.499739 86.5222C0.179755 86.2163 0 85.8014 0 85.3688V1.63125C0 1.19862 0.179755 0.783691 0.499739 0.477773C0.819723 0.171854 1.25372 0 1.70625 0C2.15878 0 2.59278 0.171854 2.91276 0.477773C3.23274 0.783691 3.4125 1.19862 3.4125 1.63125V83.7375H89.2938C89.7463 83.7375 90.1803 83.9094 90.5003 84.2153C90.8203 84.5212 91 84.9361 91 85.3688C91 85.8014 90.8203 86.2163 90.5003 86.5222C90.1803 86.8281 89.7463 87 89.2938 87Z" fill="#A5AEB7"/>
</svg>
