<svg width="91" height="91" viewBox="0 0 91 91" fill="none" xmlns="http://www.w3.org/2000/svg">
<path d="M89.2938 29.6887C89.7463 29.6887 90.1803 29.509 90.5003 29.189C90.8203 28.869 91 28.435 91 27.9825C91 27.5299 90.8203 27.096 90.5003 26.776C90.1803 26.456 89.7463 26.2762 89.2938 26.2762H82.2412V20.93H89.2938C89.7463 20.93 90.1803 20.7502 90.5003 20.4302C90.8203 20.1102 91 19.6763 91 19.2238C91 18.7713 90.8203 18.3373 90.5003 18.0173C90.1803 17.6973 89.7463 17.5175 89.2938 17.5175H82.0365C81.6265 15.4011 80.5929 13.4557 79.0686 11.9314C77.5443 10.407 75.5989 9.37347 73.4825 8.96351V1.70625C73.4825 1.25372 73.3027 0.819723 72.9827 0.499739C72.6628 0.179755 72.2288 0 71.7762 0C71.3237 0 70.8898 0.179755 70.5698 0.499739C70.2498 0.819723 70.07 1.25372 70.07 1.70625V8.75876H64.7238V1.70625C64.7238 1.25372 64.544 0.819723 64.224 0.499739C63.904 0.179755 63.4701 0 63.0175 0C62.565 0 62.131 0.179755 61.811 0.499739C61.491 0.819723 61.3113 1.25372 61.3113 1.70625V8.75876H55.965V1.70625C55.965 1.25372 55.7853 0.819723 55.4653 0.499739C55.1453 0.179755 54.7113 0 54.2588 0C53.8062 0 53.3722 0.179755 53.0523 0.499739C52.7323 0.819723 52.5525 1.25372 52.5525 1.70625V8.75876H47.2063V1.70625C47.2063 1.25372 47.0265 0.819723 46.7065 0.499739C46.3865 0.179755 45.9525 0 45.5 0C45.0475 0 44.6135 0.179755 44.2935 0.499739C43.9735 0.819723 43.7938 1.25372 43.7938 1.70625V8.75876H38.4475V1.70625C38.4475 1.25372 38.2677 0.819723 37.9478 0.499739C37.6278 0.179755 37.1938 0 36.7412 0C36.2887 0 35.8547 0.179755 35.5347 0.499739C35.2147 0.819723 35.035 1.25372 35.035 1.70625V8.75876H29.6887V1.70625C29.6887 1.25372 29.509 0.819723 29.189 0.499739C28.869 0.179755 28.435 0 27.9825 0C27.5299 0 27.096 0.179755 26.776 0.499739C26.456 0.819723 26.2762 1.25372 26.2762 1.70625V8.75876H20.93V1.70625C20.93 1.25372 20.7502 0.819723 20.4302 0.499739C20.1102 0.179755 19.6763 0 19.2238 0C18.7713 0 18.3373 0.179755 18.0173 0.499739C17.6973 0.819723 17.5175 1.25372 17.5175 1.70625V8.96351C15.4011 9.37347 13.4557 10.407 11.9314 11.9314C10.4071 13.4557 9.37347 15.4011 8.96351 17.5175H1.70625C1.25372 17.5175 0.819723 17.6973 0.499739 18.0173C0.179755 18.3373 0 18.7713 0 19.2238C0 19.6763 0.179755 20.1102 0.499739 20.4302C0.819723 20.7502 1.25372 20.93 1.70625 20.93H8.75876V26.2762H1.70625C1.25372 26.2762 0.819723 26.456 0.499739 26.776C0.179755 27.096 0 27.5299 0 27.9825C0 28.435 0.179755 28.869 0.499739 29.189C0.819723 29.509 1.25372 29.6887 1.70625 29.6887H8.75876V35.035H1.70625C1.25372 35.035 0.819723 35.2147 0.499739 35.5347C0.179755 35.8547 0 36.2887 0 36.7412C0 37.1938 0.179755 37.6278 0.499739 37.9478C0.819723 38.2677 1.25372 38.4475 1.70625 38.4475H8.75876V43.7938H1.70625C1.25372 43.7938 0.819723 43.9735 0.499739 44.2935C0.179755 44.6135 0 45.0475 0 45.5C0 45.9525 0.179755 46.3865 0.499739 46.7065C0.819723 47.0265 1.25372 47.2063 1.70625 47.2063H8.75876V52.5525H1.70625C1.25372 52.5525 0.819723 52.7323 0.499739 53.0523C0.179755 53.3722 0 53.8062 0 54.2588C0 54.7113 0.179755 55.1453 0.499739 55.4653C0.819723 55.7853 1.25372 55.965 1.70625 55.965H8.75876V61.3113H1.70625C1.25372 61.3113 0.819723 61.491 0.499739 61.811C0.179755 62.131 0 62.565 0 63.0175C0 63.4701 0.179755 63.904 0.499739 64.224C0.819723 64.544 1.25372 64.7238 1.70625 64.7238H8.75876V70.07H1.70625C1.25372 70.07 0.819723 70.2498 0.499739 70.5698C0.179755 70.8898 0 71.3237 0 71.7762C0 72.2288 0.179755 72.6628 0.499739 72.9827C0.819723 73.3027 1.25372 73.4825 1.70625 73.4825H8.96351C9.37347 75.5989 10.4071 77.5443 11.9314 79.0686C13.4557 80.5929 15.4011 81.6265 17.5175 82.0365V89.2938C17.5175 89.7463 17.6973 90.1803 18.0173 90.5003C18.3373 90.8203 18.7713 91 19.2238 91C19.6763 91 20.1102 90.8203 20.4302 90.5003C20.7502 90.1803 20.93 89.7463 20.93 89.2938V82.2412H26.2762V89.2938C26.2762 89.7463 26.456 90.1803 26.776 90.5003C27.096 90.8203 27.5299 91 27.9825 91C28.435 91 28.869 90.8203 29.189 90.5003C29.509 90.1803 29.6887 89.7463 29.6887 89.2938V82.2412H35.035V89.2938C35.035 89.7463 35.2147 90.1803 35.5347 90.5003C35.8547 90.8203 36.2887 91 36.7412 91C37.1938 91 37.6278 90.8203 37.9478 90.5003C38.2677 90.1803 38.4475 89.7463 38.4475 89.2938V82.2412H43.7938V89.2938C43.7938 89.7463 43.9735 90.1803 44.2935 90.5003C44.6135 90.8203 45.0475 91 45.5 91C45.9525 91 46.3865 90.8203 46.7065 90.5003C47.0265 90.1803 47.2063 89.7463 47.2063 89.2938V82.2412H52.5525V89.2938C52.5525 89.7463 52.7323 90.1803 53.0523 90.5003C53.3722 90.8203 53.8062 91 54.2588 91C54.7113 91 55.1453 90.8203 55.4653 90.5003C55.7853 90.1803 55.965 89.7463 55.965 89.2938V82.2412H61.3113V89.2938C61.3113 89.7463 61.491 90.1803 61.811 90.5003C62.131 90.8203 62.565 91 63.0175 91C63.4701 91 63.904 90.8203 64.224 90.5003C64.544 90.1803 64.7238 89.7463 64.7238 89.2938V82.2412H70.07V89.2938C70.07 89.7463 70.2498 90.1803 70.5698 90.5003C70.8898 90.8203 71.3237 91 71.7762 91C72.2288 91 72.6628 90.8203 72.9827 90.5003C73.3027 90.1803 73.4825 89.7463 73.4825 89.2938V82.0365C75.5989 81.6265 77.5443 80.5929 79.0686 79.0686C80.5929 77.5443 81.6265 75.5989 82.0365 73.4825H89.2938C89.7463 73.4825 90.1803 73.3027 90.5003 72.9827C90.8203 72.6628 91 72.2288 91 71.7762C91 71.3237 90.8203 70.8898 90.5003 70.5698C90.1803 70.2498 89.7463 70.07 89.2938 70.07H82.2412V64.7238H89.2938C89.7463 64.7238 90.1803 64.544 90.5003 64.224C90.8203 63.904 91 63.4701 91 63.0175C91 62.565 90.8203 62.131 90.5003 61.811C90.1803 61.491 89.7463 61.3113 89.2938 61.3113H82.2412V55.965H89.2938C89.7463 55.965 90.1803 55.7853 90.5003 55.4653C90.8203 55.1453 91 54.7113 91 54.2588C91 53.8062 90.8203 53.3722 90.5003 53.0523C90.1803 52.7323 89.7463 52.5525 89.2938 52.5525H82.2412V47.2063H89.2938C89.7463 47.2063 90.1803 47.0265 90.5003 46.7065C90.8203 46.3865 91 45.9525 91 45.5C91 45.0475 90.8203 44.6135 90.5003 44.2935C90.1803 43.9735 89.7463 43.7938 89.2938 43.7938H82.2412V38.4475H89.2938C89.7463 38.4475 90.1803 38.2677 90.5003 37.9478C90.8203 37.6278 91 37.1938 91 36.7412C91 36.2887 90.8203 35.8547 90.5003 35.5347C90.1803 35.2147 89.7463 35.035 89.2938 35.035H82.2412V29.6887H89.2938ZM71.435 78.8287H19.565C17.605 78.8257 15.7261 78.0458 14.3402 76.6598C12.9542 75.2739 12.1743 73.395 12.1713 71.435V19.565C12.1743 17.605 12.9542 15.7261 14.3402 14.3402C15.7261 12.9542 17.605 12.1743 19.565 12.1713H71.435C73.395 12.1743 75.2739 12.9542 76.6598 14.3402C78.0458 15.7261 78.8257 17.605 78.8287 19.565V71.435C78.8257 73.395 78.0458 75.2739 76.6598 76.6598C75.2739 78.0458 73.395 78.8257 71.435 78.8287Z" fill="#A5AEB7"/>
<path d="M54.0938 73H19.7188C19.2629 73 18.8257 72.8189 18.5034 72.4966C18.1811 72.1743 18 71.7371 18 71.2812V19.7188C18 19.2629 18.1811 18.8257 18.5034 18.5034C18.8257 18.1811 19.2629 18 19.7188 18H71.2812C71.7371 18 72.1743 18.1811 72.4966 18.5034C72.8189 18.8257 73 19.2629 73 19.7188V54.0938C73 54.5496 72.8189 54.9868 72.4966 55.3091C72.1743 55.6314 71.7371 55.8125 71.2812 55.8125C67.1805 55.8186 63.2495 57.4502 60.3499 60.3499C57.4502 63.2495 55.8186 67.1805 55.8125 71.2812C55.8125 71.7371 55.6314 72.1743 55.3091 72.4966C54.9868 72.8189 54.5496 73 54.0938 73ZM21.4375 69.5625H52.4552C52.8618 65.1626 54.7947 61.0436 57.9191 57.9191C61.0436 54.7947 65.1626 52.8618 69.5625 52.4552V21.4375H21.4375V69.5625ZM66.6979 73C65.4515 73 64.233 72.6304 63.1966 71.9379C62.1603 71.2454 61.3525 70.2612 60.8755 69.1096C60.3985 67.958 60.2737 66.6909 60.5169 65.4684C60.7601 64.246 61.3603 63.123 62.2417 62.2417C63.123 61.3603 64.246 60.7601 65.4684 60.5169C66.6909 60.2737 67.958 60.3985 69.1096 60.8755C70.2612 61.3525 71.2454 62.1603 71.9379 63.1966C72.6304 64.233 73 65.4515 73 66.6979C72.997 68.3684 72.332 69.9696 71.1508 71.1508C69.9696 72.332 68.3684 72.997 66.6979 73ZM66.6979 63.8333C66.1314 63.8333 65.5775 64.0013 65.1065 64.3161C64.6354 64.6309 64.2682 65.0782 64.0514 65.6017C63.8346 66.1251 63.7778 66.7011 63.8884 67.2568C63.9989 67.8125 64.2717 68.3229 64.6724 68.7235C65.073 69.1241 65.5834 69.3969 66.1391 69.5075C66.6947 69.618 67.2707 69.5613 67.7942 69.3444C68.3176 69.1276 68.765 68.7605 69.0797 68.2894C69.3945 67.8183 69.5625 67.2645 69.5625 66.6979C69.5625 65.9382 69.2607 65.2096 68.7235 64.6724C68.1863 64.1351 67.4577 63.8333 66.6979 63.8333Z" fill="#EEC912"/>
</svg>
