<svg width="39" height="41" viewBox="0 0 39 41" fill="none" xmlns="http://www.w3.org/2000/svg">
<path d="M35.9113 35.7349H28.5288C28.0165 34.0739 26.4673 32.8633 24.6404 32.8633H20.3579V27.7786L26.4351 21.7012H35.9113V35.7349ZM24.6404 38.5977H13.6729C12.7544 38.5977 12.0071 37.8505 12.0071 36.932C12.0071 36.0132 12.7544 35.2657 13.6729 35.2657H24.6404C25.5591 35.2657 26.3064 36.0132 26.3064 36.932C26.3064 37.8505 25.5591 38.5977 24.6404 38.5977ZM2.40234 5.27002H9.78587C10.2996 6.92844 11.8477 8.13674 13.6729 8.13674H17.9555V13.2223L11.5266 19.6506C11.3013 19.8759 11.1747 20.1814 11.1747 20.5C11.1747 20.8186 11.3013 21.1241 11.5265 21.3493L17.9555 27.7786V32.8633H13.6729C11.8461 32.8633 10.297 34.0739 9.78467 35.7349H2.40234V5.27002ZM13.6729 2.40234H24.6404C25.5591 2.40234 26.3064 3.14995 26.3064 4.06885C26.3064 4.98719 25.5591 5.7344 24.6404 5.7344H13.6729C12.7544 5.7344 12.0071 4.98719 12.0071 4.06885C12.0071 3.14995 12.7544 2.40234 13.6729 2.40234ZM19.1567 25.5823L14.0747 20.5L19.1567 15.4185L24.2388 20.5L19.1567 25.5823ZM37.1124 19.2988H26.435L20.3579 13.2223V8.13674H24.6404C26.8837 8.13674 28.7087 6.31184 28.7087 4.06885C28.7087 1.82522 26.8837 0 24.6404 0H13.6729C11.8476 0 10.2994 1.20862 9.78579 2.86768H1.20117C0.537805 2.86768 0 3.40532 0 4.06885V36.936C0 37.5994 0.537805 38.1372 1.20117 38.1372H9.78699C10.3019 39.7938 11.8492 41 13.6729 41H24.6404C26.4643 41 28.0116 39.7938 28.5265 38.1372H37.1124C37.7758 38.1372 38.3136 37.5994 38.3136 36.936V20.5C38.3136 19.8366 37.7758 19.2988 37.1124 19.2988Z" fill="white"/>
</svg>
