<svg width="17" height="28" viewBox="0 0 17 28" fill="none" xmlns="http://www.w3.org/2000/svg">
<path d="M16.4838 9.56598C16.1492 9.8932 15.6968 10.0777 15.2247 10.0793C14.9907 10.0798 14.759 10.0346 14.5428 9.94653C14.3267 9.85841 14.1306 9.72905 13.9657 9.56598L10.2835 5.9492V26.2499C10.2835 26.7141 10.0958 27.1592 9.76164 27.4874C9.42751 27.8156 8.97431 28 8.50178 28C8.02924 28 7.57605 27.8156 7.24192 27.4874C6.90779 27.1592 6.72008 26.7141 6.72008 26.2499V5.9492L3.04979 9.56598C2.88445 9.72915 2.68799 9.85878 2.47166 9.94738C2.25533 10.036 2.02337 10.0819 1.78899 10.0824C1.55461 10.0829 1.32241 10.0381 1.10566 9.95051C0.888912 9.86291 0.691843 9.73423 0.52572 9.57182C0.359597 9.40941 0.227664 9.21647 0.13746 9.00399C0.0472566 8.7915 0.00055643 8.56362 4.94345e-06 8.3334C-0.000546543 8.10318 0.0450495 7.87507 0.134234 7.66217C0.223418 7.44926 0.354432 7.25573 0.519775 7.09256L7.24272 0.489002C7.58394 0.174844 8.03409 0 8.50178 0C8.96946 0 9.41962 0.174844 9.76084 0.489002L16.4838 7.09256C16.8146 7.42218 17 7.86643 17 8.32927C17 8.7921 16.8146 9.23635 16.4838 9.56598Z" fill="#15CE81"/>
</svg>
