<svg width="450" height="61" viewBox="0 0 450 61" fill="none" xmlns="http://www.w3.org/2000/svg">
<path d="M41.2429 16.5406C40.4156 16.9997 39.5974 17.4538 38.7791 17.9079C38.4218 18.1185 38.1615 18.4602 38.0549 18.8583C37.9483 19.2565 38.0042 19.6787 38.2104 20.0329C38.3113 20.2093 38.447 20.3634 38.6094 20.4862C38.7718 20.609 38.9577 20.698 39.1561 20.7478C39.3545 20.7976 39.5613 20.8073 39.7644 20.7763C39.9674 20.7453 40.1626 20.6742 40.3383 20.5673C43.8531 18.5226 47.5296 16.5762 51.267 14.8897C51.6439 14.7164 51.9376 14.4021 52.0835 14.016C52.2293 13.6299 52.2155 13.2035 52.0449 12.8308C51.8743 12.4581 51.561 12.1695 51.1739 12.0285C50.7867 11.8875 50.3575 11.9057 49.9807 12.079C47.0444 13.4736 44.0885 14.9613 41.2429 16.5406ZM28.3808 24.7127L28.2172 24.8035C24.8149 27.2439 21.5123 29.8639 18.3044 32.6546C18.1495 32.7892 18.0226 32.9525 17.9307 33.1351C17.8388 33.3178 17.7839 33.5164 17.769 33.7194C17.7541 33.9224 17.7796 34.1259 17.844 34.3183C17.9083 34.5107 18.0103 34.6882 18.1442 34.8407C18.278 34.9932 18.4411 35.1177 18.624 35.2072C18.8069 35.2966 19.0061 35.3492 19.2103 35.3619C19.4144 35.3746 19.6196 35.3472 19.8139 35.2812C20.0082 35.2153 20.1879 35.1121 20.3428 34.9775C23.4606 32.2603 26.7095 29.6935 29.9737 27.2828C30.3241 27.0618 30.5733 26.7125 30.6664 26.3116C30.7595 25.9107 30.6888 25.4911 30.47 25.1451C30.2512 24.7992 29.9021 24.5552 29.4996 24.4668C29.0971 24.3784 28.6741 24.453 28.3236 24.6739L28.3808 24.7127ZM61.463 7.52755C61.0841 7.69731 60.7871 8.00896 60.6373 8.39397C60.4875 8.77898 60.4971 9.2058 60.664 9.58054C60.831 9.95528 61.1416 10.2473 61.5276 10.3922C61.9136 10.5371 62.3432 10.5232 62.7221 10.3534C66.5663 9.03063 70.5466 7.86731 74.5438 6.90604C74.7428 6.85807 74.9308 6.7717 75.097 6.65189C75.2631 6.53207 75.4043 6.38111 75.5123 6.20769C75.6203 6.03426 75.6932 5.84177 75.7266 5.64114C75.7601 5.44053 75.7534 5.23574 75.7072 5.03845C75.661 4.84117 75.576 4.65528 75.4571 4.49137C75.3382 4.32746 75.1878 4.18877 75.0143 4.0832C74.8409 3.97762 74.6479 3.90719 74.4463 3.87601C74.2447 3.84483 74.0385 3.85351 73.8395 3.90147C69.7364 4.88626 65.6693 6.086 61.7243 7.44126C61.6341 7.45941 61.5464 7.48838 61.463 7.52755ZM9.55389 41.0357C9.4192 41.1115 9.29479 41.2042 9.18377 41.3116C6.32135 44.2747 3.49412 47.4299 0.786242 50.6715C0.534983 50.9904 0.418075 51.393 0.460386 51.7934C0.502691 52.1937 0.700897 52.5602 1.01275 52.8147C1.3246 53.0691 1.72539 53.1915 2.12971 53.1556C2.53403 53.1197 2.90988 52.9284 3.1771 52.6225C5.82632 49.4252 8.5908 46.3284 11.4045 43.4275C11.6603 43.1589 11.8122 42.8095 11.8329 42.4421C11.8536 42.0746 11.7418 41.7133 11.5176 41.4229C11.2934 41.1325 10.9715 40.9321 10.6097 40.8579C10.2479 40.7836 9.87001 40.8403 9.54392 41.0177L9.55389 41.0357ZM85.6672 1.70785C85.3504 1.88601 85.105 2.16794 84.9734 2.50487C84.8418 2.84179 84.8324 3.21261 84.9467 3.55322C85.061 3.89384 85.2918 4.18284 85.5994 4.37033C85.9069 4.55785 86.2718 4.63205 86.631 4.58013C90.6241 3.99711 94.7542 3.59655 98.8713 3.34415C99.0819 3.34274 99.2905 3.29888 99.4844 3.21514C99.6783 3.1314 99.8535 3.00951 99.9992 2.85697C100.145 2.70444 100.258 2.5244 100.333 2.32774C100.407 2.13107 100.44 1.92193 100.43 1.71295C100.421 1.50398 100.369 1.29954 100.277 1.11205C100.185 0.924565 100.056 0.757888 99.8971 0.6222C99.7382 0.486525 99.5528 0.384633 99.3522 0.322702C99.1516 0.26077 98.9401 0.240083 98.7304 0.261915C94.5106 0.500787 90.2979 0.923759 86.208 1.52524C86.0171 1.54853 85.8318 1.60742 85.6622 1.69886L85.6672 1.70785ZM110.488 0.233985C110.19 0.400649 109.954 0.659215 109.817 0.970029C109.68 1.28084 109.649 1.62669 109.728 1.95466C109.807 2.28261 109.993 2.57457 110.257 2.78569C110.52 2.9968 110.847 3.11548 111.187 3.1235C112.744 3.16424 114.32 3.21792 115.896 3.29459C118.449 3.41673 121.013 3.57983 123.518 3.76425C123.929 3.7947 124.337 3.66154 124.653 3.39397C124.968 3.1264 125.165 2.74637 125.2 2.33753C125.235 1.92868 125.105 1.52447 124.839 1.21384C124.572 0.903195 124.192 0.711572 123.781 0.681113C121.29 0.477632 118.666 0.33579 116.105 0.241714C114.48 0.171919 112.868 0.12311 111.267 0.0952483C110.999 0.0723286 110.73 0.116959 110.483 0.224992L110.488 0.233985ZM135.286 2.06221C135.071 2.17998 134.887 2.34639 134.748 2.54776C134.61 2.74914 134.521 2.97974 134.49 3.22066C134.437 3.62763 134.548 4.03705 134.799 4.35999C135.049 4.68294 135.419 4.89333 135.827 4.94548C139.94 5.43556 144.048 6.02271 148.042 6.68446C148.248 6.73282 148.463 6.7385 148.673 6.70118C148.882 6.66384 149.082 6.58429 149.261 6.4674C149.439 6.35051 149.592 6.19881 149.709 6.02162C149.827 5.84443 149.907 5.64551 149.944 5.4372C149.982 5.2289 149.976 5.01557 149.927 4.81045C149.879 4.60533 149.788 4.41279 149.661 4.24466C149.534 4.07651 149.373 3.93636 149.189 3.83288C149.005 3.72941 148.801 3.66477 148.59 3.643C144.548 2.96047 140.37 2.33065 136.23 1.8787C135.893 1.82865 135.548 1.89563 135.253 2.06837L135.286 2.06221ZM159.767 6.19236C159.491 6.34545 159.266 6.57806 159.124 6.85937C158.982 7.14069 158.929 7.45742 158.973 7.76745C159.016 8.07751 159.153 8.36622 159.365 8.59533C159.578 8.82444 159.857 8.98308 160.164 9.05024C164.203 9.89889 168.178 10.9119 172.114 11.9822C172.505 12.0751 172.918 12.013 173.267 11.8092C173.616 11.6053 173.874 11.2756 173.985 10.8895C174.096 10.5034 174.052 10.091 173.863 9.73939C173.673 9.38773 173.353 9.12421 172.97 9.00439C168.978 7.91838 164.901 6.91478 160.857 6.03414C160.473 5.92972 160.061 5.98098 159.711 6.17665L159.767 6.19236ZM183.676 12.6966C183.408 12.8401 183.187 13.0585 183.041 13.3247C182.896 13.5909 182.832 13.8929 182.858 14.1932C182.884 14.4935 182.998 14.7786 183.187 15.013C183.375 15.2474 183.63 15.4207 183.918 15.5113C187.721 16.7492 191.627 18.1298 195.542 19.6344C195.734 19.7189 195.942 19.7634 196.153 19.7653C196.363 19.7672 196.573 19.7265 196.768 19.6456C196.964 19.5647 197.141 19.4452 197.289 19.2946C197.437 19.1439 197.554 18.9653 197.631 18.7694C197.708 18.5735 197.744 18.3644 197.737 18.155C197.73 17.9456 197.681 17.7402 197.592 17.5512C197.502 17.3623 197.375 17.1937 197.217 17.0559C197.06 16.918 196.876 16.8137 196.675 16.7494C192.728 15.2509 188.78 13.8585 184.931 12.5997C184.721 12.5169 184.494 12.4812 184.268 12.4952C184.041 12.5093 183.82 12.5727 183.62 12.6809L183.676 12.6966ZM206.834 21.4268C206.534 21.5916 206.297 21.8514 206.162 22.1644C206.079 22.3507 206.034 22.5511 206.03 22.7539C206.026 22.9567 206.062 23.1579 206.136 23.346C206.211 23.5341 206.322 23.7052 206.464 23.8495C206.606 23.9938 206.776 24.1085 206.963 24.1868C210.459 25.6654 214.136 27.2552 218.256 29.1511C218.627 29.3046 219.045 29.3083 219.422 29.1615C219.798 29.0147 220.104 28.7289 220.275 28.3643C220.446 27.9997 220.469 27.5849 220.338 27.2073C220.207 26.8297 219.933 26.5189 219.574 26.3403C215.441 24.4635 211.693 22.854 208.205 21.3473C207.981 21.2439 207.734 21.1958 207.486 21.2068C207.237 21.2179 206.995 21.288 206.778 21.4111L206.834 21.4268ZM229.388 31.5966C229.107 31.7572 228.88 31.9978 228.737 32.2871C228.559 32.6597 228.535 33.0857 228.672 33.4722C228.808 33.8587 229.094 34.1743 229.466 34.35L231.103 35.1568C234.31 36.6508 237.508 38.1267 240.695 39.5847C241.068 39.7564 241.496 39.7732 241.884 39.6314C242.273 39.4895 242.59 39.2007 242.767 38.8285C242.943 38.4563 242.965 38.0311 242.826 37.6465C242.687 37.2619 242.4 36.9494 242.027 36.7778C238.843 35.3257 235.649 33.8557 232.499 32.3375L230.812 31.547C230.583 31.4292 230.328 31.3706 230.07 31.3765C229.811 31.3824 229.557 31.4527 229.332 31.5809L229.388 31.5966ZM251.905 41.8697C251.651 42.0111 251.441 42.2197 251.299 42.4721C251.157 42.7244 251.088 43.0104 251.101 43.2979C251.113 43.5854 251.206 43.8628 251.369 44.0991C251.532 44.3353 251.759 44.5209 252.024 44.6348C256.139 46.3927 259.911 47.918 263.57 49.2828C263.76 49.3545 263.964 49.3881 264.168 49.3816C264.372 49.3751 264.574 49.3287 264.761 49.2451C264.948 49.1614 265.117 49.0421 265.259 48.894C265.4 48.7459 265.511 48.5718 265.585 48.3818C265.659 48.1918 265.695 47.9895 265.691 47.7865C265.686 47.5835 265.642 47.3838 265.559 47.1987C265.477 47.0136 265.359 46.8468 265.211 46.7078C265.063 46.5689 264.889 46.4604 264.699 46.3887C261.082 45.0358 257.348 43.5363 253.281 41.7993C253.057 41.692 252.809 41.6408 252.559 41.6504C252.31 41.6599 252.066 41.7298 251.848 41.854L251.905 41.8697ZM275.114 50.4775C274.844 50.6217 274.623 50.8413 274.478 51.1088C274.332 51.3764 274.269 51.6799 274.297 51.9812C274.324 52.2824 274.44 52.568 274.631 52.802C274.822 53.036 275.079 53.2079 275.37 53.2961C279.429 54.5679 283.475 55.6006 287.464 56.4885C287.855 56.5532 288.259 56.466 288.591 56.245C288.922 56.024 289.158 55.6859 289.248 55.3001C289.339 54.9144 289.278 54.5105 289.077 54.1713C288.876 53.832 288.552 53.5834 288.17 53.4764C284.27 52.5981 280.275 51.5491 276.311 50.3419C276.106 50.2741 275.889 50.2498 275.673 50.2704C275.457 50.2911 275.247 50.3563 275.058 50.4618L275.114 50.4775ZM299.291 55.8579C299.005 56.015 298.774 56.2569 298.632 56.5495C298.491 56.8421 298.444 57.1706 298.5 57.4887C298.556 57.8069 298.711 58.0986 298.943 58.3228C299.175 58.547 299.474 58.6923 299.795 58.7383C303.917 59.3294 308.103 59.8021 312.225 60.1581C312.428 60.1756 312.634 60.1531 312.829 60.0919C313.025 60.0307 313.206 59.9319 313.364 59.8013C313.522 59.6706 313.652 59.5107 313.748 59.3305C313.844 59.1504 313.904 58.9535 313.924 58.7513C313.944 58.549 313.923 58.3453 313.863 58.1518C313.804 57.9582 313.706 57.7786 313.576 57.6232C313.447 57.4678 313.287 57.3396 313.106 57.2461C312.926 57.1525 312.729 57.0953 312.525 57.0778C308.455 56.7286 304.329 56.2576 300.263 55.6592C299.91 55.6002 299.547 55.6648 299.234 55.8421L299.291 55.8579ZM324.04 57.9835C323.804 58.1133 323.607 58.3018 323.466 58.5301C323.326 58.7585 323.248 59.0188 323.24 59.2851C323.231 59.488 323.263 59.6903 323.333 59.8802C323.404 60.0701 323.511 60.244 323.65 60.3919C323.788 60.5399 323.955 60.6589 324.14 60.7423C324.326 60.8258 324.526 60.8719 324.73 60.8781C328.885 60.9928 333.118 60.993 337.251 60.8966C337.664 60.8854 338.057 60.7115 338.345 60.4133C338.632 60.1151 338.789 59.717 338.782 59.3065C338.775 58.896 338.604 58.5067 338.307 58.2244C338.01 57.942 337.611 57.7897 337.198 57.8009C333.107 57.9091 328.934 57.9106 324.849 57.7927C324.55 57.7626 324.248 57.8236 323.983 57.9678L324.04 57.9835ZM348.91 57.3279C348.602 57.5022 348.361 57.775 348.228 58.1012C348.095 58.4274 348.078 58.7878 348.178 59.123C348.278 59.4583 348.491 59.7485 348.78 59.946C349.07 60.1435 349.42 60.2364 349.772 60.2097C353.914 59.8731 358.106 59.4142 362.234 58.8386C362.625 58.7621 362.973 58.5401 363.207 58.2182C363.441 57.8964 363.542 57.499 363.491 57.1078C363.44 56.7167 363.24 56.3614 362.932 56.1149C362.624 55.8685 362.231 55.7495 361.835 55.7826C357.766 56.3369 353.639 56.8065 349.511 57.147C349.283 57.1536 349.058 57.21 348.854 57.3122L348.91 57.3279ZM373.578 53.9296C373.257 54.1111 373.011 54.3988 372.882 54.7417C372.752 55.0847 372.749 55.4608 372.872 55.8033C372.996 56.1459 373.237 56.4328 373.554 56.6133C373.872 56.7939 374.244 56.8562 374.606 56.7895C378.68 56.009 382.809 55.0922 386.865 54.0866C387.267 53.9867 387.614 53.7326 387.83 53.3803C388.046 53.028 388.113 52.6063 388.016 52.208C387.92 51.8097 387.668 51.4675 387.315 51.2565C386.963 51.0456 386.539 50.9832 386.137 51.0831C382.157 52.1174 378.058 52.982 374.045 53.7643C373.863 53.7833 373.686 53.8339 373.522 53.9138L373.578 53.9296ZM397.765 47.9078C397.383 48.0716 397.08 48.379 396.924 48.7621C396.767 49.1453 396.77 49.573 396.931 49.951C397.092 50.3291 397.398 50.6266 397.782 50.7781C398.166 50.9296 398.597 50.9227 398.979 50.7589C402.966 49.5445 406.968 48.2051 410.882 46.7729C411.275 46.6293 411.597 46.3369 411.776 45.96C411.955 45.5831 411.976 45.1527 411.836 44.7632C411.695 44.3738 411.404 44.0573 411.027 43.8834C410.649 43.7095 410.216 43.6925 409.823 43.836C405.954 45.243 402.003 46.5662 398.071 47.7734C397.946 47.8001 397.825 47.8399 397.709 47.8921L397.765 47.9078ZM421.155 39.3563C420.782 39.538 420.497 39.8584 420.36 40.2471C420.223 40.6358 420.247 41.0609 420.426 41.429C420.605 41.797 420.925 42.0778 421.315 42.2096C421.704 42.3414 422.133 42.3134 422.505 42.1317C426.356 40.4997 430.238 38.7095 433.933 36.8821C434.116 36.7909 434.28 36.6649 434.416 36.5113C434.551 36.3576 434.655 36.1792 434.721 35.9864C434.788 35.7936 434.815 35.5901 434.802 35.3874C434.79 35.1848 434.737 34.987 434.647 34.8055C434.557 34.6239 434.432 34.4621 434.279 34.3292C434.126 34.1963 433.947 34.095 433.754 34.031C433.56 33.9671 433.356 33.9418 433.152 33.9565C432.948 33.9712 432.748 34.0256 432.564 34.1168C428.924 35.9139 425.138 37.6627 421.31 39.2936L421.155 39.3563ZM432.887 22.7413L447.446 25.7051C447.725 25.762 447.988 25.8757 448.22 26.0389C448.451 26.2021 448.646 26.4114 448.792 26.6537C448.937 26.896 449.031 27.1661 449.066 27.447C449.102 27.728 449.078 28.0137 448.997 28.2864L444.82 42.5297C444.764 42.7263 444.668 42.9102 444.54 43.0709C444.412 43.2315 444.253 43.3656 444.073 43.4655C443.893 43.5654 443.695 43.6292 443.491 43.653C443.287 43.6768 443.081 43.6603 442.884 43.6044C442.488 43.4935 442.155 43.2307 441.957 42.8736C441.758 42.5166 441.712 42.0945 441.827 41.7002L445.692 28.523L432.264 25.7541C432.063 25.7144 431.873 25.6357 431.704 25.5225C431.535 25.4093 431.39 25.2638 431.279 25.0944C431.167 24.925 431.09 24.7349 431.053 24.5352C431.016 24.3355 431.019 24.13 431.061 23.9305C431.15 23.5365 431.389 23.1905 431.728 22.9653C432.066 22.7401 432.478 22.6534 432.877 22.7233L432.887 22.7413Z" fill="#EEC912"/>
</svg>
