<svg width="410" height="56" viewBox="0 0 410 56" fill="none" xmlns="http://www.w3.org/2000/svg">
<path d="M38.0947 15.0322C37.3423 15.4498 36.5981 15.8628 35.854 16.2758C35.529 16.4673 35.2922 16.778 35.1953 17.1401C35.0984 17.5022 35.1492 17.8862 35.3367 18.2083C35.4284 18.3688 35.5518 18.509 35.6996 18.6207C35.8473 18.7324 36.0164 18.8133 36.1968 18.8586C36.3772 18.9039 36.5653 18.9127 36.75 18.8845C36.9347 18.8563 37.1122 18.7917 37.272 18.6944C40.4687 16.8348 43.8123 15.0646 47.2115 13.5308C47.5542 13.3731 47.8213 13.0873 47.954 12.7361C48.0866 12.3849 48.074 11.9972 47.9189 11.6582C47.7637 11.3192 47.4788 11.0567 47.1267 10.9285C46.7746 10.8003 46.3843 10.8168 46.0415 10.9745C43.3711 12.2428 40.6827 13.5959 38.0947 15.0322ZM26.3969 22.4645L26.248 22.5471C23.1537 24.7666 20.1501 27.1495 17.2326 29.6876C17.0917 29.81 16.9762 29.9585 16.8927 30.1246C16.8091 30.2908 16.7592 30.4714 16.7456 30.656C16.7321 30.8406 16.7553 31.0257 16.8138 31.2007C16.8724 31.3757 16.9651 31.5371 17.0869 31.6758C17.2086 31.8145 17.3569 31.9278 17.5232 32.0091C17.6896 32.0904 17.8708 32.1382 18.0564 32.1498C18.2421 32.1613 18.4287 32.1364 18.6054 32.0765C18.7821 32.0165 18.9456 31.9226 19.0865 31.8003C21.9221 29.329 24.8769 26.9946 27.8456 24.802C28.1643 24.6011 28.3909 24.2833 28.4755 23.9187C28.5602 23.5541 28.4959 23.1725 28.2969 22.8579C28.0979 22.5432 27.7805 22.3213 27.4144 22.2409C27.0483 22.1606 26.6636 22.2283 26.3449 22.4293L26.3969 22.4645ZM56.4845 6.83501C56.1399 6.9894 55.8698 7.27284 55.7335 7.623C55.5973 7.97315 55.606 8.36135 55.7578 8.70216C55.9097 9.04298 56.1922 9.30852 56.5432 9.44034C56.8943 9.57216 57.285 9.55947 57.6296 9.40507C61.1258 8.20203 64.7458 7.14401 68.3812 6.26976C68.5622 6.22614 68.7332 6.14759 68.8843 6.03861C69.0355 5.92963 69.1638 5.79234 69.2621 5.63462C69.3603 5.4769 69.4266 5.30182 69.457 5.11936C69.4874 4.9369 69.4814 4.75065 69.4393 4.57122C69.3973 4.3918 69.32 4.22273 69.2118 4.07366C69.1037 3.92458 68.9669 3.79846 68.8092 3.70244C68.6514 3.60641 68.4759 3.54236 68.2926 3.514C68.1092 3.48565 67.9217 3.49354 67.7407 3.53717C64.009 4.4328 60.3101 5.52395 56.7221 6.75654C56.6401 6.77303 56.5603 6.79939 56.4845 6.83501ZM9.27415 37.31C9.15165 37.3789 9.03849 37.4633 8.93753 37.5609C6.33422 40.2559 3.7629 43.1254 1.30014 46.0736C1.07163 46.3637 0.965302 46.7298 1.00378 47.0939C1.04226 47.458 1.22253 47.7913 1.50615 48.0228C1.78977 48.2542 2.15427 48.3655 2.522 48.3328C2.88972 48.3002 3.23155 48.1262 3.47458 47.848C5.884 44.9401 8.39823 42.1236 10.9573 39.4853C11.1899 39.2411 11.328 38.9233 11.3469 38.5891C11.3657 38.2549 11.264 37.9263 11.0601 37.6622C10.8562 37.3981 10.5634 37.2158 10.2344 37.1483C9.90534 37.0808 9.56165 37.1323 9.26508 37.2937L9.27415 37.31ZM78.4978 1.54211C78.2096 1.70414 77.9864 1.96055 77.8668 2.26697C77.7471 2.5734 77.7385 2.91065 77.8425 3.22043C77.9464 3.53021 78.1564 3.79305 78.436 3.96358C78.7157 4.13412 79.0476 4.2016 79.3743 4.15439C83.006 3.62414 86.7622 3.25984 90.5066 3.03029C90.6982 3.02901 90.8879 2.98911 91.0643 2.91295C91.2406 2.83679 91.3999 2.72594 91.5325 2.58721C91.6651 2.44848 91.7682 2.28473 91.8356 2.10588C91.903 1.92703 91.9333 1.7368 91.9246 1.54674C91.9159 1.35668 91.8685 1.17075 91.7851 1.00023C91.7017 0.829712 91.5842 0.678129 91.4396 0.55473C91.295 0.431332 91.1264 0.338659 90.944 0.282339C90.7616 0.226019 90.5692 0.20719 90.3785 0.227054C86.5407 0.444298 82.7093 0.828978 78.9896 1.37602C78.8159 1.3972 78.6475 1.45076 78.4932 1.53393L78.4978 1.54211ZM101.071 0.201654C100.801 0.353235 100.586 0.588397 100.462 0.871066C100.337 1.15374 100.308 1.46828 100.381 1.76656C100.453 2.06485 100.622 2.33037 100.862 2.52237C101.101 2.71438 101.399 2.82231 101.708 2.8296C103.124 2.86667 104.557 2.91547 105.991 2.98521C108.313 3.0963 110.645 3.24464 112.922 3.41236C113.296 3.44005 113.667 3.31895 113.954 3.0756C114.241 2.83225 114.42 2.48662 114.452 2.11478C114.483 1.74293 114.365 1.37531 114.123 1.0928C113.881 0.810291 113.535 0.635997 113.161 0.608304C110.896 0.423241 108.51 0.294241 106.18 0.208673C104.703 0.145195 103.236 0.100818 101.78 0.0754713C101.537 0.0546238 101.291 0.0952151 101.067 0.193475L101.071 0.201654ZM123.625 1.86438C123.429 1.97148 123.262 2.12284 123.136 2.30599C123.01 2.48913 122.93 2.69886 122.901 2.91798C122.853 3.2881 122.954 3.66046 123.182 3.95417C123.41 4.24788 123.746 4.43924 124.117 4.48667C127.858 4.93238 131.594 5.46638 135.226 6.06823C135.414 6.11222 135.609 6.11738 135.8 6.08343C135.991 6.04948 136.173 5.97713 136.335 5.87082C136.497 5.76451 136.636 5.62654 136.743 5.46539C136.85 5.30425 136.923 5.12333 136.957 4.93388C136.991 4.74443 136.986 4.55042 136.941 4.36386C136.897 4.17731 136.814 4.0022 136.699 3.84928C136.583 3.69636 136.437 3.5689 136.27 3.47478C136.102 3.38067 135.917 3.32188 135.724 3.30208C132.049 2.68133 128.248 2.10851 124.484 1.69749C124.178 1.65197 123.864 1.71287 123.595 1.86999L123.625 1.86438ZM145.891 5.62067C145.639 5.75991 145.435 5.97147 145.306 6.22731C145.177 6.48316 145.128 6.77123 145.168 7.0532C145.207 7.33517 145.331 7.59776 145.525 7.80614C145.719 8.01451 145.972 8.15878 146.252 8.21986C149.924 8.9917 153.54 9.91306 157.119 10.8864C157.475 10.9709 157.851 10.9144 158.168 10.729C158.486 10.5437 158.72 10.2438 158.821 9.89262C158.922 9.54147 158.882 9.16646 158.71 8.84663C158.538 8.5268 158.247 8.28714 157.898 8.17817C154.268 7.19046 150.56 6.27771 146.881 5.47678C146.532 5.38182 146.157 5.42843 145.839 5.60638L145.891 5.62067ZM167.635 11.5362C167.391 11.6667 167.19 11.8653 167.058 12.1074C166.925 12.3495 166.867 12.6242 166.891 12.8973C166.914 13.1704 167.018 13.4297 167.19 13.6429C167.361 13.8561 167.593 14.0137 167.855 14.096C171.314 15.222 174.866 16.4776 178.426 17.846C178.601 17.9228 178.79 17.9633 178.982 17.965C179.174 17.9667 179.364 17.9297 179.542 17.8561C179.72 17.7825 179.881 17.6739 180.016 17.5369C180.151 17.3999 180.256 17.2374 180.326 17.0592C180.396 16.8811 180.429 16.691 180.423 16.5005C180.417 16.31 180.372 16.1232 180.291 15.9513C180.21 15.7795 180.094 15.6262 179.951 15.5008C179.807 15.3755 179.64 15.2806 179.458 15.2221C175.868 13.8592 172.277 12.5929 168.776 11.4481C168.585 11.3727 168.379 11.3403 168.173 11.353C167.967 11.3658 167.766 11.4235 167.584 11.5219L167.635 11.5362ZM188.697 19.4761C188.424 19.626 188.208 19.8622 188.085 20.1469C188.01 20.3164 187.969 20.4986 187.965 20.6831C187.961 20.8675 187.994 21.0505 188.062 21.2216C188.13 21.3926 188.231 21.5483 188.36 21.6795C188.489 21.8108 188.644 21.915 188.814 21.9863C191.994 23.331 195.338 24.777 199.085 26.5012C199.422 26.6408 199.802 26.6442 200.145 26.5107C200.487 26.3772 200.766 26.1172 200.921 25.7856C201.077 25.4541 201.097 25.0768 200.978 24.7334C200.859 24.3899 200.61 24.1072 200.284 23.9448C196.524 22.2379 193.116 20.7741 189.944 19.4038C189.74 19.3098 189.515 19.266 189.289 19.2761C189.064 19.2861 188.843 19.3498 188.646 19.4618L188.697 19.4761ZM209.21 28.7254C208.954 28.8714 208.747 29.0903 208.617 29.3534C208.455 29.6922 208.433 30.0796 208.558 30.4312C208.682 30.7827 208.941 31.0697 209.28 31.2295L210.769 31.9633C213.686 33.322 216.594 34.6644 219.493 35.9904C219.832 36.1465 220.221 36.1618 220.574 36.0328C220.927 35.9038 221.216 35.6412 221.377 35.3026C221.537 34.9641 221.557 34.5774 221.431 34.2276C221.304 33.8779 221.043 33.5937 220.704 33.4375C217.808 32.1169 214.903 30.78 212.038 29.3992L210.504 28.6802C210.296 28.5731 210.064 28.5198 209.829 28.5252C209.594 28.5306 209.363 28.5945 209.158 28.7111L209.21 28.7254ZM229.687 38.0686C229.457 38.1972 229.266 38.3869 229.137 38.6164C229.008 38.8459 228.945 39.106 228.956 39.3675C228.968 39.6289 229.052 39.8813 229.201 40.0961C229.349 40.3109 229.555 40.4797 229.796 40.5834C233.539 42.1821 236.969 43.5694 240.297 44.8106C240.47 44.8758 240.655 44.9064 240.841 44.9005C241.027 44.8946 241.21 44.8524 241.38 44.7763C241.55 44.7002 241.704 44.5917 241.833 44.457C241.961 44.3223 242.062 44.164 242.13 43.9912C242.197 43.8184 242.23 43.6343 242.226 43.4497C242.222 43.2651 242.181 43.0835 242.106 42.9152C242.031 42.7468 241.924 42.5951 241.789 42.4687C241.655 42.3423 241.497 42.2437 241.324 42.1785C238.034 40.948 234.639 39.5843 230.939 38.0045C230.735 37.9069 230.51 37.8604 230.283 37.8691C230.056 37.8777 229.834 37.9413 229.636 38.0543L229.687 38.0686ZM250.796 45.8972C250.551 46.0283 250.349 46.228 250.217 46.4714C250.085 46.7147 250.028 46.9907 250.052 47.2647C250.077 47.5387 250.183 47.7985 250.357 48.0113C250.531 48.2241 250.765 48.3804 251.029 48.4606C254.721 49.6173 258.4 50.5566 262.028 51.3641C262.384 51.4229 262.751 51.3436 263.053 51.1426C263.355 50.9416 263.569 50.6341 263.651 50.2833C263.733 49.9325 263.677 49.5651 263.495 49.2566C263.313 48.9481 263.018 48.7219 262.67 48.6246C259.123 47.8258 255.49 46.8718 251.885 45.7738C251.698 45.7122 251.501 45.69 251.304 45.7088C251.108 45.7276 250.917 45.7869 250.745 45.8829L250.796 45.8972ZM272.784 50.7905C272.524 50.9334 272.315 51.1535 272.186 51.4196C272.057 51.6857 272.014 51.9844 272.065 52.2738C272.116 52.5631 272.257 52.8284 272.468 53.0323C272.679 53.2362 272.951 53.3683 273.243 53.4102C276.992 53.9478 280.799 54.3777 284.548 54.7015C284.733 54.7174 284.92 54.697 285.097 54.6413C285.275 54.5856 285.44 54.4958 285.584 54.377C285.727 54.2581 285.846 54.1127 285.933 53.9488C286.021 53.785 286.075 53.6059 286.093 53.422C286.111 53.238 286.092 53.0528 286.038 52.8768C285.984 52.7007 285.895 52.5374 285.777 52.396C285.659 52.2547 285.513 52.1381 285.349 52.053C285.185 51.9679 285.006 51.9159 284.821 51.9C281.119 51.5824 277.366 51.1541 273.668 50.6099C273.348 50.5561 273.017 50.6149 272.733 50.7762L272.784 50.7905ZM295.293 52.7238C295.079 52.8418 294.899 53.0132 294.771 53.2209C294.644 53.4286 294.573 53.6653 294.566 53.9075C294.558 54.0921 294.587 54.276 294.651 54.4487C294.715 54.6214 294.812 54.7796 294.938 54.9142C295.064 55.0487 295.216 55.157 295.384 55.2329C295.553 55.3087 295.735 55.3507 295.921 55.3563C299.699 55.4606 303.55 55.4608 307.308 55.3732C307.684 55.3629 308.042 55.2048 308.303 54.9336C308.564 54.6624 308.707 54.3003 308.701 53.9269C308.695 53.5536 308.539 53.1996 308.269 52.9428C307.999 52.686 307.636 52.5475 307.26 52.5577C303.54 52.6561 299.744 52.6575 296.029 52.5502C295.757 52.5228 295.483 52.5783 295.242 52.7094L295.293 52.7238ZM317.912 52.1275C317.632 52.286 317.413 52.5341 317.292 52.8308C317.171 53.1275 317.155 53.4552 317.246 53.7601C317.337 54.065 317.531 54.329 317.794 54.5086C318.058 54.6882 318.376 54.7727 318.696 54.7484C322.463 54.4423 326.276 54.025 330.03 53.5014C330.386 53.4318 330.702 53.2299 330.915 52.9372C331.127 52.6445 331.22 52.2831 331.173 51.9273C331.127 51.5716 330.945 51.2485 330.665 51.0243C330.384 50.8001 330.027 50.692 329.667 50.722C325.967 51.2262 322.213 51.6533 318.459 51.9629C318.251 51.9689 318.047 52.0202 317.861 52.1132L317.912 52.1275ZM340.347 49.0368C340.055 49.2019 339.831 49.4635 339.714 49.7754C339.596 50.0873 339.593 50.4294 339.705 50.7409C339.817 51.0525 340.037 51.3134 340.326 51.4776C340.614 51.6418 340.953 51.6985 341.282 51.6378C344.987 50.9279 348.742 50.0941 352.431 49.1796C352.797 49.0887 353.112 48.8576 353.309 48.5372C353.505 48.2168 353.566 47.8333 353.478 47.471C353.391 47.1088 353.161 46.7975 352.841 46.6057C352.52 46.4138 352.135 46.3571 351.77 46.448C348.149 47.3886 344.422 48.175 340.772 48.8864C340.607 48.9038 340.446 48.9498 340.296 49.0225L340.347 49.0368ZM362.345 43.5601C361.997 43.7091 361.722 43.9886 361.58 44.3371C361.437 44.6855 361.44 45.0745 361.586 45.4184C361.733 45.7622 362.011 46.0327 362.36 46.1705C362.71 46.3083 363.101 46.3021 363.449 46.1531C367.075 45.0487 370.714 43.8304 374.274 42.5279C374.632 42.3973 374.925 42.1314 375.087 41.7886C375.25 41.4458 375.269 41.0543 375.142 40.7001C375.014 40.3459 374.749 40.0581 374.406 39.8999C374.063 39.7418 373.669 39.7263 373.311 39.8569C369.793 41.1365 366.199 42.34 362.623 43.4378C362.51 43.4621 362.399 43.4983 362.294 43.5458L362.345 43.5601ZM383.617 35.7827C383.279 35.9479 383.019 36.2393 382.894 36.5928C382.77 36.9463 382.792 37.333 382.955 37.6677C383.117 38.0024 383.408 38.2578 383.763 38.3777C384.117 38.4975 384.507 38.472 384.845 38.3068C388.347 36.8225 391.878 35.1944 395.239 33.5324C395.406 33.4495 395.555 33.3349 395.678 33.1951C395.801 33.0554 395.895 32.8932 395.956 32.7178C396.016 32.5424 396.041 32.3573 396.03 32.1731C396.018 31.9888 395.97 31.8089 395.888 31.6437C395.807 31.4786 395.693 31.3314 395.553 31.2106C395.414 31.0897 395.252 30.9976 395.076 30.9394C394.9 30.8813 394.714 30.8583 394.528 30.8716C394.343 30.885 394.161 30.9345 393.994 31.0174C390.683 32.6518 387.24 34.2423 383.759 35.7256L383.617 35.7827ZM394.287 20.6717L407.529 23.3671C407.782 23.4189 408.022 23.5223 408.232 23.6707C408.443 23.8192 408.62 24.0096 408.753 24.2299C408.885 24.4503 408.97 24.6959 409.002 24.9514C409.034 25.2069 409.013 25.4668 408.94 25.7148L405.141 38.6688C405.089 38.8476 405.002 39.0149 404.886 39.161C404.769 39.3071 404.625 39.429 404.461 39.5199C404.297 39.6108 404.118 39.6687 403.932 39.6904C403.746 39.7121 403.558 39.6971 403.379 39.6462C403.02 39.5453 402.716 39.3063 402.536 38.9816C402.356 38.6569 402.314 38.273 402.418 37.9143L405.933 25.93L393.721 23.4117C393.538 23.3756 393.365 23.3041 393.212 23.2011C393.058 23.0982 392.926 22.9658 392.825 22.8117C392.723 22.6576 392.653 22.4848 392.62 22.3031C392.586 22.1215 392.588 21.9346 392.627 21.7532C392.708 21.3948 392.925 21.0801 393.233 20.8753C393.541 20.6705 393.916 20.5917 394.278 20.6553L394.287 20.6717Z" fill="#EEC912"/>
</svg>
