<svg width="300" height="130" viewBox="0 0 300 130" fill="none" xmlns="http://www.w3.org/2000/svg">
<path d="M279.33 112.59C279.096 112.59 278.865 112.536 278.656 112.433C278.446 112.329 278.264 112.179 278.123 111.995C277.982 111.81 277.886 111.596 277.843 111.368C277.8 111.141 277.81 110.907 277.874 110.684C278.918 107.096 279.923 103.607 280.887 100.217C280.995 99.8365 281.251 99.5139 281.599 99.3202C281.948 99.1266 282.36 99.0777 282.745 99.1844C283.13 99.291 283.456 99.5445 283.652 99.889C283.848 100.234 283.897 100.641 283.789 101.021C282.785 104.408 281.781 107.913 280.776 111.508C280.687 111.819 280.497 112.093 280.236 112.289C279.975 112.484 279.657 112.59 279.33 112.59ZM102.301 108.201C101.924 108.253 101.54 108.223 101.175 108.114C100.811 108.006 100.474 107.821 100.188 107.572C99.902 107.323 99.6736 107.017 99.5184 106.673C99.3631 106.329 99.2846 105.956 99.2881 105.58C99.2881 104.179 100.232 102.283 102.351 99.4426C102.593 99.1389 102.944 98.9398 103.331 98.8872C103.718 98.8346 104.11 98.9326 104.425 99.1605C104.741 99.3885 104.954 99.7286 105.021 100.109C105.087 100.49 105.002 100.881 104.782 101.2C103.777 102.394 102.964 103.734 102.372 105.172C103.115 105.115 103.848 104.961 104.551 104.716C104.933 104.597 105.347 104.634 105.703 104.817C106.058 105 106.324 105.316 106.444 105.694C106.564 106.072 106.527 106.481 106.342 106.832C106.156 107.183 105.837 107.447 105.455 107.566C104.44 107.927 103.378 108.141 102.301 108.201ZM115.077 103.236C114.74 103.235 114.413 103.123 114.148 102.917C113.884 102.711 113.696 102.423 113.617 102.099C113.537 101.776 113.569 101.435 113.708 101.132C113.847 100.828 114.085 100.58 114.384 100.426C117.156 99.0155 120.41 97.2777 124.005 95.2419C124.353 95.047 124.765 94.9967 125.15 95.1019C125.535 95.2071 125.862 95.4593 126.059 95.803C126.257 96.1467 126.307 96.5538 126.201 96.9346C126.095 97.3155 125.84 97.6389 125.492 97.8338C121.836 99.8795 118.562 101.647 115.77 103.067C115.56 103.194 115.322 103.265 115.077 103.276V103.236ZM110.668 93.4048C110.297 93.4092 109.938 93.2744 109.663 93.0275C109.515 92.8972 109.394 92.7391 109.308 92.5623C109.222 92.3856 109.173 92.1936 109.162 91.9977C109.152 91.8018 109.181 91.6059 109.248 91.4212C109.315 91.2366 109.419 91.0669 109.553 90.9222C111.561 88.6581 114.082 86.0265 117.085 82.8984C117.362 82.6209 117.738 82.4616 118.132 82.4547C118.526 82.4478 118.907 82.5938 119.193 82.8614C119.48 83.129 119.648 83.4969 119.664 83.8862C119.679 84.2755 119.539 84.6553 119.275 84.9441C116.262 88.0622 113.831 90.664 111.792 92.8884C111.653 93.0485 111.48 93.1774 111.286 93.2664C111.092 93.3554 110.881 93.4026 110.668 93.4048ZM134.26 92.5608C133.93 92.5618 133.608 92.4553 133.345 92.2577C133.081 92.0602 132.891 91.7825 132.803 91.4675C132.715 91.1525 132.735 90.8176 132.858 90.5145C132.982 90.2114 133.202 89.9569 133.487 89.7901C136.389 88.0821 139.563 86.1953 142.898 84.1695C143.066 84.0671 143.254 83.9986 143.449 83.9679C143.645 83.9372 143.845 83.9449 144.037 83.9906C144.23 84.0362 144.412 84.1189 144.572 84.2339C144.732 84.349 144.868 84.4941 144.972 84.6611C145.075 84.828 145.144 85.0134 145.175 85.2068C145.206 85.4002 145.199 85.5978 145.152 85.7882C145.106 85.9786 145.023 86.1582 144.906 86.3167C144.79 86.4751 144.643 86.6093 144.474 86.7117C141.12 88.6978 137.946 90.6839 135.033 92.3522C134.802 92.4982 134.535 92.5804 134.26 92.5905V92.5608ZM285.236 91.5677C285.104 91.5653 284.972 91.5486 284.844 91.518C284.653 91.4674 284.474 91.3799 284.317 91.2604C284.16 91.141 284.029 90.992 283.931 90.822C283.833 90.6521 283.77 90.4646 283.746 90.2705C283.721 90.0763 283.736 89.8793 283.789 89.6908C284.774 86.0563 285.704 82.5508 286.581 79.1745C286.622 78.9759 286.703 78.7875 286.819 78.6208C286.935 78.4541 287.085 78.3127 287.258 78.2051C287.432 78.0975 287.626 78.0261 287.828 77.9951C288.031 77.9641 288.238 77.9743 288.436 78.025C288.634 78.0758 288.82 78.1659 288.982 78.29C289.144 78.4142 289.278 78.5696 289.377 78.7469C289.476 78.9242 289.538 79.1196 289.558 79.3212C289.578 79.5228 289.556 79.7263 289.494 79.9193C288.617 83.3088 287.683 86.8242 286.692 90.4654C286.617 90.7837 286.437 91.0684 286.181 91.275C285.924 91.4816 285.606 91.5985 285.276 91.6074L285.236 91.5677ZM153.052 81.2301C152.726 81.2283 152.409 81.122 152.149 80.9271C151.889 80.7322 151.7 80.4592 151.611 80.1491C151.522 79.839 151.536 79.5086 151.653 79.2075C151.77 78.9064 151.982 78.6509 152.258 78.4793C154.568 77.0493 156.979 75.5598 159.469 74.0007L161.569 72.6899C161.735 72.5784 161.923 72.501 162.121 72.4624C162.318 72.4239 162.522 72.4249 162.719 72.4653C162.916 72.5058 163.103 72.5849 163.269 72.6981C163.434 72.8112 163.575 72.9561 163.684 73.1241C163.792 73.292 163.865 73.4798 163.898 73.6761C163.932 73.8724 163.925 74.0734 163.879 74.2672C163.832 74.4609 163.747 74.6435 163.628 74.8041C163.509 74.9648 163.358 75.1001 163.186 75.2023L161.076 76.523L153.855 81.0116C153.612 81.1548 153.334 81.2303 153.052 81.2301ZM125.823 77.5657C125.447 77.5574 125.088 77.4084 124.819 77.1487C124.537 76.8694 124.378 76.4908 124.378 76.096C124.378 75.7013 124.537 75.3227 124.819 75.0434L132.492 67.2083C132.62 67.0364 132.784 66.8937 132.972 66.7898C133.161 66.686 133.37 66.6234 133.585 66.6062C133.8 66.5891 134.016 66.6179 134.219 66.6906C134.422 66.7633 134.607 66.8783 134.761 67.0278C134.915 67.1772 135.035 67.3576 135.112 67.5568C135.19 67.756 135.223 67.9693 135.21 68.1822C135.196 68.3952 135.137 68.6029 135.036 68.7912C134.934 68.9795 134.793 69.1441 134.622 69.2738L126.958 77.109C126.812 77.26 126.636 77.3788 126.44 77.4575C126.245 77.5362 126.034 77.5731 125.823 77.5657ZM290.699 70.5052C290.583 70.5204 290.465 70.5204 290.348 70.5052C290.155 70.4609 289.972 70.3791 289.811 70.2644C289.65 70.1497 289.514 70.0045 289.41 69.8373C289.306 69.67 289.237 69.484 289.207 69.2901C289.176 69.0962 289.185 68.8982 289.233 68.7078C290.127 65.0137 290.95 61.4486 291.684 58.1219C291.726 57.9308 291.807 57.7499 291.92 57.5896C292.034 57.4293 292.178 57.2926 292.345 57.1875C292.512 57.0824 292.699 57.0108 292.893 56.9769C293.088 56.943 293.288 56.9474 293.481 56.9899C293.675 57.0298 293.858 57.1075 294.021 57.2184C294.184 57.3294 294.323 57.4713 294.429 57.6359C294.536 57.8005 294.608 57.9845 294.642 58.177C294.676 58.3696 294.671 58.5669 294.626 58.7574C293.893 62.104 293.06 65.7088 292.156 69.4029C292.071 69.7204 291.882 70.001 291.618 70.2005C291.355 70.4001 291.031 70.5072 290.699 70.5052ZM171.662 69.5717C171.41 69.5732 171.161 69.511 170.94 69.3911C170.719 69.2712 170.532 69.0976 170.397 68.8865C170.181 68.5557 170.106 68.1538 170.189 67.7686C170.272 67.3833 170.505 67.0462 170.839 66.8309C173.972 64.8448 177.049 62.8587 180.069 60.8726C180.403 60.6554 180.811 60.5783 181.203 60.6584C181.595 60.7385 181.938 60.9691 182.158 61.2996C182.378 61.6302 182.456 62.0335 182.375 62.4209C182.294 62.8082 182.06 63.1479 181.726 63.3652L172.476 69.3235C172.235 69.4818 171.952 69.568 171.662 69.5717ZM141.13 61.8557C140.756 61.8472 140.398 61.7022 140.125 61.4486C139.981 61.3143 139.865 61.153 139.785 60.9741C139.704 60.7952 139.66 60.6022 139.655 60.4064C139.651 60.2105 139.685 60.0157 139.757 59.8332C139.83 59.6507 139.938 59.4843 140.075 59.3434C142.908 56.3642 145.368 53.7922 147.598 51.399C147.722 51.2284 147.88 51.0856 148.064 50.9799C148.247 50.8741 148.451 50.8079 148.662 50.7856C148.873 50.7632 149.087 50.7853 149.288 50.8502C149.49 50.9151 149.676 51.0214 149.833 51.1623C149.991 51.3031 150.116 51.4752 150.202 51.6673C150.287 51.8595 150.33 52.0673 150.329 52.2772C150.327 52.487 150.281 52.6942 150.193 52.8852C150.105 53.0761 149.977 53.2465 149.818 53.3851C147.578 55.7883 145.107 58.3503 142.255 61.3295C142.116 61.4909 141.943 61.6212 141.749 61.7119C141.555 61.8026 141.344 61.8517 141.13 61.8557ZM190.103 57.6552C189.779 57.6554 189.464 57.5524 189.204 57.3616C188.944 57.1709 188.753 56.9024 188.659 56.596C188.566 56.2896 188.575 55.9616 188.684 55.6605C188.794 55.3594 188.999 55.1012 189.269 54.9243L198.429 48.8866C198.762 48.6667 199.169 48.5865 199.562 48.6638C199.955 48.7411 200.3 48.9695 200.523 49.2987C200.745 49.6279 200.826 50.031 200.748 50.4193C200.67 50.8076 200.439 51.1493 200.106 51.3692L190.926 57.4069C190.683 57.5693 190.396 57.6558 190.103 57.6552ZM295.319 49.2242H295.048C294.853 49.1897 294.667 49.1171 294.5 49.0107C294.334 48.9043 294.19 48.7662 294.078 48.6045C293.966 48.4429 293.887 48.2607 293.847 48.0688C293.807 47.8768 293.805 47.6789 293.843 47.4864C294.556 43.6731 295.159 40.0882 295.621 36.8112C295.677 36.4161 295.889 36.0592 296.211 35.8189C296.533 35.5787 296.939 35.4748 297.338 35.5301C297.738 35.5854 298.099 35.7954 298.342 36.1139C298.585 36.4323 298.69 36.8332 298.634 37.2282C298.162 40.545 297.549 44.1796 296.826 48.0326C296.752 48.3723 296.562 48.6764 296.287 48.8935C296.013 49.1106 295.671 49.2274 295.319 49.2242ZM156.025 45.7386C155.656 45.7475 155.298 45.62 155.02 45.3812C154.719 45.1238 154.533 44.7589 154.502 44.3663C154.472 43.9736 154.601 43.5851 154.859 43.2858C157.621 40.1081 159.932 37.2779 161.719 34.8747C161.961 34.5711 162.312 34.3719 162.699 34.3193C163.086 34.2667 163.478 34.3647 163.793 34.5927C164.108 34.8207 164.322 35.1608 164.388 35.5413C164.455 35.9218 164.369 36.313 164.15 36.6324C162.282 39.1448 159.992 41.9452 157.119 45.2223C156.983 45.3791 156.816 45.5061 156.627 45.595C156.439 45.684 156.233 45.7329 156.025 45.7386ZM208.422 45.5301C208.1 45.5292 207.787 45.4266 207.529 45.2371C207.27 45.0476 207.08 44.7813 206.986 44.4771C206.891 44.173 206.898 43.8469 207.005 43.5468C207.111 43.2467 207.312 42.9881 207.578 42.8091L216.728 36.7317C217.06 36.528 217.459 36.4596 217.84 36.5409C218.222 36.6221 218.557 36.8468 218.774 37.1674C218.992 37.488 219.075 37.8795 219.006 38.2595C218.937 38.6395 218.722 38.9783 218.405 39.2044L209.256 45.2818C209.011 45.4491 208.72 45.5391 208.422 45.54V45.5301ZM17.051 43.405C16.6944 43.4042 16.3496 43.2784 16.078 43.0499C15.8064 42.8213 15.6256 42.505 15.5677 42.157C15.5099 41.8091 15.5788 41.4522 15.7621 41.1497C15.9454 40.8473 16.2313 40.6189 16.5689 40.5053C19.7025 39.5122 23.2278 38.3305 27.0746 37.1091C27.4555 36.9879 27.8694 37.0213 28.2254 37.202C28.5814 37.3826 28.8502 37.6957 28.9728 38.0723C29.0953 38.4489 29.0615 38.8583 28.8788 39.2103C28.6961 39.5622 28.3795 39.828 27.9985 39.9492C24.1619 41.1607 20.6466 42.3027 17.5231 43.3255C17.3711 43.3786 17.212 43.4087 17.051 43.4149V43.405ZM38.0422 36.7218C37.6836 36.7188 37.3379 36.5894 37.0671 36.3569C36.7964 36.1244 36.6184 35.8041 36.5651 35.4535C36.5119 35.1029 36.5868 34.7449 36.7766 34.4441C36.9663 34.1432 37.2584 33.9192 37.6002 33.8121C40.9749 32.7695 44.5103 31.7069 48.1561 30.6145C48.5397 30.5013 48.953 30.5433 49.3053 30.7314C49.6575 30.9195 49.9197 31.2383 50.0342 31.6175C50.1488 31.9968 50.1063 32.4055 49.916 32.7537C49.7258 33.102 49.4034 33.3613 49.0198 33.4745C45.384 34.5536 41.8755 35.6162 38.4941 36.6622C38.3472 36.7048 38.1953 36.7282 38.0422 36.7317V36.7218ZM226.722 33.3951C226.473 33.397 226.227 33.337 226.008 33.2208C225.789 33.1045 225.602 32.9357 225.466 32.7297C225.244 32.4018 225.163 32 225.24 31.6127C225.317 31.2254 225.546 30.8843 225.878 30.6642C229.052 28.5788 232.118 26.5762 235.078 24.6563C235.412 24.439 235.82 24.3619 236.212 24.442C236.604 24.5221 236.947 24.7528 237.167 25.0833C237.387 25.4138 237.465 25.8171 237.384 26.2045C237.303 26.5919 237.069 26.9315 236.735 27.1488C233.775 29.0687 230.716 31.0548 227.555 33.1071C227.313 33.2857 227.023 33.3894 226.722 33.405V33.3951ZM59.1639 30.4159C58.8021 30.4136 58.4533 30.2826 58.1811 30.0469C57.909 29.8111 57.7317 29.4865 57.6817 29.1322C57.6317 28.7779 57.7124 28.4176 57.9089 28.1173C58.1055 27.8169 58.4048 27.5965 58.7521 27.4964C62.2406 26.4967 65.7826 25.5037 69.3783 24.5173C69.7565 24.4091 70.1626 24.4527 70.5085 24.6386C70.8544 24.8245 71.1123 25.1377 71.2263 25.5103C71.3333 25.8855 71.2882 26.2872 71.1007 26.6301C70.9132 26.9731 70.598 27.2304 70.2219 27.3474C66.6397 28.3206 63.1077 29.3137 59.6259 30.3266C59.4803 30.3969 59.3244 30.4438 59.1639 30.4656V30.4159ZM168.318 27.7347C168.168 27.7367 168.018 27.7131 167.876 27.6652C167.686 27.6096 167.509 27.5172 167.356 27.3934C167.202 27.2697 167.075 27.117 166.981 26.9442C166.888 26.7715 166.83 26.5821 166.811 26.3871C166.792 26.1921 166.813 25.9953 166.872 25.8082C167.259 24.6165 167.469 23.3754 167.494 22.124C167.526 21.2083 167.359 20.2965 167.003 19.4502C166.648 18.604 166.113 17.8429 165.435 17.2184C165.145 16.9458 164.976 16.5703 164.966 16.1746C164.955 15.7788 165.104 15.3952 165.38 15.1081C165.656 14.8211 166.036 14.654 166.436 14.6438C166.836 14.6336 167.224 14.7809 167.514 15.0535C168.491 15.9542 169.265 17.0487 169.784 18.2655C170.303 19.4822 170.557 20.7937 170.528 22.1141C170.507 23.6661 170.25 25.2061 169.764 26.6821C169.68 26.9979 169.492 27.2772 169.231 27.4766C168.969 27.676 168.648 27.7842 168.318 27.7844V27.7347ZM298.333 27.6553H298.242C297.844 27.6322 297.472 27.4542 297.206 27.1601C296.941 26.866 296.804 26.4798 296.826 26.0863C296.926 24.3584 296.987 22.7 296.987 21.1707C296.996 19.2632 296.896 17.3568 296.685 15.4607C296.663 15.2662 296.68 15.0692 296.735 14.8813C296.791 14.6933 296.883 14.518 297.007 14.3656C297.132 14.2132 297.285 14.0867 297.459 13.9935C297.633 13.9002 297.824 13.8419 298.021 13.8221C298.417 13.7827 298.813 13.8977 299.124 14.1426C299.436 14.3874 299.638 14.7427 299.688 15.133C299.902 17.1385 300.006 19.1541 300 21.1707C300 22.7596 299.939 24.4775 299.829 26.265C299.804 26.6409 299.635 26.9933 299.357 27.2513C299.08 27.5092 298.714 27.6536 298.333 27.6553ZM80.4664 24.6761C80.0668 24.7262 79.6635 24.6172 79.3452 24.3733C79.0269 24.1293 78.8197 23.7703 78.7691 23.3753C78.7184 22.9802 78.8286 22.5814 79.0753 22.2667C79.3221 21.952 79.6852 21.7471 80.0848 21.697C83.7406 20.7536 87.3463 19.8599 90.8013 19.0257C91.1902 18.9322 91.6007 18.9953 91.9426 19.2011C92.2845 19.4069 92.5296 19.7385 92.6242 20.123C92.7188 20.5075 92.655 20.9135 92.4468 21.2515C92.2387 21.5895 91.9033 21.8319 91.5144 21.9254C88.0694 22.7496 84.4838 23.6434 80.8481 24.5868C80.6989 24.6372 80.5434 24.6672 80.3861 24.6761H80.4664ZM245.182 21.4984C244.855 21.4988 244.536 21.394 244.275 21.1999C244.014 21.0057 243.823 20.7327 243.732 20.4221C243.642 20.1115 243.656 19.7802 243.772 19.4781C243.889 19.1761 244.101 18.9197 244.378 18.7477C247.823 16.5928 250.907 14.7159 253.799 13.0178C254.142 12.8244 254.549 12.772 254.931 12.872C255.312 12.972 255.639 13.2162 255.841 13.5522C256.042 13.8881 256.102 14.2889 256.008 14.6682C255.913 15.0474 255.672 15.3748 255.336 15.5798C252.473 17.2581 249.41 19.125 245.995 21.2601C245.747 21.4186 245.457 21.5015 245.162 21.4984H245.182ZM101.869 19.5123C101.47 19.5544 101.07 19.4379 100.757 19.1884C100.444 18.9388 100.245 18.5767 100.202 18.1816C100.16 17.7866 100.277 17.391 100.53 17.0818C100.782 16.7727 101.148 16.5753 101.548 16.5332C105.284 15.7189 108.93 14.9641 112.375 14.2988C112.768 14.2224 113.175 14.3035 113.508 14.5242C113.84 14.7449 114.07 15.0871 114.148 15.4756C114.225 15.864 114.143 16.267 113.92 16.5956C113.697 16.9244 113.35 17.1519 112.957 17.2283C109.533 17.8837 105.927 18.6285 102.201 19.4428C102.089 19.4894 101.97 19.5195 101.849 19.5321L101.869 19.5123ZM123.513 15.3713C123.316 15.3863 123.117 15.3626 122.928 15.3016C122.739 15.2406 122.565 15.1435 122.414 15.0158C122.264 14.8881 122.14 14.7323 122.05 14.5573C121.96 14.3823 121.906 14.1915 121.891 13.9959C121.876 13.8003 121.9 13.6037 121.962 13.4172C122.023 13.2307 122.122 13.0581 122.251 12.9092C122.38 12.7603 122.538 12.638 122.715 12.5493C122.892 12.4605 123.084 12.4072 123.282 12.3922C127.169 11.7765 130.875 11.28 134.28 10.9225C134.477 10.8991 134.677 10.9149 134.867 10.9689C135.058 11.023 135.236 11.1143 135.39 11.2374C135.545 11.3605 135.673 11.5129 135.767 11.6856C135.861 11.8584 135.919 12.0479 135.937 12.2432C135.971 12.4422 135.964 12.646 135.915 12.8421C135.867 13.0381 135.778 13.2223 135.655 13.3832C135.532 13.5441 135.376 13.6784 135.199 13.7778C135.021 13.8772 134.825 13.9396 134.622 13.9612C131.267 14.3187 127.591 14.8053 123.774 15.411L123.513 15.3713ZM156.426 13.6831H156.205C152.651 13.2077 149.063 13.0316 145.479 13.1568C145.28 13.1648 145.082 13.1333 144.896 13.0643C144.71 12.9953 144.54 12.8901 144.396 12.7549C144.251 12.6197 144.136 12.4573 144.057 12.2774C143.977 12.0974 143.935 11.9034 143.932 11.707C143.924 11.3126 144.073 10.9309 144.348 10.6447C144.622 10.3584 145 10.1907 145.398 10.1777C149.161 10.0425 152.927 10.2285 156.657 10.7338C157.057 10.7641 157.428 10.9501 157.689 11.2508C157.95 11.5516 158.079 11.9425 158.048 12.3375C158.018 12.7326 157.83 13.0994 157.525 13.3574C157.221 13.6153 156.826 13.7432 156.426 13.7129V13.6831ZM264.184 10.4359C263.846 10.4373 263.518 10.3265 263.252 10.1212C262.985 9.91595 262.796 9.62813 262.715 9.30397C262.634 8.97982 262.666 8.63813 262.805 8.33375C262.943 8.02936 263.182 7.77994 263.481 7.62554C266.764 5.88633 270.136 4.3185 273.585 2.92845C273.957 2.78228 274.372 2.78802 274.739 2.94446C275.106 3.10089 275.396 3.39521 275.544 3.76261C275.691 4.13001 275.686 4.54042 275.527 4.90358C275.369 5.26673 275.071 5.55286 274.7 5.69903C271.35 7.04662 268.075 8.5681 264.887 10.2571C264.671 10.3717 264.43 10.4331 264.184 10.4359ZM294.636 6.62256C294.414 6.62244 294.193 6.57339 293.992 6.47894C293.79 6.38449 293.613 6.247 293.471 6.07639C291.543 3.72287 288.701 2.74969 284.864 3.03768C284.465 3.06796 284.069 2.94006 283.765 2.68213C283.461 2.4242 283.273 2.05736 283.242 1.6623C283.211 1.26724 283.341 0.876343 283.602 0.575578C283.862 0.274813 284.233 0.0888264 284.633 0.0585386C289.514 -0.308888 293.26 1.05159 295.812 4.18961C296.061 4.49745 296.177 4.88992 296.136 5.28209C296.095 5.67425 295.899 6.03453 295.591 6.28492C295.309 6.50807 294.957 6.62742 294.596 6.62256H294.636ZM2.04585 48.5489C2.04585 48.5489 3.91395 47.8935 7.24843 46.7615C7.43572 46.6963 7.60821 46.5952 7.75601 46.4641C7.90381 46.333 8.02404 46.1744 8.10984 45.9974C8.19564 45.8203 8.24533 45.6283 8.25607 45.4322C8.26682 45.2362 8.23841 45.04 8.17246 44.8548C8.10651 44.6696 8.00432 44.4991 7.87172 44.353C7.73911 44.2069 7.5787 44.088 7.39963 44.0031C7.22057 43.9183 7.02636 43.8692 6.82809 43.8586C6.62982 43.8479 6.43136 43.876 6.24407 43.9412C2.8895 45.0832 1.02141 45.7386 1.02141 45.7386C0.6821 45.8527 0.395045 46.0827 0.211802 46.3873C0.0285604 46.6918 -0.0388747 47.051 0.021615 47.4002C0.0821046 47.7495 0.266566 48.0661 0.541849 48.293C0.817132 48.5199 1.16521 48.6423 1.52359 48.6383C1.70178 48.6408 1.87887 48.6105 2.04585 48.5489ZM288.49 119.393C288.388 119.225 288.253 119.079 288.094 118.963C287.934 118.847 287.754 118.763 287.561 118.716C287.369 118.669 287.17 118.66 286.974 118.689C286.778 118.718 286.59 118.785 286.421 118.886L274.981 125.689L268.955 113.911C268.774 113.563 268.462 113.299 268.086 113.176C267.711 113.054 267.301 113.082 266.946 113.256C266.596 113.436 266.331 113.745 266.207 114.116C266.083 114.487 266.11 114.891 266.283 115.242L273.043 128.439C273.137 128.622 273.268 128.784 273.429 128.915C273.589 129.046 273.775 129.142 273.974 129.199C274.174 129.256 274.383 129.272 274.589 129.245C274.795 129.219 274.994 129.151 275.172 129.045L287.998 121.419C288.331 121.212 288.57 120.884 288.661 120.505C288.753 120.126 288.692 119.727 288.49 119.393Z" fill="#FCD30B"/>
</svg>
