<svg width="13" height="10" viewBox="0 0 13 10" fill="none" xmlns="http://www.w3.org/2000/svg">
<path d="M13 4.98063L12.3289 5.62648L7.93819 9.82454C7.87783 9.88301 7.8068 9.92857 7.72923 9.95862C7.65167 9.98867 7.5691 10.0026 7.48629 9.9996C7.40347 9.9966 7.32206 9.97673 7.24674 9.94114C7.17143 9.90555 7.10369 9.85493 7.04747 9.79223C6.99069 9.73009 6.94646 9.65698 6.91727 9.57712C6.88809 9.49726 6.87454 9.41222 6.87746 9.32694C6.88037 9.24166 6.89967 9.15784 6.93423 9.08029C6.9688 9.00274 7.01794 8.93301 7.07883 8.87513L10.4785 5.64585H0.627242C0.460887 5.64585 0.301355 5.5778 0.183724 5.45668C0.0660934 5.33556 0 5.17129 0 5C0 4.82871 0.0660934 4.66442 0.183724 4.5433C0.301355 4.42218 0.460887 4.35415 0.627242 4.35415H10.4785L7.08511 1.12487C7.02422 1.06699 6.97507 0.997262 6.94051 0.919711C6.90594 0.842159 6.88665 0.758317 6.88374 0.673041C6.88082 0.587765 6.89433 0.502745 6.92351 0.422883C6.95269 0.34302 6.99697 0.269895 7.05375 0.207749C7.10997 0.145052 7.1777 0.0944509 7.25302 0.05886C7.32834 0.023269 7.40975 0.00340299 7.49256 0.000400324C7.57538 -0.00260234 7.65795 0.0113093 7.73551 0.0413575C7.81307 0.0714058 7.88407 0.116994 7.94443 0.175464L12.3351 4.37352L13 4.98063Z" fill="#3A82CF"/>
</svg>
