<svg width="448" height="212" viewBox="0 0 448 212" fill="none" xmlns="http://www.w3.org/2000/svg">
<path d="M110.41 211.784C109.501 211.784 108.602 211.784 107.703 211.784C107.305 211.773 106.927 211.607 106.652 211.32C106.377 211.033 106.227 210.65 106.235 210.254C106.238 210.058 106.28 209.864 106.359 209.683C106.438 209.503 106.553 209.341 106.696 209.206C106.84 209.071 107.009 208.965 107.194 208.896C107.379 208.827 107.576 208.796 107.773 208.804C111.679 208.883 115.674 208.804 119.599 208.476C119.996 208.446 120.39 208.574 120.692 208.832C120.995 209.09 121.182 209.457 121.212 209.852C121.243 210.247 121.114 210.638 120.854 210.939C120.595 211.24 120.226 211.426 119.829 211.456C116.713 211.655 113.536 211.784 110.41 211.784ZM95.798 210.91H95.6181C91.623 210.443 87.6279 209.777 83.6327 208.923C83.4399 208.882 83.2571 208.803 83.0948 208.692C82.9325 208.581 82.7938 208.439 82.6867 208.274C82.5796 208.109 82.5061 207.925 82.4705 207.732C82.4349 207.54 82.4378 207.342 82.4791 207.15C82.5204 206.958 82.5993 206.776 82.7113 206.615C82.8232 206.453 82.9661 206.316 83.1316 206.209C83.2972 206.102 83.4822 206.029 83.6762 205.994C83.8701 205.959 84.0691 205.961 84.262 206.003C88.1472 206.837 92.0725 207.483 95.9378 207.989C96.3351 208.012 96.7072 208.19 96.9723 208.485C97.2373 208.781 97.3736 209.169 97.3511 209.564C97.3285 209.959 97.1491 210.329 96.8522 210.593C96.5553 210.856 96.1653 210.992 95.768 210.969L95.798 210.91ZM131.594 209.916C131.197 209.951 130.802 209.826 130.497 209.571C130.192 209.316 130.001 208.951 129.966 208.555C129.932 208.16 130.057 207.768 130.313 207.464C130.57 207.16 130.937 206.971 131.335 206.936C135.18 206.251 139.065 205.367 142.871 204.304C143.06 204.251 143.258 204.236 143.454 204.259C143.649 204.283 143.838 204.344 144.01 204.44C144.181 204.536 144.332 204.664 144.454 204.818C144.575 204.972 144.665 205.149 144.718 205.337C144.772 205.526 144.787 205.723 144.763 205.917C144.74 206.111 144.678 206.299 144.582 206.47C144.485 206.64 144.356 206.791 144.201 206.911C144.046 207.032 143.869 207.122 143.68 207.175C139.774 208.267 135.799 209.161 131.854 209.867C131.77 209.894 131.683 209.91 131.594 209.916ZM72.3764 205.943C72.2279 205.942 72.0802 205.922 71.9369 205.883C68.1515 204.721 64.3062 203.38 60.5208 201.91C60.1611 201.758 59.8753 201.473 59.7242 201.114C59.5731 200.756 59.5688 200.353 59.7121 199.992C59.8554 199.63 60.135 199.339 60.4913 199.179C60.8476 199.02 61.2525 199.005 61.6195 199.139C65.335 200.599 69.1004 201.92 72.8159 203.052C73.1559 203.159 73.4463 203.384 73.635 203.684C73.8237 203.985 73.8982 204.343 73.8453 204.694C73.7923 205.045 73.6153 205.365 73.3461 205.598C73.0768 205.83 72.733 205.96 72.3764 205.963V205.943ZM154.636 203.479C154.287 203.478 153.95 203.354 153.682 203.131C153.415 202.908 153.234 202.599 153.171 202.257C153.108 201.916 153.167 201.563 153.338 201.26C153.509 200.957 153.781 200.723 154.107 200.599C157.733 199.218 161.388 197.619 164.964 195.9C165.141 195.803 165.337 195.742 165.539 195.722C165.741 195.702 165.945 195.722 166.138 195.783C166.332 195.843 166.511 195.943 166.665 196.074C166.819 196.205 166.944 196.367 167.034 196.548C167.123 196.729 167.175 196.926 167.185 197.128C167.195 197.329 167.165 197.531 167.094 197.72C167.024 197.91 166.916 198.083 166.776 198.229C166.637 198.376 166.469 198.492 166.282 198.572C162.627 200.35 158.891 201.97 155.176 203.38C155.005 203.45 154.822 203.487 154.636 203.489V203.479ZM50.1035 197.182C49.8754 197.181 49.6503 197.13 49.4443 197.033C45.8786 195.304 42.283 193.407 38.7573 191.4C38.4447 191.187 38.2245 190.864 38.1403 190.497C38.0562 190.129 38.1144 189.743 38.3033 189.416C38.4922 189.09 38.798 188.845 39.1597 188.733C39.5215 188.62 39.9127 188.647 40.2554 188.808C43.7212 190.795 47.247 192.652 50.7527 194.351C51.0576 194.498 51.3035 194.743 51.4502 195.047C51.5968 195.35 51.6357 195.695 51.5603 196.023C51.485 196.352 51.2999 196.645 51.0353 196.855C50.7708 197.066 50.4423 197.181 50.1035 197.182ZM176.17 193.079C175.842 193.078 175.524 192.97 175.264 192.772C175.004 192.573 174.816 192.295 174.73 191.981C174.644 191.666 174.664 191.332 174.787 191.03C174.91 190.728 175.129 190.474 175.411 190.308C176.7 189.543 177.998 188.758 179.286 187.954C181.374 186.652 183.451 185.311 185.469 183.98C185.8 183.762 186.205 183.683 186.595 183.761C186.984 183.839 187.327 184.068 187.546 184.397C187.766 184.727 187.846 185.129 187.767 185.517C187.688 185.904 187.458 186.245 187.127 186.464C185.129 187.805 182.992 189.156 180.885 190.437C179.553 191.258 178.221 192.056 176.889 192.831C176.675 192.976 176.428 193.065 176.17 193.089V193.079ZM29.3487 185.311C29.054 185.31 28.7659 185.224 28.5197 185.063C25.1838 182.858 21.8678 180.503 18.6717 178.11C18.3551 177.87 18.1473 177.515 18.0939 177.123C18.0406 176.731 18.146 176.333 18.387 176.019C18.6281 175.704 18.985 175.497 19.3793 175.444C19.7736 175.391 20.1729 175.496 20.4895 175.735C23.6356 178.12 26.9017 180.424 30.1877 182.599C30.5152 182.821 30.7417 183.162 30.8183 183.549C30.8949 183.936 30.8155 184.337 30.5972 184.666C30.4569 184.876 30.2648 185.046 30.0392 185.161C29.8135 185.276 29.562 185.331 29.3088 185.321L29.3487 185.311ZM196.146 179.898C195.911 179.899 195.679 179.844 195.468 179.739C195.258 179.634 195.076 179.48 194.937 179.292C194.704 178.972 194.606 178.574 194.666 178.183C194.726 177.793 194.938 177.441 195.257 177.206C198.483 174.861 201.659 172.438 204.706 170.004C204.856 169.866 205.034 169.761 205.228 169.694C205.421 169.627 205.626 169.6 205.83 169.616C206.035 169.631 206.234 169.687 206.415 169.782C206.596 169.877 206.756 170.007 206.885 170.166C207.013 170.324 207.108 170.507 207.163 170.704C207.217 170.9 207.231 171.105 207.203 171.307C207.174 171.509 207.105 171.703 206.998 171.877C206.892 172.05 206.751 172.201 206.583 172.318C203.507 174.792 200.291 177.285 197.025 179.609C196.765 179.81 196.444 179.915 196.116 179.907L196.146 179.898ZM10.2619 170.878C9.89511 170.88 9.54003 170.75 9.26312 170.511C6.17021 167.887 3.21333 165.108 0.403889 162.186C0.268861 162.043 0.163724 161.875 0.0945724 161.692C0.0254212 161.508 -0.00637588 161.313 0.00105812 161.117C0.00849212 160.921 0.0549868 160.728 0.137855 160.55C0.220723 160.373 0.33831 160.213 0.483778 160.08C0.776334 159.814 1.16258 159.673 1.55889 159.688C1.95519 159.703 2.32966 159.872 2.6012 160.16C2.6012 160.16 5.69745 163.478 11.2307 168.256C11.4652 168.455 11.6321 168.721 11.7086 169.019C11.7851 169.316 11.7676 169.629 11.6583 169.916C11.549 170.203 11.3534 170.449 11.0981 170.621C10.8428 170.794 10.5403 170.883 10.2319 170.878H10.2619ZM214.783 164.918C214.479 164.918 214.183 164.827 213.932 164.656C213.682 164.485 213.49 164.242 213.381 163.959C213.273 163.677 213.254 163.369 213.326 163.075C213.398 162.781 213.558 162.516 213.785 162.315C216.781 159.703 219.647 156.981 222.454 154.23C222.739 153.968 223.116 153.826 223.504 153.835C223.892 153.843 224.262 154.001 224.535 154.276C224.808 154.55 224.964 154.919 224.969 155.305C224.974 155.691 224.828 156.064 224.561 156.345C221.715 159.137 218.758 161.898 215.772 164.541C215.498 164.809 215.128 164.959 214.743 164.958L214.783 164.918ZM231.833 148.2C231.54 148.205 231.253 148.124 231.007 147.967C230.76 147.81 230.566 147.585 230.448 147.319C230.329 147.053 230.292 146.758 230.342 146.471C230.391 146.185 230.524 145.919 230.724 145.707C233.341 142.876 235.978 139.876 238.564 136.767C238.686 136.605 238.84 136.47 239.017 136.369C239.193 136.269 239.388 136.205 239.59 136.182C239.792 136.158 239.996 136.176 240.191 136.234C240.385 136.292 240.566 136.388 240.722 136.518C240.878 136.647 241.006 136.807 241.098 136.987C241.19 137.168 241.244 137.364 241.257 137.566C241.27 137.768 241.242 137.97 241.174 138.161C241.106 138.351 241 138.526 240.862 138.674C238.245 141.793 235.578 144.823 232.931 147.693C232.793 147.862 232.62 147.998 232.423 148.093C232.226 148.187 232.011 148.237 231.793 148.24L231.833 148.2ZM247.214 129.952C246.885 129.954 246.565 129.846 246.305 129.644C246.149 129.526 246.018 129.377 245.92 129.208C245.821 129.038 245.758 128.851 245.733 128.657C245.708 128.463 245.722 128.266 245.773 128.078C245.825 127.889 245.914 127.713 246.035 127.558C248.283 124.668 250.63 121.598 253.207 118.062C253.447 117.758 253.796 117.559 254.181 117.507C254.565 117.454 254.956 117.552 255.269 117.78C255.583 118.008 255.795 118.348 255.861 118.729C255.927 119.11 255.842 119.501 255.624 119.82C253.027 123.347 250.63 126.466 248.402 129.376C248.262 129.569 248.077 129.726 247.863 129.833C247.65 129.94 247.413 129.995 247.174 129.992L247.214 129.952ZM261.417 110.771C261.105 110.767 260.803 110.67 260.548 110.493C260.224 110.262 260.006 109.912 259.94 109.522C259.875 109.131 259.968 108.73 260.198 108.407L261.197 106.957C263.194 104.188 265.192 101.44 267.19 98.7119C267.423 98.3918 267.774 98.1769 268.167 98.1145C268.559 98.0521 268.96 98.1473 269.282 98.3791C269.604 98.611 269.82 98.9604 269.883 99.3507C269.945 99.741 269.85 100.14 269.617 100.46C267.619 103.182 265.622 105.924 263.684 108.685L262.635 110.145C262.498 110.352 262.311 110.521 262.091 110.638C261.871 110.754 261.626 110.813 261.377 110.811L261.417 110.771ZM275.539 91.5201C275.26 91.5196 274.987 91.4417 274.75 91.295C274.513 91.1483 274.322 90.9387 274.199 90.6898C274.075 90.4409 274.024 90.1627 274.051 89.8864C274.078 89.6101 274.182 89.3468 274.351 89.1262C276.988 85.7091 279.445 82.6495 281.882 79.7788C282.008 79.6288 282.163 79.505 282.338 79.4146C282.513 79.3242 282.704 79.2689 282.9 79.2518C283.096 79.2347 283.293 79.2563 283.481 79.3152C283.669 79.3741 283.843 79.4691 283.994 79.595C284.145 79.7209 284.269 79.8751 284.36 80.0488C284.451 80.2225 284.507 80.4123 284.524 80.6074C284.541 80.8025 284.52 80.999 284.46 81.1858C284.401 81.3726 284.306 81.5459 284.179 81.6959C281.772 84.5369 279.335 87.5566 276.728 90.934C276.59 91.1298 276.406 91.2892 276.192 91.3983C275.978 91.5073 275.74 91.5628 275.5 91.5598L275.539 91.5201ZM291.021 73.3519C290.727 73.3565 290.439 73.2747 290.192 73.1167C289.945 72.9588 289.751 72.7317 289.633 72.4641C289.516 72.1966 289.481 71.9004 289.532 71.613C289.583 71.3255 289.719 71.0596 289.922 70.8487C292.739 67.8687 295.655 65.0972 298.591 62.4748C298.89 62.2364 299.27 62.1208 299.651 62.152C300.033 62.1831 300.389 62.3585 300.644 62.6422C300.9 62.9258 301.037 63.2961 301.027 63.677C301.016 64.0579 300.86 64.4204 300.589 64.6899C297.723 67.2627 294.856 70.0242 292.089 72.9049C291.949 73.0583 291.778 73.1809 291.587 73.2647C291.396 73.3485 291.189 73.3918 290.981 73.3916L291.021 73.3519ZM308.819 57.4585C308.505 57.4599 308.199 57.3634 307.944 57.1825C307.688 57.0017 307.496 56.7458 307.395 56.4506C307.293 56.1555 307.287 55.8361 307.378 55.5376C307.469 55.239 307.651 54.9763 307.9 54.7864C311.086 52.3527 314.382 49.9885 317.678 47.7535C317.841 47.6433 318.024 47.566 318.216 47.526C318.409 47.4861 318.608 47.4843 318.801 47.5208C318.995 47.5572 319.179 47.6312 319.343 47.7384C319.508 47.8457 319.65 47.9841 319.761 48.1459C319.872 48.3077 319.949 48.4895 319.989 48.6811C320.03 48.8728 320.031 49.0704 319.995 49.2627C319.958 49.455 319.884 49.6383 319.776 49.802C319.668 49.9658 319.529 50.1067 319.366 50.217C316.11 52.4222 312.864 54.7565 309.728 57.1704C309.459 57.3857 309.124 57.5016 308.779 57.4982L308.819 57.4585ZM328.615 44.0484C328.357 44.0491 328.103 43.9825 327.879 43.8553C327.654 43.728 327.467 43.5446 327.337 43.3232C327.235 43.1556 327.167 42.9697 327.138 42.7761C327.108 42.5826 327.118 42.3851 327.165 42.1951C327.212 42.005 327.297 41.8262 327.413 41.6686C327.53 41.5111 327.677 41.378 327.846 41.2769C331.282 39.2306 334.837 37.244 338.353 35.3864C338.705 35.202 339.117 35.1643 339.497 35.2817C339.877 35.3991 340.195 35.6618 340.381 36.0122C340.566 36.3626 340.604 36.7719 340.486 37.1501C340.368 37.5283 340.104 37.8443 339.751 38.0287C336.266 39.8565 332.76 41.8133 329.384 43.8298C329.147 43.9955 328.865 44.0856 328.575 44.0881L328.615 44.0484ZM349.809 32.9329C349.469 32.93 349.14 32.8122 348.876 32.5988C348.613 32.3854 348.43 32.0891 348.358 31.7586C348.286 31.4281 348.329 31.083 348.48 30.7801C348.631 30.4773 348.882 30.2345 349.19 30.0919C352.826 28.433 356.561 26.8536 360.296 25.4034C360.66 25.2847 361.056 25.3091 361.402 25.4716C361.749 25.634 362.019 25.9223 362.159 26.277C362.298 26.6317 362.296 27.0261 362.152 27.379C362.008 27.7319 361.734 28.0167 361.385 28.1748C357.71 29.6151 354.024 31.1548 350.398 32.8038C350.204 32.9053 349.989 32.9629 349.769 32.9726L349.809 32.9329ZM372.112 24.2312C371.758 24.2281 371.417 24.1006 371.149 23.8713C370.88 23.6419 370.702 23.3254 370.646 22.978C370.59 22.6306 370.659 22.2746 370.841 21.9731C371.024 21.6716 371.308 21.444 371.643 21.3307C375.428 20.0791 379.323 18.9168 383.199 17.8639C383.583 17.7598 383.993 17.8118 384.338 18.0083C384.684 18.2048 384.937 18.5299 385.041 18.9119C385.146 19.2939 385.094 19.7016 384.896 20.0453C384.699 20.389 384.372 20.6405 383.988 20.7446C380.162 21.7379 376.317 22.9299 372.582 24.1517C372.42 24.2209 372.248 24.2612 372.072 24.2709L372.112 24.2312ZM395.234 17.9732C394.837 18.014 394.439 17.8962 394.129 17.6456C393.819 17.3951 393.622 17.0323 393.581 16.6371C393.54 16.2419 393.658 15.8468 393.91 15.5385C394.162 15.2302 394.527 15.034 394.924 14.9932C398.84 14.1488 402.825 13.4038 406.78 12.778C407.177 12.7148 407.584 12.8111 407.91 13.0458C408.236 13.2806 408.454 13.6344 408.518 14.0296C408.581 14.4248 408.485 14.8289 408.249 15.153C408.013 15.4772 407.657 15.6948 407.259 15.758C403.354 16.3838 399.419 17.1189 395.554 17.9434C395.437 17.9791 395.316 18.0025 395.194 18.0129L395.234 17.9732ZM418.865 14.2283C418.468 14.2494 418.078 14.1126 417.783 13.8481C417.487 13.5835 417.308 13.2129 417.287 12.8178C417.266 12.4226 417.404 12.0352 417.669 11.7409C417.935 11.4465 418.308 11.2693 418.705 11.2483C422.701 10.8211 426.796 10.5132 430.751 10.3245C430.948 10.3153 431.144 10.3448 431.329 10.4113C431.515 10.4777 431.685 10.5798 431.831 10.7117C431.976 10.8436 432.094 11.0027 432.178 11.18C432.262 11.3573 432.31 11.5493 432.319 11.7449C432.328 11.9406 432.298 12.1361 432.232 12.3204C432.165 12.5047 432.062 12.6741 431.93 12.8189C431.797 12.9637 431.637 13.0811 431.459 13.1644C431.28 13.2477 431.087 13.2953 430.891 13.3045C426.995 13.4932 423 13.7912 419.025 14.2084L418.865 14.2283ZM436.464 22.771L447.311 13.4336C447.518 13.2546 447.687 13.0349 447.805 12.7882C447.924 12.5416 447.989 12.2732 447.999 12.0001C448.008 11.7269 447.961 11.4547 447.86 11.2005C447.758 10.9464 447.606 10.7158 447.411 10.5231L437.263 0.44071C437.124 0.301054 436.958 0.190234 436.775 0.114588C436.593 0.0389423 436.397 0 436.199 0C436.001 0 435.806 0.0389423 435.623 0.114588C435.44 0.190234 435.275 0.301054 435.136 0.44071C434.855 0.720088 434.697 1.09879 434.697 1.49365C434.697 1.8885 434.855 2.26721 435.136 2.54659L444.524 11.8741L434.536 20.5161C434.386 20.6437 434.263 20.7995 434.174 20.9745C434.085 21.1495 434.031 21.3404 434.016 21.536C434.002 21.7317 434.026 21.9284 434.088 22.1147C434.149 22.3011 434.247 22.4735 434.376 22.622C434.635 22.9136 434.997 23.094 435.386 23.1255C435.775 23.157 436.162 23.0371 436.464 22.7909V22.771Z" fill="#EEC912"/>
</svg>
