<svg width="190" height="120" viewBox="0 0 190 120" fill="none" xmlns="http://www.w3.org/2000/svg">
<path d="M189.063 2.28882e-05C188.925 -0.00106049 188.79 0.0287476 188.665 0.0872498C188.541 0.145752 188.432 0.23143 188.345 0.337898C186.758 2.1249 184.969 3.72377 183.015 5.10291C182.832 5.25226 182.714 5.46538 182.684 5.6987C182.654 5.93202 182.715 6.16795 182.853 6.35823C182.992 6.54852 183.199 6.67878 183.431 6.72243C183.663 6.76609 183.903 6.71981 184.102 6.59307C186.19 5.12358 188.099 3.41529 189.789 1.50316C189.901 1.36841 189.971 1.20469 189.993 1.03124C190.015 0.857796 189.986 0.681816 189.911 0.523979C189.835 0.366142 189.716 0.232994 189.568 0.140182C189.419 0.0473709 189.247 -0.00125122 189.071 2.28882e-05H189.063ZM111.958 6.66239H111.797C111.551 6.66239 111.316 6.7596 111.142 6.93263C110.968 7.10567 110.871 7.34036 110.871 7.58508C110.871 7.82979 110.968 8.06446 111.142 8.2375C111.316 8.41053 111.551 8.50776 111.797 8.50776H111.958C114.184 8.50776 116.589 8.61603 119.106 8.83695C119.345 8.8475 119.578 8.76585 119.758 8.60905C119.937 8.45224 120.049 8.2324 120.07 7.99541C120.09 7.75843 120.019 7.52261 119.869 7.33718C119.719 7.15176 119.504 7.03104 119.267 7.00026C116.715 6.77934 114.254 6.66673 111.958 6.66239ZM104.422 7.13454H104.296C101.789 7.4604 99.3206 8.03209 96.9263 8.84129C96.7072 8.92971 96.5305 9.09865 96.4329 9.31318C96.3352 9.52771 96.324 9.77143 96.4016 9.99394C96.4792 10.2165 96.6397 10.4008 96.8499 10.5087C97.06 10.6167 97.3038 10.6401 97.5307 10.574C99.8169 9.80945 102.173 9.27255 104.566 8.97124C104.798 8.93935 105.009 8.82108 105.157 8.64019C105.305 8.4593 105.379 8.22928 105.364 7.99642C105.348 7.76357 105.245 7.54519 105.074 7.38527C104.904 7.22535 104.678 7.13575 104.444 7.13454H104.422ZM126.528 7.8753C126.298 7.88 126.077 7.97026 125.91 8.1284C125.742 8.28654 125.64 8.50119 125.624 8.73035C125.607 8.95952 125.676 9.18668 125.819 9.36744C125.961 9.54819 126.166 9.66951 126.393 9.70766C128.628 10.0369 131.002 10.4441 133.65 10.9422C133.885 10.9737 134.124 10.9142 134.316 10.776C134.508 10.6377 134.64 10.4313 134.684 10.1991C134.728 9.96702 134.681 9.72691 134.553 9.52829C134.424 9.32967 134.224 9.18768 133.994 9.13155C131.32 8.62905 128.924 8.22183 126.667 7.88828L126.528 7.8753ZM177.201 8.70267C177.062 8.70211 176.925 8.7348 176.801 8.79798C174.629 9.84544 172.369 10.7035 170.048 11.3624C169.827 11.4407 169.643 11.6002 169.535 11.8085C169.427 12.0168 169.402 12.2584 169.467 12.484C169.531 12.7096 169.679 12.9024 169.881 13.0232C170.082 13.1439 170.323 13.1836 170.553 13.1342C172.98 12.4484 175.341 11.5511 177.61 10.4528C177.831 10.347 178.001 10.158 178.083 9.92729C178.164 9.69661 178.151 9.4431 178.045 9.2225C177.968 9.06837 177.851 8.93824 177.705 8.8465C177.559 8.75475 177.391 8.70497 177.219 8.70267H177.201ZM141.09 10.561C140.863 10.564 140.645 10.6501 140.477 10.8029C140.309 10.9558 140.204 11.1647 140.181 11.3899C140.158 11.6151 140.219 11.8409 140.352 12.0244C140.485 12.2078 140.681 12.3361 140.903 12.3847L141.338 12.4757C143.799 12.9825 146.121 13.459 148.173 13.8316C148.412 13.8679 148.655 13.8101 148.851 13.6706C149.047 13.531 149.181 13.3206 149.224 13.0842C149.268 12.8477 149.216 12.6039 149.082 12.4045C148.947 12.2052 148.74 12.0659 148.504 12.0165C146.482 11.6527 144.156 11.1762 141.712 10.6693L141.277 10.5784C141.215 10.5662 141.153 10.5604 141.09 10.561ZM90.6781 12.1292C90.4846 12.1294 90.2961 12.19 90.1389 12.3024C88.0483 13.7944 86.2292 15.6316 84.7603 17.7346C84.637 17.9353 84.5953 18.1753 84.6437 18.4056C84.6921 18.636 84.8271 18.8391 85.021 18.9736C85.2148 19.1081 85.4529 19.1637 85.6865 19.129C85.9202 19.0944 86.1317 18.9721 86.2778 18.7872C87.6277 16.8562 89.2981 15.1686 91.2173 13.7969C91.3773 13.684 91.4971 13.5231 91.5591 13.3377C91.6211 13.1522 91.6221 12.952 91.5619 12.766C91.5018 12.5799 91.3837 12.4179 91.2247 12.3034C91.0658 12.1888 90.8743 12.1278 90.6781 12.1292ZM163.065 12.7226H162.97C160.565 12.975 158.144 13.0358 155.73 12.9046C155.492 12.903 155.262 12.993 155.088 13.156C154.915 13.319 154.811 13.5423 154.799 13.7795C154.787 14.0167 154.867 14.2495 155.022 14.4295C155.178 14.6094 155.397 14.7226 155.635 14.7456C158.144 14.8805 160.661 14.8168 163.161 14.555C163.392 14.5241 163.602 14.408 163.75 14.2297C163.899 14.0514 163.975 13.8241 163.962 13.5927C163.95 13.3614 163.851 13.1431 163.685 12.9811C163.519 12.8191 163.298 12.7253 163.065 12.7183V12.7226ZM82.2993 23.9334C82.1057 23.9357 81.9178 23.9984 81.7618 24.1126C81.6058 24.2268 81.4896 24.3868 81.4297 24.5702C80.7156 26.8187 80.2233 29.1313 79.96 31.4751L79.9078 31.9603C79.9 32.1944 79.9819 32.4227 80.1368 32.5989C80.2917 32.7751 80.508 32.886 80.742 32.9091C80.9759 32.9323 81.21 32.8659 81.3966 32.7235C81.5833 32.5811 81.7086 32.3733 81.7471 32.1423C81.7471 31.995 81.7775 31.8434 81.7993 31.7091C82.0449 29.484 82.511 27.2886 83.1907 25.155C83.2359 25.0176 83.2478 24.8715 83.2256 24.7286C83.2034 24.5858 83.1477 24.4501 83.063 24.3328C82.9782 24.2154 82.8669 24.1196 82.7379 24.0532C82.609 23.9869 82.4662 23.9517 82.3211 23.9507L82.2993 23.9334ZM81.0862 38.4537C81.0313 38.4473 80.9758 38.4473 80.921 38.4537C80.8015 38.4751 80.6875 38.5198 80.5854 38.5852C80.4833 38.6506 80.3952 38.7355 80.3261 38.8349C80.2571 38.9343 80.2084 39.0463 80.1828 39.1645C80.1573 39.2827 80.1555 39.4048 80.1774 39.5237C80.6392 42.0173 81.4363 44.4375 82.5471 46.7189C82.5951 46.8348 82.6662 46.9398 82.7562 47.0274C82.8462 47.115 82.9532 47.1835 83.0706 47.2286C83.188 47.2736 83.3134 47.2944 83.4392 47.2896C83.5649 47.2847 83.6884 47.2544 83.802 47.2005C83.9156 47.1466 84.017 47.0701 84.0999 46.9759C84.1829 46.8816 84.2457 46.7715 84.2845 46.6522C84.3233 46.533 84.3373 46.4071 84.3257 46.2822C84.3141 46.1574 84.277 46.0362 84.2168 45.9261C83.1788 43.8017 82.4329 41.5477 81.9993 39.2248C81.9633 39.0094 81.8518 38.8137 81.6846 38.6726C81.5174 38.5314 81.3054 38.4538 81.0862 38.4537ZM87.1996 51.7091C87.0291 51.7095 86.862 51.7568 86.7167 51.8458C86.5714 51.9347 86.4536 52.0619 86.3762 52.2133C86.2989 52.3648 86.265 52.5345 86.2783 52.7039C86.2917 52.8733 86.3517 53.0357 86.4518 53.1733C87.7562 54.958 89.2519 56.799 91.1738 58.9563C91.3411 59.1204 91.5647 59.2151 91.7995 59.2212C92.0342 59.2274 92.2625 59.1444 92.4381 58.9892C92.6138 58.834 92.7237 58.6181 92.7457 58.3852C92.7677 58.1523 92.7001 57.9198 92.5565 57.7347C90.6781 55.6208 89.2128 53.8361 87.9475 52.1033C87.8637 51.9838 87.7526 51.8857 87.6233 51.8172C87.4941 51.7487 87.3504 51.7116 87.204 51.7091H87.1996ZM96.8742 62.8506C96.6939 62.8507 96.5175 62.9031 96.3667 63.0015C96.216 63.0999 96.0973 63.2401 96.0252 63.4047C95.9532 63.5694 95.931 63.7514 95.9613 63.9284C95.9916 64.1055 96.0731 64.2699 96.1959 64.4014C97.909 66.2251 99.5743 68.0098 101.157 69.8292C101.234 69.9286 101.331 70.0112 101.441 70.072C101.552 70.1329 101.673 70.1706 101.799 70.183C101.924 70.1953 102.051 70.182 102.171 70.1439C102.291 70.1057 102.402 70.0436 102.497 69.9612C102.592 69.8788 102.67 69.7779 102.724 69.6647C102.779 69.5515 102.81 69.4283 102.815 69.3028C102.82 69.1773 102.8 69.0521 102.755 68.9348C102.709 68.8175 102.641 68.7106 102.553 68.6206C100.948 66.7796 99.27 64.9775 97.5481 63.1409C97.4618 63.0502 97.358 62.9778 97.243 62.9279C97.1279 62.878 97.004 62.8518 96.8785 62.8506H96.8742ZM106.44 74.0831C106.25 74.0817 106.065 74.1392 105.91 74.2477C105.808 74.3173 105.721 74.4065 105.655 74.51C105.588 74.6134 105.543 74.729 105.522 74.8501C105.501 74.9711 105.505 75.0951 105.532 75.2149C105.56 75.3346 105.611 75.4476 105.683 75.5472C107.08 77.5033 108.297 79.5809 109.318 81.7547C109.431 81.9604 109.617 82.1158 109.84 82.1895C110.064 82.2632 110.306 82.2496 110.52 82.1516C110.733 82.0536 110.901 81.8784 110.99 81.6615C111.078 81.4446 111.081 81.2023 110.997 80.9837C109.931 78.707 108.659 76.5321 107.197 74.4859C107.113 74.3633 107.001 74.2626 106.87 74.1925C106.739 74.1223 106.593 74.0848 106.444 74.0831H106.44ZM112.432 87.4078C112.374 87.4014 112.316 87.4014 112.258 87.4078C112.138 87.4301 112.024 87.4758 111.923 87.5422C111.821 87.6086 111.733 87.6944 111.665 87.7947C111.597 87.895 111.549 88.0077 111.525 88.1264C111.5 88.2451 111.5 88.3675 111.523 88.4864C111.85 90.2 112.015 91.9404 112.014 93.6846C112.014 94.3041 112.014 94.9365 111.953 95.5646C111.938 95.8082 112.02 96.0479 112.182 96.2311C112.344 96.4143 112.572 96.526 112.816 96.5415C113.061 96.557 113.302 96.4751 113.486 96.3138C113.669 96.1526 113.781 95.9252 113.797 95.6816C113.84 95.0145 113.862 94.3431 113.862 93.6846C113.864 91.8198 113.689 89.959 113.34 88.1269C113.293 87.9229 113.178 87.7408 113.014 87.6102C112.85 87.4797 112.646 87.4083 112.436 87.4078H112.432ZM10.5294 98.7745C10.3175 98.7762 10.1125 98.8502 9.94875 98.9843C9.785 99.1183 9.67234 99.3043 9.6296 99.5111C9.58686 99.7179 9.61663 99.9331 9.71391 100.121C9.8112 100.308 9.97012 100.457 10.1642 100.542C12.4339 101.517 14.7384 102.478 17.0124 103.401C17.2361 103.476 17.4802 103.464 17.6949 103.366C17.9095 103.268 18.0786 103.092 18.1674 102.874C18.2562 102.656 18.2582 102.413 18.1728 102.193C18.0875 101.974 17.9212 101.795 17.7081 101.694C15.4471 100.776 13.1557 99.8185 10.8946 98.8525C10.7797 98.8015 10.6553 98.7749 10.5294 98.7745ZM111.588 101.967C111.393 101.969 111.203 102.033 111.046 102.15C110.89 102.267 110.775 102.43 110.719 102.617C110.041 104.872 108.979 106.993 107.579 108.889C107.498 108.986 107.437 109.097 107.4 109.218C107.364 109.338 107.352 109.465 107.367 109.59C107.381 109.715 107.421 109.836 107.484 109.945C107.547 110.054 107.632 110.15 107.733 110.225C107.835 110.3 107.951 110.354 108.074 110.383C108.197 110.412 108.324 110.415 108.449 110.393C108.573 110.371 108.692 110.324 108.797 110.255C108.903 110.185 108.993 110.095 109.062 109.99C110.587 107.925 111.745 105.614 112.484 103.158C112.556 102.925 112.532 102.673 112.418 102.457C112.304 102.241 112.109 102.079 111.875 102.006C111.782 101.979 111.685 101.966 111.588 101.967ZM24.2434 104.341C24.0288 104.343 23.8218 104.42 23.6576 104.558C23.4935 104.695 23.3824 104.886 23.3434 105.096C23.3044 105.306 23.3398 105.523 23.4437 105.71C23.5476 105.897 23.7134 106.043 23.9129 106.121C26.2522 107.014 28.5958 107.88 30.8699 108.694C31.096 108.76 31.3385 108.737 31.5482 108.63C31.7579 108.523 31.919 108.341 31.9987 108.121C32.0784 107.9 32.0708 107.657 31.9774 107.442C31.8841 107.227 31.7119 107.055 31.496 106.962C29.2306 106.152 26.9 105.29 24.5738 104.402C24.4687 104.36 24.3564 104.34 24.2434 104.341ZM38.1834 109.31C37.9624 109.307 37.7478 109.383 37.5786 109.525C37.4094 109.666 37.2969 109.864 37.2616 110.081C37.2263 110.298 37.2706 110.521 37.3863 110.709C37.502 110.896 37.6815 111.036 37.892 111.103C40.2922 111.896 42.675 112.641 44.9751 113.33C45.2098 113.4 45.4628 113.374 45.6785 113.258C45.8942 113.142 46.0548 112.946 46.1252 112.712C46.1955 112.478 46.1698 112.226 46.0536 112.011C45.9374 111.797 45.7403 111.637 45.5056 111.566C43.2228 110.882 40.8531 110.141 38.4704 109.357C38.3783 109.325 38.2811 109.308 38.1834 109.31ZM102.901 113.477C102.725 113.477 102.553 113.527 102.405 113.62C100.383 114.874 98.1948 115.842 95.9045 116.496C95.6793 116.574 95.4928 116.735 95.3839 116.946C95.275 117.158 95.252 117.403 95.3198 117.63C95.3876 117.858 95.5409 118.051 95.7478 118.169C95.9547 118.287 96.1993 118.321 96.4306 118.263C98.8816 117.559 101.223 116.519 103.388 115.175C103.555 115.067 103.683 114.908 103.753 114.722C103.823 114.536 103.831 114.333 103.775 114.142C103.719 113.951 103.603 113.783 103.444 113.663C103.285 113.544 103.091 113.478 102.892 113.477H102.901ZM52.3626 113.524C52.1403 113.528 51.9268 113.612 51.7612 113.759C51.5955 113.907 51.4887 114.109 51.4602 114.329C51.4317 114.548 51.4835 114.771 51.6061 114.956C51.7286 115.14 51.9138 115.275 52.1278 115.335C54.5932 115.985 57.0281 116.57 59.3587 117.068C59.4772 117.094 59.5996 117.096 59.719 117.075C59.8384 117.054 59.9524 117.009 60.0546 116.944C60.1567 116.879 60.245 116.794 60.3144 116.695C60.3837 116.596 60.4328 116.484 60.4587 116.366C60.4847 116.248 60.4871 116.126 60.4658 116.007C60.4444 115.888 60.3998 115.775 60.3344 115.673C60.269 115.571 60.1841 115.483 60.0846 115.414C59.9851 115.345 59.8728 115.296 59.7544 115.27C57.4499 114.759 55.041 114.179 52.6017 113.537C52.5229 113.523 52.4425 113.518 52.3626 113.524ZM66.82 116.682C66.5832 116.673 66.352 116.756 66.1745 116.912C65.9969 117.068 65.8866 117.287 65.8664 117.522C65.8463 117.757 65.9179 117.991 66.0663 118.175C66.2147 118.359 66.4286 118.479 66.6635 118.51C69.2158 118.944 71.703 119.281 74.0553 119.524C74.2914 119.535 74.5226 119.455 74.7017 119.302C74.8808 119.148 74.9942 118.932 75.0187 118.698C75.0431 118.464 74.9768 118.229 74.8333 118.042C74.6897 117.855 74.4799 117.73 74.2466 117.692C71.9334 117.453 69.4854 117.116 66.9722 116.695L66.82 116.682ZM88.9171 117.852H88.8215C86.4048 118.095 83.9755 118.192 81.5471 118.142C81.4255 118.14 81.3046 118.162 81.1915 118.207C81.0784 118.251 80.9752 118.317 80.8877 118.402C80.7112 118.572 80.6098 118.805 80.6057 119.05C80.6037 119.171 80.6257 119.291 80.6704 119.404C80.7151 119.517 80.7816 119.619 80.8662 119.707C81.0371 119.882 81.271 119.984 81.5166 119.988C84.0192 120.038 86.5225 119.936 89.0128 119.684C89.2432 119.653 89.4536 119.537 89.602 119.359C89.7505 119.181 89.8262 118.953 89.8141 118.722C89.8021 118.491 89.7032 118.272 89.537 118.11C89.3708 117.948 89.1495 117.855 88.9171 117.848V117.852ZM8.75539 109.102C8.59624 109.027 8.46195 108.908 8.3684 108.759L0.137429 95.5387C0.0561715 95.4071 0.00933883 95.2574 0.00125869 95.1031C-0.00682145 94.9489 0.0240998 94.7951 0.091172 94.6559C0.158244 94.5166 0.259337 94.3964 0.385168 94.3061C0.510999 94.2159 0.657546 94.1586 0.811381 94.1395L16.2993 92.3114C16.4239 92.288 16.552 92.2904 16.6756 92.3183C16.7993 92.3462 16.9158 92.3991 17.0181 92.4737C17.1204 92.5483 17.2062 92.6431 17.2702 92.7521C17.3343 92.8611 17.3752 92.9821 17.3904 93.1074C17.4056 93.2328 17.3948 93.36 17.3587 93.4811C17.3225 93.6021 17.2619 93.7145 17.1804 93.8113C17.0989 93.908 16.9983 93.987 16.8849 94.0435C16.7715 94.1 16.6477 94.1326 16.5211 94.1395L2.47671 95.8159L9.94241 107.785C10.0425 107.954 10.0857 108.15 10.0657 108.345C10.0458 108.54 9.96372 108.723 9.83156 108.869C9.6994 109.014 9.52408 109.113 9.33122 109.152C9.13837 109.191 8.93809 109.167 8.75971 109.084L8.75539 109.102Z" fill="#EEC912"/>
</svg>
