<svg width="256" height="85" viewBox="0 0 256 85" fill="none" xmlns="http://www.w3.org/2000/svg">
<path d="M1.11714 84.867C1.01322 84.8501 0.9123 84.8182 0.817623 84.7722C0.54508 84.6378 0.335786 84.4023 0.234408 84.1159C0.133031 83.8295 0.147587 83.5148 0.274951 83.2389C1.14305 81.3401 2.05846 79.4409 3.00362 77.6014C3.06707 77.4559 3.15955 77.3249 3.27546 77.2164C3.39137 77.1079 3.5282 77.0243 3.67761 76.9706C3.82702 76.9169 3.9859 76.8943 4.14435 76.9043C4.3028 76.9142 4.45752 76.9564 4.59907 77.0282C4.74062 77.1001 4.86594 77.2002 4.96742 77.3223C5.06891 77.4444 5.1444 77.5859 5.1892 77.7382C5.234 77.8905 5.24721 78.0504 5.22799 78.208C5.20878 78.3656 5.15758 78.5176 5.0775 78.6546C4.15133 80.4735 3.25583 82.2972 2.40184 84.2062C2.29112 84.443 2.10486 84.6364 1.87235 84.756C1.63984 84.8756 1.37423 84.9146 1.11714 84.867ZM6.76114 73.8027C6.62436 73.7816 6.49301 73.7339 6.37446 73.6625C6.10563 73.5103 5.90825 73.2575 5.8258 72.9597C5.74336 72.662 5.78259 72.3437 5.9348 72.0748C6.95301 70.2706 8.03258 68.4762 9.14806 66.7032C9.22595 66.5671 9.33052 66.4482 9.45547 66.3535C9.58043 66.2588 9.72317 66.1902 9.87524 66.152C10.0273 66.1138 10.1855 66.1067 10.3404 66.1311C10.4953 66.1555 10.6436 66.2109 10.7766 66.294C10.9095 66.3771 11.0244 66.4862 11.1142 66.6147C11.204 66.7432 11.2669 66.8886 11.2992 67.042C11.3315 67.1954 11.3325 67.3538 11.3021 67.5076C11.2717 67.6614 11.2106 67.8076 11.1224 67.9372C10.0591 69.6792 8.98957 71.4595 7.96857 73.2318C7.84929 73.4385 7.66984 73.6039 7.45409 73.7059C7.23833 73.8079 6.99659 73.8417 6.76114 73.8027ZM13.3565 63.2828C13.1632 63.2497 12.9812 63.1687 12.8272 63.0471C12.6733 62.9255 12.5523 62.7672 12.4754 62.5868C12.3985 62.4063 12.368 62.2094 12.3868 62.0142C12.4057 61.8189 12.4732 61.6315 12.5832 61.469C13.7681 59.7543 15.0067 58.048 16.2609 56.3914C16.4527 56.1594 16.7268 56.0105 17.0258 55.9761C17.3249 55.9417 17.6257 56.0244 17.8651 56.2069C18.1046 56.3893 18.2641 56.6574 18.3102 56.9549C18.3564 57.2523 18.2856 57.5561 18.1128 57.8026C16.88 59.4232 15.6693 61.1025 14.5047 62.789C14.3793 62.9712 14.205 63.1142 14.0019 63.2016C13.7988 63.2889 13.575 63.3171 13.3565 63.2828ZM20.8671 53.3882C20.6597 53.3543 20.4648 53.2664 20.3021 53.1332C20.066 52.9339 19.918 52.6495 19.8903 52.3418C19.8627 52.0341 19.9576 51.7278 20.1544 51.4897C21.4858 49.8925 22.872 48.2962 24.2727 46.7573C24.3737 46.638 24.4978 46.5403 24.6373 46.4699C24.7769 46.3995 24.9291 46.358 25.0851 46.3477C25.2411 46.3374 25.3975 46.3586 25.5451 46.41C25.6927 46.4614 25.8285 46.542 25.9443 46.647C26.0601 46.752 26.1536 46.8792 26.2192 47.0211C26.2848 47.1629 26.3213 47.3166 26.3263 47.4728C26.3313 47.629 26.3048 47.7847 26.2484 47.9305C26.192 48.0762 26.1069 48.2092 25.998 48.3214C24.6163 49.8397 23.2503 51.4077 21.9469 52.9779C21.8176 53.1336 21.6502 53.2533 21.461 53.3252C21.2718 53.3971 21.0672 53.4188 20.8671 53.3882ZM29.2435 44.1817C29.031 44.1486 28.8317 44.0574 28.6678 43.9182C28.504 43.7789 28.3819 43.597 28.3151 43.3925C28.2482 43.1881 28.2393 42.9692 28.2892 42.76C28.3391 42.5508 28.4459 42.3595 28.5979 42.2073C30.0756 40.7278 31.5982 39.2633 33.1264 37.8626C33.356 37.6696 33.6513 37.5726 33.9507 37.5918C34.25 37.611 34.5304 37.745 34.7335 37.9658C34.9366 38.1866 35.0467 38.4772 35.0409 38.7771C35.035 39.0771 34.9137 39.3632 34.7022 39.5759C33.2007 40.9573 31.6983 42.3935 30.2549 43.8549C30.1232 43.9841 29.9633 44.0809 29.7877 44.1376C29.6122 44.1944 29.4259 44.2094 29.2435 44.1817ZM248.743 70.8039C248.574 70.7768 248.414 70.7132 248.273 70.6174C248.132 70.5216 248.014 70.396 247.926 70.2495C246.866 68.5081 245.76 66.7594 244.646 65.0094C244.518 64.7536 244.489 64.4596 244.564 64.1835C244.638 63.9073 244.812 63.6683 245.052 63.512C245.291 63.3558 245.58 63.2931 245.863 63.336C246.146 63.379 246.403 63.5245 246.585 63.7448C247.722 65.4984 248.851 67.2508 249.927 69.0419C250.086 69.3075 250.134 69.6252 250.059 69.9257C249.985 70.2262 249.795 70.4851 249.531 70.646C249.294 70.7879 249.016 70.8437 248.743 70.8039ZM38.3946 35.7904C38.175 35.7527 37.9707 35.6532 37.8056 35.5035C37.6404 35.3539 37.5214 35.1603 37.4623 34.9455C37.4032 34.7306 37.4066 34.5034 37.472 34.2903C37.5374 34.0773 37.662 33.8873 37.8315 33.7426C39.4254 32.4232 41.073 31.1122 42.7282 29.8025C42.8491 29.7054 42.9881 29.6333 43.1372 29.5906C43.2862 29.5479 43.4423 29.5353 43.5963 29.5537C43.7502 29.5721 43.899 29.621 44.0338 29.6976C44.1686 29.7743 44.2868 29.877 44.3814 29.9999C44.476 30.1228 44.545 30.2633 44.5846 30.4132C44.6241 30.5631 44.6334 30.7194 44.6118 30.873C44.5902 31.0265 44.5381 31.1742 44.4586 31.3074C44.3792 31.4405 44.274 31.5565 44.1491 31.6485C42.5202 32.8916 40.9058 34.1921 39.3361 35.5075C39.2073 35.615 39.057 35.6938 38.8952 35.7386C38.7335 35.7834 38.5641 35.7932 38.3983 35.7674L38.3946 35.7904ZM241.876 60.4717C241.589 60.4144 241.334 60.2502 241.163 60.0123C239.955 58.3575 238.699 56.7108 237.42 55.1077C237.267 54.8659 237.209 54.5763 237.256 54.2941C237.303 54.0118 237.452 53.7567 237.675 53.5774C237.898 53.398 238.179 53.307 238.464 53.3216C238.75 53.3361 239.02 53.4553 239.224 53.6564C240.539 55.281 241.843 56.9669 243.026 58.6333C243.163 58.8198 243.242 59.0431 243.253 59.2748C243.263 59.5064 243.204 59.7359 243.083 59.9337C242.962 60.1315 242.784 60.2887 242.574 60.3852C242.363 60.4817 242.128 60.5131 241.899 60.4754L241.876 60.4717ZM48.2721 28.2223C48.046 28.1823 47.8368 28.0759 47.6714 27.9166C47.5059 27.7573 47.3916 27.5524 47.3429 27.3279C47.2943 27.1035 47.3135 26.8696 47.3982 26.6561C47.4829 26.4426 47.6292 26.2592 47.8185 26.1291C49.5269 24.9301 51.2777 23.7614 53.0353 22.6488C53.1647 22.5661 53.309 22.5097 53.4601 22.4828C53.6113 22.4558 53.7663 22.459 53.9162 22.4919C54.0661 22.5249 54.2081 22.5871 54.334 22.6749C54.4599 22.7627 54.5673 22.8745 54.65 23.0038C54.7328 23.1332 54.7891 23.2775 54.8161 23.4287C54.843 23.5798 54.8399 23.7348 54.8069 23.8847C54.774 24.0347 54.7118 24.1766 54.624 24.3026C54.5361 24.4285 54.4244 24.5359 54.295 24.6186C52.5488 25.7093 50.8476 26.8623 49.1671 28.0343C49.0378 28.1217 48.892 28.1814 48.7387 28.2098C48.5853 28.2382 48.4277 28.2346 48.2758 28.1993L48.2721 28.2223ZM234.124 50.7616C233.843 50.7232 233.586 50.5846 233.4 50.3712C232.071 48.8387 230.663 47.3016 229.247 45.826C229.134 45.717 229.045 45.5866 228.984 45.4423C228.923 45.2981 228.892 45.1431 228.892 44.9866C228.893 44.83 228.924 44.6752 228.986 44.5312C229.048 44.3873 229.137 44.2572 229.25 44.1488C229.363 44.0404 229.497 43.9559 229.643 43.9003C229.79 43.8446 229.946 43.8191 230.102 43.8251C230.258 43.8311 230.412 43.8687 230.554 43.9354C230.695 44.0021 230.822 44.0966 230.926 44.2134C232.37 45.717 233.79 47.2718 235.157 48.8181C235.259 48.9324 235.337 49.0658 235.387 49.2105C235.437 49.3552 235.457 49.5084 235.448 49.6612C235.438 49.814 235.398 49.9634 235.33 50.1007C235.263 50.238 235.168 50.3604 235.053 50.461C234.926 50.569 234.779 50.6495 234.62 50.6973C234.46 50.7451 234.293 50.7592 234.128 50.7386L234.124 50.7616ZM58.7668 21.5703C58.5284 21.5327 58.3075 21.4219 58.1348 21.2533C57.9621 21.0847 57.846 20.8666 57.8026 20.6291C57.7592 20.3917 57.7907 20.1467 57.8925 19.9279C57.9944 19.7091 58.1617 19.5273 58.3713 19.4077C60.1716 18.3727 62.0232 17.3616 63.8727 16.4131C64.1445 16.2893 64.4535 16.2746 64.7358 16.3721C65.0181 16.4696 65.2522 16.6717 65.3897 16.9369C65.5273 17.202 65.5577 17.5098 65.4748 17.7967C65.3919 18.0837 65.2019 18.3278 64.9442 18.4787C63.1189 19.4232 61.3029 20.4085 59.528 21.4319C59.2953 21.5535 59.0288 21.5942 58.7705 21.5473L58.7668 21.5703ZM225.539 41.792C225.305 41.7545 225.089 41.646 224.92 41.4812C223.438 40.066 221.911 38.6435 220.367 37.3208C220.135 37.1169 219.993 36.8291 219.972 36.5206C219.952 36.2121 220.055 35.9081 220.259 35.6756C220.463 35.4432 220.751 35.3012 221.059 35.2809C221.368 35.2606 221.672 35.3637 221.904 35.5676C223.465 36.9324 225.023 38.3597 226.525 39.7939C226.707 39.9649 226.829 40.1897 226.873 40.4353C226.917 40.6808 226.881 40.934 226.771 41.1577C226.661 41.3815 226.481 41.5638 226.26 41.678C226.038 41.7922 225.785 41.8321 225.539 41.792ZM69.8011 15.8771C69.5539 15.8379 69.3258 15.7201 69.1507 15.5412C68.9757 15.3623 68.8628 15.1318 68.829 14.8837C68.7952 14.6357 68.8422 14.3834 68.963 14.1641C69.0838 13.9449 69.2721 13.7704 69.4998 13.6665C71.3844 12.7943 73.3189 11.9537 75.2449 11.1667C75.3875 11.1018 75.5418 11.0663 75.6984 11.0623C75.8551 11.0584 76.0109 11.0861 76.1565 11.1437C76.3022 11.2014 76.4348 11.2879 76.5463 11.3979C76.6578 11.508 76.746 11.6395 76.8055 11.7844C76.865 11.9294 76.8946 12.0849 76.8927 12.2415C76.8907 12.3982 76.8572 12.5529 76.7941 12.6963C76.7309 12.8397 76.6396 12.9689 76.5254 13.0762C76.4111 13.1835 76.2765 13.2666 76.1294 13.3206C74.2288 14.0959 72.3273 14.926 70.4771 15.7801C70.2653 15.8697 70.0313 15.8929 69.806 15.8464L69.8011 15.8771ZM216.178 33.6428C215.979 33.6117 215.791 33.5276 215.635 33.3991C214.043 32.1316 212.388 30.8697 210.724 29.6614C210.592 29.575 210.479 29.4626 210.392 29.3312C210.305 29.1997 210.245 29.0519 210.217 28.8967C210.188 28.7415 210.192 28.5821 210.227 28.4282C210.262 28.2744 210.328 28.1293 210.42 28.0017C210.513 27.874 210.631 27.7666 210.767 27.6859C210.902 27.6052 211.053 27.5528 211.209 27.532C211.365 27.5112 211.524 27.5224 211.676 27.5649C211.828 27.6074 211.97 27.6803 212.093 27.7793C213.777 29.0065 215.455 30.2798 217.073 31.5752C217.276 31.735 217.421 31.9579 217.483 32.2088C217.546 32.4597 217.523 32.7242 217.419 32.9608C217.315 33.1974 217.135 33.3926 216.907 33.5156C216.68 33.6386 216.418 33.6825 216.163 33.6403L216.178 33.6428ZM81.3334 11.2067C81.0796 11.1645 80.847 11.0395 80.6717 10.8512C80.4965 10.6629 80.3885 10.4219 80.3645 10.1658C80.3406 9.9097 80.4021 9.65287 80.5394 9.43537C80.6768 9.21787 80.8823 9.05196 81.1238 8.96349C83.076 8.25935 85.077 7.59442 87.063 6.9743C87.3582 6.88252 87.6776 6.91171 87.9512 7.05549C88.2248 7.19928 88.4301 7.44587 88.5219 7.74099C88.6137 8.03611 88.5845 8.35562 88.4407 8.62921C88.2969 8.90279 88.0503 9.10805 87.7552 9.19983C85.7946 9.80827 83.8344 10.4639 81.9383 11.1613C81.729 11.211 81.5102 11.2034 81.3049 11.1392L81.3334 11.2067ZM206.173 26.3348C206.009 26.3097 205.852 26.25 205.713 26.1595C204.013 25.0319 202.262 23.9278 200.503 22.8696C200.365 22.7947 200.243 22.6925 200.145 22.5692C200.048 22.446 199.976 22.3042 199.935 22.1525C199.893 22.0008 199.883 21.8422 199.904 21.6864C199.926 21.5306 199.979 21.3808 200.06 21.2459C200.141 21.1111 200.248 20.994 200.375 20.9018C200.503 20.8096 200.647 20.7441 200.801 20.7093C200.954 20.6746 201.113 20.6712 201.268 20.6995C201.423 20.7278 201.57 20.7871 201.701 20.8738C203.489 21.9445 205.284 23.0713 206.997 24.2166C207.216 24.3644 207.379 24.5824 207.458 24.8347C207.537 25.0871 207.528 25.3588 207.432 25.6052C207.336 25.8516 207.159 26.0581 206.93 26.1907C206.701 26.3233 206.434 26.3741 206.173 26.3348ZM93.1949 7.53233C92.9324 7.48866 92.6927 7.35642 92.5158 7.1576C92.3388 6.95877 92.2353 6.70533 92.2224 6.43949C92.2095 6.17365 92.2881 5.91142 92.445 5.69641C92.6019 5.48141 92.8276 5.32661 93.0847 5.25775C95.088 4.72688 97.1389 4.2429 99.1748 3.80373C99.3286 3.75852 99.49 3.74553 99.649 3.76556C99.808 3.7856 99.9612 3.83825 100.099 3.92018C100.237 4.00212 100.356 4.1116 100.45 4.24177C100.543 4.37194 100.609 4.51999 100.642 4.67669C100.676 4.83338 100.677 4.99534 100.645 5.15243C100.613 5.30952 100.55 5.45837 100.458 5.58966C100.366 5.72095 100.248 5.83185 100.111 5.91544C99.9742 5.99904 99.8217 6.05352 99.663 6.07548C97.6541 6.54254 95.6453 7.00961 93.6824 7.48399C93.5112 7.51657 93.3348 7.51004 93.1664 7.46488L93.1949 7.53233ZM195.518 19.9459C195.387 19.9239 195.261 19.8799 195.145 19.8159C193.349 18.8461 191.517 17.9022 189.663 17.0018C189.521 16.9376 189.394 16.8456 189.288 16.7314C189.183 16.6171 189.101 16.4828 189.048 16.3365C188.996 16.1902 188.973 16.0348 188.981 15.8794C188.989 15.7241 189.028 15.5719 189.096 15.432C189.164 15.292 189.259 15.1671 189.376 15.0646C189.493 14.9621 189.63 14.884 189.777 14.835C189.925 14.7861 190.081 14.7672 190.236 14.7794C190.391 14.7917 190.542 14.8349 190.68 14.9065C192.549 15.817 194.425 16.7759 196.257 17.7671C196.503 17.8964 196.694 18.1089 196.796 18.3664C196.899 18.6239 196.906 18.9095 196.817 19.1719C196.728 19.4344 196.548 19.6565 196.31 19.7983C196.072 19.9402 195.791 19.9925 195.518 19.9459ZM105.336 4.91699C105.064 4.87309 104.816 4.73404 104.637 4.52456C104.458 4.31507 104.358 4.04875 104.357 3.77297C104.355 3.49719 104.452 3.22983 104.629 3.01847C104.806 2.80711 105.053 2.66545 105.324 2.61868C107.37 2.26754 109.455 1.96207 111.509 1.70663C111.661 1.68738 111.815 1.69823 111.963 1.73854C112.11 1.77884 112.248 1.8478 112.369 1.94151C112.49 2.03522 112.591 2.15184 112.667 2.28469C112.743 2.41755 112.792 2.56406 112.811 2.71584C112.831 2.86762 112.82 3.02169 112.779 3.16928C112.739 3.31687 112.67 3.45506 112.576 3.57599C112.483 3.69692 112.366 3.79822 112.233 3.87409C112.1 3.94995 111.954 3.9989 111.802 4.01815C109.773 4.26957 107.727 4.57346 105.714 4.91414C105.576 4.91907 105.438 4.89713 105.308 4.84952L105.336 4.91699ZM184.341 14.5122C184.243 14.508 184.145 14.4925 184.05 14.4659C182.173 13.6563 180.253 12.8714 178.348 12.1438C178.059 12.0332 177.826 11.8123 177.699 11.5297C177.573 11.2471 177.565 10.926 177.675 10.637C177.786 10.348 178.007 10.1147 178.289 9.98856C178.572 9.86241 178.893 9.85366 179.182 9.96426C181.117 10.7044 183.074 11.5031 184.979 12.3329C185.237 12.4469 185.445 12.6507 185.564 12.9064C185.683 13.162 185.705 13.4522 185.626 13.723C185.548 13.9939 185.374 14.227 185.136 14.3792C184.899 14.5314 184.614 14.5923 184.335 14.5505L184.341 14.5122ZM117.644 3.38191C117.333 3.369 117.041 3.23317 116.83 3.00427C116.619 2.77536 116.508 2.47213 116.521 2.16132C116.534 1.85051 116.67 1.55757 116.899 1.34692C117.128 1.13628 117.431 1.02519 117.742 1.0381C119.812 0.879586 121.915 0.757857 123.987 0.686154C124.286 0.689161 124.573 0.807353 124.788 1.01623C125.002 1.2251 125.128 1.50861 125.139 1.80787C125.15 2.10714 125.046 2.39921 124.847 2.62342C124.649 2.84764 124.372 2.98679 124.073 3.012C122.026 3.07969 119.962 3.19986 117.93 3.36447C117.824 3.36258 117.718 3.34574 117.616 3.31447L117.644 3.38191ZM172.738 10.0802L172.547 10.0497C170.612 9.40406 168.634 8.79066 166.662 8.23339C166.514 8.19124 166.375 8.1203 166.254 8.02464C166.134 7.92897 166.033 7.81046 165.958 7.67585C165.883 7.54125 165.835 7.39318 165.817 7.24012C165.8 7.08706 165.812 6.93199 165.854 6.78378C165.896 6.63557 165.967 6.49711 166.063 6.37632C166.159 6.25552 166.277 6.15473 166.412 6.07973C166.546 6.00474 166.694 5.95699 166.848 5.93922C167.001 5.92144 167.156 5.934 167.304 5.97615C169.305 6.54598 171.322 7.16547 173.301 7.82612C173.602 7.89904 173.862 8.08866 174.024 8.35325C174.185 8.61785 174.235 8.93574 174.162 9.23701C174.089 9.53827 173.9 9.79823 173.635 9.9597C173.37 10.1212 173.053 10.1709 172.751 10.098L172.738 10.0802ZM130.045 2.94683C129.736 2.9207 129.45 2.77299 129.25 2.53622C129.051 2.29945 128.953 1.99301 128.979 1.6843C129.005 1.37559 129.153 1.08993 129.39 0.890117C129.627 0.690308 129.933 0.59274 130.242 0.618874C132.316 0.633985 134.42 0.701219 136.5 0.827375C136.654 0.835782 136.804 0.87436 136.943 0.940898C137.081 1.00744 137.206 1.10064 137.308 1.21518C137.411 1.32972 137.49 1.46335 137.541 1.60845C137.592 1.75355 137.614 1.90729 137.606 2.06087C137.597 2.21445 137.559 2.36485 137.492 2.50352C137.425 2.64218 137.332 2.76638 137.218 2.86903C137.103 2.97169 136.97 3.05078 136.824 3.10179C136.679 3.15279 136.526 3.17471 136.372 3.1663C134.337 3.05513 132.263 2.99278 130.221 2.97487L130.045 2.94683ZM160.789 6.68638L160.705 6.67296C158.712 6.19885 156.689 5.76708 154.68 5.39268C154.376 5.33403 154.107 5.15735 153.933 4.90122C153.758 4.64509 153.692 4.33032 153.749 4.02572C153.778 3.87538 153.836 3.73224 153.921 3.60446C154.005 3.47668 154.114 3.36679 154.241 3.28104C154.368 3.1953 154.51 3.13541 154.66 3.10478C154.81 3.07415 154.965 3.07339 155.115 3.10253C157.161 3.49071 159.215 3.92731 161.238 4.40631C161.388 4.44095 161.529 4.5049 161.653 4.59441C161.777 4.68392 161.883 4.79723 161.963 4.92776C162.043 5.0583 162.096 5.20345 162.12 5.35482C162.144 5.50619 162.137 5.66076 162.101 5.80955C162.018 6.08673 161.835 6.32313 161.587 6.47274C161.339 6.62234 161.045 6.67446 160.761 6.61891L160.789 6.68638ZM142.404 3.61401C142.252 3.59452 142.105 3.54533 141.972 3.46923C141.84 3.39313 141.723 3.29159 141.63 3.17046C141.536 3.04933 141.467 2.91097 141.427 2.76326C141.387 2.61554 141.376 2.46137 141.396 2.30955C141.415 2.15774 141.465 2.01124 141.541 1.87844C141.617 1.74564 141.718 1.62914 141.839 1.53557C141.961 1.442 142.099 1.37319 142.247 1.3331C142.394 1.29301 142.549 1.28241 142.7 1.3019C144.768 1.50476 146.859 1.75851 148.873 2.04732C149.026 2.06733 149.172 2.11766 149.305 2.19534C149.437 2.27301 149.553 2.37647 149.645 2.49957C149.737 2.62267 149.803 2.76293 149.84 2.91208C149.876 3.06122 149.883 3.21622 149.859 3.36791C149.837 3.51933 149.785 3.66492 149.707 3.79639C149.629 3.92787 149.525 4.04265 149.403 4.13416C149.28 4.22567 149.14 4.29212 148.992 4.32972C148.844 4.36733 148.69 4.37535 148.538 4.35333C146.529 4.03384 144.463 3.81565 142.434 3.61889L142.404 3.61401ZM240.554 72.7422L251.596 76.2042C251.749 76.2516 251.911 76.2671 252.071 76.2496C252.23 76.2321 252.384 76.182 252.524 76.1024C252.663 76.0229 252.785 75.9155 252.881 75.787C252.978 75.6585 253.046 75.5116 253.084 75.3554L255.732 64.09C255.767 63.9407 255.773 63.7858 255.748 63.6342C255.724 63.4827 255.67 63.3375 255.589 63.207C255.508 63.0765 255.402 62.9632 255.277 62.8737C255.153 62.7843 255.012 62.7203 254.862 62.6856C254.713 62.6501 254.558 62.6444 254.406 62.6689C254.255 62.6935 254.109 62.7477 253.979 62.8286C253.848 62.9094 253.735 63.0152 253.646 63.14C253.556 63.2647 253.492 63.4059 253.458 63.5555L251.074 73.6045L241.231 70.5141C240.935 70.422 240.615 70.4508 240.34 70.5943C240.065 70.7378 239.858 70.9842 239.765 71.2797C239.691 71.569 239.732 71.8753 239.878 72.1355C240.024 72.3957 240.264 72.5901 240.549 72.6784L240.554 72.7422Z" fill="#EEC912"/>
</svg>
