<svg width="351" height="328" viewBox="0 0 351 328" fill="none" xmlns="http://www.w3.org/2000/svg">
<path d="M348.142 0.505241C347.852 0.577026 347.581 0.713105 347.35 0.903397C347.12 1.09365 346.935 1.33318 346.81 1.60411C344.42 6.22596 341.505 10.5599 338.121 14.5203C337.816 14.9334 337.681 15.4463 337.743 15.9541C337.805 16.462 338.06 16.9265 338.456 17.2526C338.851 17.5787 339.357 17.7419 339.871 17.7088C340.384 17.6757 340.866 17.4487 341.218 17.0744C344.836 12.8512 347.947 8.22198 350.485 3.28127C350.648 2.93706 350.709 2.55387 350.661 2.17671C350.614 1.79957 350.459 1.44415 350.215 1.15214C349.97 0.86015 349.648 0.643753 349.284 0.528316C348.92 0.412886 348.53 0.403262 348.161 0.500551L348.142 0.505241ZM188.947 56.1248L188.608 56.2115C188.089 56.344 187.644 56.6759 187.371 57.1342C187.097 57.5925 187.017 58.1397 187.149 58.6554C187.281 59.171 187.613 59.613 188.073 59.884C188.533 60.1549 189.082 60.2328 189.601 60.1003L189.941 60.0136C194.641 58.8131 199.775 57.7446 205.209 56.8525C205.718 56.7461 206.167 56.4482 206.462 56.0209C206.757 55.5936 206.874 55.0701 206.791 54.5594C206.707 54.0488 206.428 53.5906 206.013 53.2806C205.597 52.9705 205.077 52.8324 204.56 52.8952C199.053 53.806 193.797 54.8959 188.947 56.1248ZM173.293 61.1832L173.027 61.2512C167.91 63.2899 163.006 65.8259 158.386 68.8223C157.971 69.1268 157.689 69.5781 157.599 70.0828C157.508 70.5876 157.616 71.1072 157.899 71.5343C158.183 71.9613 158.621 72.2632 159.123 72.3774C159.624 72.4916 160.152 72.4094 160.595 72.1478C165.01 69.3038 169.696 66.9015 174.585 64.9764C175.058 64.7841 175.44 64.4209 175.655 63.9599C175.87 63.4989 175.902 62.9744 175.744 62.492C175.586 62.0096 175.25 61.6052 174.804 61.3602C174.358 61.1152 173.834 61.0477 173.339 61.1715L173.293 61.1832ZM220.361 50.8235C219.877 50.9577 219.46 51.2669 219.192 51.6904C218.923 52.1138 218.823 52.6212 218.911 53.1132C218.999 53.6053 219.268 54.0465 219.666 54.3506C220.064 54.6547 220.562 54.7998 221.063 54.7576C225.958 54.2461 231.19 53.824 237.048 53.4459C237.561 53.3855 238.032 53.1316 238.363 52.7366C238.695 52.3416 238.862 51.8355 238.83 51.3225C238.798 50.8096 238.569 50.329 238.192 49.9797C237.814 49.6303 237.315 49.4389 236.799 49.4449C230.883 49.828 225.605 50.2618 220.662 50.7758L220.361 50.8235ZM327.785 25.2411C327.491 25.315 327.219 25.4579 326.992 25.6577C322.97 29.0365 318.662 32.063 314.116 34.7033C313.69 34.9879 313.388 35.4231 313.272 35.9204C313.156 36.4177 313.234 36.9398 313.491 37.3806C313.749 37.8215 314.165 38.1479 314.656 38.2936C315.147 38.4393 315.676 38.3933 316.135 38.1649C320.889 35.4112 325.391 32.2469 329.59 28.7088C330 28.3665 330.258 27.8765 330.306 27.3464C330.354 26.8163 330.188 26.2895 329.846 25.8817C329.602 25.598 329.284 25.3872 328.927 25.2724C328.569 25.1577 328.187 25.1437 327.822 25.2318L327.785 25.2411ZM252.549 48.6306C252.071 48.7594 251.657 49.0585 251.385 49.471C251.113 49.8835 251.003 50.3805 251.076 50.8676C251.148 51.3547 251.398 51.7977 251.778 52.1125C252.158 52.4272 252.641 52.5917 253.136 52.5746L254.103 52.5318C259.571 52.2728 264.73 52.0248 269.263 51.7031C269.786 51.6511 270.268 51.3982 270.608 50.9982C270.947 50.5982 271.117 50.0826 271.08 49.5612C271.044 49.0397 270.804 48.5535 270.413 48.206C270.021 47.8584 269.509 47.6769 268.984 47.7C264.519 48.0235 259.352 48.2739 253.92 48.5236L252.953 48.5663C252.817 48.5738 252.681 48.5954 252.549 48.6306ZM146.965 79.1204C146.557 79.2252 146.191 79.4545 145.92 79.7762C142.31 84.0477 139.458 88.9003 137.489 94.1241C137.337 94.6135 137.378 95.1419 137.604 95.6012C137.83 96.0604 138.225 96.4158 138.706 96.5946C139.188 96.7735 139.721 96.7622 140.195 96.5632C140.67 96.3642 141.05 95.9924 141.259 95.524C143.07 90.7269 145.688 86.2697 149.001 82.3441C149.278 82.0198 149.445 81.6162 149.476 81.192C149.507 80.7679 149.401 80.3453 149.174 79.9857C148.947 79.6261 148.61 79.3483 148.213 79.1927C147.816 79.0371 147.379 79.0117 146.965 79.1204ZM300.106 41.3354L299.904 41.387C294.964 43.2154 289.886 44.6491 284.718 45.6744C284.214 45.7996 283.777 46.1133 283.499 46.5503C283.22 46.9873 283.122 47.5138 283.223 48.0204C283.325 48.5269 283.619 48.9743 284.045 49.2696C284.47 49.5649 284.994 49.6853 285.507 49.6056C290.879 48.5365 296.158 47.045 301.294 45.1452C301.764 44.9558 302.146 44.5977 302.363 44.142C302.581 43.6863 302.618 43.1663 302.468 42.6853C302.318 42.2043 301.992 41.7975 301.554 41.5458C301.116 41.294 300.598 41.2156 300.104 41.3263L300.106 41.3354ZM135.63 108.514C135.223 108.623 134.86 108.857 134.592 109.182C134.324 109.507 134.165 109.906 134.137 110.325C133.84 115.449 134.045 120.588 134.751 125.669L134.902 126.719C135.012 127.217 135.307 127.654 135.729 127.942C136.151 128.229 136.668 128.346 137.174 128.269C137.68 128.192 138.139 127.926 138.456 127.525C138.773 127.124 138.926 126.619 138.883 126.111C138.804 125.8 138.786 125.465 138.76 125.17C138.081 120.348 137.883 115.471 138.17 110.608C138.191 110.294 138.138 109.98 138.014 109.691C137.89 109.401 137.699 109.146 137.457 108.944C137.215 108.742 136.929 108.601 136.621 108.53C136.313 108.46 135.992 108.463 135.685 108.539L135.63 108.514ZM140.885 139.768C140.766 139.784 140.649 139.814 140.536 139.857C140.296 139.966 140.079 140.122 139.899 140.315C139.718 140.508 139.578 140.734 139.486 140.981C139.393 141.227 139.351 141.49 139.361 141.753C139.37 142.016 139.432 142.274 139.543 142.513C141.86 147.518 144.845 152.189 148.418 156.397C148.582 156.616 148.789 156.799 149.026 156.935C149.263 157.071 149.526 157.157 149.798 157.189C150.07 157.221 150.346 157.197 150.609 157.119C150.872 157.041 151.116 156.91 151.327 156.736C151.538 156.561 151.711 156.345 151.835 156.102C151.959 155.858 152.033 155.592 152.05 155.32C152.068 155.048 152.03 154.775 151.938 154.518C151.847 154.261 151.703 154.026 151.517 153.826C148.182 149.909 145.394 145.561 143.228 140.9C143.036 140.466 142.695 140.113 142.266 139.906C141.837 139.699 141.348 139.65 140.885 139.768ZM160.927 164.405C160.567 164.497 160.24 164.687 159.981 164.953C159.722 165.219 159.542 165.55 159.46 165.911C159.378 166.272 159.398 166.648 159.517 166.998C159.637 167.348 159.851 167.657 160.136 167.893C163.851 170.951 167.999 174.024 173.218 177.534C173.66 177.789 174.183 177.868 174.681 177.755C175.18 177.641 175.618 177.343 175.905 176.921C176.192 176.499 176.308 175.985 176.229 175.483C176.15 174.98 175.882 174.526 175.48 174.214C170.376 170.772 166.322 167.801 162.718 164.832C162.477 164.625 162.189 164.478 161.879 164.404C161.57 164.329 161.246 164.329 160.936 164.402L160.927 164.405ZM187.349 182.666C186.968 182.764 186.624 182.969 186.359 183.258C186.093 183.547 185.918 183.906 185.855 184.292C185.791 184.678 185.842 185.073 186.002 185.43C186.161 185.787 186.421 186.089 186.751 186.3C191.35 189.22 195.826 192.082 200.147 195.063C200.363 195.231 200.612 195.353 200.878 195.422C201.143 195.49 201.42 195.504 201.692 195.463C201.963 195.421 202.224 195.325 202.457 195.179C202.69 195.034 202.891 194.843 203.047 194.618C203.204 194.393 203.313 194.139 203.367 193.871C203.422 193.603 203.421 193.327 203.364 193.06C203.307 192.792 203.196 192.54 203.038 192.317C202.88 192.094 202.677 191.906 202.443 191.763C198.065 188.749 193.551 185.857 188.928 182.915C188.697 182.77 188.438 182.673 188.169 182.63C187.899 182.587 187.623 182.599 187.358 182.664L187.349 182.666ZM213.59 201.178C213.189 201.278 212.828 201.499 212.559 201.811C212.382 202.013 212.247 202.248 212.162 202.501C212.077 202.755 212.044 203.023 212.065 203.29C212.086 203.556 212.16 203.816 212.283 204.053C212.406 204.29 212.575 204.501 212.781 204.672C216.782 208.041 220.469 211.763 223.796 215.793C224.144 216.166 224.622 216.393 225.132 216.428C225.643 216.463 226.148 216.303 226.546 215.982C226.944 215.66 227.204 215.2 227.275 214.695C227.345 214.19 227.22 213.679 226.925 213.263C223.45 209.04 219.593 205.143 215.404 201.619C215.162 201.406 214.871 201.254 214.557 201.177C214.243 201.1 213.914 201.1 213.599 201.176L213.59 201.178ZM233.412 226.027C233.286 226.045 233.163 226.076 233.045 226.121C232.804 226.232 232.588 226.39 232.409 226.585C232.23 226.78 232.092 227.008 232.001 227.256C231.911 227.504 231.871 227.767 231.883 228.031C231.896 228.294 231.961 228.552 232.074 228.79C233.687 232.225 234.971 235.804 235.909 239.48C236.243 240.785 236.583 242.118 236.793 243.474C236.891 243.996 237.194 244.457 237.634 244.756C238.074 245.054 238.616 245.166 239.141 245.067C239.665 244.968 240.129 244.666 240.431 244.227C240.732 243.788 240.846 243.248 240.748 242.727C240.481 241.297 240.165 239.871 239.811 238.483C238.811 234.552 237.44 230.725 235.717 227.052C235.508 226.648 235.167 226.326 234.75 226.14C234.333 225.953 233.865 225.913 233.421 226.025L233.412 226.027ZM24.398 304.933C23.9514 305.05 23.5586 305.317 23.285 305.688C23.0115 306.058 22.8737 306.511 22.8948 306.97C22.9159 307.429 23.0946 307.866 23.401 308.209C23.7073 308.552 24.1229 308.78 24.5783 308.854C29.8946 309.684 35.2775 310.468 40.575 311.186C41.0878 311.224 41.5963 311.066 41.9969 310.744C42.3974 310.422 42.6595 309.96 42.7298 309.453C42.8 308.946 42.673 308.431 42.3748 308.015C42.0765 307.599 41.6294 307.313 41.125 307.214C35.8573 306.498 30.5044 305.716 25.211 304.9C24.9408 304.854 24.6639 304.865 24.398 304.933ZM239.468 257.163C239.056 257.273 238.69 257.51 238.423 257.841C238.155 258.171 238.001 258.578 237.982 259.002C237.765 264.118 236.665 269.163 234.731 273.913C234.61 274.16 234.542 274.428 234.529 274.702C234.517 274.975 234.561 275.249 234.659 275.504C234.757 275.76 234.906 275.993 235.098 276.189C235.29 276.385 235.521 276.54 235.775 276.644C236.03 276.748 236.303 276.798 236.578 276.793C236.853 276.788 237.125 276.727 237.376 276.613C237.627 276.5 237.852 276.336 238.037 276.133C238.222 275.93 238.364 275.691 238.453 275.432C240.562 270.258 241.762 264.764 242 259.191C242.027 258.66 241.841 258.142 241.484 257.748C241.127 257.354 240.628 257.118 240.095 257.091C239.884 257.084 239.672 257.109 239.468 257.163ZM56.3467 309.267C55.8951 309.388 55.4992 309.661 55.2268 310.04C54.9544 310.419 54.8223 310.879 54.8531 311.343C54.8839 311.807 55.0756 312.246 55.3955 312.584C55.7155 312.922 56.1438 313.139 56.6073 313.197C62.0263 313.817 67.4404 314.378 72.6797 314.868C73.1922 314.884 73.6918 314.704 74.0771 314.367C74.4624 314.029 74.7044 313.558 74.754 313.05C74.8035 312.542 74.6569 312.035 74.3439 311.632C74.0309 311.229 73.575 310.959 73.0689 310.879C67.8503 310.394 62.466 309.834 57.077 309.217C56.8327 309.186 56.5846 309.204 56.3467 309.267ZM88.4509 312.221C87.9829 312.334 87.5709 312.611 87.2899 313C87.009 313.39 86.8777 313.867 86.9202 314.344C86.9626 314.821 87.1759 315.266 87.5212 315.599C87.8664 315.932 88.3207 316.13 88.8011 316.157C94.295 316.533 99.7265 316.818 104.953 317.03C105.486 317.051 106.007 316.86 106.4 316.5C106.793 316.14 107.026 315.639 107.049 315.109C107.072 314.578 106.882 314.061 106.521 313.67C106.16 313.28 105.657 313.049 105.124 313.028C99.9364 312.817 94.5348 312.534 89.0823 312.166C88.8704 312.147 88.6566 312.166 88.4509 312.221ZM227.323 286.103C226.953 286.198 226.617 286.395 226.353 286.672C222.759 290.406 218.661 293.626 214.178 296.238C213.744 296.524 213.437 296.964 213.321 297.468C213.205 297.972 213.288 298.501 213.554 298.944C213.82 299.387 214.247 299.711 214.748 299.848C215.248 299.985 215.782 299.924 216.24 299.679C221.035 296.872 225.418 293.42 229.265 289.419C229.561 289.101 229.746 288.698 229.793 288.268C229.84 287.838 229.747 287.405 229.527 287.033C229.306 286.661 228.971 286.37 228.571 286.203C228.17 286.036 227.726 286.003 227.304 286.108L227.323 286.103ZM120.654 313.457C120.187 313.585 119.781 313.875 119.511 314.276C119.241 314.676 119.124 315.16 119.182 315.638C119.24 316.116 119.469 316.557 119.828 316.881C120.186 317.204 120.649 317.388 121.133 317.399C126.688 317.439 132.143 317.358 137.332 317.151C137.596 317.142 137.855 317.081 138.096 316.972C138.337 316.862 138.553 316.707 138.734 316.515C138.915 316.322 139.055 316.096 139.148 315.85C139.241 315.604 139.285 315.342 139.276 315.079C139.268 314.816 139.207 314.558 139.098 314.319C138.989 314.08 138.833 313.864 138.64 313.685C138.448 313.506 138.221 313.366 137.974 313.274C137.726 313.182 137.463 313.14 137.199 313.149C132.059 313.315 126.661 313.391 121.166 313.355C120.992 313.366 120.82 313.4 120.654 313.457ZM152.876 312.315C152.371 312.424 151.928 312.722 151.637 313.147C151.346 313.572 151.231 314.092 151.315 314.599C151.399 315.105 151.676 315.56 152.088 315.867C152.501 316.175 153.017 316.313 153.53 316.252C159.151 315.788 164.584 315.159 169.681 314.402C170.185 314.297 170.63 314.005 170.926 313.584C171.221 313.164 171.344 312.648 171.27 312.141C171.195 311.634 170.929 311.176 170.525 310.859C170.121 310.542 169.611 310.391 169.098 310.437C164.086 311.182 158.736 311.791 153.204 312.26L152.876 312.315ZM200.156 302.864L199.954 302.915C194.983 304.731 189.907 306.246 184.753 307.45C184.495 307.511 184.252 307.622 184.037 307.777C183.822 307.932 183.64 308.127 183.501 308.352C183.22 308.806 183.131 309.352 183.254 309.87C183.315 310.126 183.426 310.368 183.582 310.581C183.737 310.795 183.932 310.976 184.158 311.114C184.613 311.392 185.161 311.479 185.682 311.355C190.993 310.111 196.223 308.548 201.345 306.674C201.814 306.484 202.196 306.126 202.413 305.67C202.631 305.215 202.668 304.695 202.518 304.214C202.368 303.733 202.042 303.326 201.604 303.074C201.166 302.822 200.648 302.744 200.154 302.855L200.156 302.864ZM26.2116 327.652C25.8353 327.58 25.4879 327.402 25.2104 327.139L0.716995 303.717C0.474645 303.484 0.295165 303.194 0.195082 302.873C0.0949985 302.552 0.0774971 302.212 0.144143 301.882C0.210789 301.552 0.359486 301.244 0.576572 300.986C0.793658 300.728 1.07219 300.529 1.38666 300.405L33.1003 288.201C33.3507 288.085 33.6223 288.02 33.8984 288.013C34.1744 288.005 34.449 288.053 34.7051 288.155C34.9612 288.258 35.1933 288.411 35.3872 288.606C35.5811 288.801 35.7325 289.034 35.8321 289.29C35.9317 289.546 35.9774 289.82 35.9663 290.095C35.9552 290.369 35.8876 290.639 35.7676 290.887C35.6477 291.134 35.4779 291.355 35.2689 291.535C35.0599 291.715 34.816 291.851 34.5524 291.934L5.80484 303.04L28.0088 324.237C28.3108 324.538 28.5077 324.929 28.5705 325.35C28.6334 325.772 28.559 326.203 28.3581 326.58C28.1573 326.958 27.8406 327.261 27.4544 327.447C27.0681 327.633 26.6325 327.691 26.2114 327.613L26.2116 327.652Z" fill="#EEC912"/>
</svg>
