<svg width="28" height="31" viewBox="0 0 28 31" fill="none" xmlns="http://www.w3.org/2000/svg">
<path d="M18.5 23H26L23.8926 20.8926C23.3211 20.3211 23 19.5459 23 18.7377V14C23 10.0813 20.4956 6.74763 17 5.51212V5C17 3.34315 15.6569 2 14 2C12.3431 2 11 3.34315 11 5V5.51212C7.50442 6.74763 5 10.0813 5 14V18.7377C5 19.5459 4.67892 20.3211 4.1074 20.8926L2 23H9.5M18.5 23V24.5C18.5 26.9853 16.4853 29 14 29C11.5147 29 9.5 26.9853 9.5 24.5V23M18.5 23H9.5" stroke="#A5AEB7" stroke-width="2.5" stroke-linecap="round" stroke-linejoin="round"/>
</svg>
