<svg width="60" height="54" viewBox="0 0 60 54" fill="none" xmlns="http://www.w3.org/2000/svg">
<path d="M35.5 6.97987C35.5 9.7413 33.2614 11.9799 30.5 11.9799C27.7386 11.9799 25.5 9.7413 25.5 6.97987C25.5 4.21845 27.7386 1.97987 30.5 1.97987C33.2614 1.97987 35.5 4.21845 35.5 6.97987Z" stroke="black" stroke-width="2"/>
<line x1="30.5001" y1="12" x2="30.5001" y2="19" stroke="black" stroke-width="2"/>
<path d="M17.5 18H43.5C48.4706 18 52.5 22.0294 52.5 27V43C52.5 47.9706 48.4706 52 43.5 52H17.5C12.5294 52 8.5 47.9706 8.5 43V27C8.5 22.0294 12.5294 18 17.5 18Z" stroke="black" stroke-width="2"/>
<circle cx="23" cy="32" r="4" stroke="black" stroke-width="2"/>
<path d="M42 32C42 34.2091 40.2091 36 38 36C35.7909 36 34 34.2091 34 32C34 29.7909 35.7909 28 38 28C40.2091 28 42 29.7909 42 32Z" stroke="black" stroke-width="2"/>
<line x1="26" y1="44" x2="35" y2="44" stroke="black" stroke-width="2" stroke-linecap="round"/>
<path d="M7 28C7 28 2 28.25 2 35.5C2 42.75 7 43 7 43" stroke="black" stroke-width="2" stroke-linecap="square"/>
<path d="M53 43C53 43 59 42.75 59 35.5C59 28.25 53 28 53 28" stroke="black" stroke-width="2" stroke-linecap="square"/>
</svg>
