<svg width="60" height="53" viewBox="0 0 60 53" fill="none" xmlns="http://www.w3.org/2000/svg">
<path d="M34.2859 41.9716H25.6025C25.2765 41.9716 25.0091 42.237 25.0091 42.5678C25.0091 42.8991 25.2765 43.1643 25.6025 43.1643H34.286C34.6116 43.1643 34.8792 42.8991 34.8793 42.5679L34.2859 41.9716ZM34.2859 41.9716C34.6118 41.9716 34.8792 42.2368 34.8793 42.5678L34.2859 41.9716ZM52.2123 27.0945V27.9195L53.0222 28.0763C56.4223 28.7347 58.9999 31.7422 59 35.3389C59 38.9401 56.4167 41.9496 53.0114 42.604L52.2401 42.7523L52.2014 43.5368C51.9692 48.2435 48.0729 52 43.3235 52H16.6765C11.9269 52 8.0304 48.2434 7.79838 43.5368L7.75971 42.7523L6.98832 42.604C3.58316 41.9496 1 38.9402 1 35.3389C1 31.7423 3.5777 28.7347 6.9776 28.0763L7.78748 27.9195V27.0945V26.4026C7.78748 21.4894 11.7778 17.494 16.6765 17.494H28.4067H29.4067V16.494V12.2603V11.4913L28.6635 11.2939C26.4295 10.7003 24.7779 8.65532 24.7779 6.23428C24.7779 3.34691 27.1234 1 30.0001 1C32.8769 1 35.222 3.34683 35.222 6.23428C35.222 8.65532 33.5706 10.7003 31.3363 11.2939L30.5931 11.4913V12.2603V16.494V17.494H31.5931H43.3235C48.2218 17.494 52.2123 21.4893 52.2123 26.4026V27.0945ZM6.47951 41.2433L7.78748 41.6667V40.2919V30.3861V29.0112L6.47944 29.4348C3.99256 30.24 2.18682 32.5796 2.18682 35.3388C2.18682 38.0984 3.99248 40.4382 6.47951 41.2433ZM52.2123 40.2919V41.6666L53.5202 41.2433C56.0071 40.4383 57.8131 38.0984 57.8131 35.3389C57.8131 32.5796 56.007 30.24 53.5203 29.4348L52.2123 29.0113V30.3862V40.2919ZM30 2.19288C27.7719 2.19288 25.9646 4.00691 25.9646 6.23428C25.9646 8.46144 27.7719 10.2757 30 10.2757C32.2278 10.2757 34.0353 8.46158 34.0353 6.23428C34.0353 4.00697 32.2278 2.19288 30 2.19288ZM43.3235 50.8069C47.5731 50.8069 51.0259 47.3449 51.026 43.0914V26.4026C51.026 22.1492 47.5732 18.6871 43.3235 18.6871H16.6765C12.4265 18.6871 8.97405 22.1492 8.97405 26.4026V43.0914C8.97405 47.3449 12.4265 50.8069 16.6765 50.8069H43.3235Z" stroke="black" stroke-width="2"/>
<circle cx="22" cy="31" r="4.1" stroke="black" stroke-width="1.8"/>
<circle cx="37" cy="31" r="4.1" stroke="black" stroke-width="1.8"/>
</svg>
