<svg width="31" height="31" viewBox="0 0 31 31" fill="none" xmlns="http://www.w3.org/2000/svg">
<path d="M15.5 0C12.4344 0 9.43764 0.909059 6.88867 2.61222C4.33971 4.31538 2.35304 6.73615 1.17988 9.56841C0.00672269 12.4007 -0.300238 15.5172 0.297833 18.5239C0.895903 21.5306 2.37213 24.2924 4.53984 26.4601C6.70756 28.6279 9.46941 30.1041 12.4761 30.7022C15.4828 31.3002 18.5993 30.9933 21.4316 29.8201C24.2638 28.647 26.6846 26.6603 28.3878 24.1113C30.0909 21.5624 31 18.5656 31 15.5C31 11.3891 29.367 7.44666 26.4602 4.53984C23.5534 1.63303 19.6109 0 15.5 0ZM19.8977 9.734H18.4948C17.112 9.734 16.6809 10.5991 16.6809 11.483V13.5823H19.7679L19.2734 16.8193H16.678V24.6428H13.2002V16.8193H10.3814V13.5823H13.206V11.1167C13.206 8.30944 14.867 6.75944 17.409 6.75944C18.2428 6.77125 19.0746 6.84451 19.8977 6.9786V9.734Z" fill="#A5AEB7"/>
</svg>
