<svg width="40" height="40" viewBox="0 0 40 40" fill="none" xmlns="http://www.w3.org/2000/svg">
<path d="M5.22222 11.5556V30.5556M13.6667 11.5556V30.5556M26.3333 11.5556V30.5556M34.7778 11.5556V30.5556M39 39V37.3111C39 34.9464 39 33.7641 38.5398 32.8609C38.135 32.0665 37.4891 31.4205 36.6946 31.0158C35.7914 30.5556 34.6091 30.5556 32.2444 30.5556H7.75556C5.39089 30.5556 4.20856 30.5556 3.30537 31.0158C2.51091 31.4205 1.86499 32.0665 1.46019 32.8609C1 33.7641 1 34.9464 1 37.3111V39H39ZM1 6.27778V11.5556H39V6.27778L20 1L1 6.27778Z" stroke="black" stroke-width="2" stroke-linecap="round" stroke-linejoin="round"/>
</svg>
