<svg width="31" height="31" viewBox="0 0 31 31" fill="none" xmlns="http://www.w3.org/2000/svg">
<path d="M15.5 0C12.4344 0 9.43763 0.909059 6.88867 2.61222C4.33971 4.31538 2.35303 6.73615 1.17987 9.56841C0.00671623 12.4007 -0.300236 15.5172 0.297835 18.5239C0.895906 21.5306 2.37214 24.2924 4.53985 26.4601C6.70756 28.6279 9.4694 30.1041 12.4761 30.7022C15.4828 31.3002 18.5993 30.9933 21.4316 29.8201C24.2638 28.647 26.6846 26.6603 28.3878 24.1113C30.0909 21.5624 31 18.5656 31 15.5C31 11.3891 29.367 7.44666 26.4602 4.53984C23.5533 1.63303 19.6109 0 15.5 0V0ZM23.3106 18.7442C23.2981 19.3961 23.1747 20.0412 22.9458 20.6518C22.7435 21.1736 22.4346 21.6475 22.0389 22.0432C21.6431 22.4389 21.1693 22.7478 20.6474 22.9501C20.038 23.1771 19.3944 23.299 18.7442 23.3106C17.9065 23.3495 17.6383 23.3581 15.5043 23.3581C13.3704 23.3581 13.1022 23.3495 12.2645 23.3106C11.6125 23.2981 10.9674 23.1747 10.3569 22.9458C9.83508 22.7435 9.36119 22.4346 8.96546 22.0389C8.56973 21.6431 8.26086 21.1692 8.05857 20.6474C7.82861 20.0385 7.70379 19.3949 7.68945 18.7442C7.65052 17.9065 7.64187 17.6383 7.64187 15.5043C7.64187 13.3704 7.65052 13.1022 7.68945 12.2645C7.70192 11.6125 7.82528 10.9674 8.05424 10.3569C8.25603 9.83428 8.56467 9.35954 8.96043 8.96304C9.35618 8.56654 9.83034 8.257 10.3526 8.05423C10.9618 7.82575 11.6053 7.7024 12.2558 7.68944C13.0935 7.65051 13.3617 7.64186 15.4957 7.64186C17.6296 7.64186 17.8978 7.65051 18.7355 7.68944C19.3875 7.70191 20.0326 7.82527 20.6431 8.05423C21.1657 8.25602 21.6405 8.56466 22.037 8.96042C22.4335 9.35618 22.743 9.83033 22.9458 10.3526C23.1742 10.9617 23.2976 11.6053 23.3106 12.2558C23.3495 13.0935 23.3581 13.3617 23.3581 15.4957C23.3581 17.6296 23.3495 17.9021 23.3106 18.7442ZM18.1199 15.5043C18.119 16.0223 17.9646 16.5284 17.6762 16.9587C17.3878 17.3889 16.9784 17.724 16.4996 17.9217C16.0208 18.1193 15.4942 18.1706 14.9862 18.069C14.4783 17.9674 14.0119 17.7176 13.646 17.351C13.28 16.9844 13.0309 16.5176 12.9302 16.0095C12.8294 15.5014 12.8816 14.9749 13.08 14.4964C13.2784 14.018 13.6142 13.609 14.0449 13.3214C14.4757 13.0337 14.982 12.8801 15.5 12.8801C16.1947 12.8805 16.8609 13.1567 17.3521 13.6479C17.8433 14.1391 18.1195 14.8053 18.1199 15.5V15.5043ZM21.6279 10.8659C21.497 10.5264 21.2965 10.2181 21.0392 9.96079C20.7819 9.70351 20.4736 9.50298 20.1341 9.37209C19.6667 9.19956 19.1732 9.10836 18.675 9.10246C17.8474 9.06497 17.5979 9.05632 15.5029 9.05632C13.4079 9.05632 13.1555 9.06497 12.3308 9.10246C11.8306 9.10771 11.3351 9.19891 10.8659 9.37209C10.5264 9.50298 10.2181 9.70351 9.9608 9.96079C9.70352 10.2181 9.50298 10.5264 9.3721 10.8659C9.19956 11.3333 9.10837 11.8268 9.10247 12.325C9.06498 13.1526 9.05633 13.4021 9.05633 15.4971C9.05633 17.5921 9.06498 17.8445 9.10247 18.6692C9.10771 19.1694 9.19892 19.6649 9.3721 20.1341C9.50298 20.4736 9.70352 20.7819 9.9608 21.0392C10.2181 21.2965 10.5264 21.497 10.8659 21.6279C11.3333 21.8004 11.8268 21.8916 12.325 21.8975C13.1527 21.935 13.4021 21.9437 15.4971 21.9437C17.5921 21.9437 17.8445 21.935 18.6692 21.8975C19.1694 21.8923 19.6649 21.8011 20.1341 21.6279C20.4736 21.497 20.7819 21.2965 21.0392 21.0392C21.2965 20.7819 21.497 20.4736 21.6279 20.1341C21.8004 19.6667 21.8916 19.1732 21.8975 18.675C21.935 17.8473 21.9437 17.5979 21.9437 15.5029C21.9437 13.4079 21.935 13.1555 21.8975 12.3308C21.8923 11.8306 21.8011 11.3351 21.6279 10.8659ZM15.5 19.5358C14.7015 19.5358 13.921 19.299 13.2571 18.8554C12.5931 18.4118 12.0757 17.7812 11.7701 17.0435C11.4645 16.3058 11.3846 15.4941 11.5404 14.7109C11.6961 13.9278 12.0807 13.2084 12.6453 12.6438C13.2099 12.0792 13.9292 11.6947 14.7124 11.5389C15.4955 11.3831 16.3073 11.4631 17.045 11.7687C17.7827 12.0742 18.4132 12.5917 18.8568 13.2556C19.3004 13.9195 19.5372 14.7001 19.5372 15.4986C19.5372 16.5693 19.1119 17.5962 18.3547 18.3533C17.5976 19.1104 16.5707 19.5358 15.5 19.5358ZM19.6944 12.2558C19.5079 12.2558 19.3256 12.2005 19.1705 12.0969C19.0154 11.9933 18.8945 11.846 18.8232 11.6737C18.7518 11.5014 18.7331 11.3118 18.7695 11.1289C18.8059 10.946 18.8957 10.7779 19.0276 10.646C19.1595 10.5142 19.3275 10.4244 19.5104 10.388C19.6933 10.3516 19.8829 10.3703 20.0552 10.4416C20.2275 10.513 20.3748 10.6339 20.4784 10.7889C20.582 10.944 20.6374 11.1263 20.6374 11.3128C20.6374 11.5629 20.538 11.8028 20.3612 11.9796C20.1843 12.1565 19.9445 12.2558 19.6944 12.2558Z" fill="#A5AEB7"/>
</svg>
