<svg width="79" height="33" viewBox="0 0 79 33" fill="none" xmlns="http://www.w3.org/2000/svg">
<path d="M67.5201 16.1705C68.8236 16.1718 70.0735 16.6929 70.9957 17.6197C71.918 18.5465 72.4374 19.8034 72.4402 21.1148V21.4455C72.4387 22.7578 71.9198 24.016 70.9974 24.944C70.0751 25.872 68.8245 26.394 67.5201 26.3956H67.1926C65.8889 26.394 64.6391 25.8727 63.7168 24.9457C62.7946 24.0187 62.2752 22.7617 62.2724 21.4501V21.1148C62.274 19.8026 62.7929 18.5445 63.7153 17.6167C64.6377 16.6889 65.8882 16.1671 67.1926 16.1659H67.5201M49.8159 1.66446e-05C49.3844 -0.000749398 48.9571 0.0841392 48.5583 0.24982C48.1596 0.415501 47.7972 0.658717 47.4921 0.965532C47.1869 1.27235 46.9449 1.63673 46.7799 2.0378C46.615 2.43887 46.5303 2.86875 46.5308 3.30281V29.7007C46.5469 30.5651 46.8996 31.3887 47.5129 31.9943C48.1262 32.5999 48.9513 32.9392 49.8107 32.9392C50.67 32.9392 51.4951 32.5999 52.1084 31.9943C52.7218 31.3887 53.0744 30.5651 53.0906 29.7007V3.30281C53.091 2.86915 53.0065 2.43965 52.8418 2.03888C52.6772 1.63811 52.4356 1.27393 52.1309 0.96718C51.8262 0.660427 51.4644 0.417115 51.0662 0.251159C50.6679 0.0852043 50.2411 -0.00013662 49.8101 1.66446e-05H49.8159ZM39.9802 1.66446e-05C39.5484 -0.00136329 39.1206 0.0830729 38.7213 0.248479C38.322 0.413885 37.9591 0.657002 37.6534 0.963878C37.3477 1.27075 37.1053 1.63535 36.9401 2.03672C36.7748 2.4381 36.69 2.86836 36.6905 3.30281C36.6909 3.73623 36.7762 4.16532 36.9415 4.56558C37.1068 4.96583 37.3488 5.32941 37.6538 5.63557C37.9587 5.94172 38.3206 6.18444 38.7188 6.34988C39.117 6.51532 39.5436 6.60024 39.9744 6.59978C40.8432 6.59886 41.676 6.25116 42.2902 5.63303C42.9044 5.01489 43.2497 4.17683 43.2503 3.30281C43.2507 2.86954 43.1664 2.44042 43.002 2.03995C42.8376 1.63949 42.5964 1.27552 42.2922 0.968827C41.988 0.662134 41.6268 0.418726 41.2291 0.252497C40.8314 0.0862681 40.4051 0.000475051 39.9744 1.66446e-05H39.9802ZM32.806 1.66446e-05C30.3679 1.66446e-05 28.167 0.828916 26.2508 2.45877C26.0541 2.62525 25.8608 2.79755 25.6722 2.98149C24.0974 4.50308 22.9448 6.35763 21.8317 8.15047C19.6505 11.6617 18.476 13.1995 16.4128 13.1995C14.3496 13.1995 13.1728 11.6617 10.994 8.15047C9.87963 6.35763 8.72827 4.50308 7.15225 2.98149C6.96248 2.79755 6.76808 2.62525 6.57368 2.45877C4.65747 0.828916 2.45543 0.00118083 0.0173457 1.66446e-05V6.59978V29.7007C0.0173457 30.5757 0.362852 31.4149 0.977845 32.0337C1.59284 32.6524 2.42695 33 3.29668 33C3.72742 33.0002 4.15397 32.9149 4.55197 32.7492C4.94997 32.5835 5.31163 32.3405 5.61626 32.0341C5.9209 31.7277 6.16255 31.3639 6.32742 30.9636C6.4923 30.5632 6.57716 30.1341 6.57716 29.7007V13.4475C7.36517 14.6408 8.22723 15.8038 9.27675 16.8237C11.326 18.8028 13.7283 19.8063 16.4174 19.8063C19.1066 19.8063 21.5088 18.8028 23.5581 16.8237C24.6077 15.8096 25.4697 14.6466 26.2577 13.4533V29.7007C26.2577 30.5757 26.6032 31.4149 27.2182 32.0337C27.8332 32.6524 28.6673 33 29.5371 33C30.404 32.9957 31.2339 32.6462 31.8454 32.0279C32.4569 31.4096 32.8002 30.5729 32.8002 29.7007V6.59978V1.66446e-05H32.806ZM67.5351 9.56962H67.2076C65.6991 9.56747 64.2049 9.86449 62.8105 10.4437C61.4161 11.0229 60.1489 11.8729 59.0812 12.9451C58.0136 14.0173 57.1664 15.2907 56.5882 16.6926C56.01 18.0944 55.7121 19.5971 55.7115 21.1148V21.4455C55.7115 22.9623 56.0084 24.4643 56.5854 25.8657C57.1624 27.2671 58.0082 28.5404 59.0743 29.6129C60.1404 30.6854 61.4061 31.5361 62.799 32.1165C64.192 32.6969 65.6849 32.9955 67.1926 32.9953H67.5201C69.0276 32.9953 70.5204 32.6966 71.9132 32.1162C73.3061 31.5357 74.5716 30.685 75.6376 29.6125C76.7036 28.54 77.5492 27.2667 78.1261 25.8654C78.703 24.4641 79 22.9622 79 21.4455V21.1148C79 19.5981 78.703 18.0962 78.1261 16.6949C77.5492 15.2936 76.7036 14.0203 75.6376 12.9478C73.4847 10.7818 70.5647 9.56496 67.5201 9.56496L67.5351 9.56962ZM39.9744 9.90024C39.5435 9.89963 39.1166 9.98448 38.7183 10.1499C38.32 10.3154 37.958 10.5582 37.653 10.8645C37.348 11.1708 37.106 11.5346 36.9409 11.9351C36.7757 12.3355 36.6906 12.7648 36.6905 13.1984V29.7007C36.7066 30.5651 37.0593 31.3887 37.6726 31.9943C38.286 32.5999 39.111 32.9392 39.9704 32.9392C40.8297 32.9392 41.6548 32.5999 42.2681 31.9943C42.8815 31.3887 43.2341 30.5651 43.2503 29.7007V13.1984C43.25 12.3242 42.9048 11.4858 42.2906 10.8674C41.6764 10.249 40.8433 9.90117 39.9744 9.90024Z" fill="#DFDFDF"/>
</svg>
