<svg width="31" height="31" viewBox="0 0 31 31" fill="none" xmlns="http://www.w3.org/2000/svg">
<path d="M15.5 0C12.4344 0 9.43762 0.909059 6.88866 2.61222C4.3397 4.31538 2.35303 6.73615 1.17987 9.56841C0.00670963 12.4007 -0.300234 15.5172 0.297837 18.5239C0.895908 21.5306 2.37214 24.2924 4.53985 26.4601C6.70756 28.6279 9.46939 30.1041 12.4761 30.7022C15.4828 31.3002 18.5993 30.9933 21.4316 29.8201C24.2639 28.647 26.6846 26.6603 28.3878 24.1113C30.0909 21.5624 31 18.5656 31 15.5C31 11.3891 29.367 7.44666 26.4602 4.53984C23.5533 1.63303 19.6109 0 15.5 0ZM22.7381 10.4506C22.506 12.9018 21.4981 18.8264 20.9863 21.5645C20.77 22.7179 20.3432 23.1116 19.9294 23.1505C19.0326 23.2327 18.3433 22.5565 17.4782 21.9869C16.1171 21.0944 15.3486 20.5451 14.0279 19.6684C12.5009 18.6591 13.4915 18.1098 14.3609 17.2072C14.5887 16.9707 18.5423 13.3718 18.6202 13.046C18.6305 12.9978 18.6293 12.948 18.6167 12.9004C18.6042 12.8528 18.5807 12.8088 18.5481 12.772C18.5008 12.7424 18.4472 12.7243 18.3916 12.719C18.3361 12.7138 18.28 12.7215 18.228 12.7417C18.0925 12.7715 15.9191 14.2081 11.7079 17.0514C11.0908 17.4753 10.5318 17.682 10.031 17.6714C9.47879 17.6585 8.41759 17.3586 7.62745 17.0947C6.65996 16.7804 5.89721 16.6146 5.95777 16.0854C5.99238 15.8076 6.37687 15.5231 7.11126 15.2318C11.6185 13.268 14.6238 11.9732 16.1272 11.3474C20.4211 9.56242 21.3179 9.25242 21.8946 9.24088C22.1082 9.23745 22.3174 9.30098 22.493 9.42256C22.6166 9.52914 22.6954 9.67849 22.7136 9.8407C22.7442 10.0425 22.7524 10.247 22.7381 10.4506Z" fill="#A5AEB7"/>
</svg>
