<svg width="31" height="31" viewBox="0 0 31 31" fill="none" xmlns="http://www.w3.org/2000/svg">
<path d="M15.5 0C12.4344 0 9.43762 0.909057 6.88866 2.61222C4.3397 4.31538 2.35303 6.73615 1.17987 9.5684C0.00670963 12.4007 -0.300234 15.5172 0.297837 18.5239C0.895908 21.5306 2.37214 24.2924 4.53985 26.4601C6.70756 28.6279 9.46939 30.1041 12.4761 30.7022C15.4828 31.3002 18.5993 30.9933 21.4316 29.8201C24.2639 28.647 26.6846 26.6603 28.3878 24.1113C30.0909 21.5624 31 18.5656 31 15.5C31 11.3891 29.367 7.44666 26.4602 4.53984C23.5533 1.63303 19.6109 0 15.5 0ZM22.0244 12.6725C22.0345 12.8167 22.0345 12.9494 22.0345 13.0892C22.0345 17.3629 18.7817 22.2912 12.8326 22.2912C11.0756 22.2942 9.35496 21.7906 7.87689 20.8406C8.72348 20.9439 9.58213 20.8787 10.4034 20.6488C11.2247 20.4189 11.9924 20.0289 12.6624 19.5012C11.9863 19.4901 11.3306 19.2675 10.7875 18.8645C10.2444 18.4616 9.84116 17.8986 9.63452 17.2547C10.1187 17.3485 10.6179 17.3297 11.0937 17.1999C10.3614 17.0521 9.70277 16.6554 9.2297 16.0772C8.75662 15.499 8.49821 14.7749 8.49833 14.0279V13.986C8.9481 14.2367 9.45149 14.3756 9.96614 14.3912C9.2814 13.934 8.79671 13.233 8.61079 12.4309C8.42487 11.6289 8.55172 10.7861 8.96549 10.0743C9.77728 11.0733 10.7901 11.8903 11.9383 12.4723C13.0864 13.0543 14.3441 13.3883 15.6298 13.4526C15.4688 12.7593 15.5408 12.0323 15.8346 11.3841C16.1285 10.7359 16.6277 10.2026 17.2552 9.86667C17.8826 9.53078 18.6033 9.41104 19.3056 9.52598C20.008 9.64092 20.6529 9.98414 21.1406 10.5025C21.8646 10.3597 22.5589 10.0945 23.1938 9.71814C22.9521 10.467 22.447 11.1028 21.7721 11.5075C22.413 11.4311 23.0389 11.2596 23.6292 10.9985C23.1974 11.6469 22.654 12.2137 22.0244 12.6725Z" fill="#A5AEB7"/>
</svg>
