<svg width="44" height="43" viewBox="0 0 44 43" fill="none" xmlns="http://www.w3.org/2000/svg">
<path d="M3.3913 3.65868L26.5043 9.43534C27.9203 9.85087 29.1702 10.7005 30.0782 11.8645C30.9861 13.0286 31.5062 14.4484 31.5652 15.9239V36.8097C31.6032 37.4448 31.4874 38.0797 31.2277 38.6606C30.9681 39.2414 30.5722 39.7509 30.0738 40.1459C29.5753 40.5408 28.989 40.8096 28.3645 40.9294C27.7401 41.0491 27.096 41.0163 26.487 40.8337L7.07826 36.2666C5.6605 35.8748 4.40415 35.0416 3.49114 33.8876C2.57814 32.7335 2.05588 31.3186 2 29.8477V7.22145C2.00413 5.8379 2.55514 4.51221 3.5327 3.53389C4.51026 2.55557 5.83492 2.00413 7.21739 2H36.7826C38.1651 2.00413 39.4897 2.55557 40.4673 3.53389C41.4449 4.51221 41.9959 5.8379 42 7.22145V26.3668C41.9963 27.7504 41.4455 29.0764 40.4678 30.0548C39.4902 31.0332 38.1652 31.5845 36.7826 31.5882H31.5652M24.6415 24.125C24.6415 25.5747 23.4589 26.75 22 26.75C20.5411 26.75 19.3585 25.5747 19.3585 24.125C19.3585 22.6753 20.5411 21.5 22 21.5C23.4589 21.5 24.6415 22.6753 24.6415 24.125Z" stroke="black" stroke-width="2.3" stroke-linecap="round" stroke-linejoin="round"/>
</svg>
