<svg width="31" height="31" viewBox="0 0 31 31" fill="none" xmlns="http://www.w3.org/2000/svg">
<path d="M15.5 0C12.4344 0 9.43763 0.909059 6.88867 2.61222C4.33971 4.31538 2.35303 6.73615 1.17987 9.56841C0.00671596 12.4007 -0.300236 15.5172 0.297835 18.5239C0.895906 21.5306 2.37214 24.2924 4.53985 26.4601C6.70756 28.6279 9.4694 30.1041 12.4761 30.7022C15.4828 31.3002 18.5993 30.9933 21.4316 29.8201C24.2639 28.647 26.6846 26.6603 28.3878 24.1113C30.0909 21.5624 31 18.5656 31 15.5C31 11.3891 29.367 7.44666 26.4602 4.53984C23.5533 1.63303 19.6109 0 15.5 0ZM20.9589 21.2155C20.2884 19.1277 18.6173 17.5128 16.4098 17.2937V21.2155H16.0681C10.0584 21.2155 6.63256 17.0947 6.48838 10.2372H9.49754C9.59703 15.2693 11.8161 17.4018 13.5737 17.8416V10.2372H16.4098V14.5772C18.14 14.3912 19.9698 12.4144 20.584 10.2372H23.4201C22.9472 12.9176 20.969 14.8959 19.5632 15.7091C20.6627 16.2551 21.6338 17.0283 22.4123 17.9775C23.1907 18.9267 23.7589 20.0304 24.0791 21.2155H20.9589Z" fill="#A5AEB7"/>
</svg>
