<svg width="386" height="161" viewBox="0 0 386 161" fill="none" xmlns="http://www.w3.org/2000/svg">
<path d="M329.908 78.8926C336.277 78.8986 342.384 81.4411 346.891 85.9628C351.397 90.4845 353.935 96.6164 353.948 103.015V104.628C353.941 111.031 351.406 117.169 346.899 121.697C342.392 126.224 336.282 128.771 329.908 128.778H328.308C321.938 128.771 315.831 126.227 311.325 121.705C306.819 117.182 304.281 111.049 304.268 104.651V103.015C304.275 96.6125 306.811 90.4747 311.318 85.9481C315.825 81.4215 321.935 78.8759 328.308 78.8699H329.908M243.404 8.12053e-05C241.296 -0.00365615 239.208 0.410497 237.26 1.21882C235.311 2.02714 233.541 3.21374 232.05 4.71063C230.559 6.20751 229.376 7.98526 228.57 9.942C227.764 11.8988 227.351 13.996 227.353 16.1137V144.903C227.432 149.121 229.155 153.139 232.152 156.093C235.148 159.048 239.18 160.703 243.379 160.703C247.578 160.703 251.609 159.048 254.606 156.093C257.603 153.139 259.326 149.121 259.404 144.903V16.1137C259.407 13.998 258.994 11.9025 258.189 9.94726C257.385 7.992 256.204 6.21525 254.715 4.71867C253.227 3.22208 251.459 2.03501 249.513 1.22535C247.567 0.415694 245.482 -0.000666539 243.376 8.12053e-05H243.404ZM195.346 8.12053e-05C193.236 -0.00665118 191.146 0.405295 189.195 1.21228C187.244 2.01926 185.471 3.20537 183.977 4.70256C182.484 6.19974 181.299 7.97851 180.492 9.93674C179.685 11.895 179.27 13.9941 179.272 16.1137C179.275 18.2283 179.691 20.3217 180.499 22.2745C181.307 24.2272 182.489 26.0011 183.979 27.4947C185.469 28.9884 187.237 30.1726 189.183 30.9797C191.128 31.7869 193.213 32.2012 195.318 32.1989C199.563 32.1944 203.632 30.4981 206.633 27.4823C209.634 24.4666 211.321 20.3779 211.324 16.1137C211.326 13.9999 210.914 11.9063 210.111 9.95251C209.308 7.99872 208.129 6.22299 206.643 4.7267C205.157 3.23041 203.392 2.04288 201.449 1.23188C199.505 0.420884 197.422 0.00231767 195.318 8.12053e-05H195.346ZM160.292 8.12053e-05C148.38 8.12053e-05 137.626 4.0441 128.263 11.9958C127.302 12.8081 126.358 13.6487 125.436 14.5461C117.742 21.9696 112.11 31.0175 106.671 39.7644C96.0137 56.8947 90.2751 64.3978 80.1943 64.3978C70.1134 64.3978 64.3635 56.8947 53.7173 39.7644C48.2726 31.0175 42.647 21.9696 34.9464 14.5461C34.0192 13.6487 33.0694 12.8081 32.1195 11.9958C22.7567 4.0441 11.9974 0.00576102 0.0847526 8.12053e-05V32.1989V144.903C0.0847526 149.172 1.77292 153.267 4.77782 156.285C7.78273 159.304 11.8583 161 16.1078 161C18.2125 161.001 20.2966 160.585 22.2413 159.776C24.1859 158.968 25.953 157.782 27.4415 156.287C28.93 154.793 30.1107 153.018 30.9163 151.065C31.7219 149.111 32.1365 147.018 32.1365 144.903V65.6076C35.9868 71.4294 40.1989 77.1035 45.3269 82.079C55.3399 91.7347 67.0773 96.6307 80.2169 96.6307C93.3565 96.6307 105.094 91.7347 115.107 82.079C120.235 77.1319 124.447 71.4578 128.297 65.636V144.903C128.297 149.172 129.985 153.267 132.99 156.285C135.995 159.304 140.071 161 144.32 161C148.556 160.979 152.611 159.274 155.599 156.257C158.587 153.241 160.264 149.159 160.264 144.903V32.1989V8.12053e-05H160.292ZM329.982 46.6881H328.382C321.011 46.6777 313.71 48.1267 306.897 50.9525C300.084 53.7782 293.892 57.9252 288.675 63.1563C283.459 68.3875 279.319 74.6002 276.494 81.4394C273.669 88.2786 272.213 95.6101 272.21 103.015V104.628C272.21 112.028 273.662 119.356 276.481 126.193C279.3 133.03 283.432 139.242 288.641 144.475C293.851 149.708 300.035 153.858 306.841 156.69C313.647 159.521 320.941 160.978 328.308 160.977H329.908C337.274 160.977 344.568 159.52 351.374 156.688C358.179 153.856 364.362 149.705 369.571 144.473C374.78 139.24 378.911 133.028 381.73 126.192C384.549 119.355 386 112.028 386 104.628V103.015C386 95.6149 384.549 88.2875 381.73 81.4508C378.911 74.6142 374.78 68.4023 369.571 63.1698C359.052 52.6022 344.785 46.6654 329.908 46.6654L329.982 46.6881ZM195.318 48.3012C193.212 48.2982 191.127 48.7122 189.181 49.5194C187.234 50.3266 185.466 51.5113 183.975 53.0057C182.485 54.5001 181.303 56.2749 180.496 58.2287C179.689 60.1824 179.273 62.2768 179.272 64.3921V144.903C179.351 149.121 181.074 153.139 184.071 156.093C187.068 159.048 191.099 160.703 195.298 160.703C199.497 160.703 203.529 159.048 206.525 156.093C209.522 153.139 211.245 149.121 211.324 144.903V64.3921C211.323 60.1269 209.636 56.0368 206.635 53.0198C203.634 50.0028 199.564 48.3057 195.318 48.3012Z" fill="#DEE5F1"/>
</svg>
