<svg width="120" height="50" viewBox="0 0 120 50" fill="none" xmlns="http://www.w3.org/2000/svg">
<path d="M102.555 24.5C104.534 24.5018 106.433 25.2914 107.834 26.6956C109.235 28.0998 110.023 30.0041 110.028 31.9911V32.492C110.025 34.4804 109.237 36.3867 107.836 37.7927C106.435 39.1987 104.536 39.9896 102.555 39.9919H102.057C100.077 39.9896 98.1787 39.1996 96.778 37.7952C95.3772 36.3907 94.5883 34.4862 94.5841 32.4991V31.9911C94.5864 30.0028 95.3746 28.0967 96.7756 26.691C98.1766 25.2853 100.076 24.4948 102.057 24.4929H102.555M75.6641 2.52182e-05C75.0089 -0.00113541 74.3598 0.127479 73.7541 0.378502C73.1484 0.629525 72.5981 0.998022 72.1346 1.46288C71.671 1.92773 71.3035 2.47981 71.0529 3.08747C70.8024 3.69514 70.6738 4.34645 70.6745 5.00408V44.9995C70.699 46.3092 71.2346 47.557 72.1662 48.4745C73.0978 49.3921 74.3509 49.9061 75.6562 49.9061C76.9615 49.9061 78.2146 49.3921 79.1462 48.4745C80.0778 47.557 80.6135 46.3092 80.638 44.9995V5.00408C80.6387 4.34704 80.5103 3.69631 80.2602 3.08911C80.0101 2.4819 79.6431 1.93014 79.1804 1.46537C78.7176 1.00061 78.168 0.63197 77.5632 0.380531C76.9583 0.129093 76.31 -0.000206992 75.6553 2.52182e-05H75.6641ZM60.725 2.52182e-05C60.0691 -0.00206551 59.4193 0.125864 58.8128 0.37647C58.2063 0.627076 57.6551 0.995423 57.1909 1.46037C56.7266 1.92532 56.3584 2.47771 56.1074 3.08584C55.8564 3.69396 55.7276 4.34585 55.7283 5.00408C55.729 5.66076 55.8585 6.31087 56.1096 6.9173C56.3606 7.52373 56.7282 8.07459 57.1914 8.53844C57.6545 9.00229 58.2042 9.37004 58.809 9.6207C59.4138 9.87136 60.0619 10 60.7162 9.99932C62.0357 9.99792 63.3007 9.47113 64.2336 8.53459C65.1664 7.59806 65.6909 6.32831 65.6918 5.00408C65.6925 4.34763 65.5643 3.69748 65.3147 3.09073C65.065 2.48399 64.6987 1.93254 64.2367 1.46787C63.7746 1.0032 63.2259 0.634411 62.6219 0.382558C62.0179 0.130705 61.3703 0.000719749 60.7162 2.52182e-05H60.725ZM49.8282 2.52182e-05C46.125 2.52182e-05 42.7822 1.25589 39.8717 3.72529C39.5729 3.97752 39.2794 4.23857 38.9929 4.51726C36.6009 6.82262 34.8504 9.63244 33.1596 12.3488C29.8466 17.6686 28.0627 19.9986 24.929 19.9986C21.7953 19.9986 20.0079 17.6686 16.6985 12.3488C15.0059 9.63244 13.2572 6.82262 10.8634 4.51726C10.5751 4.23857 10.2799 3.97752 9.98461 3.72529C7.07411 1.25589 3.7295 0.00178907 0.026346 2.52182e-05V9.99932V44.9995C0.026346 46.3252 0.551128 47.5967 1.48523 48.5342C2.41932 49.4716 3.68623 49.9983 5.00725 49.9983C5.6615 49.9985 6.30937 49.8694 6.91388 49.6183C7.51839 49.3672 8.0677 48.999 8.53041 48.5348C8.99311 48.0706 9.36015 47.5194 9.61057 46.9128C9.861 46.3063 9.98989 45.6561 9.98989 44.9995V20.3743C11.1868 22.1823 12.4961 23.9444 14.0902 25.4895C17.2029 28.488 20.8515 30.0085 24.9361 30.0085C29.0206 30.0085 32.6693 28.488 35.7819 25.4895C37.376 23.9532 38.6853 22.1911 39.8822 20.3831V44.9995C39.8822 46.3252 40.407 47.5967 41.3411 48.5342C42.2752 49.4716 43.5421 49.9983 44.8631 49.9983C46.1799 49.9917 47.4405 49.4622 48.3693 48.5255C49.298 47.5887 49.8194 46.321 49.8194 44.9995V9.99932V2.52182e-05H49.8282ZM102.577 14.4989H102.08C99.7887 14.4957 97.5193 14.9457 95.4014 15.8232C93.2835 16.7007 91.3587 17.9886 89.7371 19.6131C88.1154 21.2376 86.8287 23.167 85.9505 25.2909C85.0723 27.4148 84.6197 29.6915 84.6188 31.9911V32.492C84.6188 34.7902 85.0699 37.0658 85.9463 39.1891C86.8226 41.3123 88.1072 43.2415 89.7265 44.8664C91.3458 46.4914 93.2682 47.7803 95.3839 48.6597C97.4996 49.539 99.7672 49.9914 102.057 49.9912H102.555C104.844 49.9912 107.112 49.5386 109.227 48.6592C111.343 47.7797 113.265 46.4908 114.884 44.8658C116.503 43.2409 117.788 41.3118 118.664 39.1887C119.54 37.0656 119.991 34.79 119.991 32.492V31.9911C119.991 29.693 119.54 27.4175 118.664 25.2944C117.788 23.1713 116.503 21.2422 114.884 19.6173C111.614 16.3355 107.179 14.4919 102.555 14.4919L102.577 14.4989ZM60.7162 14.9998C60.0616 14.9989 59.4133 15.1275 58.8083 15.3782C58.2033 15.6288 57.6535 15.9967 57.1902 16.4608C56.727 16.9249 56.3595 17.4761 56.1086 18.0828C55.8577 18.6896 55.7285 19.34 55.7283 19.9968V44.9995C55.7528 46.3092 56.2884 47.557 57.22 48.4745C58.1516 49.3921 59.4048 49.9061 60.71 49.9061C62.0153 49.9061 63.2685 49.3921 64.2001 48.4745C65.1317 47.557 65.6673 46.3092 65.6918 44.9995V19.9968C65.6913 18.6723 65.1671 17.4021 64.2342 16.4652C63.3013 15.5283 62.036 15.0013 60.7162 14.9998Z" fill="#0B1726"/>
</svg>
