<?xml version="1.0" encoding="utf-8"?><svg xmlns="http://www.w3.org/2000/svg" xmlns:xlink="http://www.w3.org/1999/xlink"><symbol viewBox="0 0 15 26" id="arrow-right" xmlns="http://www.w3.org/2000/svg"><path d="M1.251 1.246a.841.841 0 0 0 0 1.199l10.697 10.543L1.252 23.553a.841.841 0 0 0 0 1.199c.335.33.88.33 1.214 0L13.75 13.609a.823.823 0 0 0 .251-.6.858.858 0 0 0-.251-.6L2.465 1.266a.848.848 0 0 0-1.214-.02z" stroke-width="2"/></symbol><symbol viewBox="0 0 255 26" id="arrow-right-long" xmlns="http://www.w3.org/2000/svg"><path d="M2 13h233H2z"/><path d="M2 13h233" stroke-width="4" stroke-linecap="round" stroke-linejoin="round"/><path d="M241.251 1.246a.841.841 0 0 0 0 1.199l10.697 10.543-10.697 10.565a.841.841 0 0 0 0 1.199c.335.33.879.33 1.214 0l11.284-11.143a.824.824 0 0 0 .251-.6.86.86 0 0 0-.251-.6L242.465 1.266a.848.848 0 0 0-1.214-.02z" stroke-width="2"/></symbol><symbol viewBox="0 0 13 10" id="arrow-right-medium" xmlns="http://www.w3.org/2000/svg"><path d="M13 4.98l-.671.646-4.39 4.199a.625.625 0 0 1-.453.175.612.612 0 0 1-.439-.208.65.65 0 0 1-.17-.465.662.662 0 0 1 .202-.452l3.4-3.23H.627a.618.618 0 0 1-.443-.188.656.656 0 0 1 0-.914.618.618 0 0 1 .443-.189h9.851l-3.393-3.23a.645.645 0 0 1-.201-.451.663.663 0 0 1 .17-.465A.628.628 0 0 1 7.493 0a.61.61 0 0 1 .451.175l4.391 4.199.665.607z"/></symbol><symbol viewBox="0 0 190 120" id="arrow1" xmlns="http://www.w3.org/2000/svg"><path d="M189.063 0a.919.919 0 0 0-.718.338 31.156 31.156 0 0 1-5.33 4.765.92.92 0 0 0 .416 1.62.93.93 0 0 0 .671-.13 32.73 32.73 0 0 0 5.687-5.09.918.918 0 0 0-.718-1.503h-.008zm-77.105 6.662h-.161a.928.928 0 0 0-.926.923.928.928 0 0 0 .926.923h.161c2.226 0 4.631.108 7.148.329a.925.925 0 0 0 .964-.842.922.922 0 0 0-.803-.995 87.225 87.225 0 0 0-7.309-.338zm-7.536.473h-.126a38.527 38.527 0 0 0-7.37 1.706.92.92 0 0 0-.524 1.153.919.919 0 0 0 1.129.58 36.595 36.595 0 0 1 7.035-1.603.926.926 0 0 0 .798-.975.923.923 0 0 0-.92-.861h-.022zm22.106.74a.927.927 0 0 0-.904.855.925.925 0 0 0 .769.977c2.235.33 4.609.737 7.257 1.235a.93.93 0 0 0 1.034-.743.922.922 0 0 0-.69-1.067c-2.674-.503-5.07-.91-7.327-1.244l-.139-.013zm50.673.828a.873.873 0 0 0-.4.095 41.874 41.874 0 0 1-6.753 2.564.927.927 0 0 0-.513.447.921.921 0 0 0 .346 1.215c.201.12.442.16.672.11a43.09 43.09 0 0 0 7.057-2.681.922.922 0 0 0 .435-1.23.938.938 0 0 0-.826-.52h-.018zM141.09 10.56a.93.93 0 0 0-.909.829.922.922 0 0 0 .722.995l.435.09c2.461.508 4.783.984 6.835 1.357a.928.928 0 0 0 1.051-.748.918.918 0 0 0-.72-1.067c-2.022-.364-4.348-.84-6.792-1.348l-.435-.09a.918.918 0 0 0-.187-.018zm-50.412 1.568a.929.929 0 0 0-.54.173 22.51 22.51 0 0 0-5.378 5.433.92.92 0 0 0 .261 1.239.928.928 0 0 0 1.257-.187 20.742 20.742 0 0 1 4.94-4.99.919.919 0 0 0 .344-1.031.918.918 0 0 0-.884-.637zm72.387.594h-.095a45.637 45.637 0 0 1-7.24.182.921.921 0 0 0-.095 1.841c2.509.134 5.026.07 7.526-.191a.924.924 0 0 0 .524-1.574.927.927 0 0 0-.62-.263v.005zm-80.766 11.21a.929.929 0 0 0-.87.637 36.14 36.14 0 0 0-1.469 6.905l-.052.485a.92.92 0 0 0 .834.95.928.928 0 0 0 1.005-.768c0-.147.03-.299.052-.433.246-2.225.712-4.42 1.392-6.554a.915.915 0 0 0-.453-1.102.925.925 0 0 0-.417-.102l-.022-.018zm-1.213 14.52a.713.713 0 0 0-.165 0 .924.924 0 0 0-.738.711.916.916 0 0 0-.006.36 28.143 28.143 0 0 0 2.37 7.195.924.924 0 0 0 .892.57.931.931 0 0 0 .846-.637.92.92 0 0 0-.068-.726 26.226 26.226 0 0 1-2.218-6.701.921.921 0 0 0-.913-.771zM87.2 51.71a.929.929 0 0 0-.824.504.92.92 0 0 0 .076.96c1.304 1.785 2.8 3.626 4.722 5.783a.928.928 0 0 0 1.572-.57.92.92 0 0 0-.19-.651c-1.878-2.114-3.343-3.899-4.608-5.632a.925.925 0 0 0-.744-.394H87.2zm9.674 11.142a.93.93 0 0 0-.849.554.92.92 0 0 0 .17.996c1.714 1.824 3.38 3.609 4.962 5.428a.926.926 0 0 0 1.598-.894.938.938 0 0 0-.202-.314c-1.605-1.841-3.283-3.643-5.005-5.48a.935.935 0 0 0-.67-.29h-.004zm9.566 11.232a.912.912 0 0 0-.53.165.911.911 0 0 0-.388.602.934.934 0 0 0 .161.697 39.782 39.782 0 0 1 3.635 6.208.928.928 0 0 0 1.672-.093.923.923 0 0 0 .007-.678 41.306 41.306 0 0 0-3.8-6.498.926.926 0 0 0-.753-.403h-.004zm5.992 13.325a.79.79 0 0 0-.174 0 .914.914 0 0 0-.593.387.915.915 0 0 0-.142.691c.327 1.714.492 3.454.491 5.199 0 .62 0 1.251-.061 1.88a.92.92 0 0 0 .863.977.923.923 0 0 0 .981-.86c.043-.667.065-1.339.065-1.997a29.53 29.53 0 0 0-.522-5.558.927.927 0 0 0-.904-.72h-.004zM10.529 98.775a.928.928 0 0 0-.9.736.92.92 0 0 0 .535 1.031c2.27.975 4.574 1.936 6.848 2.859a.931.931 0 0 0 1.155-.527.92.92 0 0 0-.459-1.18 410.414 410.414 0 0 1-6.813-2.841.907.907 0 0 0-.366-.078zm101.059 3.192a.91.91 0 0 0-.869.65 20.49 20.49 0 0 1-3.14 6.272.917.917 0 0 0-.095 1.056.927.927 0 0 0 1.578.045 22.334 22.334 0 0 0 3.422-6.832.92.92 0 0 0-.896-1.191zm-87.345 2.374a.924.924 0 0 0-.8 1.369c.105.187.27.333.47.411 2.34.893 4.683 1.759 6.957 2.573a.923.923 0 0 0 .626-1.732 348.697 348.697 0 0 1-6.922-2.56.869.869 0 0 0-.33-.061zm13.94 4.969a.92.92 0 0 0-.921.771.918.918 0 0 0 .63 1.022c2.4.793 4.783 1.538 7.083 2.227a.926.926 0 0 0 1.15-.618.918.918 0 0 0-.62-1.146 276.762 276.762 0 0 1-7.035-2.209.825.825 0 0 0-.287-.047zm64.718 4.167a.933.933 0 0 0-.496.143 25.75 25.75 0 0 1-6.5 2.876.92.92 0 0 0-.157 1.673.925.925 0 0 0 .683.094 27.683 27.683 0 0 0 6.957-3.088.93.93 0 0 0 .365-.453.914.914 0 0 0 .022-.58.927.927 0 0 0-.883-.665h.009zm-50.538.047a.923.923 0 0 0-.235 1.811c2.465.65 4.9 1.235 7.23 1.733a.93.93 0 0 0 .956-.373.917.917 0 0 0-.23-1.281.93.93 0 0 0-.33-.144 188.874 188.874 0 0 1-7.152-1.733.958.958 0 0 0-.24-.013zm14.457 3.158a.926.926 0 0 0-.954.84.916.916 0 0 0 .797.988c2.553.434 5.04.771 7.392 1.014a.924.924 0 0 0 .778-1.482.927.927 0 0 0-.586-.35 117.3 117.3 0 0 1-7.275-.997l-.152-.013zm22.097 1.17h-.096c-2.416.243-4.846.34-7.274.29a.92.92 0 0 0-.66.26.92.92 0 0 0 .63 1.586 62.13 62.13 0 0 0 7.496-.304.92.92 0 0 0-.096-1.836v.004zm-80.162-8.75a.92.92 0 0 1-.387-.343l-8.23-13.22a.92.92 0 0 1 .673-1.4L16.3 92.311a.93.93 0 0 1 .971.441.92.92 0 0 1-.385 1.291.929.929 0 0 1-.364.096L2.477 95.817l7.465 11.969a.915.915 0 0 1-.61 1.367.922.922 0 0 1-.572-.068l-.005.018z"/></symbol><symbol viewBox="0 0 448 212" id="arrow2" xmlns="http://www.w3.org/2000/svg"><path d="M110.41 211.784h-2.707a1.513 1.513 0 0 1-1.051-.464 1.497 1.497 0 0 1-.293-1.637 1.468 1.468 0 0 1 .835-.787c.185-.069.382-.1.579-.092 3.906.079 7.901 0 11.826-.328a1.51 1.51 0 0 1 1.093.356 1.488 1.488 0 0 1 .162 2.107 1.502 1.502 0 0 1-1.025.517c-3.116.199-6.293.328-9.419.328zm-14.612-.874h-.18a128.94 128.94 0 0 1-11.985-1.987 1.51 1.51 0 0 1-.946-.649 1.493 1.493 0 0 1 .024-1.659 1.497 1.497 0 0 1 .965-.621 1.5 1.5 0 0 1 .586.009c3.885.834 7.81 1.48 11.676 1.986.397.023.77.201 1.034.496a1.49 1.49 0 0 1-1.204 2.484l.03-.059zm35.796-.994a1.506 1.506 0 0 1-1.628-1.361 1.494 1.494 0 0 1 1.369-1.619c3.845-.685 7.73-1.569 11.536-2.632a1.508 1.508 0 0 1 1.583.514 1.5 1.5 0 0 1 .309 1.099 1.489 1.489 0 0 1-1.083 1.258 127.422 127.422 0 0 1-11.826 2.692 1.086 1.086 0 0 1-.26.049zm-59.218-3.973a1.717 1.717 0 0 1-.44-.06 167.48 167.48 0 0 1-11.415-3.973 1.494 1.494 0 0 1-.797-.796 1.48 1.48 0 0 1-.012-1.122 1.495 1.495 0 0 1 1.907-.853c3.716 1.46 7.481 2.781 11.197 3.913.34.107.63.332.819.632a1.484 1.484 0 0 1-.289 1.914c-.27.232-.613.362-.97.365v-.02zm82.26-2.464a1.499 1.499 0 0 1-1.465-1.222 1.492 1.492 0 0 1 .936-1.658c3.626-1.381 7.281-2.98 10.857-4.699a1.507 1.507 0 0 1 2.07.648 1.48 1.48 0 0 1-.258 1.681 1.478 1.478 0 0 1-.494.343 135.094 135.094 0 0 1-11.106 4.808c-.171.07-.354.107-.54.109v-.01zm-104.532-6.297a1.564 1.564 0 0 1-.66-.149 183.91 183.91 0 0 1-10.687-5.633 1.499 1.499 0 0 1-.454-1.984 1.515 1.515 0 0 1 1.952-.608 171.913 171.913 0 0 0 10.498 5.543c.305.147.55.392.697.696a1.481 1.481 0 0 1-.415 1.808 1.501 1.501 0 0 1-.931.327zm126.066-4.103a1.495 1.495 0 0 1-1.44-1.098 1.484 1.484 0 0 1 .681-1.673 202.43 202.43 0 0 0 3.875-2.354 289.312 289.312 0 0 0 6.183-3.974 1.51 1.51 0 0 1 1.126-.219c.389.078.732.307.951.636a1.483 1.483 0 0 1-.419 2.067 167.215 167.215 0 0 1-6.242 3.973 183.305 183.305 0 0 1-3.996 2.394 1.535 1.535 0 0 1-.719.258v-.01zm-146.821-7.768a1.524 1.524 0 0 1-.83-.248 206.876 206.876 0 0 1-9.847-6.953 1.486 1.486 0 0 1-.285-2.091 1.51 1.51 0 0 1 2.102-.284 186.607 186.607 0 0 0 9.699 6.864 1.5 1.5 0 0 1 .41 2.067 1.477 1.477 0 0 1-1.29.655l.04-.01zm166.797-5.413a1.49 1.49 0 0 1-1.209-.606 1.498 1.498 0 0 1 .32-2.086 262.452 262.452 0 0 0 9.449-7.202 1.487 1.487 0 0 1 1.124-.388 1.492 1.492 0 0 1 1.168 2.261 1.479 1.479 0 0 1-.415.441c-3.076 2.474-6.292 4.967-9.558 7.291a1.43 1.43 0 0 1-.909.298l.03-.009zm-185.884-9.02a1.516 1.516 0 0 1-.999-.367 119.859 119.859 0 0 1-8.86-8.325 1.484 1.484 0 0 1-.402-1.069 1.477 1.477 0 0 1 .483-1.037 1.513 1.513 0 0 1 2.117.08s3.096 3.318 8.63 8.096a1.484 1.484 0 0 1-.133 2.365 1.5 1.5 0 0 1-.866.257h.03zm204.521-5.96a1.495 1.495 0 0 1-1.402-.959 1.483 1.483 0 0 1 .404-1.644c2.996-2.612 5.862-5.334 8.669-8.085a1.501 1.501 0 0 1 2.515 1.075c.005.386-.141.759-.408 1.04a235.5 235.5 0 0 1-8.789 8.196 1.467 1.467 0 0 1-1.029.417l.04-.04zm17.05-16.718a1.487 1.487 0 0 1-1.385-.881 1.478 1.478 0 0 1 .276-1.612 228.124 228.124 0 0 0 7.84-8.94 1.491 1.491 0 0 1 1.026-.585 1.49 1.49 0 0 1 1.132.336 1.487 1.487 0 0 1 .14 2.156 257.183 257.183 0 0 1-7.931 9.019 1.49 1.49 0 0 1-1.138.547l.04-.04zm15.381-18.248a1.466 1.466 0 0 1-.909-.308 1.475 1.475 0 0 1-.27-2.086 371.54 371.54 0 0 0 7.172-9.496 1.501 1.501 0 0 1 2.062-.282 1.486 1.486 0 0 1 .355 2.04c-2.597 3.527-4.994 6.646-7.222 9.556a1.488 1.488 0 0 1-1.228.616l.04-.04zm14.203-19.181a1.558 1.558 0 0 1-.869-.278 1.5 1.5 0 0 1-.608-.971 1.499 1.499 0 0 1 .258-1.115l.999-1.45a1393.32 1393.32 0 0 1 5.993-8.245 1.504 1.504 0 0 1 2.092-.333 1.487 1.487 0 0 1 .335 2.08 479.66 479.66 0 0 0-5.933 8.226l-1.049 1.46a1.49 1.49 0 0 1-1.258.666l.04-.04zm14.122-19.25a1.504 1.504 0 0 1-1.34-.831 1.478 1.478 0 0 1 .152-1.564c2.637-3.417 5.094-6.477 7.531-9.347a1.486 1.486 0 0 1 1.018-.527 1.504 1.504 0 0 1 1.46.797 1.481 1.481 0 0 1-.181 1.647 259.03 259.03 0 0 0-7.451 9.238 1.476 1.476 0 0 1-1.228.626l.039-.04zm15.482-18.17a1.494 1.494 0 0 1-1.388-.887 1.48 1.48 0 0 1 .289-1.615c2.817-2.98 5.733-5.752 8.669-8.374a1.505 1.505 0 0 1 2.053.167 1.486 1.486 0 0 1-.055 2.048 160.548 160.548 0 0 0-8.5 8.215 1.49 1.49 0 0 1-1.108.487l.04-.04zm17.798-15.892a1.5 1.5 0 0 1-1.424-1.008 1.49 1.49 0 0 1 .505-1.664 214.449 214.449 0 0 1 9.778-7.033 1.512 1.512 0 0 1 1.123-.233 1.493 1.493 0 0 1 .975 2.281 1.493 1.493 0 0 1-.41.415 196.654 196.654 0 0 0-9.638 6.953 1.495 1.495 0 0 1-.949.328l.04-.04zm19.796-13.41a1.483 1.483 0 0 1-1.278-.726 1.472 1.472 0 0 1-.172-1.128 1.495 1.495 0 0 1 .681-.918 237.448 237.448 0 0 1 10.507-5.89 1.508 1.508 0 0 1 2.028.625 1.488 1.488 0 0 1-.63 2.017 215.932 215.932 0 0 0-10.367 5.8 1.433 1.433 0 0 1-.809.26l.04-.04zm21.194-11.116a1.492 1.492 0 0 1-1.329-2.153c.151-.303.402-.545.71-.688a209.955 209.955 0 0 1 11.106-4.689 1.505 1.505 0 0 1 1.863.874 1.483 1.483 0 0 1-.774 1.898 224.217 224.217 0 0 0-10.987 4.629 1.5 1.5 0 0 1-.629.169l.04-.04zm22.303-8.702a1.501 1.501 0 0 1-1.466-1.253 1.486 1.486 0 0 1 .997-1.647 224.183 224.183 0 0 1 11.556-3.467 1.506 1.506 0 0 1 1.139.144 1.49 1.49 0 0 1-.35 2.737c-3.826.993-7.671 2.185-11.406 3.407-.162.069-.334.11-.51.119l.04-.04zm23.122-6.258a1.513 1.513 0 0 1-1.105-.327 1.495 1.495 0 0 1 .795-2.653c3.916-.844 7.901-1.59 11.856-2.215.397-.063.804.033 1.13.268a1.505 1.505 0 0 1 .339 2.107 1.518 1.518 0 0 1-.99.605c-3.905.626-7.84 1.36-11.705 2.185-.117.036-.238.06-.36.07l.04-.04zm23.631-3.745a1.503 1.503 0 0 1-1.578-1.41 1.492 1.492 0 0 1 1.418-1.57 207.37 207.37 0 0 1 12.046-.923 1.5 1.5 0 0 1 1.568 1.42c.009.196-.021.391-.087.575a1.503 1.503 0 0 1-1.341.985c-3.896.188-7.891.486-11.866.903l-.16.02zm17.599 8.543l10.847-9.337a1.99 1.99 0 0 0 .688-1.434 1.988 1.988 0 0 0-.588-1.477L437.263.441A1.493 1.493 0 0 0 436.199 0a1.505 1.505 0 0 0-1.063.44 1.485 1.485 0 0 0 0 2.107l9.388 9.327-9.988 8.642a1.487 1.487 0 0 0-.16 2.106 1.515 1.515 0 0 0 2.088.169v-.02z"/></symbol></svg>