<?xml version="1.0" encoding="utf-8"?><svg xmlns="http://www.w3.org/2000/svg" xmlns:xlink="http://www.w3.org/1999/xlink"><symbol viewBox="0 0 15 26" id="arrow-right" xmlns="http://www.w3.org/2000/svg"><path d="M1.251 1.246a.841.841 0 0 0 0 1.199l10.697 10.543L1.252 23.553a.841.841 0 0 0 0 1.199c.335.33.88.33 1.214 0L13.75 13.609a.823.823 0 0 0 .251-.6.858.858 0 0 0-.251-.6L2.465 1.266a.848.848 0 0 0-1.214-.02z" stroke-width="2"/></symbol><symbol viewBox="0 0 255 26" id="arrow-right-long" xmlns="http://www.w3.org/2000/svg"><path d="M2 13h233H2z"/><path d="M2 13h233" stroke-width="4" stroke-linecap="round" stroke-linejoin="round"/><path d="M241.251 1.246a.841.841 0 0 0 0 1.199l10.697 10.543-10.697 10.565a.841.841 0 0 0 0 1.199c.335.33.879.33 1.214 0l11.284-11.143a.824.824 0 0 0 .251-.6.86.86 0 0 0-.251-.6L242.465 1.266a.848.848 0 0 0-1.214-.02z" stroke-width="2"/></symbol><symbol viewBox="0 0 13 10" id="arrow-right-medium" xmlns="http://www.w3.org/2000/svg"><path d="M13 4.98l-.671.646-4.39 4.199a.625.625 0 0 1-.453.175.612.612 0 0 1-.439-.208.65.65 0 0 1-.17-.465.662.662 0 0 1 .202-.452l3.4-3.23H.627a.618.618 0 0 1-.443-.188.656.656 0 0 1 0-.914.618.618 0 0 1 .443-.189h9.851l-3.393-3.23a.645.645 0 0 1-.201-.451.663.663 0 0 1 .17-.465A.628.628 0 0 1 7.493 0a.61.61 0 0 1 .451.175l4.391 4.199.665.607z"/></symbol><symbol viewBox="0 0 190 120" id="arrow1" xmlns="http://www.w3.org/2000/svg"><path d="M189.063 0a.919.919 0 0 0-.718.338 31.156 31.156 0 0 1-5.33 4.765.92.92 0 0 0 .416 1.62.93.93 0 0 0 .671-.13 32.73 32.73 0 0 0 5.687-5.09.918.918 0 0 0-.718-1.503h-.008zm-77.105 6.662h-.161a.928.928 0 0 0-.926.923.928.928 0 0 0 .926.923h.161c2.226 0 4.631.108 7.148.329a.925.925 0 0 0 .964-.842.922.922 0 0 0-.803-.995 87.225 87.225 0 0 0-7.309-.338zm-7.536.473h-.126a38.527 38.527 0 0 0-7.37 1.706.92.92 0 0 0-.524 1.153.919.919 0 0 0 1.129.58 36.595 36.595 0 0 1 7.035-1.603.926.926 0 0 0 .798-.975.923.923 0 0 0-.92-.861h-.022zm22.106.74a.927.927 0 0 0-.904.855.925.925 0 0 0 .769.977c2.235.33 4.609.737 7.257 1.235a.93.93 0 0 0 1.034-.743.922.922 0 0 0-.69-1.067c-2.674-.503-5.07-.91-7.327-1.244l-.139-.013zm50.673.828a.873.873 0 0 0-.4.095 41.874 41.874 0 0 1-6.753 2.564.927.927 0 0 0-.513.447.921.921 0 0 0 .346 1.215c.201.12.442.16.672.11a43.09 43.09 0 0 0 7.057-2.681.922.922 0 0 0 .435-1.23.938.938 0 0 0-.826-.52h-.018zM141.09 10.56a.93.93 0 0 0-.909.829.922.922 0 0 0 .722.995l.435.09c2.461.508 4.783.984 6.835 1.357a.928.928 0 0 0 1.051-.748.918.918 0 0 0-.72-1.067c-2.022-.364-4.348-.84-6.792-1.348l-.435-.09a.918.918 0 0 0-.187-.018zm-50.412 1.568a.929.929 0 0 0-.54.173 22.51 22.51 0 0 0-5.378 5.433.92.92 0 0 0 .261 1.239.928.928 0 0 0 1.257-.187 20.742 20.742 0 0 1 4.94-4.99.919.919 0 0 0 .344-1.031.918.918 0 0 0-.884-.637zm72.387.594h-.095a45.637 45.637 0 0 1-7.24.182.921.921 0 0 0-.095 1.841c2.509.134 5.026.07 7.526-.191a.924.924 0 0 0 .524-1.574.927.927 0 0 0-.62-.263v.005zm-80.766 11.21a.929.929 0 0 0-.87.637 36.14 36.14 0 0 0-1.469 6.905l-.052.485a.92.92 0 0 0 .834.95.928.928 0 0 0 1.005-.768c0-.147.03-.299.052-.433.246-2.225.712-4.42 1.392-6.554a.915.915 0 0 0-.453-1.102.925.925 0 0 0-.417-.102l-.022-.018zm-1.213 14.52a.713.713 0 0 0-.165 0 .924.924 0 0 0-.738.711.916.916 0 0 0-.006.36 28.143 28.143 0 0 0 2.37 7.195.924.924 0 0 0 .892.57.931.931 0 0 0 .846-.637.92.92 0 0 0-.068-.726 26.226 26.226 0 0 1-2.218-6.701.921.921 0 0 0-.913-.771zM87.2 51.71a.929.929 0 0 0-.824.504.92.92 0 0 0 .076.96c1.304 1.785 2.8 3.626 4.722 5.783a.928.928 0 0 0 1.572-.57.92.92 0 0 0-.19-.651c-1.878-2.114-3.343-3.899-4.608-5.632a.925.925 0 0 0-.744-.394H87.2zm9.674 11.142a.93.93 0 0 0-.849.554.92.92 0 0 0 .17.996c1.714 1.824 3.38 3.609 4.962 5.428a.926.926 0 0 0 1.598-.894.938.938 0 0 0-.202-.314c-1.605-1.841-3.283-3.643-5.005-5.48a.935.935 0 0 0-.67-.29h-.004zm9.566 11.232a.912.912 0 0 0-.53.165.911.911 0 0 0-.388.602.934.934 0 0 0 .161.697 39.782 39.782 0 0 1 3.635 6.208.928.928 0 0 0 1.672-.093.923.923 0 0 0 .007-.678 41.306 41.306 0 0 0-3.8-6.498.926.926 0 0 0-.753-.403h-.004zm5.992 13.325a.79.79 0 0 0-.174 0 .914.914 0 0 0-.593.387.915.915 0 0 0-.142.691c.327 1.714.492 3.454.491 5.199 0 .62 0 1.251-.061 1.88a.92.92 0 0 0 .863.977.923.923 0 0 0 .981-.86c.043-.667.065-1.339.065-1.997a29.53 29.53 0 0 0-.522-5.558.927.927 0 0 0-.904-.72h-.004zM10.529 98.775a.928.928 0 0 0-.9.736.92.92 0 0 0 .535 1.031c2.27.975 4.574 1.936 6.848 2.859a.931.931 0 0 0 1.155-.527.92.92 0 0 0-.459-1.18 410.414 410.414 0 0 1-6.813-2.841.907.907 0 0 0-.366-.078zm101.059 3.192a.91.91 0 0 0-.869.65 20.49 20.49 0 0 1-3.14 6.272.917.917 0 0 0-.095 1.056.927.927 0 0 0 1.578.045 22.334 22.334 0 0 0 3.422-6.832.92.92 0 0 0-.896-1.191zm-87.345 2.374a.924.924 0 0 0-.8 1.369c.105.187.27.333.47.411 2.34.893 4.683 1.759 6.957 2.573a.923.923 0 0 0 .626-1.732 348.697 348.697 0 0 1-6.922-2.56.869.869 0 0 0-.33-.061zm13.94 4.969a.92.92 0 0 0-.921.771.918.918 0 0 0 .63 1.022c2.4.793 4.783 1.538 7.083 2.227a.926.926 0 0 0 1.15-.618.918.918 0 0 0-.62-1.146 276.762 276.762 0 0 1-7.035-2.209.825.825 0 0 0-.287-.047zm64.718 4.167a.933.933 0 0 0-.496.143 25.75 25.75 0 0 1-6.5 2.876.92.92 0 0 0-.157 1.673.925.925 0 0 0 .683.094 27.683 27.683 0 0 0 6.957-3.088.93.93 0 0 0 .365-.453.914.914 0 0 0 .022-.58.927.927 0 0 0-.883-.665h.009zm-50.538.047a.923.923 0 0 0-.235 1.811c2.465.65 4.9 1.235 7.23 1.733a.93.93 0 0 0 .956-.373.917.917 0 0 0-.23-1.281.93.93 0 0 0-.33-.144 188.874 188.874 0 0 1-7.152-1.733.958.958 0 0 0-.24-.013zm14.457 3.158a.926.926 0 0 0-.954.84.916.916 0 0 0 .797.988c2.553.434 5.04.771 7.392 1.014a.924.924 0 0 0 .778-1.482.927.927 0 0 0-.586-.35 117.3 117.3 0 0 1-7.275-.997l-.152-.013zm22.097 1.17h-.096c-2.416.243-4.846.34-7.274.29a.92.92 0 0 0-.66.26.92.92 0 0 0 .63 1.586 62.13 62.13 0 0 0 7.496-.304.92.92 0 0 0-.096-1.836v.004zm-80.162-8.75a.92.92 0 0 1-.387-.343l-8.23-13.22a.92.92 0 0 1 .673-1.4L16.3 92.311a.93.93 0 0 1 .971.441.92.92 0 0 1-.385 1.291.929.929 0 0 1-.364.096L2.477 95.817l7.465 11.969a.915.915 0 0 1-.61 1.367.922.922 0 0 1-.572-.068l-.005.018z"/></symbol><symbol viewBox="0 0 448 212" id="arrow2" xmlns="http://www.w3.org/2000/svg"><path d="M110.41 211.784h-2.707a1.513 1.513 0 0 1-1.051-.464 1.497 1.497 0 0 1-.293-1.637 1.468 1.468 0 0 1 .835-.787c.185-.069.382-.1.579-.092 3.906.079 7.901 0 11.826-.328a1.51 1.51 0 0 1 1.093.356 1.488 1.488 0 0 1 .162 2.107 1.502 1.502 0 0 1-1.025.517c-3.116.199-6.293.328-9.419.328zm-14.612-.874h-.18a128.94 128.94 0 0 1-11.985-1.987 1.51 1.51 0 0 1-.946-.649 1.493 1.493 0 0 1 .024-1.659 1.497 1.497 0 0 1 .965-.621 1.5 1.5 0 0 1 .586.009c3.885.834 7.81 1.48 11.676 1.986.397.023.77.201 1.034.496a1.49 1.49 0 0 1-1.204 2.484l.03-.059zm35.796-.994a1.506 1.506 0 0 1-1.628-1.361 1.494 1.494 0 0 1 1.369-1.619c3.845-.685 7.73-1.569 11.536-2.632a1.508 1.508 0 0 1 1.583.514 1.5 1.5 0 0 1 .309 1.099 1.489 1.489 0 0 1-1.083 1.258 127.422 127.422 0 0 1-11.826 2.692 1.086 1.086 0 0 1-.26.049zm-59.218-3.973a1.717 1.717 0 0 1-.44-.06 167.48 167.48 0 0 1-11.415-3.973 1.494 1.494 0 0 1-.797-.796 1.48 1.48 0 0 1-.012-1.122 1.495 1.495 0 0 1 1.907-.853c3.716 1.46 7.481 2.781 11.197 3.913.34.107.63.332.819.632a1.484 1.484 0 0 1-.289 1.914c-.27.232-.613.362-.97.365v-.02zm82.26-2.464a1.499 1.499 0 0 1-1.465-1.222 1.492 1.492 0 0 1 .936-1.658c3.626-1.381 7.281-2.98 10.857-4.699a1.507 1.507 0 0 1 2.07.648 1.48 1.48 0 0 1-.258 1.681 1.478 1.478 0 0 1-.494.343 135.094 135.094 0 0 1-11.106 4.808c-.171.07-.354.107-.54.109v-.01zm-104.532-6.297a1.564 1.564 0 0 1-.66-.149 183.91 183.91 0 0 1-10.687-5.633 1.499 1.499 0 0 1-.454-1.984 1.515 1.515 0 0 1 1.952-.608 171.913 171.913 0 0 0 10.498 5.543c.305.147.55.392.697.696a1.481 1.481 0 0 1-.415 1.808 1.501 1.501 0 0 1-.931.327zm126.066-4.103a1.495 1.495 0 0 1-1.44-1.098 1.484 1.484 0 0 1 .681-1.673 202.43 202.43 0 0 0 3.875-2.354 289.312 289.312 0 0 0 6.183-3.974 1.51 1.51 0 0 1 1.126-.219c.389.078.732.307.951.636a1.483 1.483 0 0 1-.419 2.067 167.215 167.215 0 0 1-6.242 3.973 183.305 183.305 0 0 1-3.996 2.394 1.535 1.535 0 0 1-.719.258v-.01zm-146.821-7.768a1.524 1.524 0 0 1-.83-.248 206.876 206.876 0 0 1-9.847-6.953 1.486 1.486 0 0 1-.285-2.091 1.51 1.51 0 0 1 2.102-.284 186.607 186.607 0 0 0 9.699 6.864 1.5 1.5 0 0 1 .41 2.067 1.477 1.477 0 0 1-1.29.655l.04-.01zm166.797-5.413a1.49 1.49 0 0 1-1.209-.606 1.498 1.498 0 0 1 .32-2.086 262.452 262.452 0 0 0 9.449-7.202 1.487 1.487 0 0 1 1.124-.388 1.492 1.492 0 0 1 1.168 2.261 1.479 1.479 0 0 1-.415.441c-3.076 2.474-6.292 4.967-9.558 7.291a1.43 1.43 0 0 1-.909.298l.03-.009zm-185.884-9.02a1.516 1.516 0 0 1-.999-.367 119.859 119.859 0 0 1-8.86-8.325 1.484 1.484 0 0 1-.402-1.069 1.477 1.477 0 0 1 .483-1.037 1.513 1.513 0 0 1 2.117.08s3.096 3.318 8.63 8.096a1.484 1.484 0 0 1-.133 2.365 1.5 1.5 0 0 1-.866.257h.03zm204.521-5.96a1.495 1.495 0 0 1-1.402-.959 1.483 1.483 0 0 1 .404-1.644c2.996-2.612 5.862-5.334 8.669-8.085a1.501 1.501 0 0 1 2.515 1.075c.005.386-.141.759-.408 1.04a235.5 235.5 0 0 1-8.789 8.196 1.467 1.467 0 0 1-1.029.417l.04-.04zm17.05-16.718a1.487 1.487 0 0 1-1.385-.881 1.478 1.478 0 0 1 .276-1.612 228.124 228.124 0 0 0 7.84-8.94 1.491 1.491 0 0 1 1.026-.585 1.49 1.49 0 0 1 1.132.336 1.487 1.487 0 0 1 .14 2.156 257.183 257.183 0 0 1-7.931 9.019 1.49 1.49 0 0 1-1.138.547l.04-.04zm15.381-18.248a1.466 1.466 0 0 1-.909-.308 1.475 1.475 0 0 1-.27-2.086 371.54 371.54 0 0 0 7.172-9.496 1.501 1.501 0 0 1 2.062-.282 1.486 1.486 0 0 1 .355 2.04c-2.597 3.527-4.994 6.646-7.222 9.556a1.488 1.488 0 0 1-1.228.616l.04-.04zm14.203-19.181a1.558 1.558 0 0 1-.869-.278 1.5 1.5 0 0 1-.608-.971 1.499 1.499 0 0 1 .258-1.115l.999-1.45a1393.32 1393.32 0 0 1 5.993-8.245 1.504 1.504 0 0 1 2.092-.333 1.487 1.487 0 0 1 .335 2.08 479.66 479.66 0 0 0-5.933 8.226l-1.049 1.46a1.49 1.49 0 0 1-1.258.666l.04-.04zm14.122-19.25a1.504 1.504 0 0 1-1.34-.831 1.478 1.478 0 0 1 .152-1.564c2.637-3.417 5.094-6.477 7.531-9.347a1.486 1.486 0 0 1 1.018-.527 1.504 1.504 0 0 1 1.46.797 1.481 1.481 0 0 1-.181 1.647 259.03 259.03 0 0 0-7.451 9.238 1.476 1.476 0 0 1-1.228.626l.039-.04zm15.482-18.17a1.494 1.494 0 0 1-1.388-.887 1.48 1.48 0 0 1 .289-1.615c2.817-2.98 5.733-5.752 8.669-8.374a1.505 1.505 0 0 1 2.053.167 1.486 1.486 0 0 1-.055 2.048 160.548 160.548 0 0 0-8.5 8.215 1.49 1.49 0 0 1-1.108.487l.04-.04zm17.798-15.892a1.5 1.5 0 0 1-1.424-1.008 1.49 1.49 0 0 1 .505-1.664 214.449 214.449 0 0 1 9.778-7.033 1.512 1.512 0 0 1 1.123-.233 1.493 1.493 0 0 1 .975 2.281 1.493 1.493 0 0 1-.41.415 196.654 196.654 0 0 0-9.638 6.953 1.495 1.495 0 0 1-.949.328l.04-.04zm19.796-13.41a1.483 1.483 0 0 1-1.278-.726 1.472 1.472 0 0 1-.172-1.128 1.495 1.495 0 0 1 .681-.918 237.448 237.448 0 0 1 10.507-5.89 1.508 1.508 0 0 1 2.028.625 1.488 1.488 0 0 1-.63 2.017 215.932 215.932 0 0 0-10.367 5.8 1.433 1.433 0 0 1-.809.26l.04-.04zm21.194-11.116a1.492 1.492 0 0 1-1.329-2.153c.151-.303.402-.545.71-.688a209.955 209.955 0 0 1 11.106-4.689 1.505 1.505 0 0 1 1.863.874 1.483 1.483 0 0 1-.774 1.898 224.217 224.217 0 0 0-10.987 4.629 1.5 1.5 0 0 1-.629.169l.04-.04zm22.303-8.702a1.501 1.501 0 0 1-1.466-1.253 1.486 1.486 0 0 1 .997-1.647 224.183 224.183 0 0 1 11.556-3.467 1.506 1.506 0 0 1 1.139.144 1.49 1.49 0 0 1-.35 2.737c-3.826.993-7.671 2.185-11.406 3.407-.162.069-.334.11-.51.119l.04-.04zm23.122-6.258a1.513 1.513 0 0 1-1.105-.327 1.495 1.495 0 0 1 .795-2.653c3.916-.844 7.901-1.59 11.856-2.215.397-.063.804.033 1.13.268a1.505 1.505 0 0 1 .339 2.107 1.518 1.518 0 0 1-.99.605c-3.905.626-7.84 1.36-11.705 2.185-.117.036-.238.06-.36.07l.04-.04zm23.631-3.745a1.503 1.503 0 0 1-1.578-1.41 1.492 1.492 0 0 1 1.418-1.57 207.37 207.37 0 0 1 12.046-.923 1.5 1.5 0 0 1 1.568 1.42c.009.196-.021.391-.087.575a1.503 1.503 0 0 1-1.341.985c-3.896.188-7.891.486-11.866.903l-.16.02zm17.599 8.543l10.847-9.337a1.99 1.99 0 0 0 .688-1.434 1.988 1.988 0 0 0-.588-1.477L437.263.441A1.493 1.493 0 0 0 436.199 0a1.505 1.505 0 0 0-1.063.44 1.485 1.485 0 0 0 0 2.107l9.388 9.327-9.988 8.642a1.487 1.487 0 0 0-.16 2.106 1.515 1.515 0 0 0 2.088.169v-.02z"/></symbol><symbol viewBox="0 0 351 328" id="arrow3" xmlns="http://www.w3.org/2000/svg"><path d="M348.142.505a2.003 2.003 0 0 0-1.332 1.1 67.878 67.878 0 0 1-8.689 12.915 1.995 1.995 0 0 0 .335 2.732c.395.327.901.49 1.415.457a2.03 2.03 0 0 0 1.347-.635 71.23 71.23 0 0 0 9.267-13.793 1.993 1.993 0 0 0-1.201-2.753 2.017 2.017 0 0 0-1.123-.027l-.019.004zm-159.195 55.62l-.339.087a2.021 2.021 0 0 0-1.237.922 1.998 1.998 0 0 0 .702 2.75c.46.27 1.009.349 1.528.216l.34-.086c4.7-1.2 9.834-2.27 15.268-3.162a2.027 2.027 0 0 0 1.253-.831 2.002 2.002 0 0 0-.449-2.74 2.022 2.022 0 0 0-1.453-.386c-5.507.911-10.763 2-15.613 3.23zm-15.654 5.058l-.266.068a84.134 84.134 0 0 0-14.641 7.571 2 2 0 0 0-.487 2.712c.284.427.722.73 1.224.843a2.017 2.017 0 0 0 1.472-.23 79.872 79.872 0 0 1 13.99-7.17 2.019 2.019 0 0 0 1.07-1.017 2 2 0 0 0-.851-2.6 2.025 2.025 0 0 0-1.465-.188l-.046.011zm47.068-10.36a2.023 2.023 0 0 0-1.169.867 1.997 1.997 0 0 0 .474 2.66c.398.305.896.45 1.397.408 4.895-.512 10.127-.934 15.985-1.312.513-.06.984-.314 1.315-.71a2.004 2.004 0 0 0-.171-2.756 2.018 2.018 0 0 0-1.393-.535c-5.916.383-11.194.817-16.137 1.33l-.301.049zm107.424-25.582a1.902 1.902 0 0 0-.793.417 91.321 91.321 0 0 1-12.876 9.045c-.426.285-.728.72-.844 1.217a1.997 1.997 0 0 0 1.384 2.374c.491.145 1.02.1 1.479-.13a94.002 94.002 0 0 0 13.455-9.455 1.999 1.999 0 0 0 .256-2.827 2.032 2.032 0 0 0-2.024-.65l-.037.01zm-75.236 23.39a2.025 2.025 0 0 0-1.164.84 1.998 1.998 0 0 0 .393 2.642c.38.314.863.479 1.358.462l.967-.043c5.468-.26 10.627-.507 15.16-.829a2.029 2.029 0 0 0 1.345-.705 2.004 2.004 0 0 0-.195-2.792 2.019 2.019 0 0 0-1.429-.506c-4.465.323-9.632.574-15.064.824l-.967.042c-.136.008-.272.03-.404.065zM146.965 79.12a2.026 2.026 0 0 0-1.045.655 49.012 49.012 0 0 0-8.431 14.348 2 2 0 0 0 1.217 2.47 2.027 2.027 0 0 0 2.553-1.07 45.176 45.176 0 0 1 7.742-13.18 1.988 1.988 0 0 0-.788-3.151 2.017 2.017 0 0 0-1.248-.073zm153.141-37.786l-.202.052a99.576 99.576 0 0 1-15.186 4.287 2.023 2.023 0 0 0-1.219.876 2 2 0 0 0 .546 2.72 2.02 2.02 0 0 0 1.462.336 104.042 104.042 0 0 0 15.787-4.46 2.02 2.02 0 0 0 1.069-1.004 1.997 1.997 0 0 0-.809-2.596 2.023 2.023 0 0 0-1.45-.22l.002.01zM135.63 108.514a2.025 2.025 0 0 0-1.493 1.811 78.487 78.487 0 0 0 .614 15.344l.151 1.05c.11.498.405.935.827 1.223a2.029 2.029 0 0 0 2.727-.417c.317-.401.47-.906.427-1.414-.079-.311-.097-.646-.123-.941a73.407 73.407 0 0 1-.59-14.562 1.988 1.988 0 0 0-.713-1.664 2.005 2.005 0 0 0-1.772-.405l-.055-.025zm5.255 31.254a1.57 1.57 0 0 0-.349.089 2.007 2.007 0 0 0-1.175 1.896c.009.263.071.521.182.76a61.125 61.125 0 0 0 8.875 13.884 2.008 2.008 0 0 0 1.38.792 2.022 2.022 0 0 0 2.252-1.869 1.99 1.99 0 0 0-.533-1.494 56.98 56.98 0 0 1-8.289-12.926 2.005 2.005 0 0 0-.962-.994 2.026 2.026 0 0 0-1.381-.138zm20.042 24.637a2.018 2.018 0 0 0-1.467 1.506 2 2 0 0 0 .676 1.982c3.715 3.058 7.863 6.131 13.082 9.641a2.03 2.03 0 0 0 2.687-.613 2.004 2.004 0 0 0-.425-2.707c-5.104-3.442-9.158-6.413-12.762-9.382a2.03 2.03 0 0 0-1.782-.43l-.009.003zm26.422 18.261a2.027 2.027 0 0 0-1.494 1.626 1.996 1.996 0 0 0 .896 2.008c4.599 2.92 9.075 5.782 13.396 8.763a2.014 2.014 0 0 0 1.545.4 2.025 2.025 0 0 0 1.675-1.592 2.005 2.005 0 0 0-.924-2.108c-4.378-3.014-8.892-5.906-13.515-8.848a2.033 2.033 0 0 0-1.57-.251l-.009.002zm26.241 18.512a2 2 0 0 0-1.031.633 1.992 1.992 0 0 0-.276 2.242c.123.237.292.448.498.619a86.689 86.689 0 0 1 11.015 11.121c.348.373.826.6 1.336.635a2.032 2.032 0 0 0 1.414-.446 1.999 1.999 0 0 0 .379-2.719 89.7 89.7 0 0 0-11.521-11.644 2.006 2.006 0 0 0-1.805-.443l-.009.002zm19.822 24.849a1.705 1.705 0 0 0-.367.094 1.998 1.998 0 0 0-1.044 1.135c-.09.248-.13.511-.118.775a2 2 0 0 0 .191.759 60.121 60.121 0 0 1 3.835 10.69c.334 1.305.674 2.638.884 3.994.098.522.401.983.841 1.282a2.02 2.02 0 0 0 2.797-.529 2 2 0 0 0 .317-1.5 66.994 66.994 0 0 0-.937-4.244 64.16 64.16 0 0 0-4.094-11.431 2.011 2.011 0 0 0-.967-.912 2.032 2.032 0 0 0-1.329-.115l-.009.002zM24.398 304.933a2.02 2.02 0 0 0-1.503 2.037c.02.459.2.896.506 1.239a2.01 2.01 0 0 0 1.177.645c5.317.83 10.7 1.614 15.997 2.332a2.03 2.03 0 0 0 1.422-.442c.4-.322.663-.784.733-1.291a1.998 1.998 0 0 0-1.605-2.239 904.93 904.93 0 0 1-15.914-2.314 1.956 1.956 0 0 0-.813.033zm215.07-47.77a2.006 2.006 0 0 0-1.486 1.839 44.552 44.552 0 0 1-3.251 14.911 1.995 1.995 0 0 0 .367 2.276 2.02 2.02 0 0 0 2.939-.056c.185-.203.327-.442.416-.701A48.51 48.51 0 0 0 242 259.191a1.997 1.997 0 0 0-.516-1.443 2.01 2.01 0 0 0-1.389-.657 2.174 2.174 0 0 0-.627.072zM56.347 309.267a2.024 2.024 0 0 0-1.12.773 2.004 2.004 0 0 0 .169 2.544c.32.338.748.555 1.211.613 5.42.62 10.833 1.181 16.073 1.671a2.028 2.028 0 0 0 1.397-.501c.385-.338.627-.809.677-1.317a1.995 1.995 0 0 0-.41-1.418 2.013 2.013 0 0 0-1.275-.753 757.961 757.961 0 0 1-15.992-1.662 1.913 1.913 0 0 0-.73.05zm32.104 2.954c-.468.113-.88.39-1.161.779a1.987 1.987 0 0 0 .231 2.599c.345.333.8.531 1.28.558a583.98 583.98 0 0 0 16.152.873 2.026 2.026 0 0 0 1.447-.53c.393-.36.626-.861.649-1.391a1.993 1.993 0 0 0-.528-1.439 2.012 2.012 0 0 0-1.397-.642 603.369 603.369 0 0 1-16.042-.862c-.212-.019-.425 0-.631.055zm138.872-26.118c-.37.095-.706.292-.97.569a56.093 56.093 0 0 1-12.175 9.566 2.015 2.015 0 0 0-.857 1.23 1.997 1.997 0 0 0 .233 1.476 2.01 2.01 0 0 0 1.194.904c.5.137 1.034.076 1.492-.169a60.394 60.394 0 0 0 13.025-10.26 2.009 2.009 0 0 0 .262-2.386 2.014 2.014 0 0 0-2.223-.925l.019-.005zm-106.669 27.354a2.02 2.02 0 0 0-1.143.819 1.998 1.998 0 0 0 .317 2.605c.358.323.821.507 1.305.518 5.555.04 11.01-.041 16.199-.248a2.02 2.02 0 0 0 1.816-1.301 1.988 1.988 0 0 0-.508-2.165 2.003 2.003 0 0 0-1.441-.536c-5.14.166-10.538.242-16.033.206a1.955 1.955 0 0 0-.512.102zm32.222-1.142a2.017 2.017 0 0 0-1.239.832 1.993 1.993 0 0 0 1.893 3.105 251.11 251.11 0 0 0 16.151-1.85 2.026 2.026 0 0 0 1.245-.818 2 2 0 0 0-.401-2.725 2.019 2.019 0 0 0-1.427-.422c-5.012.745-10.362 1.354-15.894 1.823l-.328.055zm47.28-9.451l-.202.051a131.432 131.432 0 0 1-15.201 4.535 2.017 2.017 0 0 0-1.499 2.42c.061.256.172.498.328.711.155.214.35.395.576.533a2.024 2.024 0 0 0 1.524.241 135.558 135.558 0 0 0 15.663-4.681c.469-.19.851-.548 1.068-1.004a2.003 2.003 0 0 0-.809-2.596 2.02 2.02 0 0 0-1.45-.219l.002.009zM26.212 327.652a2.002 2.002 0 0 1-1.002-.513L.717 303.717a1.994 1.994 0 0 1-.573-1.835 2.01 2.01 0 0 1 1.243-1.477L33.1 288.201a2.022 2.022 0 0 1 2.732 1.089 1.998 1.998 0 0 1-.563 2.245c-.21.18-.453.316-.717.399L5.805 303.04l22.204 21.197a1.986 1.986 0 0 1 .35 2.343 2.019 2.019 0 0 1-2.147 1.033v.039z"/></symbol><symbol viewBox="0 0 410 56" id="arrow4" xmlns="http://www.w3.org/2000/svg"><path d="M38.095 15.032l-2.241 1.244a1.435 1.435 0 0 0-.659.864 1.401 1.401 0 0 0 1.002 1.719 1.402 1.402 0 0 0 1.075-.165c3.197-1.86 6.54-3.63 9.94-5.163.342-.158.61-.444.742-.795a1.395 1.395 0 0 0-.827-1.808 1.428 1.428 0 0 0-1.085.047c-2.67 1.268-5.36 2.62-7.947 4.057zm-11.698 7.433l-.149.082a122.695 122.695 0 0 0-9.015 7.14 1.43 1.43 0 0 0-.487.969 1.397 1.397 0 0 0 .34 1.02 1.396 1.396 0 0 0 .97.474 1.434 1.434 0 0 0 1.03-.35c2.836-2.471 5.79-4.805 8.76-6.998.318-.2.545-.519.63-.883a1.393 1.393 0 0 0-1.062-1.678 1.432 1.432 0 0 0-1.07.188l.053.036zm30.087-15.63a1.435 1.435 0 0 0-.75.788 1.396 1.396 0 0 0 .81 1.817c.35.132.741.12 1.086-.035A117.966 117.966 0 0 1 68.38 6.27a1.435 1.435 0 0 0 1.076-1.15 1.395 1.395 0 0 0-.245-1.046 1.39 1.39 0 0 0-.92-.56 1.426 1.426 0 0 0-.551.023c-3.732.896-7.43 1.987-11.019 3.22a1.042 1.042 0 0 0-.238.078zM9.274 37.31a1.644 1.644 0 0 0-.336.25A159.336 159.336 0 0 0 1.3 46.075a1.41 1.41 0 0 0-.296 1.02c.038.364.219.697.502.929.284.231.648.342 1.016.31.368-.033.71-.207.953-.485a144.147 144.147 0 0 1 7.482-8.363c.233-.244.371-.562.39-.896a1.388 1.388 0 0 0-1.113-1.44 1.429 1.429 0 0 0-.969.145l.01.016zM78.498 1.542a1.429 1.429 0 0 0-.631.725 1.387 1.387 0 0 0 .57 1.697c.279.17.61.238.937.19 3.632-.53 7.388-.894 11.133-1.124a1.431 1.431 0 0 0 1.418-1.483 1.388 1.388 0 0 0-.981-1.265 1.419 1.419 0 0 0-.566-.055C86.541.444 82.71.83 78.99 1.376a1.405 1.405 0 0 0-.497.158l.005.008zM101.07.202c-.27.151-.485.386-.609.67a1.394 1.394 0 0 0 1.246 1.958c1.416.037 2.849.085 4.283.155 2.322.111 4.654.26 6.931.427a1.433 1.433 0 0 0 1.53-1.297 1.391 1.391 0 0 0-1.291-1.507 158.174 158.174 0 0 0-6.981-.4 172.35 172.35 0 0 0-4.4-.133c-.243-.02-.489.02-.713.118l.004.009zm22.554 1.662a1.42 1.42 0 0 0-.724 1.054 1.395 1.395 0 0 0 1.216 1.569c3.741.445 7.477.98 11.109 1.581a1.424 1.424 0 0 0 1.109-.197 1.434 1.434 0 0 0 .622-.937 1.386 1.386 0 0 0-.687-1.46 1.41 1.41 0 0 0-.546-.172c-3.675-.62-7.476-1.193-11.24-1.605a1.366 1.366 0 0 0-.889.173l.03-.006zm22.266 3.757c-.252.139-.456.35-.585.606a1.399 1.399 0 0 0 .219 1.58 1.4 1.4 0 0 0 .727.413c3.672.772 7.288 1.693 10.867 2.666.356.085.732.028 1.049-.157.318-.185.552-.485.653-.836a1.394 1.394 0 0 0-.923-1.715 222.18 222.18 0 0 0-11.017-2.701 1.39 1.39 0 0 0-1.042.13l.052.014zm21.744 5.915a1.42 1.42 0 0 0-.577.571 1.388 1.388 0 0 0 .132 1.536c.171.213.403.37.665.453a215.413 215.413 0 0 1 10.571 3.75 1.414 1.414 0 0 0 1.116.01 1.435 1.435 0 0 0 .784-.797 1.406 1.406 0 0 0-.035-1.108 1.386 1.386 0 0 0-.833-.729 243.098 243.098 0 0 0-10.682-3.774 1.407 1.407 0 0 0-1.192.074l.051.014zm21.062 7.94a1.4 1.4 0 0 0-.612.67 1.4 1.4 0 0 0-.023 1.076 1.38 1.38 0 0 0 .752.764 351.18 351.18 0 0 1 10.271 4.515 1.431 1.431 0 0 0 1.836-.716 1.389 1.389 0 0 0-.637-1.84c-3.76-1.707-7.168-3.17-10.34-4.541a1.415 1.415 0 0 0-1.298.058l.051.014zm20.513 9.25a1.478 1.478 0 0 0-.593.627 1.406 1.406 0 0 0-.059 1.078c.124.352.383.639.722.799l1.489.733c2.917 1.359 5.825 2.701 8.724 4.027a1.42 1.42 0 0 0 1.081.043c.353-.13.642-.392.803-.73a1.393 1.393 0 0 0-.673-1.865 450.339 450.339 0 0 1-8.666-4.039l-1.534-.719a1.425 1.425 0 0 0-1.346.03l.052.015zm20.477 9.343c-.23.128-.421.318-.55.547a1.388 1.388 0 0 0 .659 1.967c3.743 1.6 7.173 2.986 10.501 4.228a1.416 1.416 0 0 0 1.083-.035 1.445 1.445 0 0 0 .75-.785 1.387 1.387 0 0 0-.806-1.813 243.654 243.654 0 0 1-10.385-4.174 1.396 1.396 0 0 0-1.303.05l.051.015zm21.109 7.828a1.406 1.406 0 0 0-.744 1.367 1.376 1.376 0 0 0 .977 1.197c3.692 1.156 7.371 2.096 10.999 2.903a1.431 1.431 0 0 0 1.623-1.08 1.39 1.39 0 0 0-.981-1.659 151.186 151.186 0 0 1-10.785-2.851 1.421 1.421 0 0 0-1.14.109l.051.014zm21.988 4.894a1.43 1.43 0 0 0-.598.629 1.39 1.39 0 0 0 1.057 1.99c3.749.538 7.556.968 11.305 1.291a1.425 1.425 0 0 0 1.036-.324 1.43 1.43 0 0 0 .509-.955 1.395 1.395 0 0 0-.316-1.026 1.394 1.394 0 0 0-.956-.496 186.326 186.326 0 0 1-11.153-1.29 1.42 1.42 0 0 0-.935.166l.051.014zm22.509 1.933a1.394 1.394 0 0 0-.727 1.184 1.385 1.385 0 0 0 .818 1.325c.169.076.351.118.537.123a225.3 225.3 0 0 0 11.387.017c.376-.01.734-.168.995-.44a1.42 1.42 0 0 0 .398-1.006 1.388 1.388 0 0 0-.432-.984 1.407 1.407 0 0 0-1.009-.385c-3.72.098-7.516.1-11.231-.008a1.361 1.361 0 0 0-.787.16l.051.014zm22.619-.596a1.43 1.43 0 0 0-.62.703 1.388 1.388 0 0 0 .502 1.678c.264.18.582.264.902.24A199.19 199.19 0 0 0 330.03 53.5c.356-.07.672-.271.885-.564.212-.292.305-.654.258-1.01a1.383 1.383 0 0 0-.508-.903 1.412 1.412 0 0 0-.998-.302c-3.7.504-7.454.931-11.208 1.24a1.43 1.43 0 0 0-.598.151l.051.014zm22.435-3.091a1.424 1.424 0 0 0-.633.738 1.387 1.387 0 0 0 .612 1.702c.288.165.627.222.956.16 3.705-.71 7.46-1.543 11.149-2.457.366-.091.681-.322.878-.643.196-.32.257-.704.169-1.066a1.387 1.387 0 0 0-.637-.865 1.419 1.419 0 0 0-1.071-.158c-3.621.94-7.348 1.727-10.998 2.438a1.437 1.437 0 0 0-.476.136l.051.015zm21.998-5.477a1.436 1.436 0 0 0-.765.777 1.4 1.4 0 0 0 .78 1.833c.35.138.741.132 1.089-.017a208.085 208.085 0 0 0 10.825-3.625c.358-.13.651-.397.813-.74a1.409 1.409 0 0 0-.681-1.889 1.439 1.439 0 0 0-1.095-.042 221.998 221.998 0 0 1-10.688 3.58c-.113.025-.224.061-.329.109l.051.014zm21.272-7.777a1.436 1.436 0 0 0-.723.81 1.39 1.39 0 0 0 .869 1.785c.354.12.744.094 1.082-.071a197.966 197.966 0 0 0 10.394-4.775 1.434 1.434 0 0 0 .717-.814 1.394 1.394 0 0 0-1.428-1.846 1.436 1.436 0 0 0-.534.145 203.123 203.123 0 0 1-10.235 4.709l-.142.057zm10.67-15.111l13.242 2.695a1.868 1.868 0 0 1 1.224.863 1.852 1.852 0 0 1 .187 1.485l-3.799 12.954a1.439 1.439 0 0 1-.68.85 1.432 1.432 0 0 1-1.082.127 1.394 1.394 0 0 1-.961-1.732l3.515-11.984-12.212-2.518a1.394 1.394 0 0 1-1.094-1.659 1.44 1.44 0 0 1 1.651-1.098l.009.017z"/></symbol><symbol viewBox="0 0 246 206" id="tg" xmlns="http://www.w3.org/2000/svg"><path d="M229.395 1.355L11.487 85.257C-3.385 91.22-3.3 99.504 8.758 103.198l55.946 17.426 129.443-81.546c6.12-3.718 11.712-1.718 7.116 2.356L96.389 135.94h-.025l.025.013-3.86 57.579c5.654 0 8.149-2.589 11.32-5.645l27.174-26.384 56.524 41.687c10.422 5.731 17.907 2.786 20.5-9.633l37.105-174.604c3.797-15.205-5.814-22.089-15.757-17.598z"/></symbol></svg>