<?xml version="1.0" encoding="utf-8"?><svg xmlns="http://www.w3.org/2000/svg" xmlns:xlink="http://www.w3.org/1999/xlink"><symbol viewBox="0 0 190 120" id="arrow1" xmlns="http://www.w3.org/2000/svg"><path d="M189.063 0a.919.919 0 0 0-.718.338 31.156 31.156 0 0 1-5.33 4.765.92.92 0 0 0 .416 1.62.93.93 0 0 0 .671-.13 32.73 32.73 0 0 0 5.687-5.09.918.918 0 0 0-.718-1.503h-.008zm-77.105 6.662h-.161a.928.928 0 0 0-.926.923.928.928 0 0 0 .926.923h.161c2.226 0 4.631.108 7.148.329a.925.925 0 0 0 .964-.842.922.922 0 0 0-.803-.995 87.225 87.225 0 0 0-7.309-.338zm-7.536.473h-.126a38.527 38.527 0 0 0-7.37 1.706.92.92 0 0 0-.524 1.153.919.919 0 0 0 1.129.58 36.595 36.595 0 0 1 7.035-1.603.926.926 0 0 0 .798-.975.923.923 0 0 0-.92-.861h-.022zm22.106.74a.927.927 0 0 0-.904.855.925.925 0 0 0 .769.977c2.235.33 4.609.737 7.257 1.235a.93.93 0 0 0 1.034-.743.922.922 0 0 0-.69-1.067c-2.674-.503-5.07-.91-7.327-1.244l-.139-.013zm50.673.828a.873.873 0 0 0-.4.095 41.874 41.874 0 0 1-6.753 2.564.927.927 0 0 0-.513.447.921.921 0 0 0 .346 1.215c.201.12.442.16.672.11a43.09 43.09 0 0 0 7.057-2.681.922.922 0 0 0 .435-1.23.938.938 0 0 0-.826-.52h-.018zM141.09 10.56a.93.93 0 0 0-.909.829.922.922 0 0 0 .722.995l.435.09c2.461.508 4.783.984 6.835 1.357a.928.928 0 0 0 1.051-.748.918.918 0 0 0-.72-1.067c-2.022-.364-4.348-.84-6.792-1.348l-.435-.09a.918.918 0 0 0-.187-.018zm-50.412 1.568a.929.929 0 0 0-.54.173 22.51 22.51 0 0 0-5.378 5.433.92.92 0 0 0 .261 1.239.928.928 0 0 0 1.257-.187 20.742 20.742 0 0 1 4.94-4.99.919.919 0 0 0 .344-1.031.918.918 0 0 0-.884-.637zm72.387.594h-.095a45.637 45.637 0 0 1-7.24.182.921.921 0 0 0-.095 1.841c2.509.134 5.026.07 7.526-.191a.924.924 0 0 0 .524-1.574.927.927 0 0 0-.62-.263v.005zm-80.766 11.21a.929.929 0 0 0-.87.637 36.14 36.14 0 0 0-1.469 6.905l-.052.485a.92.92 0 0 0 .834.95.928.928 0 0 0 1.005-.768c0-.147.03-.299.052-.433.246-2.225.712-4.42 1.392-6.554a.915.915 0 0 0-.453-1.102.925.925 0 0 0-.417-.102l-.022-.018zm-1.213 14.52a.713.713 0 0 0-.165 0 .924.924 0 0 0-.738.711.916.916 0 0 0-.006.36 28.143 28.143 0 0 0 2.37 7.195.924.924 0 0 0 .892.57.931.931 0 0 0 .846-.637.92.92 0 0 0-.068-.726 26.226 26.226 0 0 1-2.218-6.701.921.921 0 0 0-.913-.771zM87.2 51.71a.929.929 0 0 0-.824.504.92.92 0 0 0 .076.96c1.304 1.785 2.8 3.626 4.722 5.783a.928.928 0 0 0 1.572-.57.92.92 0 0 0-.19-.651c-1.878-2.114-3.343-3.899-4.608-5.632a.925.925 0 0 0-.744-.394H87.2zm9.674 11.142a.93.93 0 0 0-.849.554.92.92 0 0 0 .17.996c1.714 1.824 3.38 3.609 4.962 5.428a.926.926 0 0 0 1.598-.894.938.938 0 0 0-.202-.314c-1.605-1.841-3.283-3.643-5.005-5.48a.935.935 0 0 0-.67-.29h-.004zm9.566 11.232a.912.912 0 0 0-.53.165.911.911 0 0 0-.388.602.934.934 0 0 0 .161.697 39.782 39.782 0 0 1 3.635 6.208.928.928 0 0 0 1.672-.093.923.923 0 0 0 .007-.678 41.306 41.306 0 0 0-3.8-6.498.926.926 0 0 0-.753-.403h-.004zm5.992 13.325a.79.79 0 0 0-.174 0 .914.914 0 0 0-.593.387.915.915 0 0 0-.142.691c.327 1.714.492 3.454.491 5.199 0 .62 0 1.251-.061 1.88a.92.92 0 0 0 .863.977.923.923 0 0 0 .981-.86c.043-.667.065-1.339.065-1.997a29.53 29.53 0 0 0-.522-5.558.927.927 0 0 0-.904-.72h-.004zM10.529 98.775a.928.928 0 0 0-.9.736.92.92 0 0 0 .535 1.031c2.27.975 4.574 1.936 6.848 2.859a.931.931 0 0 0 1.155-.527.92.92 0 0 0-.459-1.18 410.414 410.414 0 0 1-6.813-2.841.907.907 0 0 0-.366-.078zm101.059 3.192a.91.91 0 0 0-.869.65 20.49 20.49 0 0 1-3.14 6.272.917.917 0 0 0-.095 1.056.927.927 0 0 0 1.578.045 22.334 22.334 0 0 0 3.422-6.832.92.92 0 0 0-.896-1.191zm-87.345 2.374a.924.924 0 0 0-.8 1.369c.105.187.27.333.47.411 2.34.893 4.683 1.759 6.957 2.573a.923.923 0 0 0 .626-1.732 348.697 348.697 0 0 1-6.922-2.56.869.869 0 0 0-.33-.061zm13.94 4.969a.92.92 0 0 0-.921.771.918.918 0 0 0 .63 1.022c2.4.793 4.783 1.538 7.083 2.227a.926.926 0 0 0 1.15-.618.918.918 0 0 0-.62-1.146 276.762 276.762 0 0 1-7.035-2.209.825.825 0 0 0-.287-.047zm64.718 4.167a.933.933 0 0 0-.496.143 25.75 25.75 0 0 1-6.5 2.876.92.92 0 0 0-.157 1.673.925.925 0 0 0 .683.094 27.683 27.683 0 0 0 6.957-3.088.93.93 0 0 0 .365-.453.914.914 0 0 0 .022-.58.927.927 0 0 0-.883-.665h.009zm-50.538.047a.923.923 0 0 0-.235 1.811c2.465.65 4.9 1.235 7.23 1.733a.93.93 0 0 0 .956-.373.917.917 0 0 0-.23-1.281.93.93 0 0 0-.33-.144 188.874 188.874 0 0 1-7.152-1.733.958.958 0 0 0-.24-.013zm14.457 3.158a.926.926 0 0 0-.954.84.916.916 0 0 0 .797.988c2.553.434 5.04.771 7.392 1.014a.924.924 0 0 0 .778-1.482.927.927 0 0 0-.586-.35 117.3 117.3 0 0 1-7.275-.997l-.152-.013zm22.097 1.17h-.096c-2.416.243-4.846.34-7.274.29a.92.92 0 0 0-.66.26.92.92 0 0 0 .63 1.586 62.13 62.13 0 0 0 7.496-.304.92.92 0 0 0-.096-1.836v.004zm-80.162-8.75a.92.92 0 0 1-.387-.343l-8.23-13.22a.92.92 0 0 1 .673-1.4L16.3 92.311a.93.93 0 0 1 .971.441.92.92 0 0 1-.385 1.291.929.929 0 0 1-.364.096L2.477 95.817l7.465 11.969a.915.915 0 0 1-.61 1.367.922.922 0 0 1-.572-.068l-.005.018z"/></symbol></svg>